%FSLAX66Y66*%
%MOIN*%
%SFA1B1*%

%IPPOS*%
%AMD22*
4,1,8,0.000000,-0.033500,0.000000,-0.033500,0.021700,-0.011800,0.021700,0.011800,0.000000,0.033500,0.000000,0.033500,-0.021700,0.011800,-0.021700,-0.011800,0.000000,-0.033500,0.0*
1,1,0.043307,0.000000,-0.011800*
1,1,0.043307,0.000000,-0.011800*
1,1,0.043307,0.000000,0.011800*
1,1,0.043307,0.000000,0.011800*
%
G04~CAMADD=22~8~0.0~0.0~433.1~669.3~216.5~0.0~15~0.0~0.0~0.0~0.0~0~0.0~0.0~0.0~0.0~0~0.0~0.0~0.0~180.0~434.0~669.0*
%ADD22D22*%
%ADD23O,0.086740X0.070992*%
%ADD24R,0.086740X0.070992*%
%ADD25C,0.057212*%
%ADD26R,0.057212X0.057212*%
%ADD27R,0.067055X0.067055*%
%ADD28C,0.067055*%
%ADD29R,0.070008X0.070008*%
%ADD30C,0.070008*%
%ADD31C,0.068000*%
%ADD32R,0.057212X0.057212*%
%ADD33C,0.055244*%
%ADD34C,0.084771*%
%ADD35R,0.084771X0.084771*%
%ADD36R,0.096582X0.096582*%
%ADD37C,0.096582*%
%ADD38R,0.084771X0.084771*%
%ADD39C,0.058000*%
%LNplatine-1*%
%LPD*%
G36*
X3591074Y3626023D02*
X3591590Y3625921D01*
X3592086Y3625751*
X3592555Y3625519*
X3592992Y3625228*
X3593385Y3624881*
X3624881Y3593385*
X3625228Y3592992*
X3625519Y3592555*
X3625751Y3592086*
X3625921Y3591590*
X3626023Y3591074*
X3626055Y3590551*
Y3496062*
X3626023Y3495539*
X3625921Y3495027*
X3625751Y3494527*
X3625519Y3494059*
X3625228Y3493622*
X3624881Y3493228*
X3593385Y3461732*
X3592992Y3461385*
X3592555Y3461094*
X3592086Y3460862*
X3591590Y3460692*
X3591074Y3460590*
X3590551Y3460559*
X3496062*
X3495539Y3460590*
X3495027Y3460692*
X3494527Y3460862*
X3494059Y3461094*
X3493622Y3461385*
X3493228Y3461732*
X3461732Y3493228*
X3461385Y3493622*
X3461094Y3494059*
X3460862Y3494527*
X3460692Y3495027*
X3460590Y3495539*
X3460559Y3496062*
Y3590551*
X3460590Y3591074*
X3460692Y3591590*
X3460862Y3592086*
X3461094Y3592555*
X3461385Y3592992*
X3461732Y3593385*
X3493228Y3624881*
X3493622Y3625228*
X3494059Y3625519*
X3494527Y3625751*
X3495027Y3625921*
X3495539Y3626023*
X3496062Y3626055*
X3590551*
X3591074Y3626023*
G37*
G36*
X441468D02*
X441984Y3625921D01*
X442480Y3625751*
X442948Y3625519*
X443385Y3625228*
X443779Y3624881*
X475275Y3593385*
X475622Y3592992*
X475913Y3592555*
X476145Y3592086*
X476311Y3591590*
X476417Y3591074*
X476448Y3590551*
Y3496062*
X476417Y3495539*
X476311Y3495027*
X476145Y3494527*
X475913Y3494059*
X475622Y3493622*
X475275Y3493228*
X443779Y3461732*
X443385Y3461385*
X442948Y3461094*
X442480Y3460862*
X441984Y3460692*
X441468Y3460590*
X440944Y3460559*
X346456*
X345933Y3460590*
X345421Y3460692*
X344921Y3460862*
X344452Y3461094*
X344015Y3461385*
X343622Y3461732*
X312125Y3493228*
X311779Y3493622*
X311488Y3494059*
X311255Y3494527*
X311086Y3495027*
X310988Y3495539*
X310952Y3496062*
Y3590551*
X310988Y3591074*
X311086Y3591590*
X311255Y3592086*
X311488Y3592555*
X311779Y3592992*
X312125Y3593385*
X343622Y3624881*
X344015Y3625228*
X344452Y3625519*
X344921Y3625751*
X345421Y3625921*
X345933Y3626023*
X346456Y3626055*
X440944*
X441468Y3626023*
G37*
G36*
X2803673Y279562D02*
X2804185Y279464D01*
X2804685Y279295*
X2805153Y279062*
X2805590Y278771*
X2805984Y278425*
X2837480Y246929*
X2837826Y246535*
X2838118Y246098*
X2838350Y245629*
X2838519Y245133*
X2838622Y244618*
X2838653Y244094*
Y149606*
X2838622Y149082*
X2838519Y148566*
X2838350Y148070*
X2838118Y147602*
X2837826Y147165*
X2837480Y146771*
X2805984Y115275*
X2805590Y114929*
X2805153Y114637*
X2804685Y114405*
X2804185Y114236*
X2803673Y114133*
X2803149Y114102*
X2708661*
X2708137Y114133*
X2707622Y114236*
X2707125Y114405*
X2706657Y114637*
X2706220Y114929*
X2705826Y115275*
X2674330Y146771*
X2673984Y147165*
X2673692Y147602*
X2673460Y148070*
X2673291Y148566*
X2673188Y149082*
X2673157Y149606*
Y244094*
X2673188Y244618*
X2673291Y245133*
X2673460Y245629*
X2673692Y246098*
X2673984Y246535*
X2674330Y246929*
X2705826Y278425*
X2706220Y278771*
X2706657Y279062*
X2707125Y279295*
X2707622Y279464*
X2708137Y279562*
X2708661Y279598*
X2803149*
X2803673Y279562*
G37*
G36*
X1032019D02*
X1032535Y279464D01*
X1033031Y279295*
X1033500Y279062*
X1033937Y278771*
X1034330Y278425*
X1065826Y246929*
X1066173Y246535*
X1066464Y246098*
X1066696Y245629*
X1066866Y245133*
X1066968Y244618*
X1067000Y244094*
Y149606*
X1066968Y149082*
X1066866Y148566*
X1066696Y148070*
X1066464Y147602*
X1066173Y147165*
X1065826Y146771*
X1034330Y115275*
X1033937Y114929*
X1033500Y114637*
X1033031Y114405*
X1032535Y114236*
X1032019Y114133*
X1031496Y114102*
X937007*
X936484Y114133*
X935968Y114236*
X935472Y114405*
X935003Y114637*
X934566Y114929*
X934173Y115275*
X902677Y146771*
X902330Y147165*
X902039Y147602*
X901807Y148070*
X901637Y148566*
X901535Y149082*
X901503Y149606*
Y244094*
X901535Y244618*
X901637Y245133*
X901807Y245629*
X902039Y246098*
X902330Y246535*
X902677Y246929*
X934173Y278425*
X934566Y278771*
X935003Y279062*
X935472Y279295*
X935968Y279464*
X936484Y279562*
X937007Y279598*
X1031496*
X1032019Y279562*
G37*
G54D22*
X3270078Y3681889D03*
X2929921D03*
X3270078Y3831496D03*
X2929921D03*
G54D23*
X2025000Y325000D03*
Y425000D03*
Y525000D03*
Y625000D03*
Y725000D03*
Y825000D03*
Y925000D03*
Y1025000D03*
Y1125000D03*
Y1225000D03*
Y1325000D03*
Y1425000D03*
Y1525000D03*
Y1625000D03*
X1425000Y325000D03*
Y425000D03*
Y525000D03*
Y625000D03*
Y725000D03*
Y825000D03*
Y925000D03*
Y1025000D03*
Y1125000D03*
Y1225000D03*
Y1325000D03*
Y1425000D03*
Y1525000D03*
Y1625000D03*
G54D24*
X2025000Y1725000D03*
X1425000D03*
G54D25*
X2150000Y2500000D03*
X1750000Y2503149D03*
Y2700000D03*
X1498425Y2450000D03*
X1301574D03*
X2896850Y3000000D03*
G54D26*
X2150000Y2696850D03*
G54D27*
X900000Y2600000D03*
G54D28*
X950000Y2800000D03*
X1000000Y2600000D03*
X1050000Y2800000D03*
X1100000Y2600000D03*
X1150000Y2800000D03*
X1200000Y2600000D03*
X1250000Y2800000D03*
X1300000Y2600000D03*
X1350000Y2800000D03*
X1400000Y2600000D03*
X1450000Y2800000D03*
X1500000Y2600000D03*
X1550000Y2800000D03*
X1600000Y2600000D03*
G54D29*
X1430118Y3300000D03*
X1550000Y3400000D03*
X900000Y3150000D03*
X1630118D03*
X700000Y3300000D03*
G54D30*
X875000Y3300000D03*
X2105118Y3400000D03*
X344881Y3150000D03*
X1075000D03*
X144881Y3300000D03*
G54D31*
X2700000Y3100000D03*
Y3690551D03*
X3200000Y2859448D03*
Y3450000D03*
X3050000Y2859448D03*
Y3450000D03*
X1950000Y3190551D03*
Y2600000D03*
X2740551Y2850000D03*
X2150000D03*
X2450000Y2109448D03*
Y2700000D03*
X659448Y650000D03*
X1250000D03*
X659448Y475000D03*
X1250000D03*
G54D32*
X2700000Y3000000D03*
G54D33*
X1950000Y2398425D03*
Y2300000D03*
G54D34*
X803149Y3600000D03*
X3575000Y450000D03*
G54D35*
X1000000Y3600000D03*
G54D36*
X350000Y2250000D03*
Y1450000D03*
Y650000D03*
X3575000Y1650000D03*
Y850000D03*
G54D37*
X350000Y2050000D03*
Y1850000D03*
Y1250000D03*
Y1050000D03*
Y450000D03*
Y250000D03*
X3575000Y1850000D03*
Y2050000D03*
Y1050000D03*
Y1250000D03*
G54D38*
X3575000Y253149D03*
G54D39*
X2400000Y3100000D03*
M02*