%FSLAX66Y66*%
%MOIN*%
%SFA1B1*%

%IPPOS*%
%ADD10C,0.009843*%
%ADD11C,0.007874*%
%ADD12C,0.003937*%
%ADD13C,0.010000*%
%ADD14C,0.015000*%
%ADD15C,0.020000*%
%ADD16C,0.007500*%
%LNplatine-1*%
%LPD*%
G36*
X2899070Y1485114D02*
X2899334Y1484846D01*
X2899228Y1449692*
X2898964Y1449429*
X2863811Y1449535*
X2863543Y1449803*
X2863649Y1484952*
X2863917Y1485220*
X2888311*
X2899070Y1485114*
G37*
G36*
X2720114D02*
X2720381Y1484846D01*
X2720275Y1413905*
X2720007Y1413637*
X2684854Y1413744*
X2684590Y1414011*
X2684484Y1449161*
X2684322Y1449322*
X2683897Y1449429*
X2649066Y1449322*
X2648799Y1449055*
X2648692Y1413905*
X2648425Y1413637*
X2613275Y1413531*
X2613007Y1413263*
X2613114Y1378114*
X2613381Y1377846*
X2648531Y1377740*
X2648799Y1377472*
X2648692Y1342322*
X2648425Y1342055*
X2577484Y1341948*
X2577216Y1341681*
X2577271Y1270472*
X2613007Y1270421*
X2613059Y1234681*
X2648531Y1234787*
X2648799Y1235055*
X2648692Y1270208*
X2648531Y1270366*
X2648106Y1270472*
X2613007Y1270527*
X2613114Y1306000*
X2613381Y1306263*
X2684322Y1306157*
X2684590Y1305889*
X2684696Y1199157*
X2684964Y1198889*
X2720114Y1198996*
X2720381Y1199263*
X2720326Y1342055*
X2684854Y1342161*
X2684590Y1342429*
X2684696Y1377578*
X2684964Y1377846*
X2720114Y1377740*
X2720381Y1377472*
X2720433Y1342055*
X2755905Y1341948*
X2756173Y1341681*
X2756279Y1199157*
X2756543Y1198889*
X2791696Y1198996*
X2791964Y1199263*
X2791854Y1377578*
X2791696Y1377740*
X2791271Y1377846*
X2756437Y1377952*
X2756173Y1378220*
X2756279Y1413370*
X2756543Y1413637*
X2791696Y1413744*
X2791964Y1414011*
X2792070Y1449161*
X2792334Y1449429*
X2827488Y1449322*
X2827755Y1449055*
X2827862Y1378114*
X2828125Y1377846*
X2863279Y1377952*
X2863543Y1378220*
X2863649Y1413370*
X2863917Y1413637*
X2899070Y1413531*
X2899334Y1413263*
X2899389Y1342055*
X2934858Y1342161*
X2935125Y1342429*
X2935232Y1449161*
X2935500Y1449429*
X2970653Y1449322*
X2970917Y1449055*
X2970972Y1198889*
X3042232Y1198783*
X3042500Y1198519*
X3042551Y1163098*
X3114082Y1163047*
X3114133Y1091519*
X3149606Y1091413*
X3149874Y1091145*
X3149767Y1055992*
X3149500Y1055728*
X3114346Y1055834*
X3114082Y1056098*
X3114027Y1091519*
X3078559Y1091625*
X3078291Y1091889*
X3078185Y1127043*
X3078023Y1127204*
X3077598Y1127311*
X3042763Y1127417*
X3042500Y1127681*
X3042444Y1163098*
X3006976Y1162996*
X3006708Y1162728*
X3006602Y1127574*
X3006334Y1127311*
X2971185Y1127417*
X2970917Y1127681*
X2970866Y1198889*
X2935393Y1198783*
X2935125Y1198519*
X2935019Y1127574*
X2934751Y1127311*
X2899602Y1127417*
X2899334Y1127681*
X2899228Y1162834*
X2899070Y1162996*
X2898641Y1163098*
X2792228Y1162996*
X2791964Y1162728*
X2792070Y1127574*
X2792334Y1127311*
X2827488Y1127204*
X2827755Y1126937*
X2827862Y1020204*
X2828125Y1019937*
X2863279Y1020043*
X2863543Y1020311*
X2863649Y1055460*
X2863917Y1055728*
X2899334Y1055673*
X2899228Y984413*
X2898964Y984145*
X2863811Y984039*
X2863543Y983771*
X2863437Y948622*
X2863173Y948354*
X2828019Y948460*
X2827755Y948728*
X2827645Y983877*
X2827488Y984039*
X2827062Y984145*
X2792228Y984039*
X2791964Y983771*
X2791854Y948622*
X2791590Y948354*
X2613275Y948460*
X2613007Y948728*
X2612901Y1019669*
X2612740Y1019830*
X2612314Y1019937*
X2577484Y1019830*
X2577216Y1019562*
X2577110Y984413*
X2576842Y984145*
X2541425Y984196*
X2541374Y1055728*
X2505901Y1055834*
X2505633Y1056098*
X2505582Y1091519*
X2434055Y1091570*
X2434000Y1127311*
X2398263Y1127362*
X2398370Y1162834*
X2398633Y1163098*
X2434055Y1163047*
X2434106Y1127311*
X2469578Y1127417*
X2469842Y1127681*
X2469791Y1163098*
X2434055Y1163153*
X2434157Y1198625*
X2434425Y1198889*
X2469578Y1198783*
X2469842Y1198519*
X2469897Y1163098*
X2505370Y1163208*
X2505633Y1163472*
X2505740Y1270208*
X2506007Y1270472*
X2541425Y1270421*
X2541318Y1127574*
X2541051Y1127311*
X2505901Y1127204*
X2505633Y1126937*
X2505688Y1091519*
X2541157Y1091413*
X2541425Y1091145*
X2541480Y1055728*
X2612740Y1055834*
X2613007Y1056098*
X2613114Y1091251*
X2613381Y1091519*
X2684590Y1091464*
X2684696Y984413*
X2684964Y984145*
X2755905Y984251*
X2756173Y984519*
Y1054287*
Y1054397*
X2756279Y1055460*
X2756543Y1055728*
X2791696Y1055834*
X2791964Y1056098*
X2791854Y1091251*
X2791696Y1091413*
X2791271Y1091519*
X2684590Y1091570*
X2684484Y1162834*
X2684322Y1162996*
X2683897Y1163098*
X2649066Y1162996*
X2648799Y1162728*
X2648692Y1127574*
X2648425Y1127311*
X2613275Y1127417*
X2613007Y1127681*
X2612952Y1234681*
X2577484Y1234787*
X2577216Y1235055*
X2577165Y1270472*
X2541425Y1270527*
X2541318Y1341787*
X2541157Y1341948*
X2540732Y1342055*
X2505901Y1342161*
X2505633Y1342429*
X2505740Y1449161*
X2506007Y1449429*
X2541157Y1449322*
X2541425Y1449055*
X2541531Y1413905*
X2541799Y1413637*
X2576952Y1413744*
X2577216Y1414011*
X2577322Y1449161*
X2577590Y1449429*
X2612740Y1449535*
X2613007Y1449803*
X2613114Y1484952*
X2613381Y1485220*
X2720114Y1485114*
G37*
G36*
X3175173D02*
X3178791Y1485007D01*
X3179114Y1484897*
X3180602Y1484791*
X3180921Y1484685*
X3181830Y1484527*
X3183267Y1484366*
X3184011Y1484259*
X3185771Y1484102*
X3186940Y1483889*
X3187476Y1483779*
X3188059Y1483622*
X3189338Y1483303*
X3190401Y1483196*
X3190830Y1483090*
X3191736Y1482929*
X3192905Y1482503*
X3193492Y1482342*
X3193917Y1482236*
X3194665Y1482129*
X3195358Y1481972*
X3195783Y1481862*
X3196901Y1481385*
X3197751Y1481169*
X3198444Y1481011*
X3198874Y1480905*
X3200098Y1480318*
X3200948Y1480106*
X3201641Y1479944*
X3202972Y1479255*
X3203826Y1479039*
X3204519Y1478775*
X3205157Y1478346*
X3206062Y1478082*
X3207074Y1477708*
X3207232Y1477551*
X3207444Y1477444*
X3208405Y1477015*
X3209098Y1476751*
X3209897Y1476165*
X3210641Y1475952*
X3211389Y1475527*
X3211602Y1475311*
X3212346Y1474992*
X3212771Y1474885*
X3213358Y1474409*
X3214051Y1474035*
X3214744Y1473767*
X3215118Y1473500*
X3215437Y1473181*
X3215968Y1472968*
X3216712Y1472543*
X3216929Y1472330*
X3217141Y1472224*
X3218098Y1471692*
X3218472Y1471425*
X3218523Y1471263*
X3218740Y1471157*
X3219696Y1470625*
X3220283Y1470145*
X3220440Y1469988*
X3221401Y1469452*
X3221826Y1469027*
X3222039Y1468921*
X3222787Y1468389*
X3223000Y1468177*
X3223212Y1468070*
X3223425Y1467858*
X3224169Y1467429*
X3224704Y1466897*
X3224917Y1466791*
X3225503Y1466311*
X3225874Y1465940*
X3226086Y1465830*
X3226673Y1465354*
X3227153Y1464874*
X3227366Y1464767*
X3227578Y1464555*
X3227791Y1464448*
X3228059Y1464074*
X3228433Y1463807*
X3229015Y1463330*
X3229496Y1462850*
X3229708Y1462744*
X3230133Y1462318*
X3230295Y1462263*
X3230401Y1462051*
X3230775Y1461677*
X3230988Y1461570*
X3232161Y1460401*
X3232374Y1460291*
X3232637Y1459921*
X3234661Y1457897*
X3234767Y1457685*
X3235622Y1456830*
X3235728Y1456618*
X3235940Y1456405*
X3236047Y1456192*
X3236791Y1455444*
X3236901Y1455232*
X3237114Y1455019*
X3237220Y1454807*
X3237590Y1454543*
X3238019Y1453901*
X3238712Y1453208*
X3238818Y1452996*
X3239295Y1452409*
X3239669Y1452039*
X3239775Y1451826*
X3240307Y1451078*
X3240629Y1450759*
X3240736Y1450547*
X3241161Y1449803*
X3241799Y1449161*
X3242330Y1448204*
X3242653Y1447988*
X3243397Y1446606*
X3243822Y1446177*
X3244090Y1445488*
X3244251Y1445326*
X3244358Y1445114*
X3244783Y1444688*
X3244996Y1444153*
X3245421Y1443409*
X3245740Y1443090*
X3246059Y1442346*
X3246488Y1441598*
X3246807Y1441279*
X3247019Y1440748*
X3247125Y1440318*
X3247657Y1439574*
X3248086Y1438618*
X3248299Y1438082*
X3248937Y1437125*
X3249043Y1436696*
X3249311Y1436007*
X3249736Y1435366*
X3250000Y1434783*
X3250110Y1434354*
X3250374Y1433661*
X3250803Y1433023*
X3251066Y1432118*
X3251173Y1431692*
X3251440Y1431000*
X3251704Y1430625*
X3252027Y1429881*
X3252133Y1429456*
X3252291Y1428763*
X3252503Y1428232*
X3252984Y1427110*
X3253196Y1426259*
X3253358Y1425566*
X3253570Y1425035*
X3253944Y1424129*
X3254157Y1423275*
X3254314Y1422263*
X3254421Y1421838*
X3254740Y1420988*
X3255007Y1420082*
X3255114Y1419653*
X3255275Y1418429*
X3255381Y1417791*
X3255700Y1416511*
X3255862Y1415929*
X3255968Y1415500*
X3256074Y1414755*
X3256181Y1414330*
X3256338Y1412358*
X3256444Y1411401*
X3256657Y1410122*
X3256767Y1409590*
X3256874Y1408948*
X3256980Y1407992*
X3257086Y1406712*
X3257192Y1404476*
X3257244Y1315480*
X3257137Y1315157*
X3257031Y1312177*
X3256925Y1311858*
X3256818Y1310366*
X3256712Y1310047*
X3256500Y1308767*
X3256393Y1308023*
X3256125Y1305413*
X3256019Y1304771*
X3255913Y1304240*
X3255700Y1303389*
X3255543Y1302803*
X3255381Y1302110*
X3255275Y1301472*
X3255062Y1300086*
X3254850Y1299232*
X3254633Y1298700*
X3254263Y1297476*
X3254102Y1296464*
X3253996Y1296039*
X3253677Y1295185*
X3253409Y1294492*
X3253196Y1293641*
X3253039Y1292948*
X3252771Y1292255*
X3252240Y1291086*
X3252133Y1290338*
X3251866Y1289645*
X3251279Y1288527*
X3251066Y1287677*
X3250803Y1286984*
X3250322Y1286185*
X3250000Y1285122*
X3249574Y1284374*
X3249149Y1283736*
X3248992Y1282937*
X3248456Y1282082*
X3248299Y1281925*
X3248086Y1281393*
X3247925Y1280807*
X3247500Y1280165*
X3247232Y1279901*
X3247019Y1279366*
Y1279259*
X3246807Y1278728*
X3246326Y1278141*
X3245688Y1276866*
X3245421Y1276492*
X3245208Y1276279*
X3244889Y1275531*
X3244783Y1275318*
X3244303Y1274736*
X3244141Y1274574*
X3243929Y1274043*
X3243822Y1273830*
X3243346Y1273244*
X3243185Y1273082*
X3242547Y1271909*
X3242118Y1271484*
X3241586Y1270527*
X3241055Y1269996*
X3240629Y1269248*
X3240200Y1268822*
X3240094Y1268610*
X3239669Y1267968*
X3239562Y1267755*
X3238925Y1267118*
X3238818Y1266905*
X3238338Y1266318*
X3237858Y1265838*
X3237751Y1265625*
X3237539Y1265413*
X3237484Y1265255*
X3237271Y1265145*
X3237007Y1264881*
X3236901Y1264669*
X3236421Y1264082*
X3235834Y1263496*
X3235728Y1263283*
X3235409Y1262964*
X3235303Y1262751*
X3235090Y1262645*
X3234984Y1262433*
X3234555Y1262003*
X3234448Y1261791*
X3230881Y1258224*
X3230669Y1258118*
X3229708Y1257157*
X3229496Y1257051*
X3228645Y1256200*
X3228433Y1256094*
X3227846Y1255614*
X3227366Y1255133*
X3227153Y1255027*
X3226779Y1254759*
X3226673Y1254547*
X3226303Y1254177*
X3225767Y1253854*
X3225129Y1253216*
X3224917Y1253110*
X3224330Y1252629*
X3224062Y1252366*
X3223850Y1252259*
X3222838Y1251566*
X3222570Y1251299*
X3222358Y1251192*
X3221346Y1250500*
X3220976Y1250129*
X3220015Y1249594*
X3219590Y1249169*
X3218417Y1248531*
X3217992Y1248102*
X3216822Y1247464*
X3216500Y1247145*
X3215968Y1246933*
X3215062Y1246452*
X3215007Y1246291*
X3214795Y1246185*
X3214051Y1245866*
X3213307Y1245440*
X3212984Y1245122*
X3212295Y1244854*
X3211759Y1244641*
X3211389Y1244374*
X3211177Y1244161*
X3210641Y1243948*
X3210055Y1243791*
X3209204Y1243255*
X3209043Y1243098*
X3207393Y1242511*
X3207125Y1242244*
X3206913Y1242137*
X3206381Y1241925*
X3205527Y1241712*
X3204783Y1241287*
X3203826Y1240862*
X3203027Y1240700*
X3202385Y1240381*
X3201696Y1240007*
X3200417Y1239688*
X3199724Y1239421*
X3199031Y1239051*
X3198287Y1238834*
X3197539Y1238728*
X3197114Y1238622*
X3196102Y1238251*
X3195515Y1237984*
X3194822Y1237826*
X3194185Y1237716*
X3193653Y1237610*
X3192799Y1237397*
X3192110Y1237133*
X3191362Y1236917*
X3190618Y1236811*
X3190188Y1236704*
X3189125Y1236598*
X3188807Y1236492*
X3188114Y1236334*
X3187688Y1236228*
X3187102Y1236066*
X3185822Y1235854*
X3185397Y1235748*
X3182468Y1235480*
X3180551Y1235161*
X3179114Y1235000*
X3177728Y1234893*
X3176661Y1234787*
X3169846Y1234681*
X3086653Y1234787*
X3086334Y1234893*
X3084200Y1235000*
X3083881Y1235106*
X3082763Y1235267*
X3082232Y1235374*
X3080795Y1235535*
X3080047Y1235641*
X3078291Y1235799*
X3077011Y1236015*
X3076586Y1236122*
X3076000Y1236279*
X3075149Y1236492*
X3074401Y1236598*
X3073976Y1236704*
X3072858Y1236866*
X3072326Y1236972*
X3070460Y1237559*
X3070035Y1237665*
X3069291Y1237771*
X3068437Y1237984*
X3067905Y1238196*
X3067157Y1238515*
X3066307Y1238728*
X3065614Y1238889*
X3064763Y1239208*
X3064602Y1239370*
X3064070Y1239582*
X3063645Y1239688*
X3062846Y1239846*
X3062417Y1239956*
X3061885Y1240169*
X3061728Y1240326*
X3060767Y1240755*
X3059968Y1240913*
X3059437Y1241125*
X3059062Y1241393*
X3058318Y1241712*
X3057307Y1242086*
X3056933Y1242350*
X3055972Y1242779*
X3055547Y1242885*
X3054854Y1243149*
X3054696Y1243311*
X3054484Y1243417*
X3054271Y1243629*
X3053736Y1243842*
X3053043Y1244110*
X3052673Y1244374*
X3052031Y1244803*
X3051448Y1244960*
X3051074Y1245122*
X3050488Y1245602*
X3048996Y1246346*
X3048732Y1246614*
X3048519Y1246720*
X3047346Y1247358*
X3047027Y1247677*
X3045641Y1248425*
X3045322Y1248744*
X3044149Y1249381*
X3043562Y1249862*
X3042606Y1250393*
X3042500Y1250606*
X3042338Y1250767*
X3042125Y1250874*
X3041381Y1251299*
X3040846Y1251830*
X3040633Y1251937*
X3039889Y1252472*
X3039464Y1252897*
X3039251Y1253003*
X3038503Y1253535*
X3038078Y1253964*
X3037866Y1254070*
X3037279Y1254547*
X3037173Y1254759*
X3037015Y1254921*
X3036799Y1255027*
X3036216Y1255507*
X3035736Y1255988*
X3035523Y1256094*
X3034937Y1256570*
X3034350Y1257157*
X3034137Y1257263*
X3033070Y1258330*
X3032858Y1258437*
X3031795Y1259500*
X3031582Y1259606*
X3031314Y1259980*
X3030248Y1261047*
X3030141Y1261259*
X3029877Y1261527*
X3029665Y1261633*
X3029397Y1262003*
X3028330Y1263070*
X3028224Y1263283*
X3027748Y1263870*
X3027267Y1264346*
X3027161Y1264562*
X3026948Y1264775*
X3026842Y1264988*
X3026574Y1265255*
X3026413Y1265307*
X3026307Y1265519*
X3026094Y1265732*
X3025988Y1265944*
X3025244Y1266692*
X3024925Y1267224*
X3024389Y1267755*
X3024283Y1267968*
X3023539Y1268929*
X3023326Y1269141*
X3022795Y1270102*
X3022259Y1270633*
X3022153Y1270846*
X3021566Y1271751*
X3021354Y1271858*
X3020555Y1273295*
X3020129Y1273720*
X3019866Y1274413*
X3019598Y1274681*
X3019492Y1274893*
X3019173Y1275212*
X3018956Y1275744*
X3018531Y1276492*
X3018318Y1276704*
X3018212Y1276917*
X3017468Y1278303*
X3017149Y1278622*
X3016775Y1279633*
X3016401Y1280220*
X3016188Y1280433*
X3015976Y1280964*
X3015814Y1281551*
X3015444Y1282137*
X3015232Y1282350*
X3015122Y1282562*
X3014909Y1283094*
X3014751Y1283681*
X3014216Y1284535*
X3013952Y1285122*
X3013791Y1285704*
X3013578Y1286240*
X3013153Y1286877*
X3012885Y1287783*
X3012779Y1288208*
X3012515Y1288901*
X3012354Y1289059*
X3012248Y1289275*
X3011929Y1290019*
X3011822Y1290444*
X3011661Y1291137*
X3011448Y1291669*
X3010968Y1292787*
X3010755Y1293641*
X3010598Y1294334*
X3010381Y1294866*
X3010118Y1295452*
X3009905Y1296196*
X3009799Y1296944*
X3009692Y1297370*
X3009531Y1298062*
X3009263Y1298755*
X3008944Y1299818*
X3008838Y1300244*
X3008677Y1301472*
X3008570Y1302110*
X3008358Y1302960*
X3008200Y1303547*
X3007988Y1304401*
X3007881Y1305145*
X3007775Y1305570*
X3007614Y1307543*
X3007507Y1308393*
X3007295Y1309673*
X3007188Y1310204*
X3007082Y1310846*
X3006976Y1311909*
X3006870Y1313188*
X3006759Y1315531*
X3006708Y1403039*
X3006814Y1403358*
X3006921Y1407937*
X3007027Y1408255*
X3007188Y1409271*
X3007295Y1409803*
X3007401Y1410440*
X3007507Y1411295*
X3007614Y1412251*
X3007720Y1413531*
X3007826Y1414488*
X3008039Y1415661*
X3008145Y1416086*
X3008307Y1416673*
X3008519Y1417417*
X3008732Y1418909*
X3008893Y1419921*
X3009000Y1420346*
X3009425Y1421413*
X3009586Y1422000*
X3009692Y1422425*
X3009850Y1423437*
X3009956Y1423968*
X3010275Y1424822*
X3010543Y1425409*
X3010755Y1426153*
X3010917Y1426846*
X3011236Y1427696*
X3011716Y1428814*
X3011980Y1430043*
X3012192Y1430574*
X3012354Y1430732*
X3012673Y1431480*
X3012885Y1432224*
X3013153Y1432917*
X3013311Y1433078*
X3013421Y1433291*
X3013846Y1434248*
X3013952Y1434677*
X3014165Y1435208*
X3014696Y1435952*
X3014858Y1436539*
X3014964Y1436964*
X3015122Y1437338*
X3015870Y1438401*
X3016027Y1438988*
X3016401Y1439574*
X3016826Y1440212*
X3016933Y1440641*
X3017468Y1441598*
X3017787Y1441917*
X3017893Y1442346*
X3018425Y1443303*
X3018744Y1443622*
X3019492Y1445007*
X3019811Y1445326*
X3020448Y1446500*
X3020874Y1446925*
X3021141Y1447618*
X3021673Y1448255*
X3022153Y1449055*
X3022259Y1449267*
X3022897Y1449905*
X3023007Y1450122*
X3023539Y1450866*
X3023858Y1451185*
X3023964Y1451397*
X3024496Y1452145*
X3024925Y1452570*
X3025031Y1452783*
X3025562Y1453527*
X3025988Y1453956*
X3026094Y1454169*
X3026307Y1454381*
X3026413Y1454594*
X3026787Y1454862*
X3026948Y1455019*
X3027055Y1455232*
X3027267Y1455444*
X3027374Y1455661*
X3028224Y1456511*
X3028330Y1456724*
X3029185Y1457578*
X3029291Y1457791*
X3030141Y1458641*
X3030248Y1458854*
X3030464Y1459066*
X3030570Y1459283*
X3030728Y1459440*
X3030940Y1459547*
X3032007Y1460614*
X3032220Y1460720*
X3034137Y1462637*
X3034350Y1462744*
X3035311Y1463700*
X3035523Y1463807*
X3036267Y1464555*
X3036480Y1464661*
X3037440Y1465405*
X3037866Y1465830*
X3038078Y1465940*
X3038452Y1466204*
X3038559Y1466417*
X3038716Y1466578*
X3038933Y1466685*
X3039889Y1467429*
X3040208Y1467748*
X3040956Y1468177*
X3041488Y1468708*
X3042444Y1469240*
X3042874Y1469665*
X3043830Y1470200*
X3044255Y1470625*
X3044472Y1470732*
X3045429Y1471263*
X3045641Y1471586*
X3045854Y1471692*
X3047240Y1472437*
X3047559Y1472755*
X3048090Y1472968*
X3049051Y1473500*
X3049263Y1473716*
X3050007Y1474035*
X3050543Y1474354*
X3050862Y1474673*
X3051074Y1474779*
X3051606Y1474992*
X3052566Y1475527*
X3052779Y1475740*
X3053311Y1475952*
X3053897Y1476110*
X3054429Y1476322*
X3054803Y1476696*
X3055334Y1476909*
X3055759Y1477015*
X3056452Y1477283*
X3057039Y1477657*
X3058000Y1478082*
X3058850Y1478401*
X3059488Y1478826*
X3060767Y1479149*
X3061460Y1479413*
X3062259Y1479893*
X3062952Y1480051*
X3063803Y1480267*
X3064708Y1480744*
X3065240Y1480956*
X3065988Y1481062*
X3066413Y1481169*
X3067106Y1481330*
X3067637Y1481543*
X3068543Y1481917*
X3068968Y1482023*
X3069716Y1482129*
X3070566Y1482342*
X3071259Y1482610*
X3072165Y1482874*
X3072590Y1482984*
X3074082Y1483196*
X3075625Y1483460*
X3076055Y1483566*
X3076586Y1483779*
X3077437Y1483996*
X3078877Y1484153*
X3080578Y1484259*
X3082444Y1484527*
X3083082Y1484633*
X3083511Y1484740*
X3084787Y1484952*
X3086704Y1485059*
X3090645Y1485165*
X3174850Y1485220*
X3175173Y1485114*
G37*
G36*
X2387767D02*
X2391389Y1485007D01*
X2391712Y1484897*
X2393200Y1484791*
X2393519Y1484685*
X2394429Y1484527*
X2395866Y1484366*
X2396610Y1484259*
X2398370Y1484102*
X2399539Y1483889*
X2400070Y1483779*
X2400657Y1483622*
X2401937Y1483303*
X2403003Y1483196*
X2403429Y1483090*
X2404334Y1482929*
X2405503Y1482503*
X2406090Y1482342*
X2406515Y1482236*
X2407263Y1482129*
X2407956Y1481972*
X2408381Y1481862*
X2409500Y1481385*
X2410350Y1481169*
X2411043Y1481011*
X2411472Y1480905*
X2412696Y1480318*
X2413547Y1480106*
X2414240Y1479944*
X2415570Y1479255*
X2416425Y1479039*
X2417114Y1478775*
X2417755Y1478346*
X2418661Y1478082*
X2419673Y1477708*
X2419830Y1477551*
X2420047Y1477444*
X2421003Y1477015*
X2421696Y1476751*
X2422496Y1476165*
X2423240Y1475952*
X2423988Y1475527*
X2424200Y1475311*
X2424944Y1474992*
X2425370Y1474885*
X2425956Y1474409*
X2426649Y1474035*
X2427342Y1473767*
X2427716Y1473500*
X2428035Y1473181*
X2428566Y1472968*
X2429314Y1472543*
X2429527Y1472330*
X2429740Y1472224*
X2430696Y1471692*
X2431070Y1471425*
X2431122Y1471263*
X2431338Y1471157*
X2432295Y1470625*
X2432881Y1470145*
X2433039Y1469988*
X2434000Y1469452*
X2434425Y1469027*
X2434637Y1468921*
X2435385Y1468389*
X2435598Y1468177*
X2435811Y1468070*
X2436023Y1467858*
X2436767Y1467429*
X2437303Y1466897*
X2437515Y1466791*
X2438102Y1466311*
X2438472Y1465940*
X2438685Y1465830*
X2439271Y1465354*
X2439751Y1464874*
X2439964Y1464767*
X2440177Y1464555*
X2440389Y1464448*
X2440657Y1464074*
X2441031Y1463807*
X2441618Y1463330*
X2442094Y1462850*
X2442307Y1462744*
X2442732Y1462318*
X2442893Y1462263*
X2443000Y1462051*
X2443374Y1461677*
X2443586Y1461570*
X2444759Y1460401*
X2444972Y1460291*
X2445236Y1459921*
X2447259Y1457897*
X2447370Y1457685*
X2448220Y1456830*
X2448326Y1456618*
X2448539Y1456405*
X2448645Y1456192*
X2449393Y1455444*
X2449500Y1455232*
X2449712Y1455019*
X2449818Y1454807*
X2450192Y1454543*
X2450618Y1453901*
X2451311Y1453208*
X2451417Y1452996*
X2451893Y1452409*
X2452267Y1452039*
X2452374Y1451826*
X2452905Y1451078*
X2453228Y1450759*
X2453334Y1450547*
X2453759Y1449803*
X2454397Y1449161*
X2454933Y1448204*
X2455251Y1447988*
X2455996Y1446606*
X2456421Y1446177*
X2456688Y1445488*
X2456846Y1445326*
X2456956Y1445114*
X2457381Y1444688*
X2457594Y1444153*
X2458019Y1443409*
X2458338Y1443090*
X2458661Y1442346*
X2459086Y1441598*
X2459405Y1441279*
X2459618Y1440748*
X2459724Y1440318*
X2460255Y1439574*
X2460685Y1438618*
X2460897Y1438082*
X2461535Y1437125*
X2461641Y1436696*
X2461909Y1436007*
X2462334Y1435366*
X2462602Y1434783*
X2462708Y1434354*
X2462972Y1433661*
X2463401Y1433023*
X2463665Y1432118*
X2463771Y1431692*
X2464039Y1431000*
X2464303Y1430625*
X2464625Y1429881*
X2464732Y1429456*
X2464889Y1428763*
X2465102Y1428232*
X2465582Y1427110*
X2465795Y1426259*
X2465956Y1425566*
X2466169Y1425035*
X2466543Y1424129*
X2466755Y1423275*
X2466913Y1422263*
X2467019Y1421838*
X2467338Y1420988*
X2467606Y1420082*
X2467712Y1419653*
X2467874Y1418429*
X2467980Y1417791*
X2468299Y1416511*
X2468460Y1415929*
X2468566Y1415500*
X2468673Y1414755*
X2468779Y1414330*
X2468937Y1412358*
X2469043Y1411401*
X2469259Y1410122*
X2469366Y1409590*
X2469472Y1408948*
X2469578Y1407992*
X2469685Y1406712*
X2469791Y1404476*
X2469842Y1315480*
X2469736Y1315157*
X2469629Y1312177*
X2469523Y1311858*
X2469417Y1310366*
X2469311Y1310047*
X2469098Y1308767*
X2468992Y1308023*
X2468724Y1305413*
X2468618Y1304771*
X2468511Y1304240*
X2468299Y1303389*
X2468141Y1302803*
X2467980Y1302110*
X2467874Y1301472*
X2467661Y1300086*
X2467448Y1299232*
X2467236Y1298700*
X2466862Y1297476*
X2466700Y1296464*
X2466594Y1296039*
X2466275Y1295185*
X2466007Y1294492*
X2465795Y1293641*
X2465637Y1292948*
X2465370Y1292255*
X2464838Y1291086*
X2464732Y1290338*
X2464464Y1289645*
X2463877Y1288527*
X2463665Y1287677*
X2463401Y1286984*
X2462921Y1286185*
X2462602Y1285122*
X2462173Y1284374*
X2461748Y1283736*
X2461586Y1282937*
X2461055Y1282082*
X2460897Y1281925*
X2460685Y1281393*
X2460523Y1280807*
X2460098Y1280165*
X2459830Y1279901*
X2459405Y1278728*
X2458925Y1278141*
X2458287Y1276866*
X2457700Y1276066*
X2457488Y1275531*
X2457381Y1275318*
X2456901Y1274736*
X2456740Y1274574*
X2456527Y1274043*
X2456421Y1273830*
X2455944Y1273244*
X2455783Y1273082*
X2455145Y1271909*
X2454716Y1271484*
X2454185Y1270527*
X2453653Y1269996*
X2453228Y1269248*
X2452799Y1268822*
X2452692Y1268610*
X2452267Y1267968*
X2452161Y1267755*
X2451523Y1267118*
X2451417Y1266905*
X2450937Y1266318*
X2450456Y1265838*
X2450350Y1265625*
X2450137Y1265413*
X2450082Y1265255*
X2449870Y1265145*
X2449606Y1264881*
X2449500Y1264669*
X2449019Y1264082*
X2448433Y1263496*
X2448326Y1263283*
X2448007Y1262964*
X2447901Y1262751*
X2447688Y1262645*
X2447582Y1262433*
X2447153Y1262003*
X2447047Y1261791*
X2443480Y1258224*
X2443267Y1258118*
X2442307Y1257157*
X2442094Y1257051*
X2441244Y1256200*
X2441031Y1256094*
X2440444Y1255614*
X2439964Y1255133*
X2439751Y1255027*
X2439377Y1254759*
X2439271Y1254547*
X2438901Y1254177*
X2438366Y1253854*
X2437728Y1253216*
X2437515Y1253110*
X2436929Y1252629*
X2436661Y1252366*
X2436448Y1252259*
X2435437Y1251566*
X2435173Y1251299*
X2434956Y1251192*
X2433944Y1250500*
X2433574Y1250129*
X2432614Y1249594*
X2432188Y1249169*
X2431015Y1248531*
X2430590Y1248102*
X2429417Y1247464*
X2429098Y1247145*
X2428566Y1246933*
X2427661Y1246452*
X2427610Y1246291*
X2427393Y1246185*
X2426649Y1245866*
X2425905Y1245440*
X2425586Y1245122*
X2424893Y1244854*
X2424358Y1244641*
X2423988Y1244374*
X2423775Y1244161*
X2423240Y1243948*
X2422653Y1243791*
X2421803Y1243255*
X2421641Y1243098*
X2419992Y1242511*
X2419724Y1242244*
X2419511Y1242137*
X2418980Y1241925*
X2418125Y1241712*
X2417381Y1241287*
X2416425Y1240862*
X2415625Y1240700*
X2415464Y1240645*
X2415413Y1240594*
X2415039Y1240433*
X2414401Y1240007*
X2413708Y1239846*
X2412854Y1239633*
X2412322Y1239421*
X2411629Y1239051*
X2410885Y1238834*
X2410137Y1238728*
X2409712Y1238622*
X2408700Y1238251*
X2408114Y1237984*
X2407421Y1237826*
X2406783Y1237716*
X2406251Y1237610*
X2405397Y1237397*
X2404708Y1237133*
X2403960Y1236917*
X2403216Y1236811*
X2402787Y1236704*
X2401724Y1236598*
X2401405Y1236492*
X2400712Y1236334*
X2400287Y1236228*
X2399700Y1236066*
X2398421Y1235854*
X2397996Y1235748*
X2395066Y1235480*
X2393149Y1235161*
X2391712Y1235000*
X2390326Y1234893*
X2389259Y1234787*
X2382444Y1234681*
X2299251Y1234787*
X2298933Y1234893*
X2296799Y1235000*
X2296480Y1235106*
X2295362Y1235267*
X2294830Y1235374*
X2293393Y1235535*
X2292645Y1235641*
X2290889Y1235799*
X2289610Y1236015*
X2289185Y1236122*
X2288598Y1236279*
X2287748Y1236492*
X2287000Y1236598*
X2286574Y1236704*
X2285456Y1236866*
X2284925Y1236972*
X2283059Y1237559*
X2282633Y1237665*
X2281889Y1237771*
X2281035Y1237984*
X2280503Y1238196*
X2279755Y1238515*
X2278905Y1238728*
X2278212Y1238889*
X2277362Y1239208*
X2277200Y1239370*
X2276669Y1239582*
X2276244Y1239688*
X2275444Y1239846*
X2275015Y1239956*
X2274484Y1240169*
X2274326Y1240326*
X2273366Y1240755*
X2272566Y1240913*
X2272035Y1241125*
X2271661Y1241393*
X2270917Y1241712*
X2269905Y1242086*
X2269531Y1242350*
X2268570Y1242779*
X2268145Y1242885*
X2267452Y1243149*
X2267295Y1243311*
X2267082Y1243417*
X2266870Y1243629*
X2266334Y1243842*
X2265645Y1244110*
X2265271Y1244374*
X2264629Y1244803*
X2264047Y1244960*
X2263673Y1245122*
X2263086Y1245602*
X2261594Y1246346*
X2261330Y1246614*
X2261118Y1246720*
X2259944Y1247358*
X2259625Y1247677*
X2258240Y1248425*
X2257921Y1248744*
X2256748Y1249381*
X2256161Y1249862*
X2255204Y1250393*
X2255098Y1250606*
X2254937Y1250767*
X2254724Y1250874*
X2253980Y1251299*
X2253444Y1251830*
X2253232Y1251937*
X2252488Y1252472*
X2252062Y1252897*
X2251850Y1253003*
X2251102Y1253535*
X2250677Y1253964*
X2250464Y1254070*
X2249877Y1254547*
X2249771Y1254759*
X2249610Y1254921*
X2249397Y1255027*
X2248814Y1255507*
X2248334Y1255988*
X2248122Y1256094*
X2247535Y1256570*
X2246948Y1257157*
X2246736Y1257263*
X2245669Y1258330*
X2245456Y1258437*
X2244393Y1259500*
X2244181Y1259606*
X2243913Y1259980*
X2242846Y1261047*
X2242740Y1261259*
X2242476Y1261527*
X2242263Y1261633*
X2241996Y1262003*
X2240929Y1263070*
X2240822Y1263283*
X2240346Y1263870*
X2239866Y1264346*
X2239759Y1264562*
X2239547Y1264775*
X2239440Y1264988*
X2239173Y1265255*
X2239011Y1265307*
X2238905Y1265519*
X2238692Y1265732*
X2238586Y1265944*
X2237842Y1266692*
X2237523Y1267224*
X2236988Y1267755*
X2236881Y1267968*
X2236137Y1268929*
X2235925Y1269141*
X2235389Y1270102*
X2234858Y1270633*
X2234751Y1270846*
X2234165Y1271751*
X2233952Y1271858*
X2233153Y1273295*
X2232728Y1273720*
X2232460Y1274413*
X2232196Y1274681*
X2232090Y1274893*
X2231771Y1275212*
X2231555Y1275744*
X2231129Y1276492*
X2230917Y1276704*
X2230811Y1276917*
X2230066Y1278303*
X2229748Y1278622*
X2229374Y1279633*
X2229000Y1280220*
X2228787Y1280433*
X2228574Y1280964*
X2228413Y1281551*
X2228043Y1282137*
X2227826Y1282350*
X2227720Y1282562*
X2227507Y1283094*
X2227350Y1283681*
X2226814Y1284535*
X2226551Y1285122*
X2226389Y1285704*
X2226177Y1286240*
X2225751Y1286877*
X2225484Y1287783*
X2225377Y1288208*
X2225114Y1288901*
X2224952Y1289059*
X2224846Y1289275*
X2224527Y1290019*
X2224421Y1290444*
X2224259Y1291137*
X2224047Y1291669*
X2223566Y1292787*
X2223354Y1293641*
X2223196Y1294334*
X2222980Y1294866*
X2222716Y1295452*
X2222503Y1296196*
X2222397Y1296944*
X2222291Y1297370*
X2222129Y1298062*
X2221862Y1298755*
X2221543Y1299818*
X2221437Y1300244*
X2221279Y1301472*
X2221173Y1302110*
X2220956Y1302960*
X2220799Y1303547*
X2220586Y1304401*
X2220480Y1305145*
X2220374Y1305570*
X2220212Y1307543*
X2220106Y1308393*
X2219893Y1309673*
X2219787Y1310204*
X2219681Y1310846*
X2219574Y1311909*
X2219468Y1313188*
X2219358Y1315531*
X2219307Y1403039*
X2219413Y1403358*
X2219519Y1407937*
X2219625Y1408255*
X2219787Y1409271*
X2219893Y1409803*
X2220000Y1410440*
X2220106Y1411295*
X2220212Y1412251*
X2220318Y1413531*
X2220425Y1414488*
X2220637Y1415661*
X2220744Y1416086*
X2220905Y1416673*
X2221118Y1417417*
X2221330Y1418909*
X2221492Y1419921*
X2221598Y1420346*
X2222023Y1421413*
X2222185Y1422000*
X2222291Y1422425*
X2222448Y1423437*
X2222555Y1423968*
X2222874Y1424822*
X2223141Y1425409*
X2223354Y1426153*
X2223515Y1426846*
X2223834Y1427696*
X2224314Y1428814*
X2224578Y1430043*
X2224791Y1430574*
X2224952Y1430732*
X2225271Y1431480*
X2225484Y1432224*
X2225751Y1432917*
X2225913Y1433078*
X2226019Y1433291*
X2226444Y1434248*
X2226551Y1434677*
X2226763Y1435208*
X2227295Y1435952*
X2227456Y1436539*
X2227562Y1436964*
X2227720Y1437338*
X2228468Y1438401*
X2228625Y1438988*
X2229000Y1439574*
X2229425Y1440212*
X2229531Y1440641*
X2230066Y1441598*
X2230385Y1441917*
X2230492Y1442346*
X2231023Y1443303*
X2231342Y1443622*
X2232090Y1445007*
X2232409Y1445326*
X2233047Y1446500*
X2233476Y1446925*
X2233740Y1447618*
X2234007Y1447988*
X2234326Y1448311*
X2234433Y1448523*
X2234858Y1449267*
X2235500Y1449905*
X2235606Y1450122*
X2236137Y1450866*
X2236456Y1451185*
X2236562Y1451397*
X2237094Y1452145*
X2237523Y1452570*
X2237629Y1452783*
X2238161Y1453527*
X2238586Y1453956*
X2238692Y1454169*
X2238905Y1454381*
X2239011Y1454594*
X2239385Y1454862*
X2239547Y1455019*
X2239653Y1455232*
X2239866Y1455444*
X2239972Y1455661*
X2240822Y1456511*
X2240929Y1456724*
X2241783Y1457578*
X2241889Y1457791*
X2242740Y1458641*
X2242846Y1458854*
X2243062Y1459066*
X2243169Y1459283*
X2243326Y1459440*
X2243539Y1459547*
X2244606Y1460614*
X2244818Y1460720*
X2246736Y1462637*
X2246948Y1462744*
X2247909Y1463700*
X2248122Y1463807*
X2248866Y1464555*
X2249078Y1464661*
X2250039Y1465405*
X2250464Y1465830*
X2250677Y1465940*
X2251051Y1466204*
X2251157Y1466417*
X2251314Y1466578*
X2251531Y1466685*
X2252488Y1467429*
X2252807Y1467748*
X2253555Y1468177*
X2254086Y1468708*
X2255043Y1469240*
X2255472Y1469665*
X2256429Y1470200*
X2256854Y1470625*
X2257066Y1470732*
X2258027Y1471263*
X2258240Y1471586*
X2258452Y1471692*
X2259838Y1472437*
X2260157Y1472755*
X2260688Y1472968*
X2261649Y1473500*
X2261862Y1473716*
X2262606Y1474035*
X2263141Y1474354*
X2263460Y1474673*
X2263673Y1474779*
X2264204Y1474992*
X2265165Y1475527*
X2265377Y1475740*
X2265909Y1475952*
X2266496Y1476110*
X2267027Y1476322*
X2267401Y1476696*
X2267933Y1476909*
X2268358Y1477015*
X2269051Y1477283*
X2269637Y1477657*
X2270598Y1478082*
X2271448Y1478401*
X2272086Y1478826*
X2273366Y1479149*
X2274059Y1479413*
X2274858Y1479893*
X2275551Y1480051*
X2276401Y1480267*
X2277307Y1480744*
X2277838Y1480956*
X2278586Y1481062*
X2279011Y1481169*
X2279704Y1481330*
X2280236Y1481543*
X2281141Y1481917*
X2281566Y1482023*
X2282314Y1482129*
X2283165Y1482342*
X2283858Y1482610*
X2284763Y1482874*
X2285188Y1482984*
X2286681Y1483196*
X2288224Y1483460*
X2288653Y1483566*
X2289185Y1483779*
X2290035Y1483996*
X2291476Y1484153*
X2293177Y1484259*
X2295043Y1484527*
X2295681Y1484633*
X2296110Y1484740*
X2297385Y1484952*
X2299303Y1485059*
X2303244Y1485165*
X2387448Y1485220*
X2387767Y1485114*
G37*
G36*
X3221188Y1198783D02*
X3221452Y1198519D01*
X3221346Y1127574*
X3221082Y1127311*
X3150137Y1127417*
X3149874Y1127681*
X3149767Y1162834*
X3149606Y1162996*
X3149181Y1163098*
X3135224*
X3114082Y1163153*
X3114188Y1198625*
X3114452Y1198889*
X3221188Y1198783*
G37*
G36*
X3256980Y1055622D02*
X3257244Y1055354D01*
X3257137Y984413*
X3256874Y984145*
X3185661Y984196*
X3185771Y1019669*
X3186035Y1019937*
X3221188Y1020043*
X3221452Y1020311*
Y1043956*
Y1044062*
X3221562Y1055460*
X3221826Y1055728*
X3256980Y1055622*
G37*
G36*
X2934858Y1091413D02*
X2935125Y1091145D01*
X2935181Y1055728*
X2970917Y1055673*
X2971023Y984413*
X2971291Y984145*
X3006708Y984090*
X3006602Y948622*
X3006334Y948354*
X2935125Y948409*
Y996448*
Y996555*
X2935074Y1055728*
X2899334Y1055779*
X2899440Y1091251*
X2899708Y1091519*
X2934858Y1091413*
G37*
G36*
X3256980Y948248D02*
X3257244Y947980D01*
X3257137Y912830*
X3256874Y912562*
X3230775*
X3221720Y912669*
X3221452Y912937*
X3221562Y948086*
X3221826Y948354*
X3256980Y948248*
G37*
G36*
X2505633Y912511D02*
X2505527Y877039D01*
X2505263Y876771*
X2489814*
X2434318Y876877*
X2434055Y877145*
X2434157Y912295*
X2434425Y912562*
X2505633Y912511*
G37*
G36*
X2720114Y876665D02*
X2720381Y876397D01*
X2720275Y841248*
X2720007Y840980*
X2684854Y841086*
X2684590Y841354*
X2684696Y876507*
X2684964Y876771*
X2715000*
X2720114Y876665*
G37*
G36*
X3006440Y1091413D02*
X3006708Y1091145D01*
X3006759Y1055728*
X3078023Y1055622*
X3078291Y1055354*
X3078397Y1020204*
X3078665Y1019937*
X3113814Y1019830*
X3114082Y1019562*
X3114188Y984413*
X3114452Y984145*
X3185661Y984090*
X3185771Y877039*
X3186035Y876771*
X3256980Y876665*
X3257244Y876397*
X3257137Y805456*
X3256874Y805188*
X3221720Y805295*
X3221452Y805562*
X3221346Y840716*
X3221188Y840874*
X3220763Y840980*
X3149874Y841035*
X3149767Y876507*
X3149606Y876665*
X3149181Y876771*
X3114082Y876826*
X3114027Y912562*
X3078559Y912456*
X3078291Y912188*
Y892059*
Y891952*
X3078397Y877039*
X3078665Y876771*
X3114082Y876720*
X3114188Y841248*
X3114452Y840980*
X3149874Y840929*
X3149767Y805456*
X3149500Y805188*
X3078559Y805295*
X3078291Y805562*
X3078185Y840716*
X3078023Y840874*
X3077598Y840980*
X3006976Y841086*
X3006708Y841354*
X3006653Y876771*
X2971185Y876877*
X2970917Y877145*
X2971023Y912295*
X2971291Y912562*
X3006440Y912456*
X3006708Y912188*
X3006759Y876771*
X3042232Y876877*
X3042500Y877145*
X3042606Y948086*
X3042874Y948354*
X3078023Y948460*
X3078291Y948728*
X3078185Y983877*
X3078023Y984039*
X3077598Y984145*
X3006708Y984196*
X3006653Y1055728*
X2970917Y1055779*
X2971023Y1091251*
X2971291Y1091519*
X3006440Y1091413*
G37*
G36*
X2469578Y840874D02*
X2469842Y840610D01*
Y819625*
Y819519*
X2469736Y805456*
X2469472Y805188*
X2434318Y805295*
X2434055Y805562*
X2434157Y840716*
X2434425Y840980*
X2469578Y840874*
G37*
G36*
X3256980Y769291D02*
X3257244Y769027D01*
X3257137Y733874*
X3256874Y733610*
X3239295*
X3149874Y733661*
X3149980Y769133*
X3150244Y769397*
X3256980Y769291*
G37*
G36*
X2254830Y1198783D02*
X2255098Y1198519D01*
X2255149Y1163098*
X2362204Y1162996*
X2362472Y1162728*
X2362523Y1127311*
X2398263Y1127255*
X2398370Y1091783*
X2398633Y1091519*
X2434055Y1091464*
X2434157Y1055992*
X2434425Y1055728*
X2469578Y1055622*
X2469842Y1055354*
X2469736Y1020204*
X2469472Y1019937*
X2434318Y1019830*
X2434055Y1019562*
X2434157Y984413*
X2434425Y984145*
X2541425Y984090*
X2541480Y912562*
X2576952Y912456*
X2577216Y912188*
X2577322Y841248*
X2577590Y840980*
X2648531Y840874*
X2648799Y840610*
X2648692Y805456*
X2648425Y805188*
X2613275Y805082*
X2613007Y804818*
X2613114Y769665*
X2613381Y769397*
X2684590Y769346*
X2684484Y733874*
X2684216Y733610*
X2649066Y733503*
X2648799Y733236*
X2648905Y662291*
X2649173Y662027*
X2684322Y661921*
X2684590Y661653*
X2684641Y626236*
X2720114Y626342*
X2720381Y626610*
X2720488Y661759*
X2720751Y662027*
X2755905Y662133*
X2756173Y662397*
X2756066Y697551*
X2755905Y697712*
X2755480Y697818*
X2720645Y697925*
X2720381Y698188*
X2720326Y769397*
X2684590Y769452*
X2684696Y804925*
X2684964Y805188*
X2720114Y805082*
X2720381Y804818*
X2720433Y769397*
X2755905Y769507*
X2756173Y769771*
X2756279Y912295*
X2756543Y912562*
X2863279Y912456*
X2863543Y912188*
X2863649Y877039*
X2863917Y876771*
X2899070Y876877*
X2899334Y877145*
X2899440Y948086*
X2899708Y948354*
X2935125Y948299*
X2935181Y805188*
X2970653Y805082*
X2970917Y804818*
X2971023Y769665*
X2971291Y769397*
X3006440Y769507*
X3006708Y769771*
X3006814Y804925*
X3007082Y805188*
X3042232Y805082*
X3042500Y804818*
X3042606Y769665*
X3042874Y769397*
X3113814Y769291*
X3114082Y769027*
X3114188Y733874*
X3114452Y733610*
X3149874Y733555*
X3149980Y698082*
X3150244Y697818*
X3185397Y697712*
X3185661Y697444*
X3185555Y662291*
X3185291Y662027*
X3114346Y661921*
X3114082Y661653*
X3114188Y626500*
X3114452Y626236*
X3149606Y626129*
X3149874Y625862*
X3149980Y590712*
X3150244Y590444*
X3185661Y590389*
Y589751*
Y589645*
X3185771Y554921*
X3186035Y554653*
X3221452Y554602*
X3221507Y518862*
X3256980Y518755*
X3257244Y518488*
X3257137Y483338*
X3256874Y483070*
X3221720Y483177*
X3221452Y483444*
X3221401Y518862*
X3185929Y518755*
X3185661Y518488*
X3185555Y447547*
X3185291Y447279*
X3150137Y447385*
X3149874Y447653*
X3149767Y482807*
X3149606Y482964*
X3149181Y483070*
X3114082Y483125*
X3113976Y518594*
X3113814Y518755*
X3113389Y518862*
X3078559Y518755*
X3078291Y518488*
X3078397Y483338*
X3078665Y483070*
X3114082Y483019*
X3113976Y447547*
X3113708Y447279*
X3006976Y447385*
X3006708Y447653*
X3006602Y518594*
X3006440Y518755*
X3006015Y518862*
X2899334Y518917*
X2899283Y697818*
X2863811Y697712*
X2863543Y697444*
X2863437Y662291*
X2863173Y662027*
X2828019Y662133*
X2827755Y662397*
X2827645Y733342*
X2827488Y733503*
X2827062Y733610*
X2792228Y733503*
X2791964Y733236*
X2792070Y590712*
X2792334Y590444*
X2827488Y590338*
X2827755Y590070*
X2827645Y519129*
X2827381Y518862*
X2792228Y518755*
X2791964Y518488*
X2791854Y483338*
X2791590Y483070*
X2720381Y483125*
X2720488Y518594*
X2720751Y518862*
X2755905Y518968*
X2756173Y519236*
X2756066Y554385*
X2755905Y554547*
X2755480Y554653*
X2684590Y554708*
X2684535Y626236*
X2649066Y626129*
X2648799Y625862*
X2648905Y554921*
X2649173Y554653*
X2684590Y554602*
X2684484Y519129*
X2684216Y518862*
X2577484Y518755*
X2577216Y518488*
X2577271Y483070*
X2720381Y483019*
X2720275Y447547*
X2720007Y447279*
X2577484Y447385*
X2577216Y447653*
X2577165Y483070*
X2541425Y483125*
X2541531Y625968*
X2541799Y626236*
X2612740Y626342*
X2613007Y626610*
X2612901Y733342*
X2612740Y733503*
X2612314Y733610*
X2577484Y733503*
X2577216Y733236*
X2577110Y698082*
X2576842Y697818*
X2505901Y697925*
X2505633Y698188*
X2505582Y733610*
X2434318Y733716*
X2434055Y733980*
X2434157Y769133*
X2434425Y769397*
X2505633Y769346*
X2505688Y733610*
X2541157Y733716*
X2541425Y733980*
X2541318Y769133*
X2541157Y769291*
X2540732Y769397*
X2505633Y769452*
X2505740Y840716*
X2506007Y840980*
X2541157Y841086*
X2541425Y841354*
X2541374Y912562*
X2505633Y912618*
X2505527Y948086*
X2505370Y948248*
X2504940Y948354*
X2398527Y948248*
X2398263Y947980*
X2398157Y912830*
X2397889Y912562*
X2362736Y912456*
X2362472Y912188*
X2362523Y840980*
X2397996Y840874*
X2398263Y840610*
X2398157Y733874*
X2397889Y733610*
X2326944Y733716*
X2326681Y733980*
X2326625Y769397*
X2291157Y769507*
X2290889Y769771*
X2290834Y805188*
X2255366Y805082*
X2255098Y804818*
X2254992Y733874*
X2254724Y733610*
X2219574Y733716*
X2219307Y733980*
X2219413Y1127043*
X2219681Y1127311*
X2254830Y1127417*
X2255098Y1127681*
X2255043Y1163098*
X2219574Y1163208*
X2219307Y1163472*
X2219413Y1198625*
X2219681Y1198889*
X2254830Y1198783*
G37*
G36*
X3221188Y626129D02*
X3221452Y625862D01*
X3221507Y590444*
X3256980Y590338*
X3257244Y590070*
Y562590*
Y562484*
X3257137Y554921*
X3256874Y554653*
X3221452Y554708*
X3221401Y590444*
X3185661Y590496*
X3185771Y625968*
X3186035Y626236*
X3221188Y626129*
G37*
G36*
X2899334Y518811D02*
X2899389Y483070D01*
X2934858Y482964*
X2935125Y482696*
X2935019Y447547*
X2934751Y447279*
X2899602Y447385*
X2899334Y447653*
X2899283Y483070*
X2863543Y483125*
X2863649Y518594*
X2863917Y518862*
X2890866*
X2899334Y518811*
G37*
G36*
X2863543Y483019D02*
X2863437Y447547D01*
X2863173Y447279*
X2828019Y447385*
X2827755Y447653*
Y465870*
Y465976*
X2827862Y482807*
X2828125Y483070*
X2863543Y483019*
G37*
G36*
X2541425D02*
X2541318Y447547D01*
X2541051Y447279*
X2527629*
X2505901Y447385*
X2505633Y447653*
X2505740Y482807*
X2506007Y483070*
X2541425Y483019*
G37*
G36*
X2387767Y697712D02*
X2391389Y697606D01*
X2391712Y697496*
X2393200Y697393*
X2393519Y697283*
X2394429Y697125*
X2395866Y696964*
X2396610Y696858*
X2398370Y696700*
X2399539Y696488*
X2400070Y696377*
X2400657Y696220*
X2401937Y695901*
X2403003Y695795*
X2403429Y695688*
X2404334Y695527*
X2405503Y695102*
X2406090Y694940*
X2406515Y694834*
X2407263Y694728*
X2407956Y694566*
X2408381Y694460*
X2409500Y693984*
X2410350Y693771*
X2411043Y693610*
X2411472Y693503*
X2412696Y692917*
X2413547Y692704*
X2414240Y692543*
X2415570Y691850*
X2416425Y691637*
X2417114Y691374*
X2417755Y690948*
X2418661Y690681*
X2419673Y690307*
X2419830Y690149*
X2420047Y690043*
X2421003Y689614*
X2421696Y689350*
X2422070Y689082*
X2422283Y688870*
X2422814Y688657*
X2423240Y688551*
X2423988Y688125*
X2424200Y687909*
X2424944Y687590*
X2425370Y687484*
X2425956Y687003*
X2426649Y686633*
X2427342Y686366*
X2427716Y686102*
X2428035Y685779*
X2428566Y685566*
X2429314Y685141*
X2429527Y684929*
X2429740Y684822*
X2430696Y684291*
X2431070Y684023*
X2431122Y683862*
X2431338Y683755*
X2432295Y683224*
X2432881Y682744*
X2433039Y682586*
X2434000Y682051*
X2434425Y681625*
X2434637Y681519*
X2435385Y680988*
X2435598Y680775*
X2435811Y680669*
X2436023Y680456*
X2436767Y680027*
X2437303Y679496*
X2437515Y679389*
X2438102Y678909*
X2438472Y678535*
X2438685Y678429*
X2439271Y677952*
X2439751Y677472*
X2439964Y677366*
X2440177Y677153*
X2440389Y677047*
X2440657Y676673*
X2441031Y676405*
X2441618Y675929*
X2442094Y675448*
X2442307Y675342*
X2442732Y674917*
X2442893Y674862*
X2443000Y674649*
X2443374Y674275*
X2443586Y674169*
X2444759Y673000*
X2444972Y672889*
X2445236Y672519*
X2447259Y670496*
X2447370Y670283*
X2448220Y669429*
X2448326Y669216*
X2448539Y669003*
X2448645Y668791*
X2449393Y668043*
X2449500Y667830*
X2449606Y667724*
X2449657Y667673*
X2449870Y667354*
X2450082Y667244*
X2450244Y667086*
X2450350Y666874*
X2450830Y666287*
X2451311Y665807*
X2451417Y665594*
X2451893Y665007*
X2452267Y664637*
X2452374Y664425*
X2452905Y663677*
X2453228Y663358*
X2453334Y663145*
X2453759Y662397*
X2454397Y661759*
X2454933Y660803*
X2455251Y660586*
X2455996Y659204*
X2456421Y658779*
X2456688Y658086*
X2456846Y657925*
X2456956Y657712*
X2457381Y657287*
X2457594Y656751*
X2458019Y656007*
X2458338Y655688*
X2458661Y654940*
X2459086Y654196*
X2459405Y653877*
X2459618Y653346*
X2459724Y652921*
X2460255Y652173*
X2460685Y651216*
X2460897Y650681*
X2461535Y649724*
X2461641Y649295*
X2461909Y648606*
X2462334Y647964*
X2462602Y647381*
X2462708Y646952*
X2462972Y646259*
X2463401Y645622*
X2463665Y644716*
X2463771Y644291*
X2464039Y643598*
X2464303Y643224*
X2464625Y642480*
X2464732Y642055*
X2464889Y641362*
X2465102Y640830*
X2465582Y639708*
X2465795Y638858*
X2465956Y638165*
X2466169Y637633*
X2466543Y636728*
X2466755Y635877*
X2466913Y634862*
X2467019Y634437*
X2467338Y633586*
X2467606Y632681*
X2467712Y632251*
X2467874Y631027*
X2467980Y630389*
X2468299Y629110*
X2468460Y628527*
X2468566Y628098*
X2468673Y627354*
X2468779Y626929*
X2468937Y624956*
X2469043Y624000*
X2469259Y622720*
X2469366Y622188*
X2469472Y621547*
X2469578Y620590*
X2469685Y619311*
X2469791Y617074*
X2469842Y528074*
X2469736Y527755*
X2469629Y524775*
X2469523Y524456*
X2469417Y522964*
X2469311Y522645*
X2469098Y521366*
X2468992Y520622*
X2468724Y518011*
X2468618Y517370*
X2468511Y516838*
X2468299Y515988*
X2468141Y515401*
X2467980Y514708*
X2467874Y514070*
X2467661Y512685*
X2467448Y511830*
X2467236Y511299*
X2466862Y510074*
X2466700Y509062*
X2466594Y508637*
X2466275Y507783*
X2466007Y507090*
X2465795Y506240*
X2465637Y505547*
X2465370Y504854*
X2464838Y503685*
X2464732Y502937*
X2464464Y502244*
X2463877Y501125*
X2463665Y500275*
X2463401Y499582*
X2462921Y498783*
X2462602Y497716*
X2462173Y496972*
X2461748Y496334*
X2461586Y495535*
X2461055Y494681*
X2460897Y494523*
X2460685Y493988*
X2460523Y493405*
X2460098Y492763*
X2459830Y492500*
X2459405Y491326*
X2458925Y490740*
X2458287Y489464*
X2457700Y488665*
X2457488Y488129*
X2457381Y487917*
X2456901Y487334*
X2456740Y487173*
X2456527Y486641*
X2456421Y486429*
X2455944Y485842*
X2455783Y485681*
X2455145Y484511*
X2454716Y484082*
X2454185Y483125*
X2453653Y482590*
X2453228Y481846*
X2452799Y481421*
X2452692Y481208*
X2452267Y480566*
X2452161Y480354*
X2451523Y479716*
X2451417Y479503*
X2450937Y478917*
X2450456Y478437*
X2450350Y478224*
X2450137Y478011*
X2450082Y477854*
X2449870Y477744*
X2449606Y477480*
X2449500Y477267*
X2449019Y476681*
X2448433Y476094*
X2448326Y475881*
X2448007Y475562*
X2447901Y475350*
X2447688Y475244*
X2447582Y475031*
X2447153Y474602*
X2447047Y474389*
X2443480Y470822*
X2443267Y470716*
X2442307Y469755*
X2442094Y469649*
X2441244Y468799*
X2441031Y468692*
X2440444Y468212*
X2439964Y467732*
X2439751Y467625*
X2439377Y467358*
X2439271Y467145*
X2438901Y466775*
X2438366Y466452*
X2437728Y465814*
X2437515Y465708*
X2436929Y465228*
X2436661Y464964*
X2436448Y464858*
X2435437Y464165*
X2435173Y463897*
X2434956Y463791*
X2433944Y463098*
X2433574Y462728*
X2432614Y462192*
X2432188Y461767*
X2431015Y461129*
X2430590Y460700*
X2429417Y460062*
X2429098Y459744*
X2428566Y459531*
X2427661Y459051*
X2427610Y458893*
X2427393Y458783*
X2426649Y458464*
X2425905Y458039*
X2425586Y457720*
X2424893Y457452*
X2424358Y457240*
X2423988Y456972*
X2423775Y456759*
X2423240Y456547*
X2422653Y456389*
X2421803Y455854*
X2421641Y455696*
X2419992Y455110*
X2419724Y454842*
X2419511Y454736*
X2418980Y454523*
X2418125Y454311*
X2417381Y453885*
X2416425Y453460*
X2415625Y453299*
X2414984Y452980*
X2414295Y452606*
X2413015Y452287*
X2412322Y452019*
X2411629Y451649*
X2410885Y451433*
X2410137Y451326*
X2409712Y451220*
X2408700Y450850*
X2408114Y450582*
X2407421Y450425*
X2406783Y450314*
X2406251Y450208*
X2405397Y449996*
X2404708Y449732*
X2403960Y449519*
X2403216Y449409*
X2402787Y449303*
X2401724Y449196*
X2401405Y449090*
X2400712Y448933*
X2400287Y448826*
X2399700Y448665*
X2398421Y448452*
X2397996Y448346*
X2395066Y448078*
X2393149Y447759*
X2391712Y447602*
X2390326Y447492*
X2389259Y447385*
X2382444Y447279*
X2299251Y447385*
X2298933Y447492*
X2296799Y447602*
X2296480Y447708*
X2295362Y447866*
X2294830Y447972*
X2293393Y448133*
X2292645Y448240*
X2290889Y448397*
X2289610Y448610*
X2289185Y448720*
X2288598Y448877*
X2287748Y449090*
X2287000Y449196*
X2286574Y449303*
X2285456Y449464*
X2284925Y449570*
X2283059Y450157*
X2282633Y450263*
X2281889Y450370*
X2281035Y450582*
X2280503Y450795*
X2279755Y451114*
X2278905Y451326*
X2278212Y451488*
X2277362Y451807*
X2277200Y451968*
X2276669Y452181*
X2276244Y452287*
X2275444Y452448*
X2275015Y452555*
X2274484Y452767*
X2274326Y452925*
X2273366Y453354*
X2272566Y453511*
X2272035Y453724*
X2271661Y453992*
X2270917Y454311*
X2269905Y454685*
X2269531Y454948*
X2268570Y455377*
X2268145Y455484*
X2267452Y455748*
X2267295Y455909*
X2267082Y456015*
X2266870Y456228*
X2266334Y456440*
X2265645Y456708*
X2265271Y456972*
X2264629Y457401*
X2264047Y457559*
X2263673Y457720*
X2263086Y458200*
X2261594Y458944*
X2261330Y459212*
X2261118Y459318*
X2259944Y459956*
X2259625Y460275*
X2258240Y461023*
X2257921Y461342*
X2256748Y461980*
X2256161Y462460*
X2255204Y462992*
X2255098Y463204*
X2254937Y463366*
X2254724Y463472*
X2253980Y463897*
X2253444Y464429*
X2253232Y464535*
X2252488Y465070*
X2252062Y465496*
X2251850Y465602*
X2251102Y466133*
X2250677Y466559*
X2250464Y466669*
X2249877Y467145*
X2249771Y467358*
X2249610Y467519*
X2249397Y467625*
X2248814Y468106*
X2248334Y468586*
X2248122Y468692*
X2247535Y469169*
X2246948Y469755*
X2246736Y469862*
X2245669Y470929*
X2245456Y471035*
X2244393Y472098*
X2244181Y472208*
X2243913Y472578*
X2242846Y473645*
X2242740Y473858*
X2242476Y474125*
X2242263Y474232*
X2241996Y474602*
X2240929Y475669*
X2240822Y475881*
X2240346Y476468*
X2239866Y476948*
X2239759Y477161*
X2239547Y477374*
X2239440Y477586*
X2239173Y477854*
X2239011Y477905*
X2238905Y478118*
X2238692Y478330*
X2238586Y478543*
X2237842Y479291*
X2237523Y479822*
X2236988Y480354*
X2236881Y480566*
X2236137Y481527*
X2235925Y481740*
X2235389Y482696*
X2234858Y483232*
X2234751Y483444*
X2234165Y484350*
X2233952Y484456*
X2233153Y485893*
X2232728Y486318*
X2232460Y487011*
X2232196Y487279*
X2232090Y487492*
X2231771Y487811*
X2231555Y488342*
X2231129Y489090*
X2230917Y489303*
X2230811Y489515*
X2230066Y490901*
X2229748Y491220*
X2229374Y492232*
X2229000Y492818*
X2228787Y493031*
X2228574Y493562*
X2228413Y494149*
X2228043Y494736*
X2227826Y494948*
X2227720Y495161*
X2227507Y495692*
X2227350Y496279*
X2226814Y497133*
X2226551Y497716*
X2226389Y498303*
X2226177Y498838*
X2225751Y499476*
X2225484Y500381*
X2225377Y500807*
X2225114Y501500*
X2224952Y501661*
X2224846Y501874*
X2224527Y502618*
X2224421Y503043*
X2224259Y503736*
X2224047Y504267*
X2223566Y505389*
X2223354Y506240*
X2223196Y506933*
X2222980Y507464*
X2222716Y508051*
X2222503Y508795*
X2222397Y509543*
X2222291Y509968*
X2222129Y510661*
X2221862Y511354*
X2221543Y512417*
X2221437Y512842*
X2221279Y514070*
X2221173Y514708*
X2220956Y515559*
X2220799Y516145*
X2220586Y517000*
X2220480Y517744*
X2220374Y518169*
X2220212Y520141*
X2220106Y520992*
X2219893Y522271*
X2219787Y522803*
X2219681Y523444*
X2219574Y524507*
X2219468Y525787*
X2219358Y528129*
X2219307Y615637*
X2219413Y615956*
X2219519Y620535*
X2219625Y620854*
X2219787Y621870*
X2219893Y622401*
X2220000Y623039*
X2220106Y623893*
X2220212Y624850*
X2220318Y626129*
X2220425Y627086*
X2220637Y628259*
X2220744Y628685*
X2220905Y629271*
X2221118Y630015*
X2221330Y631507*
X2221492Y632519*
X2221598Y632944*
X2222023Y634011*
X2222185Y634598*
X2222291Y635023*
X2222448Y636035*
X2222555Y636566*
X2222874Y637421*
X2223141Y638007*
X2223354Y638751*
X2223515Y639444*
X2223834Y640295*
X2224314Y641413*
X2224578Y642637*
X2224791Y643173*
X2224952Y643330*
X2225271Y644078*
X2225484Y644822*
X2225751Y645515*
X2225913Y645677*
X2226019Y645889*
X2226444Y646846*
X2226551Y647275*
X2226763Y647807*
X2227295Y648551*
X2227456Y649137*
X2227562Y649562*
X2227720Y649937*
X2228468Y651000*
X2228625Y651586*
X2229000Y652173*
X2229425Y652811*
X2229531Y653240*
X2230066Y654196*
X2230385Y654515*
X2230492Y654940*
X2231023Y655901*
X2231342Y656220*
X2232090Y657606*
X2232409Y657925*
X2233047Y659098*
X2233476Y659523*
X2233740Y660216*
X2234007Y660586*
X2234326Y660909*
X2234433Y661122*
X2234858Y661866*
X2235500Y662507*
X2235606Y662720*
X2236137Y663464*
X2236456Y663783*
X2236562Y663996*
X2237094Y664744*
X2237523Y665169*
X2237629Y665381*
X2238161Y666125*
X2238586Y666555*
X2238692Y666767*
X2238905Y666980*
X2239011Y667192*
X2239385Y667460*
X2239547Y667618*
X2239653Y667830*
X2239866Y668043*
X2239972Y668259*
X2240822Y669110*
X2240929Y669322*
X2241783Y670177*
X2241889Y670389*
X2242740Y671240*
X2242846Y671452*
X2243062Y671665*
X2243169Y671881*
X2243326Y672039*
X2243539Y672145*
X2244606Y673212*
X2244818Y673318*
X2246736Y675236*
X2246948Y675342*
X2247909Y676299*
X2248122Y676405*
X2248866Y677153*
X2249078Y677259*
X2250039Y678003*
X2250464Y678429*
X2250677Y678535*
X2251051Y678803*
X2251157Y679015*
X2251314Y679177*
X2251531Y679283*
X2252488Y680027*
X2252807Y680346*
X2253555Y680775*
X2254086Y681307*
X2255043Y681838*
X2255472Y682263*
X2256429Y682799*
X2256854Y683224*
X2257066Y683330*
X2258027Y683862*
X2258240Y684185*
X2258452Y684291*
X2259838Y685035*
X2260157Y685354*
X2260688Y685566*
X2261649Y686102*
X2261862Y686314*
X2262606Y686633*
X2263141Y686952*
X2263460Y687271*
X2263673Y687377*
X2264204Y687590*
X2265165Y688125*
X2265377Y688338*
X2265909Y688551*
X2266496Y688708*
X2267027Y688921*
X2267401Y689295*
X2267933Y689507*
X2268358Y689614*
X2269051Y689881*
X2269637Y690255*
X2270598Y690681*
X2271448Y691000*
X2272086Y691425*
X2273366Y691748*
X2274059Y692011*
X2274858Y692492*
X2275551Y692649*
X2276401Y692866*
X2277307Y693342*
X2277838Y693555*
X2278586Y693661*
X2279011Y693771*
X2279704Y693929*
X2280236Y694141*
X2281141Y694515*
X2281566Y694622*
X2282314Y694728*
X2283165Y694940*
X2283858Y695208*
X2284763Y695472*
X2285188Y695578*
X2286681Y695795*
X2288224Y696059*
X2288653Y696165*
X2289185Y696377*
X2290035Y696594*
X2291476Y696751*
X2293177Y696858*
X2295043Y697125*
X2295681Y697232*
X2296110Y697338*
X2297385Y697551*
X2299303Y697657*
X2303244Y697763*
X2387448Y697818*
X2387767Y697712*
G37*
%LNplatine-2*%
%LPC*%
G36*
X2899283Y1342055D02*
X2828019Y1341948D01*
X2827755Y1341681*
X2827862Y1199157*
X2828125Y1198889*
X2863279Y1198996*
X2863543Y1199263*
X2863649Y1306000*
X2863917Y1306263*
X2899334Y1306212*
X2899440Y1234948*
X2899708Y1234681*
X2934858Y1234787*
X2935125Y1235055*
Y1304507*
Y1304614*
X2935019Y1306000*
X2934858Y1306157*
X2934433Y1306263*
X2899334Y1306318*
X2899283Y1342055*
G37*
G36*
X3169098Y1447511D02*
X3087291Y1447405D01*
X3086972Y1447299*
X3084948Y1447192*
X3084629Y1447086*
X3084043Y1446925*
X3083618Y1446818*
X3083031Y1446657*
X3082606Y1446551*
X3081858Y1446444*
X3080208Y1446177*
X3079354Y1445858*
X3078665Y1445594*
X3077811Y1445381*
X3077011Y1445220*
X3076586Y1445114*
X3075043Y1444421*
X3074614Y1444314*
X3073925Y1444153*
X3073338Y1443783*
X3072803Y1443464*
X3072377Y1443358*
X3071366Y1442984*
X3070885Y1442610*
X3070141Y1442291*
X3069448Y1442023*
X3069291Y1441866*
X3069078Y1441759*
X3068755Y1441437*
X3067744Y1441066*
X3067370Y1440799*
X3067051Y1440480*
X3065881Y1439842*
X3065669Y1439629*
X3065452Y1439523*
X3065240Y1439307*
X3064547Y1439043*
X3064389Y1438881*
X3064177Y1438775*
X3063964Y1438456*
X3063751Y1438350*
X3062846Y1437763*
X3062740Y1437551*
X3061622Y1436751*
X3061192Y1436326*
X3060980Y1436220*
X3060287Y1435740*
X3060181Y1435527*
X3059811Y1435153*
X3059594Y1435047*
X3058531Y1433984*
X3058318Y1433877*
X3057838Y1433397*
X3057732Y1433185*
X3057464Y1432917*
X3057251Y1432811*
X3056988Y1432543*
X3056881Y1432330*
X3055921Y1431374*
X3055814Y1431161*
X3055334Y1430574*
X3054854Y1430094*
X3054748Y1429881*
X3054271Y1429295*
X3054110Y1429133*
X3054003Y1428921*
X3053791Y1428708*
X3053472Y1428177*
X3052830Y1427539*
X3052299Y1426578*
X3051980Y1426259*
X3051874Y1426047*
X3051342Y1425086*
X3050862Y1424503*
X3050649Y1423968*
X3050488Y1423598*
X3049744Y1422531*
X3049582Y1421944*
X3049425Y1421570*
X3048944Y1420988*
X3048677Y1420295*
X3048570Y1419870*
X3048039Y1418909*
X3047720Y1418165*
X3047503Y1417311*
X3047291Y1416779*
X3046866Y1416035*
X3046653Y1415287*
X3046389Y1414062*
X3046173Y1413531*
X3045909Y1412944*
X3045696Y1412200*
X3045429Y1410440*
X3045216Y1409590*
X3045055Y1409003*
X3044842Y1408153*
X3044685Y1407137*
X3044578Y1405968*
X3044472Y1403944*
X3044417Y1399842*
Y1399736*
X3044523Y1314200*
X3044629Y1313881*
X3044736Y1312496*
X3044842Y1312177*
X3045003Y1311377*
X3045110Y1310952*
X3045216Y1310417*
X3045429Y1309566*
X3045748Y1307649*
X3046066Y1306795*
X3046279Y1306263*
X3046602Y1304984*
X3046708Y1304452*
X3046921Y1303921*
X3047401Y1303122*
X3047559Y1302429*
X3047771Y1301578*
X3047933Y1301204*
X3048358Y1300566*
X3048570Y1300031*
X3048944Y1299019*
X3049318Y1298649*
X3049637Y1297901*
X3049901Y1297208*
X3050169Y1296838*
X3050594Y1296196*
X3050807Y1295665*
X3050913Y1295452*
X3051125Y1295240*
X3051236Y1295027*
X3051555Y1294708*
X3051767Y1294173*
X3052086Y1293641*
X3052405Y1293322*
X3052511Y1293110*
X3052937Y1292362*
X3053578Y1291724*
X3053685Y1291511*
X3054216Y1290763*
X3054641Y1290338*
X3054748Y1290125*
X3055496Y1289169*
X3056027Y1288633*
X3056133Y1288421*
X3057094Y1287464*
X3057200Y1287251*
X3057464Y1286984*
X3057625Y1286929*
X3057732Y1286716*
X3058051Y1286397*
X3058157Y1286185*
X3058318Y1286023*
X3058531Y1285917*
X3058744Y1285704*
X3058956Y1285598*
X3059811Y1284748*
X3060023Y1284641*
X3060874Y1283787*
X3061086Y1283681*
X3061405Y1283362*
X3061566Y1283311*
X3061673Y1283094*
X3062311Y1282669*
X3062685Y1282405*
X3063216Y1281870*
X3064177Y1281338*
X3064389Y1281019*
X3064602Y1280913*
X3065346Y1280484*
X3065933Y1280007*
X3066094Y1279846*
X3066625Y1279633*
X3067370Y1279208*
X3067692Y1278889*
X3068224Y1278677*
X3069185Y1278141*
X3069503Y1277822*
X3069929Y1277716*
X3070673Y1277503*
X3071421Y1277078*
X3072590Y1276543*
X3073551Y1276011*
X3074295Y1275692*
X3074720Y1275586*
X3075413Y1275425*
X3075948Y1275212*
X3076748Y1274736*
X3078503Y1274362*
X3078929Y1274255*
X3079460Y1274043*
X3079940Y1273881*
X3080688Y1273669*
X3082177Y1273456*
X3082606Y1273350*
X3083299Y1273188*
X3084362Y1272976*
X3084787Y1272870*
X3086066Y1272657*
X3087129Y1272551*
X3090326Y1272444*
X3173681Y1272389*
X3174000Y1272496*
X3177834Y1272602*
X3178153Y1272708*
X3179165Y1272870*
X3179590Y1272976*
X3180657Y1273188*
X3181082Y1273295*
X3181614Y1273401*
X3183531Y1273720*
X3183960Y1273830*
X3184492Y1274043*
X3185185Y1274307*
X3185877Y1274468*
X3186409Y1274574*
X3186834Y1274681*
X3187688Y1275000*
X3187846Y1275161*
X3188377Y1275374*
X3189232Y1275586*
X3189925Y1275744*
X3190775Y1276279*
X3191362Y1276543*
X3191948Y1276704*
X3192480Y1276917*
X3192748Y1277185*
X3192960Y1277291*
X3193704Y1277610*
X3194133Y1277716*
X3194665Y1278035*
X3194984Y1278354*
X3195728Y1278677*
X3196476Y1279102*
X3196795Y1279421*
X3197326Y1279633*
X3198074Y1280059*
X3198393Y1280377*
X3198606Y1280484*
X3199562Y1281019*
X3200098Y1281551*
X3200311Y1281657*
X3201055Y1282188*
X3201480Y1282618*
X3201696Y1282724*
X3202279Y1283200*
X3202440Y1283362*
X3202653Y1283468*
X3202866Y1283681*
X3203078Y1283787*
X3203291Y1284000*
X3203503Y1284106*
X3204358Y1284960*
X3204570Y1285066*
X3205527Y1286023*
X3205744Y1286133*
X3205901Y1286291*
X3206007Y1286503*
X3207074Y1287570*
X3207181Y1287783*
X3208137Y1288740*
X3208244Y1288952*
X3208885Y1289594*
X3208992Y1289807*
X3209736Y1290763*
X3210055Y1291086*
X3210161Y1291299*
X3210696Y1292043*
X3211122Y1292468*
X3211653Y1293429*
X3212082Y1293854*
X3212346Y1294547*
X3212877Y1295185*
X3213039Y1295346*
X3213251Y1295877*
X3213783Y1296838*
X3214106Y1297157*
X3214318Y1297901*
X3214850Y1298862*
X3215169Y1299393*
X3215649Y1300724*
X3215913Y1300992*
X3216236Y1301736*
X3216393Y1302429*
X3216500Y1302960*
X3217192Y1304295*
X3217299Y1304720*
X3217460Y1305413*
X3217566Y1305944*
X3217885Y1306795*
X3218098Y1307330*
X3218311Y1308181*
X3218633Y1310098*
X3218740Y1310523*
X3218846Y1311059*
X3219059Y1311909*
X3219165Y1312440*
X3219322Y1313881*
X3219429Y1314625*
X3219535Y1321444*
X3219429Y1405700*
X3219322Y1406019*
X3219216Y1407405*
X3219110Y1407724*
X3218846Y1408842*
X3218740Y1409484*
X3218633Y1409909*
X3218417Y1410972*
X3218204Y1412251*
X3217779Y1413425*
X3217511Y1414330*
X3217405Y1414755*
X3217248Y1415448*
X3217035Y1415980*
X3216555Y1416779*
X3216393Y1417472*
X3216181Y1418322*
X3216023Y1418696*
X3215594Y1419334*
X3215381Y1419870*
X3215007Y1420881*
X3214744Y1421145*
X3214637Y1421358*
X3214318Y1422106*
X3214051Y1422799*
X3213889Y1422956*
X3213783Y1423169*
X3213464Y1423492*
X3213251Y1424023*
X3212826Y1424767*
X3212401Y1425196*
X3212133Y1425885*
X3211228Y1427110*
X3210854Y1427803*
X3210641Y1427909*
X3210484Y1428070*
X3210377Y1428283*
X3209629Y1429244*
X3209311Y1429562*
X3208885Y1430307*
X3208137Y1431055*
X3208031Y1431267*
X3207181Y1432118*
X3207074Y1432330*
X3206862Y1432543*
X3206807Y1432704*
X3206594Y1432811*
X3206007Y1433397*
X3205901Y1433610*
X3205527Y1433984*
X3205314Y1434090*
X3204358Y1435047*
X3204145Y1435153*
X3203826Y1435472*
X3203665Y1435527*
X3203559Y1435740*
X3202492Y1436590*
X3202122Y1436964*
X3201909Y1437070*
X3201161Y1437602*
X3200736Y1438031*
X3199992Y1438456*
X3199456Y1438988*
X3198500Y1439523*
X3198181Y1439842*
X3197964Y1439948*
X3196582Y1440692*
X3196263Y1441011*
X3195515Y1441334*
X3194984Y1441653*
X3194771Y1441866*
X3194559Y1441972*
X3193811Y1442291*
X3193118Y1442559*
X3192748Y1442822*
X3191787Y1443251*
X3190775Y1443622*
X3190511Y1443889*
X3190295Y1443996*
X3189763Y1444208*
X3188539Y1444476*
X3187633Y1444952*
X3187102Y1445165*
X3186248Y1445381*
X3185610Y1445488*
X3185291Y1445594*
X3184598Y1445858*
X3184118Y1446019*
X3183374Y1446232*
X3182362Y1446393*
X3181724Y1446500*
X3180657Y1446712*
X3180232Y1446818*
X3179696Y1446925*
X3179271Y1447031*
X3178740Y1447137*
X3177303Y1447299*
X3176236Y1447405*
X3169098Y1447511*
G37*
%LNplatine-3*%
%LPD*%
G36*
X3133307Y1413531D02*
X3136716Y1413425D01*
X3137035Y1413318*
X3137728Y1413157*
X3138263Y1413051*
X3138688Y1412944*
X3139964Y1412732*
X3141031Y1412625*
X3141988Y1412519*
X3142523Y1412413*
X3143374Y1412090*
X3143905Y1411877*
X3144334Y1411771*
X3144866Y1411665*
X3146145Y1411452*
X3146570Y1411346*
X3147795Y1410759*
X3148645Y1410547*
X3149338Y1410389*
X3149874Y1410177*
X3150031Y1410015*
X3150779Y1409696*
X3151629Y1409484*
X3152377Y1409055*
X3152590Y1408842*
X3153122Y1408629*
X3153547Y1408523*
X3154240Y1408255*
X3154614Y1407992*
X3155251Y1407566*
X3155838Y1407405*
X3156425Y1407031*
X3157169Y1406500*
X3157594Y1406393*
X3158342Y1405862*
X3158555Y1405649*
X3159086Y1405437*
X3159830Y1405007*
X3160259Y1404582*
X3161216Y1404051*
X3161748Y1403515*
X3162708Y1402984*
X3163240Y1402452*
X3163988Y1402027*
X3164307Y1401602*
X3164519Y1401492*
X3164732Y1401279*
X3164944Y1401173*
X3165795Y1400322*
X3166011Y1400216*
X3166488Y1399736*
X3166543Y1399574*
X3166755Y1399468*
X3166968Y1399255*
X3167181Y1399149*
X3167342Y1398992*
X3167448Y1398775*
X3167822Y1398405*
X3168035Y1398299*
X3168405Y1397925*
X3168511Y1397712*
X3168885Y1397338*
X3169098Y1397232*
X3169366Y1396862*
X3169578Y1396645*
X3169633Y1396488*
X3169846Y1396381*
X3170322Y1395901*
X3170433Y1395688*
X3170696Y1395314*
X3170909Y1395208*
X3171283Y1394834*
X3171389Y1394622*
X3171870Y1394039*
X3172240Y1393665*
X3172669Y1392917*
X3173094Y1392492*
X3173200Y1392279*
X3173625Y1391641*
X3173732Y1391429*
X3174374Y1390787*
X3174905Y1389830*
X3175224Y1389511*
X3175543Y1388763*
X3175649Y1388551*
X3176129Y1387964*
X3176291Y1387807*
X3176555Y1387114*
X3176929Y1386527*
X3177141Y1386314*
X3177248Y1386102*
X3177460Y1385570*
X3177728Y1384877*
X3178153Y1384236*
X3178314Y1384078*
X3178421Y1383649*
X3178791Y1382637*
X3178952Y1382480*
X3179059Y1382267*
X3179271Y1382055*
X3179484Y1381307*
X3179590Y1380881*
X3179964Y1379870*
X3180125Y1379708*
X3180444Y1378964*
X3180708Y1377740*
X3181082Y1376940*
X3181401Y1376196*
X3181507Y1375448*
X3181614Y1375023*
X3181775Y1374011*
X3182094Y1373161*
X3182307Y1372625*
X3182413Y1372200*
X3182519Y1371669*
X3182736Y1369539*
X3182948Y1368259*
X3183055Y1367728*
X3183212Y1367141*
X3183425Y1365649*
X3183531Y1361070*
X3183425Y1355956*
X3183318Y1355637*
X3183161Y1354625*
X3183000Y1354039*
X3182787Y1352759*
X3182681Y1352015*
X3182519Y1350362*
X3182413Y1349830*
X3182307Y1349405*
X3181881Y1348338*
X3181775Y1347913*
X3181669Y1347381*
X3181456Y1346102*
X3181350Y1345677*
X3181137Y1345145*
X3180976Y1344984*
X3180708Y1344291*
X3180602Y1343866*
X3180496Y1343334*
X3180389Y1342909*
X3179913Y1342000*
X3179696Y1341468*
X3179484Y1340618*
X3179220Y1339925*
X3178952Y1339657*
X3178846Y1339444*
X3178527Y1338700*
X3178421Y1338271*
X3177992Y1337527*
X3177779Y1337314*
X3177566Y1336783*
X3177460Y1336358*
X3177035Y1335610*
X3176716Y1335291*
X3176397Y1334547*
X3176074Y1334011*
X3175755Y1333692*
X3175649Y1333480*
X3175011Y1332307*
X3174480Y1331562*
X3174051Y1330818*
X3173519Y1330283*
X3173094Y1329539*
X3172562Y1329007*
X3172027Y1328047*
X3171870Y1327889*
X3171708Y1327834*
X3171602Y1327622*
X3171389Y1327409*
X3171283Y1327196*
X3170322Y1326236*
X3170216Y1326023*
X3169366Y1325173*
X3169259Y1324956*
X3168779Y1324480*
X3168566Y1324374*
X3168299Y1324000*
X3167716Y1323413*
X3167503Y1323307*
X3167236Y1322933*
X3166968Y1322669*
X3166755Y1322562*
X3165795Y1321602*
X3165582Y1321496*
X3164625Y1320539*
X3164413Y1320433*
X3164039Y1320165*
X3163933Y1319952*
X3162814Y1319153*
X3162602Y1318940*
X3162389Y1318834*
X3162177Y1318622*
X3161429Y1318192*
X3160897Y1317661*
X3159940Y1317129*
X3159724Y1316917*
X3159511Y1316811*
X3158129Y1316062*
X3157700Y1315637*
X3157169Y1315425*
X3156425Y1315000*
X3156102Y1314681*
X3155570Y1314468*
X3155145Y1314358*
X3154133Y1313665*
X3153228Y1313401*
X3152535Y1313133*
X3152377Y1312976*
X3152161Y1312870*
X3151948Y1312653*
X3150885Y1312334*
X3150192Y1312070*
X3148968Y1311484*
X3148220Y1311377*
X3147795Y1311271*
X3147263Y1311059*
X3147051Y1310952*
X3146090Y1310523*
X3145346Y1310417*
X3144921Y1310311*
X3144011Y1310153*
X3143586Y1310047*
X3142681Y1309673*
X3141830Y1309460*
X3141082Y1309354*
X3139433Y1309192*
X3138153Y1308980*
X3137622Y1308874*
X3137035Y1308712*
X3135547Y1308500*
X3131283Y1308393*
X3125960Y1308500*
X3125637Y1308606*
X3124574Y1308712*
X3124039Y1308925*
X3123137Y1309086*
X3121696Y1309248*
X3120633Y1309354*
X3119728Y1309511*
X3119299Y1309618*
X3118610Y1309885*
X3118074Y1310098*
X3117381Y1310259*
X3116000Y1310472*
X3115574Y1310578*
X3115039Y1310791*
X3114881Y1310952*
X3114188Y1311216*
X3113759Y1311322*
X3113228Y1311429*
X3112377Y1311751*
X3112216Y1311909*
X3111472Y1312228*
X3110779Y1312389*
X3110354Y1312496*
X3109818Y1312708*
X3109555Y1312976*
X3109342Y1313082*
X3108594Y1313401*
X3107905Y1313665*
X3107744Y1313826*
X3107531Y1313933*
X3107318Y1314145*
X3106783Y1314358*
X3106200Y1314519*
X3105826Y1314681*
X3105240Y1315157*
X3103960Y1315799*
X3103484Y1316275*
X3102948Y1316492*
X3102204Y1316917*
X3101992Y1317129*
X3101779Y1317236*
X3101031Y1317661*
X3100393Y1318303*
X3100181Y1318409*
X3099169Y1319098*
X3098901Y1319366*
X3098688Y1319472*
X3097944Y1320003*
X3097515Y1320433*
X3097303Y1320539*
X3096716Y1321015*
X3096614Y1321228*
X3096346Y1321496*
X3096133Y1321602*
X3095653Y1321976*
X3095547Y1322188*
X3095173Y1322562*
X3094960Y1322669*
X3094110Y1323519*
X3093897Y1323625*
X3093523Y1324000*
X3093417Y1324212*
X3093043Y1324586*
X3092830Y1324692*
X3092562Y1325066*
X3092086Y1325649*
X3091870Y1325755*
X3091712Y1325917*
X3091606Y1326129*
X3091232Y1326610*
X3091019Y1326716*
X3090645Y1327090*
X3090539Y1327303*
X3090326Y1327515*
X3090220Y1327728*
X3090059Y1327889*
X3089846Y1327996*
X3089102Y1329165*
X3088622Y1329645*
X3088145Y1330551*
X3087929Y1330657*
X3087771Y1330818*
X3087665Y1331031*
X3087240Y1331775*
X3086704Y1332307*
X3086492Y1332842*
X3085960Y1333799*
X3085641Y1334118*
X3085429Y1334653*
X3085106Y1335185*
X3084574Y1335929*
X3084149Y1337102*
X3083618Y1337846*
X3083137Y1339177*
X3082870Y1339551*
X3082657Y1339763*
X3082444Y1340511*
X3082338Y1340937*
X3082070Y1341629*
X3081700Y1342322*
X3081488Y1342854*
X3081220Y1344078*
X3080527Y1345622*
X3080421Y1346051*
X3080314Y1346795*
X3080047Y1348019*
X3079677Y1348925*
X3079460Y1349673*
X3079354Y1350417*
X3079248Y1351803*
X3079141Y1352228*
X3078984Y1353240*
X3078665Y1354519*
X3078559Y1355157*
X3078448Y1356118*
X3078342Y1359098*
X3078291Y1362877*
X3078397Y1363200*
X3078503Y1366822*
X3078610Y1367141*
X3078771Y1367940*
X3078984Y1368791*
X3079090Y1369322*
X3079248Y1370763*
X3079354Y1371826*
X3079460Y1372255*
X3079566Y1372893*
X3079889Y1373637*
X3080102Y1374169*
X3080259Y1374862*
X3080366Y1375716*
X3080472Y1376248*
X3080578Y1376673*
X3081271Y1378220*
X3081433Y1378909*
X3081539Y1379338*
X3081858Y1379976*
X3082338Y1381094*
X3082496Y1381787*
X3082657Y1382161*
X3083188Y1382905*
X3083405Y1383437*
X3083562Y1384023*
X3083937Y1384610*
X3084255Y1385141*
X3084629Y1386153*
X3085318Y1387059*
X3085586Y1387751*
X3086385Y1388870*
X3086653Y1389562*
X3086811Y1389724*
X3086917Y1389937*
X3087346Y1390362*
X3087771Y1391106*
X3088196Y1391535*
X3088303Y1391748*
X3088728Y1392492*
X3089370Y1393133*
X3089795Y1393877*
X3090433Y1394515*
X3090539Y1394728*
X3090913Y1395208*
X3091125Y1395314*
X3091500Y1395688*
X3091606Y1395901*
X3092456Y1396751*
X3092562Y1396964*
X3093523Y1397925*
X3093629Y1398137*
X3093791Y1398299*
X3094003Y1398405*
X3095066Y1399468*
X3095279Y1399574*
X3096133Y1400429*
X3096346Y1400535*
X3096826Y1401015*
X3096877Y1401173*
X3097090Y1401279*
X3097303Y1401492*
X3097515Y1401602*
X3098157Y1402240*
X3098370Y1402346*
X3099114Y1402877*
X3099433Y1403196*
X3100393Y1403732*
X3101031Y1404370*
X3101779Y1404795*
X3102098Y1405114*
X3102311Y1405220*
X3103055Y1405543*
X3103271Y1405649*
X3103854Y1406125*
X3104015Y1406287*
X3104547Y1406500*
X3105295Y1406925*
X3105614Y1407244*
X3106145Y1407460*
X3106570Y1407566*
X3107531Y1408098*
X3108062Y1408417*
X3108488Y1408523*
X3109448Y1409055*
X3109980Y1409377*
X3110834Y1409590*
X3111846Y1409960*
X3112003Y1410122*
X3112535Y1410334*
X3113283Y1410547*
X3114133Y1410759*
X3115519Y1411401*
X3115944Y1411507*
X3116692Y1411614*
X3117488Y1411771*
X3117917Y1411877*
X3118822Y1412251*
X3119566Y1412464*
X3120633Y1412570*
X3121059Y1412677*
X3122551Y1412783*
X3122870Y1412893*
X3123562Y1413051*
X3124094Y1413157*
X3124681Y1413318*
X3125212Y1413425*
X3125318*
X3127661Y1413531*
X3132244Y1413637*
X3133307Y1413531*
G37*
%LNplatine-4*%
%LPC*%
G36*
X2381696Y1447511D02*
X2299889Y1447405D01*
X2299570Y1447299*
X2297547Y1447192*
X2297228Y1447086*
X2296641Y1446925*
X2296216Y1446818*
X2295629Y1446657*
X2295204Y1446551*
X2294456Y1446444*
X2292807Y1446177*
X2291952Y1445858*
X2291263Y1445594*
X2290409Y1445381*
X2289610Y1445220*
X2289185Y1445114*
X2287641Y1444421*
X2287212Y1444314*
X2286519Y1444153*
X2285937Y1443783*
X2285401Y1443464*
X2284976Y1443358*
X2283964Y1442984*
X2283271Y1442503*
X2282740Y1442291*
X2282047Y1442023*
X2281889Y1441866*
X2281673Y1441759*
X2281354Y1441437*
X2280342Y1441066*
X2279972Y1440799*
X2279649Y1440480*
X2278480Y1439842*
X2278267Y1439629*
X2278051Y1439523*
X2277838Y1439307*
X2277149Y1439043*
X2276988Y1438881*
X2276775Y1438775*
X2276562Y1438456*
X2276350Y1438350*
X2275444Y1437763*
X2275338Y1437551*
X2274216Y1436751*
X2273791Y1436326*
X2273578Y1436220*
X2272885Y1435740*
X2272779Y1435527*
X2272409Y1435153*
X2272192Y1435047*
X2271129Y1433984*
X2270917Y1433877*
X2270437Y1433397*
X2270330Y1433185*
X2270062Y1432917*
X2269850Y1432811*
X2269586Y1432543*
X2269476Y1432330*
X2268519Y1431374*
X2268413Y1431161*
X2267933Y1430574*
X2267452Y1430094*
X2267346Y1429881*
X2266870Y1429295*
X2266708Y1429133*
X2266602Y1428921*
X2266389Y1428708*
X2266070Y1428177*
X2265429Y1427539*
X2264897Y1426578*
X2264578Y1426259*
X2264472Y1426047*
X2263940Y1425086*
X2263460Y1424503*
X2263248Y1423968*
X2263086Y1423598*
X2262342Y1422531*
X2262181Y1421944*
X2262023Y1421570*
X2261543Y1420988*
X2261275Y1420295*
X2261169Y1419870*
X2260637Y1418909*
X2260318Y1418165*
X2260106Y1417311*
X2259889Y1416779*
X2259464Y1416035*
X2259251Y1415287*
X2258988Y1414062*
X2258771Y1413531*
X2258507Y1412944*
X2258295Y1412200*
X2258027Y1410440*
X2257814Y1409590*
X2257653Y1409003*
X2257440Y1408153*
X2257283Y1407137*
X2257173Y1405968*
X2257066Y1403944*
X2257015Y1316968*
X2257122Y1316649*
X2257228Y1313133*
X2257334Y1312814*
X2257496Y1311803*
X2257708Y1310952*
X2257814Y1310417*
X2258027Y1309566*
X2258346Y1307649*
X2258665Y1306795*
X2258877Y1306263*
X2259200Y1304984*
X2259307Y1304452*
X2259519Y1303921*
X2259996Y1303122*
X2260157Y1302429*
X2260370Y1301578*
X2260531Y1301204*
X2260956Y1300566*
X2261169Y1300031*
X2261543Y1299019*
X2261913Y1298649*
X2262236Y1297901*
X2262500Y1297208*
X2262767Y1296838*
X2263192Y1296196*
X2263405Y1295665*
X2263511Y1295452*
X2263724Y1295240*
X2263834Y1295027*
X2264153Y1294708*
X2264366Y1294173*
X2264685Y1293641*
X2265003Y1293322*
X2265110Y1293110*
X2265535Y1292362*
X2266177Y1291724*
X2266283Y1291511*
X2266814Y1290763*
X2267240Y1290338*
X2267346Y1290125*
X2268094Y1289169*
X2268625Y1288633*
X2268732Y1288421*
X2269692Y1287464*
X2269799Y1287251*
X2270062Y1286984*
X2270224Y1286929*
X2270330Y1286716*
X2270649Y1286397*
X2270755Y1286185*
X2270917Y1286023*
X2271129Y1285917*
X2271342Y1285704*
X2271555Y1285598*
X2272409Y1284748*
X2272622Y1284641*
X2273472Y1283787*
X2273685Y1283681*
X2274003Y1283362*
X2274165Y1283311*
X2274271Y1283094*
X2274909Y1282669*
X2275283Y1282405*
X2275814Y1281870*
X2276775Y1281338*
X2276988Y1281019*
X2277200Y1280913*
X2277948Y1280484*
X2278531Y1280007*
X2278692Y1279846*
X2279224Y1279633*
X2279972Y1279208*
X2280291Y1278889*
X2280822Y1278677*
X2281779Y1278141*
X2282102Y1277822*
X2282527Y1277716*
X2283271Y1277503*
X2284019Y1277078*
X2285188Y1276543*
X2286149Y1276011*
X2286893Y1275692*
X2287318Y1275586*
X2288011Y1275425*
X2288547Y1275212*
X2289342Y1274736*
X2291102Y1274362*
X2291527Y1274255*
X2292059Y1274043*
X2292539Y1273881*
X2293287Y1273669*
X2294775Y1273456*
X2295204Y1273350*
X2295897Y1273188*
X2296960Y1272976*
X2297385Y1272870*
X2298665Y1272657*
X2299732Y1272551*
X2302925Y1272444*
X2386279Y1272389*
X2386598Y1272496*
X2390433Y1272602*
X2390751Y1272708*
X2391763Y1272870*
X2392188Y1272976*
X2393255Y1273188*
X2393681Y1273295*
X2394212Y1273401*
X2396129Y1273720*
X2396559Y1273830*
X2397090Y1274043*
X2397783Y1274307*
X2398476Y1274468*
X2399007Y1274574*
X2399433Y1274681*
X2400287Y1275000*
X2400444Y1275161*
X2400980Y1275374*
X2401830Y1275586*
X2402523Y1275744*
X2403374Y1276279*
X2403960Y1276543*
X2404547Y1276704*
X2405078Y1276917*
X2405346Y1277185*
X2405559Y1277291*
X2406303Y1277610*
X2406732Y1277716*
X2407263Y1278035*
X2407582Y1278354*
X2408326Y1278677*
X2409074Y1279102*
X2409393Y1279421*
X2409925Y1279633*
X2410673Y1280059*
X2410992Y1280377*
X2411204Y1280484*
X2412161Y1281019*
X2412696Y1281551*
X2412909Y1281657*
X2413653Y1282188*
X2414078Y1282618*
X2414295Y1282724*
X2414877Y1283200*
X2415039Y1283362*
X2415251Y1283468*
X2415464Y1283681*
X2415677Y1283787*
X2415889Y1284000*
X2416102Y1284106*
X2416956Y1284960*
X2417169Y1285066*
X2418125Y1286023*
X2418342Y1286133*
X2418500Y1286291*
X2418606Y1286503*
X2419673Y1287570*
X2419779Y1287783*
X2420736Y1288740*
X2420842Y1288952*
X2421484Y1289594*
X2421590Y1289807*
X2422334Y1290763*
X2422653Y1291086*
X2422763Y1291299*
X2423295Y1292043*
X2423720Y1292468*
X2424251Y1293429*
X2424677Y1293854*
X2424944Y1294547*
X2425476Y1295185*
X2425637Y1295346*
X2425850Y1295877*
X2426381Y1296838*
X2426704Y1297157*
X2426917Y1297901*
X2427448Y1298862*
X2427767Y1299393*
X2428248Y1300724*
X2428511Y1300992*
X2428834Y1301736*
X2428992Y1302429*
X2429098Y1302960*
X2429791Y1304295*
X2429897Y1304720*
X2430059Y1305413*
X2430165Y1305944*
X2430484Y1306795*
X2430696Y1307330*
X2430909Y1308181*
X2431232Y1310098*
X2431338Y1310523*
X2431444Y1311059*
X2431657Y1311909*
X2431763Y1312440*
X2431921Y1313881*
X2432027Y1314625*
X2432133Y1321444*
Y1384291*
Y1384397*
X2432027Y1405700*
X2431921Y1406019*
X2431814Y1407405*
X2431708Y1407724*
X2431444Y1408842*
X2431338Y1409484*
X2431232Y1409909*
X2431015Y1410972*
X2430803Y1412251*
X2430377Y1413425*
X2430110Y1414330*
X2430003Y1414755*
X2429846Y1415448*
X2429633Y1415980*
X2429153Y1416779*
X2428992Y1417472*
X2428779Y1418322*
X2428622Y1418696*
X2428192Y1419334*
X2427980Y1419870*
X2427610Y1420881*
X2427342Y1421145*
X2427236Y1421358*
X2426917Y1422106*
X2426649Y1422799*
X2426492Y1422956*
X2426381Y1423169*
X2426062Y1423492*
X2425850Y1424023*
X2425425Y1424767*
X2425000Y1425196*
X2424732Y1425885*
X2424464Y1426259*
X2423988Y1426846*
X2423507Y1427751*
X2423133Y1428015*
X2422708Y1428657*
X2422440Y1429031*
X2421909Y1429562*
X2421484Y1430307*
X2420736Y1431055*
X2420629Y1431267*
X2419779Y1432118*
X2419673Y1432330*
X2419460Y1432543*
X2419405Y1432704*
X2419192Y1432811*
X2418606Y1433397*
X2418500Y1433610*
X2418125Y1433984*
X2417913Y1434090*
X2416956Y1435047*
X2416744Y1435153*
X2416425Y1435472*
X2416263Y1435527*
X2416157Y1435740*
X2415783Y1436007*
X2415570Y1436220*
X2415358Y1436326*
X2414720Y1436964*
X2414507Y1437070*
X2413759Y1437602*
X2413334Y1438031*
X2412590Y1438456*
X2412055Y1438988*
X2411098Y1439523*
X2410779Y1439842*
X2410566Y1439948*
X2409181Y1440692*
X2408862Y1441011*
X2408114Y1441334*
X2407582Y1441653*
X2407370Y1441866*
X2407157Y1441972*
X2406409Y1442291*
X2405720Y1442559*
X2405346Y1442822*
X2404385Y1443251*
X2403374Y1443622*
X2403110Y1443889*
X2402897Y1443996*
X2402362Y1444208*
X2401137Y1444476*
X2400232Y1444952*
X2399700Y1445165*
X2398846Y1445381*
X2398208Y1445488*
X2397889Y1445594*
X2397196Y1445858*
X2396716Y1446019*
X2395972Y1446232*
X2394960Y1446393*
X2394322Y1446500*
X2393255Y1446712*
X2392830Y1446818*
X2392295Y1446925*
X2391870Y1447031*
X2391338Y1447137*
X2389901Y1447299*
X2388834Y1447405*
X2381696Y1447511*
G37*
%LNplatine-5*%
%LPD*%
G36*
X2345480Y1413531D02*
X2349314Y1413425D01*
X2349633Y1413318*
X2350326Y1413157*
X2350858Y1413051*
X2351287Y1412944*
X2352562Y1412732*
X2353629Y1412625*
X2354586Y1412519*
X2355122Y1412413*
X2355972Y1412090*
X2356507Y1411877*
X2356933Y1411771*
X2357464Y1411665*
X2358744Y1411452*
X2359169Y1411346*
X2360393Y1410759*
X2361248Y1410547*
X2361937Y1410389*
X2362472Y1410177*
X2362629Y1410015*
X2363377Y1409696*
X2364228Y1409484*
X2364976Y1409055*
X2365188Y1408842*
X2365720Y1408629*
X2366145Y1408523*
X2366838Y1408255*
X2367318Y1407885*
X2367531Y1407779*
X2368275Y1407460*
X2369023Y1407031*
X2369767Y1406500*
X2370192Y1406393*
X2370940Y1405862*
X2371153Y1405649*
X2371685Y1405437*
X2372429Y1405007*
X2372858Y1404582*
X2373814Y1404051*
X2374346Y1403515*
X2375307Y1402984*
X2375838Y1402452*
X2376586Y1402027*
X2376905Y1401602*
X2377118Y1401492*
X2377330Y1401279*
X2377543Y1401173*
X2378397Y1400322*
X2378610Y1400216*
X2379086Y1399736*
X2379141Y1399574*
X2379354Y1399468*
X2379566Y1399255*
X2379779Y1399149*
X2379940Y1398992*
X2380047Y1398775*
X2380421Y1398405*
X2380633Y1398299*
X2381003Y1397925*
X2381114Y1397712*
X2381484Y1397338*
X2381696Y1397232*
X2381964Y1396862*
X2382177Y1396645*
X2382232Y1396488*
X2382444Y1396381*
X2382921Y1395901*
X2383027Y1395688*
X2383295Y1395314*
X2383507Y1395208*
X2383881Y1394834*
X2383988Y1394622*
X2384468Y1394039*
X2384842Y1393665*
X2385267Y1392917*
X2385692Y1392492*
X2385799Y1392279*
X2386224Y1391641*
X2386330Y1391429*
X2386972Y1390787*
X2387503Y1389830*
X2387822Y1389511*
X2388141Y1388763*
X2388248Y1388551*
X2388728Y1387964*
X2388889Y1387807*
X2389153Y1387114*
X2389527Y1386527*
X2389740Y1386314*
X2389846Y1386102*
X2390059Y1385570*
X2390326Y1384877*
X2390751Y1384236*
X2390913Y1384078*
X2391019Y1383649*
X2391389Y1382637*
X2391551Y1382480*
X2391657Y1382267*
X2391870Y1382055*
X2392082Y1381307*
X2392188Y1380881*
X2392562Y1379870*
X2392724Y1379708*
X2393043Y1378964*
X2393307Y1377740*
X2393681Y1376940*
X2394000Y1376196*
X2394106Y1375448*
X2394212Y1375023*
X2394374Y1374011*
X2394692Y1373161*
X2394905Y1372625*
X2395011Y1372200*
X2395118Y1371669*
X2395330Y1369539*
X2395547Y1368259*
X2395653Y1367728*
X2395811Y1367141*
X2396023Y1365649*
X2396129Y1361070*
X2396023Y1355956*
X2395917Y1355637*
X2395759Y1354625*
X2395598Y1354039*
X2395385Y1352759*
X2395279Y1352015*
X2395118Y1350362*
X2395011Y1349830*
X2394905Y1349405*
X2394480Y1348338*
X2394374Y1347913*
X2394267Y1347381*
X2394055Y1346102*
X2393948Y1345677*
X2393736Y1345145*
X2393574Y1344984*
X2393307Y1344291*
X2393200Y1343866*
X2393094Y1343334*
X2392988Y1342909*
X2392507Y1342000*
X2392295Y1341468*
X2392082Y1340618*
X2391818Y1339925*
X2391551Y1339657*
X2391444Y1339444*
X2391125Y1338700*
X2391019Y1338271*
X2390594Y1337527*
X2390377Y1337314*
X2390165Y1336783*
X2390059Y1336358*
X2389633Y1335610*
X2389314Y1335291*
X2388996Y1334547*
X2388677Y1334011*
X2388354Y1333692*
X2388248Y1333480*
X2387610Y1332307*
X2387078Y1331562*
X2386649Y1330818*
X2386118Y1330283*
X2385692Y1329539*
X2385161Y1329007*
X2384625Y1328047*
X2384468Y1327889*
X2384307Y1327834*
X2384200Y1327622*
X2383988Y1327409*
X2383881Y1327196*
X2382921Y1326236*
X2382814Y1326023*
X2381964Y1325173*
X2381858Y1324956*
X2381377Y1324480*
X2381165Y1324374*
X2380897Y1324000*
X2380314Y1323413*
X2380102Y1323307*
X2379834Y1322933*
X2379566Y1322669*
X2379354Y1322562*
X2378397Y1321602*
X2378181Y1321496*
X2377224Y1320539*
X2377011Y1320433*
X2376637Y1320165*
X2376531Y1319952*
X2375413Y1319153*
X2375200Y1318940*
X2374988Y1318834*
X2374775Y1318622*
X2374027Y1318192*
X2373496Y1317661*
X2372535Y1317129*
X2372322Y1316917*
X2372110Y1316811*
X2370724Y1316062*
X2370299Y1315637*
X2369767Y1315425*
X2369023Y1315000*
X2368700Y1314681*
X2368169Y1314468*
X2367744Y1314358*
X2366732Y1313665*
X2365826Y1313401*
X2365133Y1313133*
X2364976Y1312976*
X2364759Y1312870*
X2364547Y1312653*
X2363484Y1312334*
X2362791Y1312070*
X2361566Y1311484*
X2360818Y1311377*
X2360393Y1311271*
X2359862Y1311059*
X2359649Y1310952*
X2358688Y1310523*
X2357944Y1310417*
X2357519Y1310311*
X2356610Y1310153*
X2356185Y1310047*
X2355279Y1309673*
X2354429Y1309460*
X2353685Y1309354*
X2352031Y1309192*
X2350751Y1308980*
X2350220Y1308874*
X2349633Y1308712*
X2348145Y1308500*
X2343881Y1308393*
X2338555Y1308500*
X2338236Y1308606*
X2337173Y1308712*
X2336641Y1308925*
X2335732Y1309086*
X2334295Y1309248*
X2333232Y1309354*
X2332326Y1309511*
X2331901Y1309618*
X2331208Y1309885*
X2330673Y1310098*
X2329980Y1310259*
X2328598Y1310472*
X2328173Y1310578*
X2327637Y1310791*
X2327480Y1310952*
X2326787Y1311216*
X2326362Y1311322*
X2325826Y1311429*
X2324976Y1311751*
X2324814Y1311909*
X2324070Y1312228*
X2323377Y1312389*
X2322952Y1312496*
X2322417Y1312708*
X2322153Y1312976*
X2321940Y1313082*
X2321192Y1313401*
X2320503Y1313665*
X2320342Y1313826*
X2320236*
X2320181Y1313881*
X2319917Y1314145*
X2319381Y1314358*
X2318799Y1314519*
X2318425Y1314681*
X2317838Y1315157*
X2316559Y1315799*
X2316082Y1316275*
X2315547Y1316492*
X2314803Y1316917*
X2314590Y1317129*
X2314377Y1317236*
X2313629Y1317661*
X2312992Y1318303*
X2312779Y1318409*
X2311767Y1319098*
X2311500Y1319366*
X2311287Y1319472*
X2310543Y1320003*
X2310114Y1320433*
X2309901Y1320539*
X2309318Y1321015*
X2309208Y1321228*
X2308944Y1321496*
X2308732Y1321602*
X2308251Y1321976*
X2308145Y1322188*
X2307771Y1322562*
X2307559Y1322669*
X2306708Y1323519*
X2306496Y1323625*
X2306122Y1324000*
X2306015Y1324212*
X2305641Y1324586*
X2305429Y1324692*
X2305161Y1325066*
X2304685Y1325649*
X2304472Y1325755*
X2304311Y1325917*
X2304204Y1326129*
X2303830Y1326610*
X2303618Y1326716*
X2303244Y1327090*
X2303137Y1327303*
X2302925Y1327515*
X2302818Y1327728*
X2302657Y1327889*
X2302444Y1327996*
X2301700Y1329165*
X2301220Y1329645*
X2300744Y1330551*
X2300527Y1330657*
X2300370Y1330818*
X2300263Y1331031*
X2299838Y1331775*
X2299303Y1332307*
X2299090Y1332842*
X2298559Y1333799*
X2298240Y1334118*
X2298027Y1334653*
X2297704Y1335185*
X2297173Y1335929*
X2296748Y1337102*
X2296216Y1337846*
X2295736Y1339177*
X2295468Y1339551*
X2295255Y1339763*
X2295043Y1340511*
X2294937Y1340937*
X2294669Y1341629*
X2294299Y1342322*
X2294082Y1342854*
X2293818Y1344078*
X2293125Y1345622*
X2293019Y1346051*
X2292913Y1346795*
X2292645Y1348019*
X2292275Y1348925*
X2292059Y1349673*
X2291952Y1350417*
X2291846Y1351803*
X2291740Y1352228*
X2291582Y1353240*
X2291263Y1354519*
X2291157Y1355157*
X2291047Y1356118*
X2290940Y1359098*
X2290889Y1362877*
X2290996Y1363200*
X2291102Y1366822*
X2291208Y1367141*
X2291370Y1367940*
X2291582Y1368791*
X2291688Y1369322*
X2291846Y1370763*
X2291952Y1371826*
X2292059Y1372255*
X2292169Y1372893*
X2292488Y1373637*
X2292700Y1374169*
X2292858Y1374862*
X2292964Y1375716*
X2293070Y1376248*
X2293177Y1376673*
X2293870Y1378220*
X2294031Y1378909*
X2294137Y1379338*
X2294456Y1379976*
X2294937Y1381094*
X2295094Y1381787*
X2295255Y1382161*
X2295787Y1382905*
X2296003Y1383437*
X2296161Y1384023*
X2296535Y1384610*
X2296854Y1385141*
X2297228Y1386153*
X2298027Y1387271*
X2298133Y1387700*
X2298610Y1388287*
X2299090Y1389082*
X2299196Y1389511*
X2299409Y1389724*
X2299515Y1389937*
X2299944Y1390362*
X2300370Y1391106*
X2300795Y1391535*
X2300901Y1391748*
X2301326Y1392492*
X2301968Y1393133*
X2302393Y1393877*
X2303031Y1394515*
X2303137Y1394728*
X2303511Y1395208*
X2303724Y1395314*
X2304098Y1395688*
X2304204Y1395901*
X2305055Y1396751*
X2305161Y1396964*
X2306122Y1397925*
X2306228Y1398137*
X2306385Y1398299*
X2306602Y1398405*
X2307665Y1399468*
X2307877Y1399574*
X2308732Y1400429*
X2308944Y1400535*
X2309425Y1401015*
X2309476Y1401173*
X2309688Y1401279*
X2309901Y1401492*
X2310114Y1401602*
X2310755Y1402240*
X2310968Y1402346*
X2311712Y1402877*
X2312035Y1403196*
X2312992Y1403732*
X2313629Y1404370*
X2314377Y1404795*
X2314696Y1405114*
X2314909Y1405220*
X2315653Y1405543*
X2315870Y1405649*
X2316452Y1406125*
X2316614Y1406287*
X2317145Y1406500*
X2317893Y1406925*
X2318212Y1407244*
X2318744Y1407460*
X2319169Y1407566*
X2320129Y1408098*
X2320661Y1408417*
X2321086Y1408523*
X2322047Y1409055*
X2322578Y1409377*
X2323429Y1409590*
X2324444Y1409960*
X2324602Y1410122*
X2325133Y1410334*
X2325881Y1410547*
X2326732Y1410759*
X2328118Y1411401*
X2328543Y1411507*
X2329291Y1411614*
X2330086Y1411771*
X2330515Y1411877*
X2331421Y1412251*
X2332165Y1412464*
X2333232Y1412570*
X2333657Y1412677*
X2335149Y1412783*
X2335468Y1412893*
X2336161Y1413051*
X2336692Y1413157*
X2337279Y1413318*
X2339409Y1413531*
X2345161Y1413637*
X2345480Y1413531*
G37*
%LNplatine-6*%
%LPC*%
G36*
X3149181Y948354D02*
X3114346Y948248D01*
X3114082Y947980*
X3114133Y912562*
X3132137*
X3149606Y912669*
X3149874Y912937*
X3149767Y948086*
X3149606Y948248*
X3149181Y948354*
G37*
G36*
X2362417Y1127311D02*
X2291157Y1127204D01*
X2290889Y1126937*
X2290783Y1091783*
X2290515Y1091519*
X2255366Y1091413*
X2255098Y1091145*
X2255204Y1020204*
X2255472Y1019937*
X2290622Y1019830*
X2290889Y1019562*
X2290996Y877039*
X2291263Y876771*
X2326413Y876877*
X2326681Y877145*
X2326787Y948086*
X2327051Y948354*
X2362204Y948460*
X2362472Y948728*
X2362578Y983877*
X2362842Y984145*
X2397996Y984251*
X2398263Y984519*
X2398157Y1055460*
X2397996Y1055622*
X2397570Y1055728*
X2362736Y1055834*
X2362472Y1056098*
Y1115220*
Y1115326*
X2362417Y1127311*
G37*
G36*
X2898641Y840980D02*
X2881066D01*
X2863811Y840874*
X2863543Y840610*
X2863437Y805456*
X2863173Y805188*
X2828019Y805295*
X2827755Y805562*
X2827645Y840716*
X2827488Y840874*
X2827062Y840980*
X2792228Y840874*
X2791964Y840610*
X2792070Y769665*
X2792334Y769397*
X2863279Y769291*
X2863543Y769027*
X2863649Y733874*
X2863917Y733610*
X2899334Y733555*
X2899389Y697818*
X2934858Y697925*
X2935125Y698188*
X2935019Y733342*
X2934858Y733503*
X2934433Y733610*
X2899334Y733661*
X2899440Y769133*
X2899708Y769397*
X2934858Y769507*
X2935125Y769771*
X2935074Y805188*
X2899602Y805295*
X2899334Y805562*
X2899228Y840716*
X2899070Y840874*
X2898641Y840980*
G37*
G36*
X2362417D02*
X2291157Y840874D01*
X2290889Y840610*
X2290940Y805188*
X2323964*
X2326413Y805082*
X2326681Y804818*
X2326732Y769397*
X2362204Y769507*
X2362472Y769771*
X2362417Y840980*
G37*
G36*
X3077598Y733610D02*
X2971185Y733503D01*
X2970917Y733236*
X2971023Y626500*
X2971291Y626236*
X3027000*
X3078023Y626342*
X3078291Y626610*
X3078185Y733342*
X3078023Y733503*
X3077598Y733610*
G37*
G36*
X3113389Y590444D02*
X3006976Y590338D01*
X3006708Y590070*
X3006814Y554921*
X3007082Y554653*
X3036161*
X3113814Y554759*
X3114082Y555027*
X3113976Y590177*
X3113814Y590338*
X3113389Y590444*
G37*
G36*
X2612314D02*
X2601023D01*
X2577484Y590338*
X2577216Y590070*
X2577322Y554921*
X2577590Y554653*
X2612740Y554759*
X2613007Y555027*
X2612901Y590177*
X2612740Y590338*
X2612314Y590444*
G37*
%LNplatine-7*%
%LPD*%
G36*
X3042232Y697712D02*
X3042500Y697444D01*
X3042393Y662291*
X3042125Y662027*
X3029452*
X3006976Y662133*
X3006708Y662397*
X3006814Y697551*
X3007082Y697818*
X3042232Y697712*
G37*
%LNplatine-8*%
%LPC*%
G36*
X2381696Y660110D02*
X2299889Y660003D01*
X2299570Y659897*
X2297547Y659791*
X2297228Y659685*
X2296641Y659523*
X2296216Y659417*
X2295629Y659255*
X2295204Y659149*
X2294456Y659043*
X2292807Y658779*
X2291952Y658456*
X2291263Y658192*
X2290409Y657980*
X2289610Y657818*
X2289185Y657712*
X2287641Y657019*
X2287212Y656913*
X2286519Y656751*
X2285937Y656381*
X2285401Y656062*
X2284976Y655956*
X2283964Y655582*
X2283594Y655314*
X2282421Y654783*
X2281673Y654358*
X2281354Y654039*
X2280342Y653665*
X2279972Y653397*
X2279649Y653078*
X2278480Y652440*
X2278267Y652228*
X2278051Y652122*
X2277838Y651905*
X2277149Y651641*
X2276988Y651480*
X2276775Y651374*
X2276562Y651055*
X2276350Y650948*
X2275444Y650362*
X2275338Y650149*
X2274645Y649669*
X2274433Y649562*
X2273791Y648925*
X2273578Y648818*
X2272885Y648338*
X2272779Y648125*
X2272409Y647751*
X2272192Y647645*
X2271129Y646582*
X2270917Y646476*
X2270437Y645996*
X2270330Y645783*
X2270062Y645515*
X2269850Y645409*
X2269586Y645141*
X2269476Y644929*
X2268519Y643972*
X2268413Y643759*
X2267933Y643173*
X2267452Y642692*
X2267346Y642480*
X2266870Y641893*
X2266708Y641736*
X2266602Y641519*
X2266389Y641307*
X2266070Y640775*
X2265429Y640137*
X2264897Y639177*
X2264578Y638858*
X2264472Y638645*
X2263940Y637685*
X2263460Y637102*
X2263248Y636566*
X2263086Y636196*
X2262342Y635129*
X2262181Y634543*
X2262023Y634173*
X2261543Y633586*
X2261275Y632893*
X2261169Y632468*
X2260637Y631507*
X2260318Y630763*
X2260106Y629909*
X2259889Y629377*
X2259464Y628633*
X2259251Y627885*
X2258988Y626661*
X2258771Y626129*
X2258507Y625543*
X2258295Y624799*
X2258027Y623039*
X2257814Y622188*
X2257653Y621602*
X2257440Y620748*
X2257283Y619736*
X2257173Y618566*
X2257066Y616543*
X2257015Y529566*
X2257122Y529248*
X2257228Y525732*
X2257334Y525413*
X2257496Y524401*
X2257708Y523551*
X2257814Y523015*
X2258027Y522165*
X2258346Y520248*
X2258665Y519393*
X2258877Y518862*
X2259200Y517586*
X2259307Y517051*
X2259519Y516519*
X2259996Y515720*
X2260157Y515027*
X2260370Y514177*
X2260531Y513803*
X2260956Y513165*
X2261169Y512629*
X2261543Y511618*
X2261913Y511248*
X2262236Y510500*
X2262500Y509807*
X2262767Y509437*
X2263192Y508795*
X2263405Y508263*
X2263511Y508051*
X2263724Y507838*
X2263834Y507625*
X2264153Y507303*
X2264366Y506771*
X2264685Y506240*
X2265003Y505921*
X2265110Y505708*
X2265535Y504960*
X2266177Y504322*
X2266283Y504110*
X2266814Y503362*
X2267240Y502937*
X2267346Y502724*
X2268094Y501767*
X2268625Y501232*
X2268732Y501019*
X2269692Y500062*
X2269799Y499850*
X2270062Y499582*
X2270224Y499527*
X2270330Y499314*
X2270649Y498996*
X2270755Y498783*
X2270917Y498622*
X2271129Y498515*
X2271342Y498303*
X2271555Y498196*
X2272409Y497346*
X2272622Y497240*
X2273472Y496385*
X2273685Y496279*
X2274003Y495960*
X2274165Y495909*
X2274271Y495692*
X2274909Y495267*
X2275283Y495000*
X2275814Y494468*
X2276775Y493937*
X2276988Y493618*
X2277200Y493511*
X2277948Y493086*
X2278531Y492606*
X2278692Y492444*
X2279224Y492232*
X2279972Y491807*
X2280291Y491488*
X2280822Y491275*
X2281779Y490740*
X2282102Y490421*
X2282527Y490314*
X2283271Y490102*
X2284019Y489677*
X2285188Y489141*
X2286149Y488610*
X2286893Y488291*
X2287318Y488185*
X2288011Y488023*
X2288547Y487811*
X2289342Y487334*
X2291102Y486960*
X2291527Y486854*
X2292059Y486641*
X2292539Y486480*
X2293287Y486267*
X2294775Y486055*
X2295204Y485948*
X2295897Y485787*
X2296960Y485574*
X2297385Y485468*
X2298665Y485255*
X2299732Y485149*
X2302925Y485043*
X2386279Y484988*
X2386598Y485094*
X2390433Y485200*
X2390751Y485307*
X2391763Y485468*
X2392188Y485574*
X2393255Y485787*
X2393681Y485893*
X2394212Y486000*
X2396129Y486318*
X2396559Y486429*
X2397090Y486641*
X2397783Y486905*
X2398476Y487066*
X2399007Y487173*
X2399433Y487279*
X2400287Y487598*
X2400444Y487759*
X2400980Y487972*
X2401830Y488185*
X2402523Y488342*
X2403374Y488877*
X2403960Y489141*
X2404547Y489303*
X2405078Y489515*
X2405346Y489783*
X2405559Y489889*
X2406303Y490208*
X2406732Y490314*
X2407263Y490633*
X2407582Y490952*
X2408326Y491275*
X2409074Y491700*
X2409393Y492019*
X2409925Y492232*
X2410673Y492657*
X2410992Y492980*
X2411204Y493086*
X2412161Y493618*
X2412696Y494149*
X2412909Y494255*
X2413653Y494787*
X2414078Y495216*
X2414295Y495322*
X2414877Y495803*
X2415039Y495960*
X2415251Y496066*
X2415464Y496279*
X2415677Y496385*
X2415889Y496598*
X2416102Y496704*
X2416956Y497559*
X2417169Y497665*
X2418125Y498622*
X2418342Y498732*
X2418500Y498889*
X2418606Y499102*
X2419673Y500169*
X2419779Y500381*
X2420736Y501338*
X2420842Y501555*
X2421484Y502192*
X2421590Y502405*
X2422334Y503362*
X2422653Y503685*
X2422763Y503897*
X2423295Y504641*
X2423720Y505066*
X2424251Y506027*
X2424677Y506452*
X2424944Y507145*
X2425476Y507783*
X2425637Y507944*
X2425850Y508476*
X2426381Y509437*
X2426704Y509755*
X2426917Y510500*
X2427448Y511460*
X2427767Y511992*
X2428248Y513322*
X2428511Y513590*
X2428834Y514334*
X2428992Y515027*
X2429098Y515559*
X2429791Y516893*
X2429897Y517318*
X2430059Y518011*
X2430165Y518543*
X2430484Y519393*
X2430696Y519929*
X2430909Y520779*
X2431232Y522696*
X2431338Y523122*
X2431444Y523657*
X2431657Y524507*
X2431763Y525039*
X2431921Y526480*
X2432027Y527224*
X2432133Y534043*
X2432027Y618299*
X2431921Y618618*
X2431814Y620003*
X2431708Y620322*
X2431444Y621440*
X2431338Y622082*
X2431232Y622507*
X2431015Y623570*
X2430803Y624850*
X2430377Y626023*
X2430110Y626929*
X2430003Y627354*
X2429846Y628047*
X2429633Y628578*
X2429153Y629377*
X2428992Y630070*
X2428779Y630921*
X2428622Y631295*
X2428192Y631933*
X2427980Y632468*
X2427610Y633480*
X2427342Y633744*
X2427236Y633956*
X2426917Y634704*
X2426649Y635397*
X2426492Y635555*
X2426381Y635767*
X2426062Y636090*
X2425850Y636622*
X2425425Y637366*
X2425000Y637791*
X2424732Y638484*
X2423826Y639708*
X2423452Y640401*
X2423240Y640507*
X2423082Y640669*
X2422976Y640881*
X2422228Y641842*
X2421909Y642161*
X2421484Y642905*
X2420736Y643653*
X2420629Y643866*
X2419779Y644716*
X2419673Y644929*
X2419460Y645141*
X2419405Y645303*
X2419192Y645409*
X2418606Y645996*
X2418500Y646208*
X2418125Y646582*
X2417913Y646688*
X2416956Y647645*
X2416744Y647751*
X2416425Y648070*
X2416263Y648125*
X2416157Y648338*
X2415090Y649192*
X2414720Y649562*
X2414507Y649669*
X2413759Y650204*
X2413334Y650629*
X2412590Y651055*
X2412055Y651586*
X2411098Y652122*
X2410779Y652440*
X2410566Y652547*
X2409181Y653291*
X2408862Y653610*
X2408114Y653929*
X2407582Y654251*
X2407370Y654464*
X2407157Y654570*
X2406409Y654889*
X2405720Y655157*
X2405346Y655421*
X2404385Y655850*
X2403374Y656220*
X2403110Y656488*
X2402897Y656594*
X2402362Y656807*
X2401137Y657074*
X2400232Y657551*
X2399700Y657767*
X2398846Y657980*
X2398208Y658086*
X2397889Y658192*
X2397196Y658456*
X2396716Y658618*
X2395972Y658830*
X2394960Y658992*
X2394322Y659098*
X2393255Y659311*
X2392830Y659417*
X2392669Y659468*
X2392562*
X2391870Y659629*
X2391338Y659736*
X2389901Y659897*
X2388834Y660003*
X2381696Y660110*
G37*
%LNplatine-9*%
%LPD*%
G36*
X2345480Y626129D02*
X2349314Y626023D01*
X2349633Y625917*
X2350326Y625755*
X2350858Y625649*
X2351287Y625543*
X2352562Y625330*
X2353629Y625224*
X2354586Y625118*
X2355122Y625011*
X2355972Y624692*
X2356507Y624476*
X2356933Y624370*
X2357303Y624318*
X2357413*
X2357732Y624212*
X2358744Y624051*
X2359169Y623944*
X2360393Y623358*
X2361248Y623145*
X2361937Y622988*
X2362472Y622771*
X2362629Y622614*
X2363377Y622295*
X2364228Y622082*
X2364976Y621653*
X2365188Y621440*
X2365720Y621228*
X2366145Y621122*
X2366838Y620854*
X2367212Y620590*
X2367850Y620165*
X2368437Y620003*
X2369023Y619629*
X2369767Y619098*
X2370192Y618992*
X2370940Y618460*
X2371153Y618248*
X2371685Y618031*
X2372429Y617606*
X2372858Y617181*
X2373814Y616649*
X2374346Y616118*
X2375307Y615582*
X2375838Y615051*
X2376586Y614625*
X2376850Y614251*
X2377224Y613984*
X2377811Y613507*
X2378397Y612921*
X2378610Y612814*
X2379086Y612334*
X2379141Y612173*
X2379354Y612066*
X2379566Y611854*
X2379779Y611748*
X2379940Y611590*
X2380047Y611374*
X2380421Y611003*
X2380633Y610897*
X2381003Y610523*
X2381114Y610311*
X2381484Y609937*
X2381696Y609830*
X2381964Y609460*
X2382177Y609244*
X2382232Y609086*
X2382444Y608980*
X2382921Y608500*
X2383027Y608287*
X2383295Y607913*
X2383507Y607807*
X2383881Y607433*
X2383988Y607220*
X2384468Y606637*
X2384842Y606263*
X2385267Y605515*
X2385692Y605090*
X2385799Y604877*
X2386224Y604240*
X2386330Y604027*
X2386972Y603385*
X2387503Y602429*
X2387822Y602110*
X2388141Y601362*
X2388248Y601149*
X2388728Y600562*
X2388889Y600405*
X2389153Y599712*
X2389527Y599125*
X2389740Y598913*
X2389846Y598700*
X2390059Y598165*
X2390326Y597476*
X2390751Y596834*
X2390913Y596677*
X2391019Y596248*
X2391389Y595240*
X2391551Y595078*
X2391657Y594866*
X2391870Y594653*
X2392082Y593905*
X2392188Y593480*
X2392562Y592468*
X2392724Y592307*
X2393043Y591562*
X2393307Y590338*
X2393681Y589539*
X2394000Y588795*
X2394106Y588047*
X2394212Y587622*
X2394374Y586610*
X2394692Y585759*
X2394905Y585224*
X2395011Y584799*
X2395118Y584267*
X2395330Y582137*
X2395547Y580858*
X2395653Y580326*
X2395811Y579740*
X2396023Y578248*
X2396129Y573669*
X2396023Y568555*
X2395917Y568236*
X2395759Y567224*
X2395598Y566637*
X2395385Y565358*
X2395279Y564614*
X2395118Y562960*
X2395011Y562429*
X2394905Y562003*
X2394480Y560937*
X2394374Y560511*
X2394267Y559980*
X2394055Y558700*
X2393948Y558275*
X2393736Y557744*
X2393574Y557582*
X2393307Y556889*
X2393200Y556464*
X2393094Y555933*
X2392988Y555503*
X2392507Y554602*
X2392295Y554066*
X2392082Y553216*
X2391818Y552523*
X2391551Y552255*
X2391444Y552043*
X2391125Y551299*
X2391019Y550874*
X2390594Y550125*
X2390377Y549913*
X2390165Y549381*
X2390059Y548952*
X2389633Y548208*
X2389314Y547889*
X2388996Y547145*
X2388677Y546610*
X2388354Y546291*
X2388248Y546078*
X2387610Y544905*
X2387078Y544161*
X2386649Y543417*
X2386118Y542881*
X2385692Y542137*
X2385161Y541606*
X2384625Y540645*
X2384468Y540488*
X2384307Y540433*
X2384200Y540220*
X2383988Y540007*
X2383881Y539795*
X2382921Y538834*
X2382814Y538622*
X2381964Y537771*
X2381858Y537555*
X2381377Y537078*
X2381165Y536972*
X2380633Y536330*
X2380314Y536011*
X2380102Y535905*
X2379566Y535267*
X2379354Y535161*
X2378397Y534200*
X2378181Y534094*
X2377224Y533137*
X2377011Y533031*
X2376637Y532763*
X2376531Y532551*
X2375838Y532070*
X2375625Y531964*
X2375200Y531539*
X2374988Y531433*
X2374775Y531220*
X2374027Y530791*
X2373496Y530259*
X2372535Y529728*
X2372322Y529515*
X2372110Y529409*
X2370724Y528661*
X2370299Y528236*
X2369767Y528023*
X2369023Y527598*
X2368700Y527279*
X2368169Y527066*
X2367744Y526956*
X2366732Y526267*
X2365826Y526000*
X2365133Y525732*
X2364976Y525574*
X2364759Y525468*
X2364547Y525251*
X2363484Y524933*
X2362791Y524669*
X2361566Y524082*
X2360818Y523976*
X2360393Y523870*
X2359862Y523657*
X2359649Y523551*
X2358688Y523122*
X2357944Y523015*
X2357519Y522909*
X2356610Y522751*
X2356185Y522645*
X2355279Y522271*
X2354429Y522059*
X2353685Y521952*
X2352031Y521791*
X2350751Y521578*
X2350220Y521472*
X2349633Y521311*
X2348145Y521098*
X2343881Y520992*
X2338555Y521098*
X2338236Y521204*
X2337173Y521311*
X2336641Y521527*
X2335732Y521685*
X2334295Y521846*
X2333232Y521952*
X2332326Y522110*
X2331901Y522216*
X2331208Y522484*
X2330673Y522696*
X2329980Y522858*
X2328598Y523070*
X2328173Y523177*
X2327637Y523389*
X2327480Y523551*
X2326787Y523814*
X2326362Y523921*
X2325826Y524027*
X2324976Y524346*
X2324814Y524507*
X2324070Y524826*
X2323377Y524988*
X2322952Y525094*
X2322417Y525307*
X2322153Y525574*
X2321940Y525681*
X2321192Y526000*
X2320503Y526267*
X2320342Y526425*
X2320129Y526531*
X2319917Y526744*
X2319381Y526956*
X2318799Y527118*
X2318425Y527279*
X2317838Y527755*
X2316559Y528397*
X2316082Y528874*
X2315547Y529090*
X2314803Y529515*
X2314590Y529728*
X2314377Y529834*
X2313629Y530259*
X2312992Y530897*
X2312779Y531003*
X2311767Y531696*
X2311500Y531964*
X2311287Y532070*
X2310543Y532602*
X2310114Y533031*
X2309901Y533137*
X2309318Y533614*
X2309208Y533826*
X2308944Y534094*
X2308732Y534200*
X2308251Y534574*
X2308145Y534787*
X2307771Y535161*
X2307559Y535267*
X2306708Y536118*
X2306496Y536224*
X2306122Y536598*
X2306015Y536811*
X2305641Y537185*
X2305429Y537291*
X2305161Y537665*
X2304685Y538248*
X2304472Y538354*
X2304311Y538515*
X2304204Y538728*
X2303830Y539208*
X2303618Y539314*
X2303244Y539688*
X2303137Y539901*
X2302925Y540114*
X2302818Y540326*
X2302657Y540488*
X2302444Y540594*
X2301700Y541763*
X2301220Y542244*
X2300744Y543149*
X2300527Y543255*
X2300370Y543417*
X2300263Y543629*
X2299838Y544374*
X2299303Y544905*
X2299090Y545440*
X2298559Y546397*
X2298240Y546716*
X2298027Y547251*
X2297704Y547783*
X2297173Y548527*
X2296748Y549700*
X2296216Y550444*
X2295736Y551779*
X2295468Y552149*
X2295255Y552362*
X2295043Y553110*
X2294937Y553535*
X2294669Y554228*
X2294299Y554921*
X2294082Y555452*
X2293818Y556677*
X2293125Y558220*
X2293019Y558649*
X2292913Y559393*
X2292645Y560618*
X2292275Y561523*
X2292059Y562271*
X2291952Y563015*
X2291846Y564401*
X2291740Y564826*
X2291582Y565838*
X2291263Y567118*
X2291157Y567755*
X2291047Y568712*
X2290940Y571696*
X2290889Y575480*
X2290996Y575799*
X2291102Y579421*
X2291208Y579740*
X2291370Y580539*
X2291582Y581389*
X2291688Y581925*
X2291846Y583362*
X2291952Y584425*
X2292059Y584854*
X2292169Y585492*
X2292488Y586236*
X2292700Y586767*
X2292858Y587460*
X2292964Y588314*
X2293070Y588846*
X2293177Y589271*
X2293870Y590818*
X2294031Y591511*
X2294137Y591937*
X2294456Y592574*
X2294937Y593692*
X2295094Y594385*
X2295255Y594759*
X2295787Y595503*
X2296003Y596035*
X2296161Y596622*
X2296535Y597208*
X2296854Y597740*
X2297228Y598751*
X2297492Y599125*
X2297704Y599338*
X2297811Y599551*
X2298452Y600724*
X2298665Y600937*
X2298771Y601149*
X2299515Y602535*
X2299944Y602960*
X2300370Y603708*
X2300795Y604133*
X2300901Y604346*
X2301326Y605090*
X2301968Y605728*
X2302393Y606476*
X2303031Y607114*
X2303137Y607326*
X2303511Y607807*
X2303724Y607913*
X2304098Y608287*
X2304204Y608500*
X2305055Y609350*
X2305161Y609566*
X2306122Y610523*
X2306228Y610736*
X2306385Y610897*
X2306602Y611003*
X2307665Y612066*
X2307877Y612173*
X2308732Y613027*
X2308944Y613133*
X2309425Y613614*
X2309476Y613771*
X2309688Y613877*
X2309901Y614090*
X2310114Y614196*
X2310755Y614838*
X2310968Y614944*
X2311712Y615476*
X2312035Y615795*
X2312992Y616330*
X2313629Y616968*
X2314377Y617393*
X2314696Y617712*
X2314909Y617818*
X2315653Y618141*
X2315870Y618248*
X2316452Y618724*
X2316614Y618885*
X2317145Y619098*
X2317893Y619523*
X2318212Y619846*
X2318744Y620059*
X2319169Y620165*
X2320129Y620696*
X2320661Y621015*
X2321086Y621122*
X2322047Y621653*
X2322578Y621976*
X2323429Y622188*
X2324444Y622559*
X2324602Y622720*
X2325133Y622933*
X2325881Y623145*
X2326732Y623358*
X2328118Y624000*
X2328543Y624106*
X2329291Y624212*
X2330086Y624370*
X2330515Y624476*
X2331421Y624850*
X2332165Y625062*
X2333232Y625169*
X2333657Y625275*
X2335149Y625381*
X2335468Y625492*
X2336161Y625649*
X2336692Y625755*
X2337279Y625917*
X2339409Y626129*
X2345161Y626236*
X2345480Y626129*
G37*
G54D10*
X3213188Y3632677D02*
D01*
X3213176Y3633020*
X3213141Y3633362*
X3213081Y3633700*
X3212998Y3634033*
X3212892Y3634360*
X3212763Y3634678*
X3212612Y3634987*
X3212441Y3635285*
X3212249Y3635569*
X3212037Y3635840*
X3211807Y3636095*
X3211560Y3636334*
X3211297Y3636555*
X3211019Y3636757*
X3210728Y3636939*
X3210425Y3637100*
X3210111Y3637240*
X3209788Y3637357*
X3209458Y3637452*
X3209122Y3637523*
X3208782Y3637571*
X3208439Y3637595*
X3208095*
X3207753Y3637571*
X3207413Y3637523*
X3207077Y3637452*
X3206746Y3637357*
X3206424Y3637240*
X3206110Y3637100*
X3205807Y3636939*
X3205515Y3636757*
X3205237Y3636555*
X3204974Y3636334*
X3204727Y3636095*
X3204497Y3635840*
X3204286Y3635569*
X3204094Y3635285*
X3203922Y3634987*
X3203771Y3634678*
X3203643Y3634360*
X3203537Y3634033*
X3203453Y3633700*
X3203394Y3633362*
X3203358Y3633020*
X3203346Y3632677*
X3203358Y3632333*
X3203394Y3631992*
X3203453Y3631653*
X3203537Y3631320*
X3203643Y3630993*
X3203771Y3630675*
X3203922Y3630366*
X3204094Y3630069*
X3204286Y3629784*
X3204497Y3629513*
X3204727Y3629258*
X3204974Y3629019*
X3205237Y3628799*
X3205515Y3628597*
X3205807Y3628415*
X3206110Y3628253*
X3206424Y3628114*
X3206746Y3627996*
X3207077Y3627902*
X3207413Y3627830*
X3207753Y3627782*
X3208095Y3627758*
X3208439*
X3208782Y3627782*
X3209122Y3627830*
X3209458Y3627902*
X3209788Y3627996*
X3210111Y3628114*
X3210425Y3628253*
X3210728Y3628415*
X3211019Y3628597*
X3211297Y3628799*
X3211560Y3629019*
X3211807Y3629258*
X3212037Y3629513*
X3212249Y3629784*
X3212441Y3630069*
X3212612Y3630366*
X3212763Y3630675*
X3212892Y3630993*
X3212998Y3631320*
X3213081Y3631653*
X3213141Y3631992*
X3213176Y3632333*
X3213188Y3632677*
X853740Y2600000D02*
D01*
X853728Y2600343*
X853692Y2600684*
X853632Y2601023*
X853549Y2601356*
X853443Y2601683*
X853314Y2602001*
X853164Y2602310*
X852992Y2602607*
X852800Y2602892*
X852588Y2603163*
X852358Y2603418*
X852111Y2603657*
X851848Y2603878*
X851570Y2604079*
X851279Y2604261*
X850976Y2604423*
X850662Y2604562*
X850339Y2604680*
X850009Y2604775*
X849673Y2604846*
X849333Y2604894*
X848990Y2604918*
X848647*
X848304Y2604894*
X847964Y2604846*
X847628Y2604775*
X847298Y2604680*
X846975Y2604562*
X846661Y2604423*
X846358Y2604261*
X846066Y2604079*
X845789Y2603878*
X845525Y2603657*
X845278Y2603418*
X845048Y2603163*
X844837Y2602892*
X844645Y2602607*
X844473Y2602310*
X844323Y2602001*
X844194Y2601683*
X844088Y2601356*
X844005Y2601023*
X843945Y2600684*
X843909Y2600343*
X843897Y2600000*
X843909Y2599656*
X843945Y2599315*
X844005Y2598976*
X844088Y2598643*
X844194Y2598316*
X844323Y2597998*
X844473Y2597689*
X844645Y2597392*
X844837Y2597107*
X845048Y2596836*
X845278Y2596581*
X845525Y2596342*
X845789Y2596121*
X846066Y2595920*
X846358Y2595738*
X846661Y2595576*
X846975Y2595437*
X847298Y2595319*
X847628Y2595224*
X847964Y2595153*
X848304Y2595105*
X848647Y2595081*
X848990*
X849333Y2595105*
X849673Y2595153*
X850009Y2595224*
X850339Y2595319*
X850662Y2595437*
X850976Y2595576*
X851279Y2595738*
X851570Y2595920*
X851848Y2596121*
X852111Y2596342*
X852358Y2596581*
X852588Y2596836*
X852800Y2597107*
X852992Y2597392*
X853164Y2597689*
X853314Y2597998*
X853443Y2598316*
X853549Y2598643*
X853632Y2598976*
X853692Y2599315*
X853728Y2599656*
X853740Y2600000*
G54D11*
X2648818Y3000000D02*
D01*
X2648814Y3000137*
X2648799Y3000273*
X2648775Y3000409*
X2648742Y3000542*
X2648700Y3000673*
X2648648Y3000800*
X2648588Y3000924*
X2648519Y3001043*
X2648442Y3001157*
X2648358Y3001265*
X2648266Y3001367*
X2648167Y3001462*
X2648062Y3001551*
X2647951Y3001631*
X2647834Y3001704*
X2647713Y3001769*
X2647587Y3001825*
X2647458Y3001872*
X2647326Y3001910*
X2647192Y3001938*
X2647056Y3001957*
X2646919Y3001967*
X2646781*
X2646644Y3001957*
X2646508Y3001938*
X2646374Y3001910*
X2646242Y3001872*
X2646112Y3001825*
X2645987Y3001769*
X2645866Y3001704*
X2645749Y3001631*
X2645638Y3001551*
X2645533Y3001462*
X2645434Y3001367*
X2645342Y3001265*
X2645257Y3001157*
X2645181Y3001043*
X2645112Y3000924*
X2645052Y3000800*
X2645000Y3000673*
X2644958Y3000542*
X2644924Y3000409*
X2644901Y3000273*
X2644886Y3000137*
X2644881Y3000000*
X2644886Y2999862*
X2644901Y2999726*
X2644924Y2999590*
X2644958Y2999457*
X2645000Y2999326*
X2645052Y2999199*
X2645112Y2999075*
X2645181Y2998956*
X2645257Y2998842*
X2645342Y2998734*
X2645434Y2998632*
X2645533Y2998537*
X2645638Y2998448*
X2645749Y2998368*
X2645866Y2998295*
X2645987Y2998230*
X2646112Y2998174*
X2646242Y2998127*
X2646374Y2998089*
X2646508Y2998061*
X2646644Y2998042*
X2646781Y2998032*
X2646919*
X2647056Y2998042*
X2647192Y2998061*
X2647326Y2998089*
X2647458Y2998127*
X2647587Y2998174*
X2647713Y2998230*
X2647834Y2998295*
X2647951Y2998368*
X2648062Y2998448*
X2648167Y2998537*
X2648266Y2998632*
X2648358Y2998734*
X2648442Y2998842*
X2648519Y2998956*
X2648588Y2999075*
X2648648Y2999199*
X2648700Y2999326*
X2648742Y2999457*
X2648775Y2999590*
X2648799Y2999726*
X2648814Y2999862*
X2648818Y3000000*
X2151968Y2750000D02*
D01*
X2151963Y2750137*
X2151949Y2750273*
X2151925Y2750409*
X2151892Y2750542*
X2151849Y2750673*
X2151798Y2750800*
X2151738Y2750924*
X2151669Y2751043*
X2151592Y2751157*
X2151507Y2751265*
X2151416Y2751367*
X2151317Y2751462*
X2151211Y2751551*
X2151100Y2751631*
X2150984Y2751704*
X2150862Y2751769*
X2150737Y2751825*
X2150608Y2751872*
X2150476Y2751910*
X2150341Y2751938*
X2150205Y2751957*
X2150068Y2751967*
X2149931*
X2149794Y2751957*
X2149658Y2751938*
X2149523Y2751910*
X2149391Y2751872*
X2149262Y2751825*
X2149137Y2751769*
X2149015Y2751704*
X2148899Y2751631*
X2148788Y2751551*
X2148682Y2751462*
X2148583Y2751367*
X2148492Y2751265*
X2148407Y2751157*
X2148330Y2751043*
X2148261Y2750924*
X2148201Y2750800*
X2148150Y2750673*
X2148107Y2750542*
X2148074Y2750409*
X2148050Y2750273*
X2148036Y2750137*
X2148031Y2750000*
X2148036Y2749862*
X2148050Y2749726*
X2148074Y2749590*
X2148107Y2749457*
X2148150Y2749326*
X2148201Y2749199*
X2148261Y2749075*
X2148330Y2748956*
X2148407Y2748842*
X2148492Y2748734*
X2148583Y2748632*
X2148682Y2748537*
X2148788Y2748448*
X2148899Y2748368*
X2149015Y2748295*
X2149137Y2748230*
X2149262Y2748174*
X2149391Y2748127*
X2149523Y2748089*
X2149658Y2748061*
X2149794Y2748042*
X2149931Y2748032*
X2150068*
X2150205Y2748042*
X2150341Y2748061*
X2150476Y2748089*
X2150608Y2748127*
X2150737Y2748174*
X2150862Y2748230*
X2150984Y2748295*
X2151100Y2748368*
X2151211Y2748448*
X2151317Y2748537*
X2151416Y2748632*
X2151507Y2748734*
X2151592Y2748842*
X2151669Y2748956*
X2151738Y2749075*
X2151798Y2749199*
X2151849Y2749326*
X2151892Y2749457*
X2151925Y2749590*
X2151949Y2749726*
X2151963Y2749862*
X2151968Y2750000*
X2919094Y3730118D02*
Y3783267D01*
X3280905Y3730118D02*
Y3783267D01*
X1475000Y1655000D02*
X1520000Y1700000D01*
X1470000Y275000D02*
X2035000D01*
X1880000D02*
Y415000D01*
X1575000D02*
X1880000D01*
X1375000Y275000D02*
X1475000D01*
X1575000D02*
Y415000D01*
X1825000Y275000D02*
Y375000D01*
X1625000Y275000D02*
Y375000D01*
X1825000*
X2075000Y1700000D02*
Y1775000D01*
X1975000D02*
X2075000D01*
Y275000D02*
Y1700000D01*
X1425000Y1775000D02*
X2060000D01*
X1975000Y275000D02*
Y1775000D01*
X1520000Y1700000D02*
Y1775000D01*
X1375000D02*
X1520000D01*
X1475000Y275000D02*
Y1655000D01*
X1975000Y275000D02*
X2075000D01*
X1375000D02*
Y1775000D01*
X1594803Y3400000D02*
X1736299D01*
X1918818D02*
X2060314D01*
X1736299D02*
X1782755Y3446456D01*
X1736299Y3353543D02*
X1918818D01*
X1736299D02*
Y3446456D01*
X2354724Y3040944D02*
X2445275D01*
X2335236Y3466929D02*
X2364763D01*
X2335236Y3333070D02*
X2364763D01*
X1061023Y3346259D02*
X1244094D01*
Y3253740D02*
Y3346259D01*
X1061023Y3253740D02*
Y3346259D01*
X852362Y2959448D02*
X1647637D01*
X1061023Y3253740D02*
X1244094D01*
X1736299Y3446456D02*
X1918818D01*
Y3353543D02*
Y3446456D01*
X919803Y3300000D02*
X1061023D01*
X1197834Y3253740D02*
X1244094Y3300000D01*
X1385314*
X1321259Y2398818D02*
X1478740D01*
X1321259Y2501181D02*
X1478740D01*
X1801181Y2522834D02*
Y2680314D01*
X1698818Y2522834D02*
Y2680314D01*
X1595275Y2782283D02*
X1647637D01*
X852362Y2979133D02*
X1647637D01*
X852362Y2782283D02*
X904724D01*
X852362D02*
Y2979133D01*
X1647637Y2782283D02*
Y2979133D01*
X3738385Y1650000D02*
Y2151968D01*
X3411614D02*
X3738385D01*
X350000Y753937D02*
X513385D01*
X186614Y148031D02*
X513385D01*
Y753937*
X3411614Y1351968D02*
X3738385D01*
X3411614Y746062D02*
Y1351968D01*
X3738385Y850000D02*
Y1351968D01*
X3411614Y1546062D02*
Y2151968D01*
Y1546062D02*
X3575000D01*
X513385Y1748031D02*
Y2353937D01*
X350000D02*
X513385D01*
X186614Y1748031D02*
X513385D01*
X704724Y3412992D02*
X1098425D01*
X186614Y1748031D02*
Y2250000D01*
X350000Y1553937D02*
X513385D01*
X186614Y148031D02*
Y650000D01*
X513385Y948031D02*
Y1553937D01*
X186614Y948031D02*
Y1450000D01*
Y948031D02*
X513385D01*
X3411614Y746062D02*
X3575000D01*
X3387992Y154724D02*
Y548425D01*
X3762007*
X3387992Y154724D02*
X3762007D01*
Y548425*
X530905Y3103740D02*
Y3196259D01*
X713976*
X530905Y3103740D02*
X713976D01*
X2459055Y3040944D02*
X2515157D01*
X2445275D02*
Y3159055D01*
X2354724Y3040944D02*
Y3159055D01*
X2445275*
X713976Y3103740D02*
Y3196259D01*
X513976Y3253740D02*
Y3346259D01*
X467716Y3253740D02*
X513976Y3300000D01*
X330905Y3346259D02*
X513976D01*
X330905Y3253740D02*
X513976D01*
X330905D02*
Y3346259D01*
X704724Y3787007D02*
X1098425D01*
X704724Y3412992D02*
Y3787007D01*
X1098425Y3412992D02*
Y3787007D01*
X513976Y3300000D02*
X655196D01*
X189685D02*
X330905D01*
X1261023Y3103740D02*
X1444094D01*
X1261023D02*
Y3196259D01*
X389685Y3150000D02*
X530905D01*
X667716Y3103740D02*
X713976Y3150000D01*
X855196*
X1444094D02*
X1585314D01*
X1119803D02*
X1261023D01*
X1397834Y3103740D02*
X1444094Y3150000D01*
X1261023Y3196259D02*
X1444094D01*
Y3103740D02*
Y3196259D01*
X1400000Y1800000D02*
Y1836732D01*
X1418366Y1855098*
X1436732Y1836732*
Y1800000*
Y1827551*
X1400000*
X1455098Y1836732D02*
Y1800000D01*
Y1818366*
X1464283Y1827551*
X1473468Y1836732*
X1482649*
X1546933Y1855098D02*
Y1800000D01*
X1519385*
X1510200Y1809185*
Y1827551*
X1519385Y1836732*
X1546933*
X1565299D02*
Y1809185D01*
X1574484Y1800000*
X1602035*
Y1836732*
X1620401Y1800000D02*
X1638767D01*
X1629582*
Y1836732*
X1620401*
X1666318Y1800000D02*
Y1836732D01*
X1693870*
X1703051Y1827551*
Y1800000*
X1730602D02*
X1748968D01*
X1758153Y1809185*
Y1827551*
X1748968Y1836732*
X1730602*
X1721417Y1827551*
Y1809185*
X1730602Y1800000*
X1831618D02*
Y1855098D01*
X1868354Y1800000*
Y1855098*
X1895901Y1836732D02*
X1914267D01*
X1923452Y1827551*
Y1800000*
X1895901*
X1886720Y1809185*
X1895901Y1818366*
X1923452*
X1941818Y1800000D02*
Y1836732D01*
X1969370*
X1978551Y1827551*
Y1800000*
X2006102D02*
X2024468D01*
X2033653Y1809185*
Y1827551*
X2024468Y1836732*
X2006102*
X1996921Y1827551*
Y1809185*
X2006102Y1800000*
G54D12*
X1122047Y3600000D02*
D01*
X1122042Y3600137*
X1122028Y3600273*
X1122004Y3600409*
X1121970Y3600542*
X1121928Y3600673*
X1121877Y3600800*
X1121816Y3600924*
X1121748Y3601043*
X1121671Y3601157*
X1121586Y3601265*
X1121494Y3601367*
X1121395Y3601462*
X1121290Y3601551*
X1121179Y3601631*
X1121062Y3601704*
X1120941Y3601769*
X1120816Y3601825*
X1120687Y3601872*
X1120554Y3601910*
X1120420Y3601938*
X1120284Y3601957*
X1120147Y3601967*
X1120010*
X1119872Y3601957*
X1119736Y3601938*
X1119602Y3601910*
X1119470Y3601872*
X1119341Y3601825*
X1119215Y3601769*
X1119094Y3601704*
X1118977Y3601631*
X1118866Y3601551*
X1118761Y3601462*
X1118662Y3601367*
X1118570Y3601265*
X1118486Y3601157*
X1118409Y3601043*
X1118340Y3600924*
X1118280Y3600800*
X1118228Y3600673*
X1118186Y3600542*
X1118153Y3600409*
X1118129Y3600273*
X1118115Y3600137*
X1118110Y3600000*
X3575000Y135039D02*
D01*
X3574862Y135034*
X3574726Y135020*
X3574590Y134996*
X3574457Y134963*
X3574326Y134920*
X3574199Y134869*
X3574075Y134808*
X3573956Y134740*
X3573842Y134663*
X3573734Y134578*
X3573632Y134486*
X3573537Y134388*
X3573448Y134282*
X3573368Y134171*
X3573295Y134055*
X3573230Y133933*
X3573174Y133808*
X3573127Y133679*
X3573089Y133547*
X3573061Y133412*
X3573042Y133276*
X3573032Y133139*
Y133002*
X3573042Y132865*
X3573061Y132729*
X3573089Y132594*
X3573127Y132462*
X3573174Y132333*
X3573230Y132207*
X3573295Y132086*
X3573368Y131970*
X3573448Y131858*
X3573537Y131753*
X3573632Y131654*
X3573734Y131562*
X3573842Y131478*
X3573956Y131401*
X3574075Y131332*
X3574199Y131272*
X3574326Y131221*
X3574457Y131178*
X3574590Y131145*
X3574726Y131121*
X3574862Y131107*
X3575000Y131102*
X1118110Y3600000D02*
D01*
X1118115Y3599862*
X1118129Y3599726*
X1118153Y3599590*
X1118186Y3599457*
X1118228Y3599326*
X1118280Y3599199*
X1118340Y3599075*
X1118409Y3598956*
X1118486Y3598842*
X1118570Y3598734*
X1118662Y3598632*
X1118761Y3598537*
X1118866Y3598448*
X1118977Y3598368*
X1119094Y3598295*
X1119215Y3598230*
X1119341Y3598174*
X1119470Y3598127*
X1119602Y3598089*
X1119736Y3598061*
X1119872Y3598042*
X1120010Y3598032*
X1120147*
X1120284Y3598042*
X1120420Y3598061*
X1120554Y3598089*
X1120687Y3598127*
X1120816Y3598174*
X1120941Y3598230*
X1121062Y3598295*
X1121179Y3598368*
X1121290Y3598448*
X1121395Y3598537*
X1121494Y3598632*
X1121586Y3598734*
X1121671Y3598842*
X1121748Y3598956*
X1121816Y3599075*
X1121877Y3599199*
X1121928Y3599326*
X1121970Y3599457*
X1122004Y3599590*
X1122028Y3599726*
X1122042Y3599862*
X1122047Y3600000*
X3575000Y131102D02*
D01*
X3575137Y131107*
X3575273Y131121*
X3575409Y131145*
X3575542Y131178*
X3575673Y131221*
X3575800Y131272*
X3575924Y131332*
X3576043Y131401*
X3576157Y131478*
X3576265Y131562*
X3576367Y131654*
X3576462Y131753*
X3576551Y131858*
X3576631Y131970*
X3576704Y132086*
X3576769Y132207*
X3576825Y132333*
X3576872Y132462*
X3576910Y132594*
X3576938Y132729*
X3576957Y132865*
X3576967Y133002*
Y133139*
X3576957Y133276*
X3576938Y133412*
X3576910Y133547*
X3576872Y133679*
X3576825Y133808*
X3576769Y133933*
X3576704Y134055*
X3576631Y134171*
X3576551Y134282*
X3576462Y134388*
X3576367Y134486*
X3576265Y134578*
X3576157Y134663*
X3576043Y134740*
X3575924Y134808*
X3575800Y134869*
X3575673Y134920*
X3575542Y134963*
X3575409Y134996*
X3575273Y135020*
X3575137Y135034*
X3575000Y135039*
X1989370Y2427952D02*
X2001181D01*
X1898818Y2270472D02*
Y2427952D01*
Y2270472D02*
X1910629D01*
X1898818Y2427952D02*
X1910629D01*
X2001181Y2270472D02*
Y2427952D01*
X1989370Y2270472D02*
X2001181D01*
G54D13*
X3127165Y2948031D02*
Y3361417D01*
X3272834*
X3127165Y2948031D02*
X3197047D01*
X2700000Y3142322D02*
Y3188582D01*
Y3601968D02*
Y3648228D01*
X3200000Y3361417D02*
Y3407677D01*
X2977165Y2948031D02*
X3047047D01*
X3200000Y2901771D02*
Y2948031D01*
X3272834D02*
Y3361417D01*
X3197047Y2948031D02*
X3272834D01*
X2772834Y3188582D02*
Y3601968D01*
X2697047Y3188582D02*
X2772834D01*
X2627165Y3601968D02*
X2772834D01*
X2627165Y3188582D02*
X2697047D01*
X2627165D02*
Y3601968D01*
X2977165Y2948031D02*
Y3361417D01*
X2238582Y2777165D02*
X2651968D01*
X2238582D02*
Y2922834D01*
X2651968Y2777165D02*
Y2847047D01*
X1950000Y3101968D02*
Y3148228D01*
Y2642322D02*
Y2688582D01*
X2192322Y2850000D02*
X2238582D01*
X2651968D02*
X2698228D01*
X2238582Y2922834D02*
X2651968D01*
Y2847047D02*
Y2922834D01*
X3050000Y2901771D02*
Y2948031D01*
Y3361417D02*
Y3407677D01*
X3047047Y2948031D02*
X3122834D01*
X2977165Y3361417D02*
X3122834D01*
Y2948031D02*
Y3361417D01*
X1877165Y2688582D02*
Y3101968D01*
X1952952*
X1877165Y2688582D02*
X2022834D01*
X1952952Y3101968D02*
X2022834D01*
Y2688582D02*
Y3101968D01*
X748031Y477952D02*
Y547834D01*
X1161417*
Y650000D02*
X1207677D01*
X748031Y577165D02*
Y652952D01*
X701771Y650000D02*
X748031D01*
X701771Y475000D02*
X748031D01*
X1161417D02*
X1207677D01*
X748031Y402165D02*
Y477952D01*
X1161417Y402165D02*
Y547834D01*
X748031Y402165D02*
X1161417D01*
Y577165D02*
Y722834D01*
X748031Y577165D02*
X1161417D01*
X748031Y722834D02*
X1161417D01*
X748031Y652952D02*
Y722834D01*
X2522834Y2198031D02*
Y2611417D01*
X2447047Y2198031D02*
X2522834D01*
X2377165Y2611417D02*
X2522834D01*
X2377165Y2198031D02*
X2447047D01*
X2377165D02*
Y2611417D01*
X2450000Y2151771D02*
Y2198031D01*
Y2611417D02*
Y2657677D01*
X3100000Y3829992D02*
X3080007D01*
X3090003*
Y3780007*
X3080007Y3770007*
X3070007*
X3060011Y3780007*
X3119992Y3770007D02*
X3139988D01*
X3129992*
Y3829992*
X3119992Y3819992*
X1029956Y3879992D02*
Y3820007D01*
X1009964Y3840003*
X989972Y3820007*
Y3879992*
X959980D02*
X939988D01*
X929988Y3869992*
Y3850000*
X939988Y3840003*
X959980*
X969976Y3850000*
Y3869992*
X959980Y3879992*
X900000Y3830007D02*
Y3840003D01*
X909996*
X890003*
X900000*
Y3869992*
X890003Y3879992*
X850015D02*
X830023D01*
X820027Y3869992*
Y3850000*
X830023Y3840003*
X850015*
X860011Y3850000*
Y3869992*
X850015Y3879992*
X800031Y3840003D02*
Y3879992D01*
Y3859996*
X790035Y3850000*
X780039Y3840003*
X770043*
X2204598Y3564578D02*
Y3504598D01*
X2244586*
X2264578D02*
X2284570D01*
X2274574*
Y3564578*
X2264578Y3554582*
X2314562Y3504598D02*
X2334555D01*
X2324559*
Y3564578*
X2314562Y3554582*
X1630031Y1229992D02*
X1650023D01*
X1640027*
Y1170011*
X1630031*
X1650023*
X1720000Y1219992D02*
X1710003Y1229992D01*
X1690011*
X1680015Y1219992*
Y1180007*
X1690011Y1170011*
X1710003*
X1720000Y1180007*
X1779984Y1170011D02*
X1739996D01*
X1779984Y1209996*
Y1219992*
X1769984Y1229992*
X1749992*
X1739996Y1219992*
X1799976Y1170011D02*
X1819968D01*
X1809972*
Y1229992*
X1799976Y1219992*
X635598Y582598D02*
Y642578D01*
X665590*
X675586Y632582*
Y612586*
X665590Y602590*
X635598*
X655590D02*
X675586Y582598D01*
X735566D02*
X695578D01*
X735566Y622586*
Y632582*
X725570Y642578*
X705574*
X695578Y632582*
X785551Y582598D02*
Y642578D01*
X755559Y612586*
X795547*
X635598Y757598D02*
Y817578D01*
X665590*
X675586Y807582*
Y787586*
X665590Y777590*
X635598*
X655590D02*
X675586Y757598D01*
X735566D02*
X695578D01*
X735566Y797586*
Y807582*
X725570Y817578*
X705574*
X695578Y807582*
X755559D02*
X765555Y817578D01*
X785551*
X795547Y807582*
Y797586*
X785551Y787586*
X775555*
X785551*
X795547Y777590*
Y767594*
X785551Y757598*
X765555*
X755559Y767594*
X2479988Y2325023D02*
X2420007D01*
Y2355015*
X2430007Y2365011*
X2450000*
X2459996Y2355015*
Y2325023*
Y2345015D02*
X2479988Y2365011D01*
Y2385003D02*
Y2405000D01*
Y2395000*
X2420007*
X2430007Y2385003*
X2479988Y2464980D02*
X2420007D01*
X2450000Y2434988*
Y2474976*
X2375023Y2820011D02*
Y2879988D01*
X2405015*
X2415011Y2869992*
Y2850000*
X2405015Y2840003*
X2375023*
X2395019D02*
X2415011Y2820011D01*
X2435003D02*
X2455000D01*
X2445000*
Y2879988*
X2435003Y2869992*
X2484988D02*
X2494984Y2879988D01*
X2514980*
X2524976Y2869992*
Y2859996*
X2514980Y2850000*
X2504980*
X2514980*
X2524976Y2840003*
Y2830007*
X2514980Y2820011*
X2494984*
X2484988Y2830007*
X1979992Y2825023D02*
X1920007D01*
Y2855015*
X1930007Y2865011*
X1950000*
X1959996Y2855015*
Y2825023*
Y2845019D02*
X1979992Y2865011D01*
Y2885003D02*
Y2905000D01*
Y2895000*
X1920007*
X1930007Y2885003*
X1979992Y2974976D02*
Y2934988D01*
X1940003Y2974976*
X1930007*
X1920007Y2964980*
Y2944984*
X1930007Y2934988*
X2729992Y3335019D02*
X2670007D01*
Y3365011*
X2680007Y3375007*
X2700000*
X2709996Y3365011*
Y3335019*
Y3355015D02*
X2729992Y3375007D01*
Y3395000D02*
Y3414996D01*
Y3405000*
X2670007*
X2680007Y3395000*
X2729992Y3444984D02*
Y3464980D01*
Y3454984*
X2670007*
X2680007Y3444984*
X3150015Y3120011D02*
Y3179992D01*
X3180007*
X3190003Y3169992*
Y3150000*
X3180007Y3140003*
X3150015*
X3170007D02*
X3190003Y3120011D01*
X3249984D02*
X3209996D01*
X3249984Y3159996*
Y3169992*
X3239988Y3179992*
X3219992*
X3209996Y3169992*
X3010011Y3120011D02*
Y3179992D01*
X3040003*
X3050000Y3169992*
Y3150000*
X3040003Y3140003*
X3010011*
X3030007D02*
X3050000Y3120011D01*
X3069992D02*
X3089988D01*
X3079992*
Y3179992*
X3069992Y3169992*
X1166862Y3511881D02*
X1146866D01*
X1156862*
Y3461897*
X1146866Y3451901*
X1136870*
X1126874Y3461897*
X1186854Y3501881D02*
X1196850Y3511881D01*
X1216842*
X1226842Y3501881*
Y3491885*
X1216842Y3481889*
X1206846*
X1216842*
X1226842Y3471893*
Y3461897*
X1216842Y3451901*
X1196850*
X1186854Y3461897*
X1246834Y3451901D02*
X1266826D01*
X1256830*
Y3511881*
X1246834Y3501881*
X388751Y834318D02*
X368759D01*
X378755*
Y784338*
X368759Y774338*
X358763*
X348767Y784338*
X448732Y774338D02*
X408748D01*
X448732Y814326*
Y824322*
X438736Y834318*
X418744*
X408748Y824322*
X508712Y834318D02*
X488720Y824322D01*
X468728Y804330*
Y784338*
X478724Y774338*
X498716*
X508712Y784338*
Y794334*
X498716Y804330*
X468728*
X388751Y1634318D02*
X368759D01*
X378755*
Y1584338*
X368759Y1574342*
X358763*
X348767Y1584338*
X448732Y1574342D02*
X408748D01*
X448732Y1614326*
Y1624322*
X438736Y1634318*
X418744*
X408748Y1624322*
X508712Y1634318D02*
X468728D01*
Y1604330*
X488720Y1614326*
X498716*
X508712Y1604330*
Y1584338*
X498716Y1574342*
X478724*
X468728Y1584338*
X388751Y2434318D02*
X368759D01*
X378755*
Y2384338*
X368759Y2374342*
X358763*
X348767Y2384338*
X448732Y2374342D02*
X408748D01*
X448732Y2414326*
Y2424322*
X438736Y2434318*
X418744*
X408748Y2424322*
X498716Y2374342D02*
Y2434318D01*
X468728Y2404330*
X508712*
X3456271Y2234322D02*
X3436279D01*
X3446275*
Y2184338*
X3436279Y2174338*
X3426283*
X3416287Y2184338*
X3516251Y2174338D02*
X3476267D01*
X3516251Y2214326*
Y2224322*
X3506255Y2234322*
X3486263*
X3476267Y2224322*
X3536248D02*
X3546244Y2234322D01*
X3566236*
X3576232Y2224322*
Y2214326*
X3566236Y2204330*
X3556240*
X3566236*
X3576232Y2194334*
Y2184338*
X3566236Y2174338*
X3546244*
X3536248Y2184338*
X3456271Y1431169D02*
X3436279D01*
X3446275*
Y1381188*
X3436279Y1371192*
X3426283*
X3416287Y1381188*
X3516251Y1371192D02*
X3476267D01*
X3516251Y1411177*
Y1421173*
X3506255Y1431169*
X3486263*
X3476267Y1421173*
X3576232Y1371192D02*
X3536248D01*
X3576232Y1411177*
Y1421173*
X3566236Y1431169*
X3546244*
X3536248Y1421173*
X3426901Y637468D02*
X3406905D01*
X3416901*
Y587488*
X3406905Y577492*
X3396909*
X3386913Y587488*
X3486881Y577492D02*
X3446893D01*
X3486881Y617476*
Y627472*
X3476881Y637468*
X3456889*
X3446893Y627472*
X3506874Y577492D02*
X3526866D01*
X3516870*
Y637468*
X3506874Y627472*
X1155031Y2929992D02*
X1175023D01*
X1165027*
Y2870007*
X1155031*
X1175023*
X1245000Y2919992D02*
X1235003Y2929992D01*
X1215011*
X1205015Y2919992*
Y2880007*
X1215011Y2870007*
X1235003*
X1245000Y2880007*
X1264996Y2919992D02*
X1274992Y2929992D01*
X1294984*
X1304980Y2919992*
Y2909996*
X1294984Y2900000*
X1284988*
X1294984*
X1304980Y2890003*
Y2880007*
X1294984Y2870007*
X1274992*
X1264996Y2880007*
X1324976Y2870007D02*
X1344968D01*
X1334972*
Y2929992*
X1324976Y2919992*
X2335019Y3019988D02*
X2355015D01*
X2345015*
Y2960007*
X2335019*
X2355015*
X2424992Y3009992D02*
X2414996Y3019988D01*
X2395000*
X2385003Y3009992*
Y2970007*
X2395000Y2960007*
X2414996*
X2424992Y2970007*
X2444984Y2960007D02*
X2464980D01*
X2454980*
Y3019988*
X2444984Y3009992*
X540027Y3179992D02*
Y3120011D01*
X570015*
X580011Y3130007*
Y3169992*
X570015Y3179992*
X540027*
X600007Y3169992D02*
X610003Y3179992D01*
X629996*
X639992Y3169992*
Y3159996*
X629996Y3150000*
X620000*
X629996*
X639992Y3140003*
Y3130007*
X629996Y3120011*
X610003*
X600007Y3130007*
X689976Y3120011D02*
Y3179992D01*
X659988Y3150000*
X699972*
X1270027Y3179992D02*
Y3120011D01*
X1300015*
X1310011Y3130007*
Y3169992*
X1300015Y3179992*
X1270027*
X1330007Y3169992D02*
X1340003Y3179992D01*
X1359996*
X1369992Y3169992*
Y3159996*
X1359996Y3150000*
X1350000*
X1359996*
X1369992Y3140003*
Y3130007*
X1359996Y3120011*
X1340003*
X1330007Y3130007*
X1389988Y3169992D02*
X1399984Y3179992D01*
X1419976*
X1429972Y3169992*
Y3159996*
X1419976Y3150000*
X1409980*
X1419976*
X1429972Y3140003*
Y3130007*
X1419976Y3120011*
X1399984*
X1389988Y3130007*
X340027Y3329988D02*
Y3270011D01*
X370015*
X380011Y3280007*
Y3319992*
X370015Y3329988*
X340027*
X400007Y3319992D02*
X410003Y3329988D01*
X429996*
X439992Y3319992*
Y3309996*
X429996Y3300000*
X420000*
X429996*
X439992Y3290003*
Y3280007*
X429996Y3270011*
X410003*
X400007Y3280007*
X499972Y3270011D02*
X459988D01*
X499972Y3309996*
Y3319992*
X489976Y3329988*
X469984*
X459988Y3319992*
X1080023Y3329988D02*
Y3270011D01*
X1110011*
X1120007Y3280007*
Y3319992*
X1110011Y3329988*
X1080023*
X1140003Y3319992D02*
X1150000Y3329988D01*
X1169992*
X1179992Y3319992*
Y3309996*
X1169992Y3300000*
X1159996*
X1169992*
X1179992Y3290003*
Y3280007*
X1169992Y3270011*
X1150000*
X1140003Y3280007*
X1199984Y3270011D02*
X1219976D01*
X1209980*
Y3329988*
X1199984Y3319992*
X1810011Y3429988D02*
Y3370011D01*
X1840003*
X1850000Y3380007*
Y3419992*
X1840003Y3429988*
X1810011*
X1869992Y3370011D02*
X1889988D01*
X1879992*
Y3429988*
X1869992Y3419992*
X1360011Y2369992D02*
X1350015Y2379992D01*
X1330023*
X1320027Y2369992*
Y2330007*
X1330023Y2320007*
X1350015*
X1360011Y2330007*
X1380007Y2369992D02*
X1390003Y2379992D01*
X1409996*
X1419992Y2369992*
Y2359996*
X1409996Y2350000*
X1400000*
X1409996*
X1419992Y2340003*
Y2330007*
X1409996Y2320007*
X1390003*
X1380007Y2330007*
X1479972Y2320007D02*
X1439988D01*
X1479972Y2359996*
Y2369992*
X1469976Y2379992*
X1449984*
X1439988Y2369992*
X1830007Y2570011D02*
X1820007Y2560011D01*
Y2540019*
X1830007Y2530023*
X1869992*
X1879992Y2540019*
Y2560011*
X1869992Y2570011*
X1830007Y2590003D02*
X1820007Y2600000D01*
Y2619992*
X1830007Y2629992*
X1840003*
X1850000Y2619992*
Y2609996*
Y2619992*
X1859996Y2629992*
X1869992*
X1879992Y2619992*
Y2600000*
X1869992Y2590003*
X1879992Y2649984D02*
Y2669976D01*
Y2659980*
X1820007*
X1830007Y2649984*
X2115011Y2619992D02*
X2105015Y2629992D01*
X2085019*
X2075023Y2619992*
Y2580007*
X2085019Y2570011*
X2105015*
X2115011Y2580007*
X2135003Y2570011D02*
X2155000D01*
X2145000*
Y2629992*
X2135003Y2619992*
X2184988D02*
X2194984Y2629992D01*
X2214980*
X2224976Y2619992*
Y2609996*
X2214980Y2600000*
X2204980*
X2214980*
X2224976Y2590003*
Y2580007*
X2214980Y2570011*
X2194984*
X2184988Y2580007*
X1830007Y2313437D02*
X1820007Y2303440D01*
Y2283444*
X1830007Y2273448*
X1869992*
X1879992Y2283444*
Y2303440*
X1869992Y2313437*
X1879992Y2333429D02*
Y2353425D01*
Y2343425*
X1820007*
X1830007Y2333429*
X1879992Y2423401D02*
Y2383413D01*
X1840003Y2423401*
X1830007*
X1820007Y2413405*
Y2393409*
X1830007Y2383413*
X2819992Y3024992D02*
X2829992Y3034988D01*
Y3054980*
X2819992Y3064980*
X2780007*
X2770011Y3054980*
Y3034988*
X2780007Y3024992*
X2770011Y3005000D02*
Y2985003D01*
Y2995000*
X2829992*
X2819992Y3005000*
X2770011Y2955015D02*
Y2935019D01*
Y2945019*
X2829992*
X2819992Y2955015*
G54D14*
X40000Y121633D02*
Y41657D01*
X79988*
X93314Y54988*
Y108303*
X79988Y121633*
X40000*
X159960Y41657D02*
X133303D01*
X119972Y54988*
Y81645*
X133303Y94972*
X159960*
X173291Y81645*
Y68314*
X119972*
X199948Y41657D02*
X239937D01*
X253263Y54988*
X239937Y68314*
X213275*
X199948Y81645*
X213275Y94972*
X253263*
X279921Y41657D02*
X306578D01*
X293251*
Y94972*
X279921*
X373224Y15000D02*
X386555D01*
X399881Y28330*
Y94972*
X359897*
X346566Y81645*
Y54988*
X359897Y41657*
X399881*
X426543D02*
Y94972D01*
X466527*
X479858Y81645*
Y41657*
X546503D02*
X519846D01*
X506515Y54988*
Y81645*
X519846Y94972*
X546503*
X559830Y81645*
Y68314*
X506515*
X639807Y121633D02*
Y41657D01*
X599818*
X586488Y54988*
Y81645*
X599818Y94972*
X639807*
X746437Y121633D02*
Y41657D01*
X786425*
X799751Y54988*
Y68314*
Y81645*
X786425Y94972*
X746437*
X826413D02*
Y54988D01*
X839740Y41657*
X879728*
Y28330*
X866397Y15000*
X853070*
X879728Y41657D02*
Y94972D01*
X906385D02*
X919716D01*
Y81645*
X906385*
Y94972*
Y54988D02*
X919716D01*
Y41657*
X906385*
Y54988*
X1106322Y121633D02*
X1079665D01*
X1092992*
Y54988*
X1079665Y41657*
X1066334*
X1053003Y54988*
X1146307Y41657D02*
X1172968D01*
X1186295Y54988*
Y81645*
X1172968Y94972*
X1146307*
X1132980Y81645*
Y54988*
X1146307Y41657*
X1252940D02*
X1226283D01*
X1212952Y54988*
Y81645*
X1226283Y94972*
X1252940*
X1266267Y81645*
Y68314*
X1212952*
X1292929Y41657D02*
X1319586D01*
X1306255*
Y121633*
X1292929*
X1439547Y41657D02*
Y121633D01*
X1479535*
X1492862Y108303*
Y81645*
X1479535Y68314*
X1439547*
X1466204D02*
X1492862Y41657D01*
X1519519Y94972D02*
Y54988D01*
X1532850Y41657*
X1572838*
Y94972*
X1599496Y15000D02*
Y94972D01*
X1639480*
X1652811Y81645*
Y54988*
X1639480Y41657*
X1599496*
X1679468Y15000D02*
Y94972D01*
X1719456*
X1732783Y81645*
Y54988*
X1719456Y41657*
X1679468*
G54D15*
X2245000Y1559988D02*
Y1639960D01*
X2284988Y1679948*
X2324972Y1639960*
Y1559988*
Y1619968*
X2245000*
X2364960Y1559988D02*
Y1639960D01*
X2424940*
X2444937Y1619968*
Y1559988*
X2484921D02*
X2524909D01*
X2504917*
Y1679948*
X2484921*
X2644870Y1559988D02*
X2604881D01*
X2584889Y1579980*
Y1619968*
X2604881Y1639960*
X2644870*
X2664866Y1619968*
Y1599972*
X2584889*
X2704850Y1559988D02*
X2744838D01*
X2724846*
Y1639960*
X2704850*
X2824811Y1659952D02*
Y1639960D01*
X2804818*
X2844807*
X2824811*
Y1579980*
X2844807Y1559988*
X2904787Y1639960D02*
Y1579980D01*
X2924779Y1559988*
X2984759*
Y1639960*
X3024748Y1559988D02*
Y1639960D01*
X3084728*
X3104720Y1619968*
Y1559988*
X3184696Y1520000D02*
X3204688D01*
X3224685Y1539992*
Y1639960*
X3164704*
X3144708Y1619968*
Y1579980*
X3164704Y1559988*
X3224685*
G54D16*
X77507Y2237440D02*
X122492D01*
X107496Y2222444*
X122492Y2207448*
X77507*
Y2184956D02*
Y2169960D01*
X85003Y2162464*
X100000*
X107496Y2169960*
Y2184956*
X100000Y2192452*
X85003*
X77507Y2184956*
X122492Y2117480D02*
X77507D01*
Y2139972*
X85003Y2147468*
X100000*
X107496Y2139972*
Y2117480*
Y2102484D02*
X85003D01*
X77507Y2094984*
Y2072492*
X107496*
X77507Y2057496D02*
Y2035003D01*
X85003Y2027507*
X92503Y2035003*
Y2050000*
X100000Y2057496*
X107496Y2050000*
Y2027507*
Y2012511D02*
X85003D01*
X77507Y2005015*
X85003Y1997515*
X77507Y1990019*
X85003Y1982519*
X107496*
Y1960027D02*
Y1945035D01*
X100000Y1937535*
X77507*
Y1960027*
X85003Y1967527*
X92503Y1960027*
Y1937535*
X122492Y1922539D02*
X77507D01*
X100000*
X107496Y1915043*
Y1900047*
X100000Y1892551*
X77507*
Y1877555D02*
Y1862559D01*
Y1870059*
X122492*
Y1877555*
X114996Y1347468D02*
X122492Y1354964D01*
Y1369960*
X114996Y1377456*
X85003*
X77507Y1369960*
Y1354964*
X85003Y1347468*
X114996Y1302484D02*
X122492Y1309980D01*
Y1324976*
X114996Y1332472*
X85003*
X77507Y1324976*
Y1309980*
X85003Y1302484*
X122492Y1287488D02*
X77507D01*
X92503Y1272492*
X77507Y1257496*
X122492*
X77507Y1242503D02*
X107496Y1212511D01*
X114996Y1167527D02*
X122492Y1175023D01*
Y1190019*
X114996Y1197515*
X85003*
X77507Y1190019*
Y1175023*
X85003Y1167527*
X122492Y1152531D02*
X77507D01*
X92503Y1137535*
X77507Y1122539*
X122492*
Y509980D02*
X77507D01*
Y479988*
X122492Y435003D02*
Y464996D01*
X77507*
Y435003*
X100000Y464996D02*
Y450000D01*
X122492Y420007D02*
X77507D01*
Y397515*
X85003Y390019*
X114996*
X122492Y397515*
Y420007*
X3827507Y1685055D02*
X3872492D01*
Y1707547*
X3864996Y1715043*
X3835003*
X3827507Y1707547*
Y1685055*
X3842503Y1730039D02*
X3872492D01*
X3857496*
X3850000Y1737535*
X3842503Y1745035*
Y1752531*
X3872492Y1797515D02*
Y1782523D01*
X3864996Y1775023*
X3850000*
X3842503Y1782523*
Y1797515*
X3850000Y1805015*
X3857496*
Y1775023*
X3827507Y1820007D02*
X3872492D01*
X3850000*
X3842503Y1827507*
Y1842503*
X3850000Y1850000*
X3872492*
X3842503Y1864996D02*
Y1894984D01*
X3872492Y1864996*
Y1894984*
X3842503Y1917476D02*
Y1932472D01*
X3850000Y1939972*
X3872492*
Y1917476*
X3864996Y1909980*
X3857496Y1917476*
Y1939972*
X3827507Y1954964D02*
X3872492D01*
X3850000*
X3842503Y1962464*
Y1977460*
X3850000Y1984956*
X3872492*
Y1999952D02*
Y2014944D01*
Y2007448*
X3827507*
Y1999952*
Y712610D02*
X3864996D01*
X3872492Y720106*
Y735102*
X3864996Y742598*
X3827507*
X3872492Y757594D02*
X3842503D01*
Y765090*
X3850000Y772590*
X3872492*
X3850000*
X3842503Y780086*
X3850000Y787586*
X3872492*
Y802578D02*
Y825070D01*
X3864996Y832570*
X3857496Y825070*
Y810078*
X3850000Y802578*
X3842503Y810078*
Y832570*
Y877555D02*
Y855062D01*
X3850000Y847566*
X3864996*
X3872492Y855062*
Y877555*
X3827507Y892551D02*
X3872492D01*
X3850000*
X3842503Y900047*
Y915043*
X3850000Y922539*
X3872492*
X3842503Y945035D02*
Y960027D01*
X3850000Y967527*
X3872492*
Y945035*
X3864996Y937535*
X3857496Y945035*
Y967527*
X3872492Y982523D02*
Y997515D01*
Y990019*
X3827507*
Y982523*
X3835003Y1027507D02*
X3842503D01*
Y1020011*
Y1035003*
Y1027507*
X3864996*
X3872492Y1035003*
Y1057496D02*
Y1079988D01*
X3864996Y1087488*
X3857496Y1079988*
Y1064996*
X3850000Y1057496*
X3842503Y1064996*
Y1087488*
Y1132472D02*
Y1109980D01*
X3850000Y1102484*
X3864996*
X3872492Y1109980*
Y1132472*
X3827507Y1147468D02*
X3872492D01*
X3850000*
X3842503Y1154964*
Y1169960*
X3850000Y1177460*
X3872492*
X3842503Y1192452D02*
X3864996D01*
X3872492Y1199952*
X3864996Y1207448*
X3872492Y1214944*
X3864996Y1222444*
X3842503*
X3872492Y1259933D02*
Y1244937D01*
X3864996Y1237440*
X3850000*
X3842503Y1244937*
Y1259933*
X3850000Y1267429*
X3857496*
Y1237440*
X3872492Y1282425D02*
Y1297421D01*
Y1289921*
X3827507*
Y1282425*
X3872492Y1319913D02*
Y1334909D01*
Y1327409*
X3827507*
Y1319913*
X3872492Y1379893D02*
Y1364897D01*
X3864996Y1357401*
X3850000*
X3842503Y1364897*
Y1379893*
X3850000Y1387389*
X3857496*
Y1357401*
X3827507Y65090D02*
X3820007Y57594D01*
Y42598*
X3827507Y35102*
X3835003*
X3842503Y42598*
Y57594*
X3850000Y65090*
X3857496*
X3864996Y57594*
Y42598*
X3857496Y35102*
X3879992Y80086D02*
X3835003D01*
Y102578*
X3842503Y110078*
X3857496*
X3864996Y102578*
Y80086*
X3835003Y132570D02*
Y147566D01*
X3842503Y155062*
X3864996*
Y132570*
X3857496Y125070*
X3850000Y132570*
Y155062*
X3864996Y170059D02*
X3835003D01*
Y192551*
X3842503Y200047*
X3864996*
Y215043D02*
X3835003D01*
Y237535*
X3842503Y245035*
X3864996*
X3835003Y260027D02*
X3857496D01*
X3864996Y267527*
Y290019*
X3835003*
X3864996Y305015D02*
X3835003D01*
Y327507*
X3842503Y335003*
X3864996*
X3879992Y364996D02*
Y372492D01*
X3872492Y379992*
X3835003*
Y357496*
X3842503Y350000*
X3857496*
X3864996Y357496*
Y379992*
Y394984D02*
Y417476D01*
X3857496Y424976*
X3850000Y417476*
Y402484*
X3842503Y394984*
X3835003Y402484*
Y424976*
X3827507Y447468D02*
X3835003D01*
Y439972*
Y454964*
Y447468*
X3857496*
X3864996Y454964*
Y499952D02*
Y484956D01*
X3857496Y477460*
X3842503*
X3835003Y484956*
Y499952*
X3842503Y507448*
X3850000*
Y477460*
X3864996Y522444D02*
Y537440D01*
Y529940*
X3835003*
Y522444*
X3864996Y559933D02*
Y574929D01*
Y567429*
X3820007*
Y559933*
X3864996Y619913D02*
Y604917D01*
X3857496Y597421*
X3842503*
X3835003Y604917*
Y619913*
X3842503Y627409*
X3850000*
Y597421*
X3835003Y642405D02*
X3864996D01*
X3850000*
X3842503Y649901*
X3835003Y657401*
Y664897*
M02*