%FSLAX66Y66*%
%MOIN*%
%SFA1B1*%

%IPPOS*%
%AMD22*
4,1,8,0.000000,-0.033500,0.000000,-0.033500,0.021700,-0.011800,0.021700,0.011800,0.000000,0.033500,0.000000,0.033500,-0.021700,0.011800,-0.021700,-0.011800,0.000000,-0.033500,0.0*
1,1,0.043307,0.000000,-0.011800*
1,1,0.043307,0.000000,-0.011800*
1,1,0.043307,0.000000,0.011800*
1,1,0.043307,0.000000,0.011800*
%
%AMD45*
4,1,8,-0.078700,-0.047200,-0.047200,-0.078700,0.047300,-0.078700,0.078800,-0.047200,0.078800,0.047300,0.047300,0.078800,-0.047200,0.078800,-0.078700,0.047300,-0.078700,-0.047200,0.0*
%
%AMD46*
4,1,8,-0.047200,-0.078700,-0.078700,-0.047200,-0.078700,0.047300,-0.047200,0.078800,0.047300,0.078800,0.078800,0.047300,0.078800,-0.047200,0.047300,-0.078700,-0.047200,-0.078700,0.0*
%
%ADD13C,0.010000*%
G04~CAMADD=22~8~0.0~0.0~433.1~669.3~216.5~0.0~15~0.0~0.0~0.0~0.0~0~0.0~0.0~0.0~0.0~0~0.0~0.0~0.0~180.0~434.0~669.0*
%ADD22D22*%
%ADD41C,0.025000*%
%ADD43O,0.078740X0.062992*%
%ADD44R,0.078740X0.062992*%
%ADD45D45*%
%ADD46D46*%
%ADD47C,0.049212*%
%ADD48R,0.049212X0.049212*%
%ADD49R,0.059055X0.059055*%
%ADD50C,0.059055*%
%ADD51R,0.062008X0.062008*%
%ADD52C,0.062008*%
%ADD53C,0.060000*%
%ADD54R,0.049212X0.049212*%
%ADD55C,0.047244*%
%ADD56C,0.076771*%
%ADD57R,0.076771X0.076771*%
%ADD58R,0.088582X0.088582*%
%ADD59C,0.088582*%
%ADD60R,0.076771X0.076771*%
%ADD61C,0.050000*%
%LNplatine-1*%
%LPD*%
G36*
X3937007Y0D02*
X0D01*
Y3937007*
X3937007*
Y0*
G37*
%LNplatine-2*%
%LPC*%
G36*
X3275078Y3874574D02*
Y3836496D01*
X3302003*
Y3843307*
X3300917Y3851570*
X3297728Y3859271*
X3292653Y3865881*
X3286043Y3870956*
X3278342Y3874145*
X3275078Y3874574*
G37*
G36*
X2934921D02*
Y3836496D01*
X2961846*
Y3843307*
X2960759Y3851570*
X2957570Y3859271*
X2952496Y3865881*
X2945885Y3870956*
X2938185Y3874145*
X2934921Y3874574*
G37*
G36*
X2924921D02*
X2921657Y3874145D01*
X2913956Y3870956*
X2907346Y3865881*
X2902271Y3859271*
X2899082Y3851570*
X2897996Y3843307*
Y3836496*
X2924921*
Y3874574*
G37*
G36*
X3265078D02*
X3261814Y3874145D01*
X3254114Y3870956*
X3247503Y3865881*
X3242429Y3859271*
X3239240Y3851570*
X3238153Y3843307*
Y3836496*
X3265078*
Y3874574*
G37*
G36*
X84992Y3919988D02*
X15007D01*
Y3830007*
X84992*
Y3919988*
G37*
G36*
X3302003Y3826496D02*
X3275078D01*
Y3788417*
X3278342Y3788846*
X3286043Y3792035*
X3292653Y3797110*
X3297728Y3803720*
X3300917Y3811421*
X3302003Y3819685*
Y3826496*
G37*
G36*
X2924921D02*
X2897996D01*
Y3819685*
X2899082Y3811421*
X2902271Y3803720*
X2907346Y3797110*
X2913956Y3792035*
X2921657Y3788846*
X2924921Y3788417*
Y3826496*
G37*
G36*
X2961846D02*
X2934921D01*
Y3788417*
X2938185Y3788846*
X2945885Y3792035*
X2952496Y3797110*
X2957570Y3803720*
X2960759Y3811421*
X2961846Y3819685*
Y3826496*
G37*
G36*
X3265078D02*
X3238153D01*
Y3819685*
X3239240Y3811421*
X3242429Y3803720*
X3247503Y3797110*
X3254114Y3792035*
X3261814Y3788846*
X3265078Y3788417*
Y3826496*
G37*
G36*
X3275078Y3724968D02*
Y3686889D01*
X3302003*
Y3693700*
X3300917Y3701964*
X3297728Y3709665*
X3292653Y3716275*
X3286043Y3721350*
X3278342Y3724539*
X3275078Y3724968*
G37*
G36*
X2934921D02*
Y3686889D01*
X2961846*
Y3693700*
X2960759Y3701964*
X2957570Y3709665*
X2952496Y3716275*
X2945885Y3721350*
X2938185Y3724539*
X2934921Y3724968*
G37*
G36*
X2924921D02*
X2921657Y3724539D01*
X2913956Y3721350*
X2907346Y3716275*
X2902271Y3709665*
X2899082Y3701964*
X2897996Y3693700*
Y3686889*
X2924921*
Y3724968*
G37*
G36*
X3265078D02*
X3261814Y3724539D01*
X3254114Y3721350*
X3247503Y3716275*
X3242429Y3709665*
X3239240Y3701964*
X3238153Y3693700*
Y3686889*
X3265078*
Y3724968*
G37*
G36*
X2700000Y3725854D02*
X2690862Y3724649D01*
X2682350Y3721122*
X2675039Y3715511*
X2669429Y3708200*
X2665901Y3699688*
X2664696Y3690551*
X2665901Y3681413*
X2669429Y3672901*
X2675039Y3665590*
X2682350Y3659980*
X2690862Y3656452*
X2700000Y3655248*
X2709137Y3656452*
X2717649Y3659980*
X2724960Y3665590*
X2730570Y3672901*
X2734098Y3681413*
X2735303Y3690551*
X2734098Y3699688*
X2730570Y3708200*
X2724960Y3715511*
X2717649Y3721122*
X2709137Y3724649*
X2700000Y3725854*
G37*
G36*
X3302003Y3676889D02*
X3275078D01*
Y3638811*
X3278342Y3639240*
X3286043Y3642429*
X3292653Y3647503*
X3297728Y3654114*
X3300917Y3661814*
X3302003Y3670078*
Y3676889*
G37*
G36*
X2924921D02*
X2897996D01*
Y3670078*
X2899082Y3661814*
X2902271Y3654114*
X2907346Y3647503*
X2913956Y3642429*
X2921657Y3639240*
X2924921Y3638811*
Y3676889*
G37*
G36*
X2961846D02*
X2934921D01*
Y3638811*
X2938185Y3639240*
X2945885Y3642429*
X2952496Y3647503*
X2957570Y3654114*
X2960759Y3661814*
X2961846Y3670078*
Y3676889*
G37*
G36*
X3265078D02*
X3238153D01*
Y3670078*
X3239240Y3661814*
X3242429Y3654114*
X3247503Y3647503*
X3254114Y3642429*
X3261814Y3639240*
X3265078Y3638811*
Y3676889*
G37*
G36*
X1043385Y3643385D02*
X956614D01*
Y3556614*
X1043385*
Y3643385*
G37*
G36*
X803149Y3643759D02*
X791822Y3642267D01*
X781267Y3637897*
X772204Y3630944*
X765251Y3621881*
X760881Y3611326*
X759389Y3600000*
X760881Y3588673*
X765251Y3578118*
X772204Y3569059*
X781267Y3562102*
X791822Y3557732*
X803149Y3556240*
X814476Y3557732*
X825027Y3562102*
X834090Y3569059*
X841047Y3578118*
X845417Y3588673*
X846909Y3600000*
X845417Y3611326*
X841047Y3621881*
X834090Y3630944*
X825027Y3637897*
X814476Y3642267*
X803149Y3643759*
G37*
G36*
X3590551Y3632244D02*
X3548307D01*
Y3548307*
X3632244*
Y3590551*
X3631468Y3594452*
X3629255Y3597759*
X3597759Y3629255*
X3594452Y3631468*
X3590551Y3632244*
G37*
G36*
X3538307D02*
X3496062D01*
X3492161Y3631468*
X3488854Y3629255*
X3457358Y3597759*
X3455145Y3594452*
X3454370Y3590551*
Y3548307*
X3538307*
Y3632244*
G37*
G36*
X440944D02*
X398700D01*
Y3548307*
X482637*
Y3590551*
X481862Y3594452*
X479649Y3597759*
X448153Y3629255*
X444846Y3631468*
X440944Y3632244*
G37*
G36*
X388700D02*
X346456D01*
X342555Y3631468*
X339248Y3629255*
X307751Y3597759*
X305539Y3594452*
X304763Y3590551*
Y3548307*
X388700*
Y3632244*
G37*
G36*
X3632244Y3538307D02*
X3548307D01*
Y3454370*
X3590551*
X3594452Y3455145*
X3597759Y3457358*
X3629255Y3488854*
X3631468Y3492161*
X3632244Y3496062*
Y3538307*
G37*
G36*
X3538307D02*
X3454370D01*
Y3496062*
X3455145Y3492161*
X3457358Y3488854*
X3488854Y3457358*
X3492161Y3455145*
X3496062Y3454370*
X3538307*
Y3538307*
G37*
G36*
X482637D02*
X398700D01*
Y3454370*
X440944*
X444846Y3455145*
X448153Y3457358*
X479649Y3488854*
X481862Y3492161*
X482637Y3496062*
Y3538307*
G37*
G36*
X388700D02*
X304763D01*
Y3496062*
X305539Y3492161*
X307751Y3488854*
X339248Y3457358*
X342555Y3455145*
X346456Y3454370*
X388700*
Y3538307*
G37*
G36*
X3200000Y3485303D02*
X3190862Y3484098D01*
X3182350Y3480570*
X3175039Y3474960*
X3169429Y3467649*
X3165901Y3459137*
X3164696Y3450000*
X3165901Y3440862*
X3169429Y3432350*
X3175039Y3425039*
X3182350Y3419429*
X3190862Y3415901*
X3200000Y3414696*
X3209137Y3415901*
X3217649Y3419429*
X3224960Y3425039*
X3230570Y3432350*
X3234098Y3440862*
X3235303Y3450000*
X3234098Y3459137*
X3230570Y3467649*
X3224960Y3474960*
X3217649Y3480570*
X3209137Y3484098*
X3200000Y3485303*
G37*
G36*
X3050000D02*
X3040862Y3484098D01*
X3032350Y3480570*
X3025039Y3474960*
X3019429Y3467649*
X3015901Y3459137*
X3014696Y3450000*
X3015901Y3440862*
X3019429Y3432350*
X3025039Y3425039*
X3032350Y3419429*
X3040862Y3415901*
X3050000Y3414696*
X3059137Y3415901*
X3067649Y3419429*
X3074960Y3425039*
X3080570Y3432350*
X3084098Y3440862*
X3085303Y3450000*
X3084098Y3459137*
X3080570Y3467649*
X3074960Y3474960*
X3067649Y3480570*
X3059137Y3484098*
X3050000Y3485303*
G37*
G36*
X1586003Y3436003D02*
X1513996D01*
Y3363996*
X1586003*
Y3436003*
G37*
G36*
X2105118Y3436314D02*
X2095720Y3435078D01*
X2086960Y3431448*
X2079440Y3425677*
X2073669Y3418157*
X2070039Y3409397*
X2068803Y3400000*
X2070039Y3390602*
X2073669Y3381842*
X2079440Y3374322*
X2086960Y3368551*
X2095720Y3364921*
X2105118Y3363685*
X2114515Y3364921*
X2123275Y3368551*
X2130795Y3374322*
X2136566Y3381842*
X2140196Y3390602*
X2141433Y3400000*
X2140196Y3409397*
X2136566Y3418157*
X2130795Y3425677*
X2123275Y3431448*
X2114515Y3435078*
X2105118Y3436314*
G37*
G36*
X149881Y3340700D02*
Y3305000D01*
X185582*
X184830Y3310704*
X180696Y3320677*
X174125Y3329244*
X165559Y3335818*
X155586Y3339948*
X149881Y3340700*
G37*
G36*
X139881D02*
X134177Y3339948D01*
X124204Y3335818*
X115637Y3329244*
X109066Y3320677*
X104933Y3310704*
X104181Y3305000*
X139881*
Y3340700*
G37*
G36*
X1466122Y3336003D02*
X1394114D01*
Y3263996*
X1466122*
Y3336003*
G37*
G36*
X736003D02*
X663996D01*
Y3263996*
X736003*
Y3336003*
G37*
G36*
X875000Y3336314D02*
X865602Y3335078D01*
X856842Y3331448*
X849322Y3325677*
X843551Y3318157*
X839921Y3309397*
X838685Y3300000*
X839921Y3290602*
X843551Y3281842*
X849322Y3274322*
X856842Y3268551*
X865602Y3264921*
X875000Y3263685*
X884397Y3264921*
X893157Y3268551*
X900677Y3274322*
X906448Y3281842*
X910078Y3290602*
X911314Y3300000*
X910078Y3309397*
X906448Y3318157*
X900677Y3325677*
X893157Y3331448*
X884397Y3335078*
X875000Y3336314*
G37*
G36*
X185582Y3295000D02*
X149881D01*
Y3259299*
X155586Y3260051*
X165559Y3264181*
X174125Y3270755*
X180696Y3279322*
X184830Y3289295*
X185582Y3295000*
G37*
G36*
X139881D02*
X104181D01*
X104933Y3289295*
X109066Y3279322*
X115637Y3270755*
X124204Y3264181*
X134177Y3260051*
X139881Y3259299*
Y3295000*
G37*
G36*
X1950000Y3225854D02*
X1940862Y3224649D01*
X1932350Y3221122*
X1925039Y3215511*
X1919429Y3208200*
X1915901Y3199688*
X1914696Y3190551*
X1915901Y3181413*
X1919429Y3172901*
X1925039Y3165590*
X1932350Y3159980*
X1940862Y3156452*
X1950000Y3155248*
X1959137Y3156452*
X1967649Y3159980*
X1974960Y3165590*
X1980570Y3172901*
X1984098Y3181413*
X1985303Y3190551*
X1984098Y3199688*
X1980570Y3208200*
X1974960Y3215511*
X1967649Y3221122*
X1959137Y3224649*
X1950000Y3225854*
G37*
G36*
X349881Y3190700D02*
Y3155000D01*
X385582*
X384830Y3160704*
X380700Y3170677*
X374125Y3179244*
X365559Y3185814*
X355586Y3189948*
X349881Y3190700*
G37*
G36*
X339881D02*
X334177Y3189948D01*
X324204Y3185814*
X315637Y3179244*
X309062Y3170677*
X304933Y3160704*
X304181Y3155000*
X339881*
Y3190700*
G37*
G36*
X2700000Y3135303D02*
X2690862Y3134098D01*
X2682350Y3130570*
X2679523Y3128405*
X2678574Y3128188*
X2675720Y3126169*
X2672866Y3124472*
X2669818Y3122960*
X2666574Y3121645*
X2663125Y3120519*
X2659472Y3119590*
X2655681Y3118877*
X2647161Y3118019*
X2642598Y3117909*
X2642448Y3117842*
X2446901*
X2446744Y3117909*
X2442641Y3117980*
X2435220Y3118539*
X2432035Y3119003*
X2429082Y3119598*
X2426409Y3120311*
X2424023Y3121129*
X2421929Y3122043*
X2420110Y3123039*
X2418314Y3124271*
X2417393Y3124468*
X2415129Y3126204*
X2407830Y3129228*
X2400000Y3130259*
X2392169Y3129228*
X2384870Y3126204*
X2378602Y3121397*
X2373795Y3115129*
X2370771Y3107830*
X2369740Y3100000*
X2370771Y3092169*
X2373795Y3084870*
X2375535Y3082606*
X2375728Y3081685*
X2376960Y3079889*
X2377956Y3078070*
X2378870Y3075976*
X2379688Y3073590*
X2380401Y3070921*
X2380996Y3067964*
X2381460Y3064779*
X2382019Y3057358*
X2382090Y3053255*
X2382157Y3053098*
Y3032389*
X2333960Y2984192*
X2333814Y2984137*
X2330350Y2980917*
X2326917Y2978169*
X2323374Y2975759*
X2319708Y2973681*
X2315917Y2971925*
X2312000Y2970488*
X2307933Y2969366*
X2303720Y2968562*
X2299354Y2968078*
X2294629Y2967909*
X2294484Y2967842*
X1875000*
X1868173Y2966484*
X1862381Y2962618*
X1617610Y2717842*
X1400000*
X1393173Y2716484*
X1387381Y2712618*
X1327374Y2652610*
X1327216Y2652547*
X1323897Y2649377*
X1320677Y2646590*
X1317472Y2644102*
X1314283Y2641909*
X1311110Y2640003*
X1307956Y2638385*
X1304822Y2637047*
X1301704Y2635984*
X1298594Y2635185*
X1295275Y2634614*
X1294452Y2634094*
X1290988Y2633637*
X1282586Y2630161*
X1275374Y2624625*
X1269838Y2617413*
X1266362Y2609011*
X1265173Y2600000*
X1266362Y2590988*
X1269838Y2582586*
X1275374Y2575374*
X1282586Y2569838*
X1290988Y2566362*
X1300000Y2565173*
X1309011Y2566362*
X1317413Y2569838*
X1324625Y2575374*
X1330161Y2582586*
X1333637Y2590988*
X1334094Y2594448*
X1334614Y2595275*
X1335185Y2598594*
X1335980Y2601704*
X1337047Y2604822*
X1338385Y2607956*
X1340003Y2611110*
X1341909Y2614283*
X1344059Y2617409*
X1349425Y2623948*
X1352547Y2627220*
X1352610Y2627374*
X1407389Y2682157*
X1625000*
X1631826Y2683515*
X1637618Y2687381*
X1882389Y2932157*
X2294484*
X2294629Y2932090*
X2299354Y2931921*
X2303720Y2931437*
X2307937Y2930633*
X2312000Y2929511*
X2315917Y2928074*
X2319708Y2926318*
X2323374Y2924240*
X2326917Y2921830*
X2330350Y2919082*
X2332157Y2917401*
Y1925000*
X2333515Y1918173*
X2337381Y1912381*
X2407157Y1842610*
Y1648720*
Y1482389*
X2387007Y1462244*
X2366862Y1442094*
X2087405*
X2087255Y1442161*
X2087224Y1442149*
X2087196Y1442161*
X2080700Y1442283*
X2075062Y1442641*
X2070200Y1443220*
X2066149Y1444003*
X2063755Y1444704*
X2058901Y1451027*
X2056720Y1452704*
X2056669Y1452842*
X2056346Y1452992*
X2056271Y1453051*
X2056086Y1453385*
X2055677Y1453503*
X2051279Y1456877*
X2042401Y1460555*
X2032874Y1461811*
X2017125*
X2007598Y1460555*
X1998720Y1456877*
X1991098Y1451027*
X1985248Y1443405*
X1981570Y1434527*
X1980314Y1425000*
X1981570Y1415472*
X1985248Y1406594*
X1991098Y1398972*
X1998720Y1393122*
X2007598Y1389444*
X2017125Y1388188*
X2032874*
X2042401Y1389444*
X2051279Y1393122*
X2053437Y1394775*
X2053948Y1394885*
X2054177Y1395236*
X2054566Y1395381*
X2054751Y1395783*
X2058901Y1398972*
X2062582Y1403767*
X2065125Y1404496*
X2069204Y1405267*
X2079996Y1406220*
X2086468Y1406342*
X2086625Y1406409*
X2374251*
X2381078Y1407767*
X2385728Y1410874*
X2386185Y1410972*
X2386370Y1411263*
X2386696Y1411377*
X2389751Y1414106*
X2392452Y1415948*
X2394996Y1417157*
X2397393Y1417803*
X2399732Y1417960*
X2402129Y1417641*
X2404681Y1416799*
X2407433Y1415354*
X2410374Y1413244*
X2413669Y1410259*
X2413807Y1410212*
X2866437Y957582*
X2866484Y957448*
X2869444Y954157*
X2871500Y951220*
X2872881Y948460*
X2873657Y945870*
X2873905Y943389*
X2873657Y940913*
X2872881Y938322*
X2871500Y935559*
X2869444Y932622*
X2866484Y929334*
X2866437Y929196*
X2479330Y542094*
X2087405*
X2087255Y542161*
X2087224Y542149*
X2087196Y542161*
X2080700Y542283*
X2075062Y542641*
X2070200Y543220*
X2066149Y544000*
X2063755Y544708*
X2058901Y551027*
X2056720Y552704*
X2056669Y552842*
X2056346Y552992*
X2056271Y553051*
X2056086Y553385*
X2055677Y553503*
X2051279Y556877*
X2042401Y560555*
X2032874Y561811*
X2017125*
X2007598Y560555*
X1998720Y556877*
X1991098Y551027*
X1985248Y543405*
X1981570Y534527*
X1980314Y525000*
X1981570Y515472*
X1985248Y506594*
X1991098Y498972*
X1998720Y493122*
X2007598Y489444*
X2017125Y488188*
X2032874*
X2042401Y489444*
X2051279Y493122*
X2053437Y494775*
X2053948Y494885*
X2054177Y495236*
X2054566Y495381*
X2054751Y495783*
X2058901Y498972*
X2062582Y503767*
X2065125Y504496*
X2069204Y505267*
X2079996Y506220*
X2086468Y506342*
X2086625Y506409*
X2486724*
X2493551Y507767*
X2499338Y511633*
X2891669Y903964*
X2891803Y904011*
X2895094Y906972*
X2898031Y909027*
X2900791Y910409*
X2903381Y911185*
X2905862Y911433*
X2908338Y911185*
X2910929Y910409*
X2913692Y909027*
X2916629Y906972*
X2919917Y904011*
X2920055Y903964*
X2986633Y837381*
X2989531Y835448*
X2992425Y833515*
X2999251Y832157*
X3505535*
X3505685Y832090*
X3510291Y831968*
X3514192Y831625*
X3517496Y831078*
X3520177Y830358*
X3522224Y829527*
X3523653Y828657*
X3524547Y827834*
X3525070Y827051*
X3525381Y826169*
X3525566Y824429*
X3525708Y824169*
Y800708*
X3624291*
Y899291*
X3525708*
Y875830*
X3525566Y875570*
X3525381Y873830*
X3525070Y872948*
X3524547Y872165*
X3523653Y871342*
X3522224Y870472*
X3520177Y869641*
X3517496Y868921*
X3514192Y868374*
X3510291Y868031*
X3505685Y867909*
X3505535Y867842*
X3006641*
X2918476Y956007*
X2439039Y1435444*
X2438992Y1435582*
X2436007Y1438877*
X2433897Y1441818*
X2432452Y1444570*
X2431610Y1447122*
X2431291Y1449519*
X2431448Y1451858*
X2432094Y1454259*
X2433303Y1456799*
X2435145Y1459500*
X2437874Y1462555*
X2437988Y1462881*
X2438279Y1463066*
X2438377Y1463523*
X2441484Y1468173*
X2442842Y1475000*
Y1632157*
X3505535*
X3505685Y1632090*
X3510291Y1631968*
X3514192Y1631625*
X3517496Y1631078*
X3520177Y1630358*
X3522224Y1629527*
X3523653Y1628657*
X3524547Y1627834*
X3525070Y1627051*
X3525381Y1626169*
X3525566Y1624429*
X3525708Y1624169*
Y1600708*
X3624291*
Y1699291*
X3525708*
Y1675830*
X3525566Y1675570*
X3525381Y1673830*
X3525070Y1672948*
X3524547Y1672165*
X3523653Y1671342*
X3522224Y1670472*
X3520177Y1669641*
X3517496Y1668921*
X3514192Y1668374*
X3510291Y1668031*
X3505685Y1667909*
X3505535Y1667842*
X2442842*
Y1850000*
X2441484Y1856826*
X2437618Y1862618*
X2367842Y1932389*
Y2925000*
X2366484Y2931826*
X2363444Y2936377*
X2363362Y2936811*
X2363015Y2937043*
X2362877Y2937440*
X2360224Y2940417*
X2358452Y2943039*
X2357303Y2945507*
X2356696Y2947846*
X2356570Y2950141*
X2356913Y2952507*
X2357775Y2955051*
X2359240Y2957799*
X2361366Y2960744*
X2364362Y2964039*
X2364409Y2964177*
X2412618Y3012381*
X2416484Y3018173*
X2417842Y3025000*
Y3053098*
X2417909Y3053255*
X2417980Y3057358*
X2418539Y3064779*
X2419003Y3067964*
X2419598Y3070921*
X2420311Y3073590*
X2421129Y3075976*
X2422007Y3077992*
X2424027Y3078870*
X2426409Y3079688*
X2429078Y3080401*
X2432035Y3080996*
X2435220Y3081460*
X2442641Y3082019*
X2446744Y3082090*
X2446901Y3082157*
X2642448*
X2642598Y3082090*
X2647232Y3081980*
X2651527Y3081661*
X2655606Y3081137*
X2659472Y3080409*
X2663125Y3079480*
X2666574Y3078354*
X2669818Y3077039*
X2672866Y3075527*
X2675720Y3073826*
X2678574Y3071811*
X2679523Y3071594*
X2682350Y3069429*
X2690862Y3065901*
X2700000Y3064696*
X2709137Y3065901*
X2717649Y3069429*
X2724960Y3075039*
X2730570Y3082350*
X2734098Y3090862*
X2735303Y3100000*
X2734098Y3109137*
X2730570Y3117649*
X2724960Y3124960*
X2717649Y3130570*
X2709137Y3134098*
X2700000Y3135303*
G37*
G36*
X1666122Y3186003D02*
X1594114D01*
Y3113996*
X1666122*
Y3186003*
G37*
G36*
X936003D02*
X863996D01*
Y3113996*
X936003*
Y3186003*
G37*
G36*
X1075000Y3186314D02*
X1065602Y3185078D01*
X1056842Y3181448*
X1049322Y3175677*
X1043551Y3168157*
X1039921Y3159397*
X1038685Y3150000*
X1039921Y3140602*
X1043551Y3131842*
X1049322Y3124322*
X1056842Y3118551*
X1065602Y3114921*
X1075000Y3113685*
X1084397Y3114921*
X1093157Y3118551*
X1100677Y3124322*
X1106448Y3131842*
X1110078Y3140602*
X1111314Y3150000*
X1110078Y3159397*
X1106448Y3168157*
X1100677Y3175677*
X1093157Y3181448*
X1084397Y3185078*
X1075000Y3186314*
G37*
G36*
X385582Y3145000D02*
X349881D01*
Y3109299*
X355586Y3110051*
X365559Y3114185*
X374125Y3120755*
X380700Y3129322*
X384830Y3139295*
X385582Y3145000*
G37*
G36*
X339881D02*
X304181D01*
X304933Y3139295*
X309062Y3129322*
X315637Y3120755*
X324204Y3114185*
X334177Y3110051*
X339881Y3109299*
Y3145000*
G37*
G36*
X2901850Y3034248D02*
Y3005000D01*
X2931098*
X2930566Y3009035*
X2927078Y3017452*
X2921531Y3024681*
X2914303Y3030228*
X2905885Y3033716*
X2901850Y3034248*
G37*
G36*
X2891850D02*
X2887814Y3033716D01*
X2879397Y3030228*
X2872169Y3024681*
X2866622Y3017452*
X2863133Y3009035*
X2862602Y3005000*
X2891850*
Y3034248*
G37*
G36*
X2729606Y3029606D02*
X2670393D01*
Y2970393*
X2729606*
Y3029606*
G37*
G36*
X2931098Y2995000D02*
X2901850D01*
Y2965751*
X2905885Y2966283*
X2914303Y2969771*
X2921531Y2975318*
X2927078Y2982547*
X2930566Y2990964*
X2931098Y2995000*
G37*
G36*
X2891850D02*
X2862602D01*
X2863133Y2990964*
X2866622Y2982547*
X2872169Y2975318*
X2879397Y2969771*
X2887814Y2966283*
X2891850Y2965751*
Y2995000*
G37*
G36*
X3205000Y2899133D02*
Y2864448D01*
X3239685*
X3238972Y2869889*
X3234940Y2879622*
X3228527Y2887976*
X3220173Y2894389*
X3210440Y2898421*
X3205000Y2899133*
G37*
G36*
X3055000D02*
Y2864448D01*
X3089688*
X3088968Y2869889*
X3084940Y2879622*
X3078527Y2887976*
X3070173Y2894389*
X3060440Y2898421*
X3055000Y2899133*
G37*
G36*
X3195000D02*
X3189559Y2898421D01*
X3179826Y2894389*
X3171472Y2887976*
X3165059Y2879622*
X3161031Y2869889*
X3160311Y2864448*
X3195000*
Y2899133*
G37*
G36*
X3045000D02*
X3039559Y2898421D01*
X3029826Y2894389*
X3021472Y2887976*
X3015059Y2879622*
X3011027Y2869889*
X3010314Y2864448*
X3045000*
Y2899133*
G37*
G36*
X3239685Y2854448D02*
X3205000D01*
Y2819759*
X3210440Y2820480*
X3220173Y2824507*
X3228527Y2830921*
X3234940Y2839275*
X3238972Y2849007*
X3239685Y2854448*
G37*
G36*
X3089688D02*
X3055000D01*
Y2819759*
X3060440Y2820480*
X3070173Y2824507*
X3078527Y2830921*
X3084940Y2839275*
X3088968Y2849007*
X3089688Y2854448*
G37*
G36*
X3195000D02*
X3160311D01*
X3161031Y2849007*
X3165059Y2839275*
X3171472Y2830921*
X3179826Y2824507*
X3189559Y2820480*
X3195000Y2819759*
Y2854448*
G37*
G36*
X3045000D02*
X3010314D01*
X3011027Y2849007*
X3015059Y2839275*
X3021472Y2830921*
X3029826Y2824507*
X3039559Y2820480*
X3045000Y2819759*
Y2854448*
G37*
G36*
X2740551Y2885303D02*
X2731413Y2884098D01*
X2722901Y2880570*
X2715590Y2874960*
X2709980Y2867649*
X2706452Y2859137*
X2705248Y2850000*
X2706452Y2840862*
X2709980Y2832350*
X2715590Y2825039*
X2722901Y2819429*
X2731413Y2815901*
X2740551Y2814696*
X2749688Y2815901*
X2758200Y2819429*
X2765511Y2825039*
X2771122Y2832350*
X2774649Y2840862*
X2775854Y2850000*
X2774649Y2859137*
X2771122Y2867649*
X2765511Y2874960*
X2758200Y2880570*
X2749688Y2884098*
X2740551Y2885303*
G37*
G36*
X2150000D02*
X2140862Y2884098D01*
X2132350Y2880570*
X2125039Y2874960*
X2119429Y2867649*
X2115901Y2859137*
X2114696Y2850000*
X2115901Y2840862*
X2119429Y2832350*
X2125039Y2825039*
X2132350Y2819429*
X2140862Y2815901*
X2150000Y2814696*
X2159137Y2815901*
X2167649Y2819429*
X2174960Y2825039*
X2180570Y2832350*
X2184098Y2840862*
X2185303Y2850000*
X2184098Y2859137*
X2180570Y2867649*
X2174960Y2874960*
X2167649Y2880570*
X2159137Y2884098*
X2150000Y2885303*
G37*
G36*
X1555000Y2839208D02*
Y2805000D01*
X1589208*
X1588511Y2810318*
X1584527Y2819933*
X1578192Y2828192*
X1569933Y2834527*
X1560318Y2838511*
X1555000Y2839208*
G37*
G36*
X1455000D02*
Y2805000D01*
X1489208*
X1488511Y2810318*
X1484527Y2819933*
X1478192Y2828192*
X1469933Y2834527*
X1460318Y2838511*
X1455000Y2839208*
G37*
G36*
X1355000D02*
Y2805000D01*
X1389208*
X1388511Y2810318*
X1384527Y2819933*
X1378192Y2828192*
X1369933Y2834527*
X1360318Y2838511*
X1355000Y2839208*
G37*
G36*
X1255000D02*
Y2805000D01*
X1289208*
X1288511Y2810318*
X1284527Y2819933*
X1278192Y2828192*
X1269933Y2834527*
X1260318Y2838511*
X1255000Y2839208*
G37*
G36*
X1545000D02*
X1539681Y2838511D01*
X1530066Y2834527*
X1521807Y2828192*
X1515472Y2819933*
X1511488Y2810318*
X1510791Y2805000*
X1545000*
Y2839208*
G37*
G36*
X1445000D02*
X1439681Y2838511D01*
X1430066Y2834527*
X1421807Y2828192*
X1415472Y2819933*
X1411488Y2810318*
X1410791Y2805000*
X1445000*
Y2839208*
G37*
G36*
X1345000D02*
X1339681Y2838511D01*
X1330066Y2834527*
X1321807Y2828192*
X1315472Y2819933*
X1311488Y2810318*
X1310791Y2805000*
X1345000*
Y2839208*
G37*
G36*
X1245000D02*
X1239681Y2838511D01*
X1230066Y2834527*
X1221807Y2828192*
X1215472Y2819933*
X1211488Y2810318*
X1210791Y2805000*
X1245000*
Y2839208*
G37*
G36*
X1150000Y2834826D02*
X1140988Y2833637D01*
X1132586Y2830161*
X1125374Y2824625*
X1119838Y2817413*
X1116362Y2809011*
X1115173Y2800000*
X1116362Y2790988*
X1119838Y2782586*
X1125374Y2775374*
X1132586Y2769838*
X1140988Y2766362*
X1150000Y2765173*
X1159011Y2766362*
X1167413Y2769838*
X1174625Y2775374*
X1180161Y2782586*
X1183637Y2790988*
X1184826Y2800000*
X1183637Y2809011*
X1180161Y2817413*
X1174625Y2824625*
X1167413Y2830161*
X1159011Y2833637*
X1150000Y2834826*
G37*
G36*
X1050000D02*
X1040988Y2833637D01*
X1032586Y2830161*
X1025374Y2824625*
X1019838Y2817413*
X1016362Y2809011*
X1015173Y2800000*
X1016362Y2790988*
X1019838Y2782586*
X1025374Y2775374*
X1032586Y2769838*
X1040988Y2766362*
X1050000Y2765173*
X1059011Y2766362*
X1067413Y2769838*
X1074625Y2775374*
X1080161Y2782586*
X1083637Y2790988*
X1084826Y2800000*
X1083637Y2809011*
X1080161Y2817413*
X1074625Y2824625*
X1067413Y2830161*
X1059011Y2833637*
X1050000Y2834826*
G37*
G36*
X950000D02*
X940988Y2833637D01*
X932586Y2830161*
X925374Y2824625*
X919838Y2817413*
X916362Y2809011*
X915173Y2800000*
X916362Y2790988*
X919838Y2782586*
X925374Y2775374*
X932586Y2769838*
X940988Y2766362*
X950000Y2765173*
X959011Y2766362*
X967413Y2769838*
X974625Y2775374*
X980161Y2782586*
X983637Y2790988*
X984826Y2800000*
X983637Y2809011*
X980161Y2817413*
X974625Y2824625*
X967413Y2830161*
X959011Y2833637*
X950000Y2834826*
G37*
G36*
X1589208Y2795000D02*
X1555000D01*
Y2760791*
X1560318Y2761488*
X1569933Y2765472*
X1578192Y2771807*
X1584527Y2780066*
X1588511Y2789681*
X1589208Y2795000*
G37*
G36*
X1489208D02*
X1455000D01*
Y2760791*
X1460318Y2761488*
X1469933Y2765472*
X1478192Y2771807*
X1484527Y2780066*
X1488511Y2789681*
X1489208Y2795000*
G37*
G36*
X1389208D02*
X1355000D01*
Y2760791*
X1360318Y2761488*
X1369933Y2765472*
X1378192Y2771807*
X1384527Y2780066*
X1388511Y2789681*
X1389208Y2795000*
G37*
G36*
X1289208D02*
X1255000D01*
Y2760791*
X1260318Y2761488*
X1269933Y2765472*
X1278192Y2771807*
X1284527Y2780066*
X1288511Y2789681*
X1289208Y2795000*
G37*
G36*
X1545000D02*
X1510791D01*
X1511488Y2789681*
X1515472Y2780066*
X1521807Y2771807*
X1530066Y2765472*
X1539681Y2761488*
X1545000Y2760791*
Y2795000*
G37*
G36*
X1445000D02*
X1410791D01*
X1411488Y2789681*
X1415472Y2780066*
X1421807Y2771807*
X1430066Y2765472*
X1439681Y2761488*
X1445000Y2760791*
Y2795000*
G37*
G36*
X1345000D02*
X1310791D01*
X1311488Y2789681*
X1315472Y2780066*
X1321807Y2771807*
X1330066Y2765472*
X1339681Y2761488*
X1345000Y2760791*
Y2795000*
G37*
G36*
X1245000D02*
X1210791D01*
X1211488Y2789681*
X1215472Y2780066*
X1221807Y2771807*
X1230066Y2765472*
X1239681Y2761488*
X1245000Y2760791*
Y2795000*
G37*
G36*
X1750000Y2729862D02*
X1742271Y2728846D01*
X1735070Y2725862*
X1728885Y2721114*
X1724137Y2714929*
X1721157Y2707728*
X1720137Y2700000*
X1721157Y2692271*
X1724137Y2685070*
X1728885Y2678885*
X1735070Y2674137*
X1742271Y2671157*
X1750000Y2670137*
X1757728Y2671157*
X1764929Y2674137*
X1771114Y2678885*
X1775862Y2685070*
X1778846Y2692271*
X1779862Y2700000*
X1778846Y2707728*
X1775862Y2714929*
X1771114Y2721114*
X1764929Y2725862*
X1757728Y2728846*
X1750000Y2729862*
G37*
G36*
X2179606Y2726456D02*
X2120393D01*
Y2667244*
X2179606*
Y2726456*
G37*
G36*
X2450000Y2735303D02*
X2440862Y2734098D01*
X2432350Y2730570*
X2425039Y2724960*
X2419429Y2717649*
X2415901Y2709137*
X2414696Y2700000*
X2415901Y2690862*
X2419429Y2682350*
X2425039Y2675039*
X2432350Y2669429*
X2440862Y2665901*
X2450000Y2664696*
X2459137Y2665901*
X2467649Y2669429*
X2474960Y2675039*
X2480570Y2682350*
X2484098Y2690862*
X2485303Y2700000*
X2484098Y2709137*
X2480570Y2717649*
X2474960Y2724960*
X2467649Y2730570*
X2459137Y2734098*
X2450000Y2735303*
G37*
G36*
X1605000Y2639208D02*
Y2605000D01*
X1639208*
X1638511Y2610318*
X1634527Y2619933*
X1628192Y2628192*
X1619933Y2634527*
X1610318Y2638511*
X1605000Y2639208*
G37*
G36*
X1505000D02*
Y2605000D01*
X1539208*
X1538511Y2610318*
X1534527Y2619933*
X1528192Y2628192*
X1519933Y2634527*
X1510318Y2638511*
X1505000Y2639208*
G37*
G36*
X1405000D02*
Y2605000D01*
X1439208*
X1438511Y2610318*
X1434527Y2619933*
X1428192Y2628192*
X1419933Y2634527*
X1410318Y2638511*
X1405000Y2639208*
G37*
G36*
X939527Y2639527D02*
X905000D01*
Y2605000*
X939527*
Y2639527*
G37*
G36*
X1595000Y2639208D02*
X1589681Y2638511D01*
X1580066Y2634527*
X1571807Y2628192*
X1565472Y2619933*
X1561488Y2610318*
X1560791Y2605000*
X1595000*
Y2639208*
G37*
G36*
X1495000D02*
X1489681Y2638511D01*
X1480066Y2634527*
X1471807Y2628192*
X1465472Y2619933*
X1461488Y2610318*
X1460791Y2605000*
X1495000*
Y2639208*
G37*
G36*
X1395000D02*
X1389681Y2638511D01*
X1380066Y2634527*
X1371807Y2628192*
X1365472Y2619933*
X1361488Y2610318*
X1360791Y2605000*
X1395000*
Y2639208*
G37*
G36*
X895000Y2639527D02*
X860472D01*
Y2605000*
X895000*
Y2639527*
G37*
G36*
X1200000Y2634826D02*
X1190988Y2633637D01*
X1182586Y2630161*
X1175374Y2624625*
X1169838Y2617413*
X1166362Y2609011*
X1165173Y2600000*
X1166362Y2590988*
X1169838Y2582586*
X1175374Y2575374*
X1182586Y2569838*
X1190988Y2566362*
X1200000Y2565173*
X1209011Y2566362*
X1217413Y2569838*
X1224625Y2575374*
X1230161Y2582586*
X1233637Y2590988*
X1234826Y2600000*
X1233637Y2609011*
X1230161Y2617413*
X1224625Y2624625*
X1217413Y2630161*
X1209011Y2633637*
X1200000Y2634826*
G37*
G36*
X1100000D02*
X1090988Y2633637D01*
X1082586Y2630161*
X1075374Y2624625*
X1069838Y2617413*
X1066362Y2609011*
X1065173Y2600000*
X1066362Y2590988*
X1069838Y2582586*
X1075374Y2575374*
X1082586Y2569838*
X1090988Y2566362*
X1100000Y2565173*
X1109011Y2566362*
X1117413Y2569838*
X1124625Y2575374*
X1130161Y2582586*
X1133637Y2590988*
X1134826Y2600000*
X1133637Y2609011*
X1130161Y2617413*
X1124625Y2624625*
X1117413Y2630161*
X1109011Y2633637*
X1100000Y2634826*
G37*
G36*
X1000000D02*
X990988Y2633637D01*
X982586Y2630161*
X975374Y2624625*
X969838Y2617413*
X966362Y2609011*
X965173Y2600000*
X966362Y2590988*
X969838Y2582586*
X975374Y2575374*
X982586Y2569838*
X990988Y2566362*
X1000000Y2565173*
X1009011Y2566362*
X1017413Y2569838*
X1024625Y2575374*
X1030161Y2582586*
X1033637Y2590988*
X1034826Y2600000*
X1033637Y2609011*
X1030161Y2617413*
X1024625Y2624625*
X1017413Y2630161*
X1009011Y2633637*
X1000000Y2634826*
G37*
G36*
X1950000Y2635303D02*
X1940862Y2634098D01*
X1932350Y2630570*
X1925039Y2624960*
X1919429Y2617649*
X1915901Y2609137*
X1914696Y2600000*
X1915901Y2590862*
X1919429Y2582350*
X1925039Y2575039*
X1932350Y2569429*
X1940862Y2565901*
X1950000Y2564696*
X1959137Y2565901*
X1967649Y2569429*
X1974960Y2575039*
X1980570Y2582350*
X1984098Y2590862*
X1985303Y2600000*
X1984098Y2609137*
X1980570Y2617649*
X1974960Y2624960*
X1967649Y2630570*
X1959137Y2634098*
X1950000Y2635303*
G37*
G36*
X1439208Y2595000D02*
X1405000D01*
Y2560791*
X1410318Y2561488*
X1419933Y2565472*
X1428192Y2571807*
X1434527Y2580066*
X1438511Y2589681*
X1439208Y2595000*
G37*
G36*
X1639208D02*
X1605000D01*
Y2560791*
X1610318Y2561488*
X1619933Y2565472*
X1628192Y2571807*
X1634527Y2580066*
X1638511Y2589681*
X1639208Y2595000*
G37*
G36*
X1539208D02*
X1505000D01*
Y2560791*
X1510318Y2561488*
X1519933Y2565472*
X1528192Y2571807*
X1534527Y2580066*
X1538511Y2589681*
X1539208Y2595000*
G37*
G36*
X1595000D02*
X1560791D01*
X1561488Y2589681*
X1565472Y2580066*
X1571807Y2571807*
X1580066Y2565472*
X1589681Y2561488*
X1595000Y2560791*
Y2595000*
G37*
G36*
X1495000D02*
X1460791D01*
X1461488Y2589681*
X1465472Y2580066*
X1471807Y2571807*
X1480066Y2565472*
X1489681Y2561488*
X1495000Y2560791*
Y2595000*
G37*
G36*
X1395000D02*
X1360791D01*
X1361488Y2589681*
X1365472Y2580066*
X1371807Y2571807*
X1380066Y2565472*
X1389681Y2561488*
X1395000Y2560791*
Y2595000*
G37*
G36*
X939527D02*
X905000D01*
Y2560472*
X939527*
Y2595000*
G37*
G36*
X895000D02*
X860472D01*
Y2560472*
X895000*
Y2595000*
G37*
G36*
X1755000Y2537397D02*
Y2508149D01*
X1784248*
X1783716Y2512185*
X1780228Y2520602*
X1774681Y2527830*
X1767452Y2533377*
X1759035Y2536866*
X1755000Y2537397*
G37*
G36*
X1745000D02*
X1740964Y2536866D01*
X1732547Y2533377*
X1725318Y2527830*
X1719771Y2520602*
X1716283Y2512185*
X1715751Y2508149*
X1745000*
Y2537397*
G37*
G36*
X2155000Y2534248D02*
Y2505000D01*
X2184248*
X2183716Y2509035*
X2180228Y2517452*
X2174681Y2524681*
X2167452Y2530228*
X2159035Y2533716*
X2155000Y2534248*
G37*
G36*
X2145000D02*
X2140964Y2533716D01*
X2132547Y2530228*
X2125318Y2524681*
X2119771Y2517452*
X2116283Y2509035*
X2115751Y2505000*
X2145000*
Y2534248*
G37*
G36*
X1784248Y2498149D02*
X1755000D01*
Y2468901*
X1759035Y2469433*
X1767452Y2472921*
X1774681Y2478468*
X1780228Y2485696*
X1783716Y2494114*
X1784248Y2498149*
G37*
G36*
X1745000D02*
X1715751D01*
X1716283Y2494114*
X1719771Y2485696*
X1725318Y2478468*
X1732547Y2472921*
X1740964Y2469433*
X1745000Y2468901*
Y2498149*
G37*
G36*
X2184248Y2495000D02*
X2155000D01*
Y2465751*
X2159035Y2466283*
X2167452Y2469771*
X2174681Y2475318*
X2180228Y2482547*
X2183716Y2490964*
X2184248Y2495000*
G37*
G36*
X2145000D02*
X2115751D01*
X2116283Y2490964*
X2119771Y2482547*
X2125318Y2475318*
X2132547Y2469771*
X2140964Y2466283*
X2145000Y2465751*
Y2495000*
G37*
G36*
X1503425Y2484248D02*
Y2455000D01*
X1532673*
X1532141Y2459035*
X1528653Y2467452*
X1523106Y2474681*
X1515877Y2480228*
X1507460Y2483716*
X1503425Y2484248*
G37*
G36*
X1493425D02*
X1489389Y2483716D01*
X1480972Y2480228*
X1473744Y2474681*
X1468196Y2467452*
X1464708Y2459035*
X1464177Y2455000*
X1493425*
Y2484248*
G37*
G36*
X1301574Y2479862D02*
X1293846Y2478846D01*
X1286645Y2475862*
X1280460Y2471114*
X1275712Y2464929*
X1272732Y2457728*
X1271712Y2450000*
X1272732Y2442271*
X1275712Y2435070*
X1280460Y2428885*
X1286645Y2424137*
X1293846Y2421153*
X1301574Y2420137*
X1309303Y2421153*
X1316503Y2424137*
X1322688Y2428885*
X1327437Y2435070*
X1330417Y2442271*
X1331437Y2450000*
X1330417Y2457728*
X1327437Y2464929*
X1322688Y2471114*
X1316503Y2475862*
X1309303Y2478846*
X1301574Y2479862*
G37*
G36*
X1532673Y2445000D02*
X1503425D01*
Y2415751*
X1507460Y2416283*
X1515877Y2419771*
X1523106Y2425318*
X1528653Y2432547*
X1532141Y2440964*
X1532673Y2445000*
G37*
G36*
X1493425D02*
X1464177D01*
X1464708Y2440964*
X1468196Y2432547*
X1473744Y2425318*
X1480972Y2419771*
X1489389Y2416283*
X1493425Y2415751*
Y2445000*
G37*
G36*
X1950000Y2427295D02*
X1942527Y2426311D01*
X1935566Y2423425*
X1929586Y2418838*
X1925000Y2412858*
X1922114Y2405897*
X1921129Y2398425*
X1922114Y2390952*
X1925000Y2383992*
X1929586Y2378011*
X1935566Y2373425*
X1942527Y2370539*
X1950000Y2369555*
X1957472Y2370539*
X1964433Y2373425*
X1970413Y2378011*
X1975000Y2383992*
X1977885Y2390952*
X1978870Y2398425*
X1977885Y2405897*
X1975000Y2412858*
X1970413Y2418838*
X1964433Y2423425*
X1957472Y2426311*
X1950000Y2427295*
G37*
G36*
X1955000Y2333251D02*
Y2305000D01*
X1983251*
X1982755Y2308775*
X1979370Y2316956*
X1973980Y2323980*
X1966956Y2329370*
X1958775Y2332755*
X1955000Y2333251*
G37*
G36*
X1945000D02*
X1941224Y2332755D01*
X1933043Y2329370*
X1926019Y2323980*
X1920629Y2316956*
X1917244Y2308775*
X1916744Y2305000*
X1945000*
Y2333251*
G37*
G36*
X1983251Y2295000D02*
X1955000D01*
Y2266748*
X1958775Y2267244*
X1966956Y2270629*
X1973980Y2276019*
X1979370Y2283043*
X1982755Y2291224*
X1983251Y2295000*
G37*
G36*
X1945000D02*
X1916744D01*
X1917244Y2291224*
X1920629Y2283043*
X1926019Y2276019*
X1933043Y2270629*
X1941224Y2267244*
X1945000Y2266748*
Y2295000*
G37*
G36*
X399291Y2299291D02*
X300708D01*
Y2200708*
X399291*
Y2299291*
G37*
G36*
X2455000Y2149137D02*
Y2114448D01*
X2489685*
X2488968Y2119889*
X2484940Y2129622*
X2478527Y2137976*
X2470173Y2144389*
X2460440Y2148421*
X2455000Y2149137*
G37*
G36*
X2445000D02*
X2439559Y2148421D01*
X2429826Y2144389*
X2421472Y2137976*
X2415059Y2129622*
X2411031Y2119889*
X2410314Y2114448*
X2445000*
Y2149137*
G37*
G36*
X2489685Y2104448D02*
X2455000D01*
Y2069759*
X2460440Y2070476*
X2470173Y2074507*
X2478527Y2080921*
X2484940Y2089275*
X2488968Y2099007*
X2489685Y2104448*
G37*
G36*
X2445000D02*
X2410314D01*
X2411031Y2099007*
X2415059Y2089275*
X2421472Y2080921*
X2429826Y2074507*
X2439559Y2070476*
X2445000Y2069759*
Y2104448*
G37*
G36*
X3580000Y2104102D02*
Y2055000D01*
X3629102*
X3627893Y2064173*
X3622425Y2077377*
X3613720Y2088720*
X3602381Y2097425*
X3589173Y2102893*
X3580000Y2104102*
G37*
G36*
X355000D02*
Y2055000D01*
X404102*
X402893Y2064173*
X397425Y2077377*
X388720Y2088720*
X377381Y2097425*
X364173Y2102893*
X355000Y2104102*
G37*
G36*
X345000D02*
X335826Y2102893D01*
X322618Y2097425*
X311279Y2088720*
X302578Y2077377*
X297106Y2064173*
X295897Y2055000*
X345000*
Y2104102*
G37*
G36*
X3570000D02*
X3560826Y2102893D01*
X3547622Y2097425*
X3536279Y2088720*
X3527574Y2077377*
X3522106Y2064173*
X3520897Y2055000*
X3570000*
Y2104102*
G37*
G36*
X3629102Y2045000D02*
X3580000D01*
Y1995897*
X3589173Y1997106*
X3602381Y2002578*
X3613720Y2011279*
X3622425Y2022618*
X3627893Y2035826*
X3629102Y2045000*
G37*
G36*
X404102D02*
X355000D01*
Y1995897*
X364173Y1997106*
X377381Y2002578*
X388720Y2011279*
X397425Y2022618*
X402893Y2035826*
X404102Y2045000*
G37*
G36*
X345000D02*
X295897D01*
X297106Y2035826*
X302578Y2022618*
X311279Y2011279*
X322618Y2002578*
X335826Y1997106*
X345000Y1995897*
Y2045000*
G37*
G36*
X3570000D02*
X3520897D01*
X3522106Y2035826*
X3527574Y2022618*
X3536279Y2011279*
X3547622Y2002578*
X3560826Y1997106*
X3570000Y1995897*
Y2045000*
G37*
G36*
X3575000Y1899716D02*
X3562133Y1898023D01*
X3550141Y1893055*
X3539846Y1885153*
X3531944Y1874858*
X3526976Y1862866*
X3525283Y1850000*
X3526976Y1837133*
X3531944Y1825141*
X3539846Y1814846*
X3550141Y1806944*
X3562133Y1801976*
X3575000Y1800283*
X3587866Y1801976*
X3599858Y1806944*
X3610153Y1814846*
X3618055Y1825141*
X3623023Y1837133*
X3624716Y1850000*
X3623023Y1862866*
X3618055Y1874858*
X3610153Y1885153*
X3599858Y1893055*
X3587866Y1898023*
X3575000Y1899716*
G37*
G36*
X350000D02*
X337133Y1898023D01*
X325141Y1893055*
X314846Y1885153*
X306944Y1874858*
X301976Y1862866*
X300283Y1850000*
X301976Y1837133*
X306944Y1825141*
X314846Y1814846*
X325141Y1806944*
X337133Y1801976*
X350000Y1800283*
X362866Y1801976*
X374858Y1806944*
X385153Y1814846*
X393055Y1825141*
X398023Y1837133*
X399716Y1850000*
X398023Y1862866*
X393055Y1874858*
X385153Y1885153*
X374858Y1893055*
X362866Y1898023*
X350000Y1899716*
G37*
G36*
X2069370Y1761496D02*
X1980629D01*
Y1688503*
X2069370*
Y1761496*
G37*
G36*
X1469370D02*
X1380629D01*
Y1688503*
X1469370*
Y1761496*
G37*
G36*
X2032874Y1666854D02*
X2030000D01*
Y1630000*
X2074070*
X2073303Y1635834*
X2069122Y1645925*
X2062468Y1654594*
X2053799Y1661248*
X2043704Y1665429*
X2032874Y1666854*
G37*
G36*
X2020000D02*
X2017125D01*
X2006295Y1665429*
X1996196Y1661248*
X1987531Y1654594*
X1980877Y1645925*
X1976696Y1635834*
X1975929Y1630000*
X2020000*
Y1666854*
G37*
G36*
X1432874Y1661811D02*
X1417125D01*
X1407598Y1660555*
X1398720Y1656877*
X1391098Y1651027*
X1385248Y1643405*
X1381570Y1634527*
X1380314Y1625000*
X1381570Y1615472*
X1385248Y1606594*
X1391098Y1598972*
X1398720Y1593122*
X1407598Y1589444*
X1417125Y1588188*
X1432874*
X1442401Y1589444*
X1451279Y1593122*
X1458901Y1598972*
X1464751Y1606594*
X1468429Y1615472*
X1469685Y1625000*
X1468429Y1634527*
X1464751Y1643405*
X1458901Y1651027*
X1451279Y1656877*
X1442401Y1660555*
X1432874Y1661811*
G37*
G36*
X2074070Y1620000D02*
X2030000D01*
Y1583145*
X2032874*
X2043704Y1584570*
X2053799Y1588751*
X2062468Y1595405*
X2069122Y1604074*
X2073303Y1614169*
X2074070Y1620000*
G37*
G36*
X2020000D02*
X1975929D01*
X1976696Y1614169*
X1980877Y1604074*
X1987531Y1595405*
X1996196Y1588751*
X2006295Y1584570*
X2017125Y1583145*
X2020000*
Y1620000*
G37*
G36*
X2032874Y1561811D02*
X2017125D01*
X2007598Y1560555*
X1998720Y1556877*
X1991098Y1551027*
X1985248Y1543405*
X1981570Y1534527*
X1980314Y1525000*
X1981570Y1515472*
X1985248Y1506594*
X1991098Y1498972*
X1998720Y1493122*
X2007598Y1489444*
X2017125Y1488188*
X2032874*
X2042401Y1489444*
X2051279Y1493122*
X2058901Y1498972*
X2064751Y1506594*
X2068429Y1515472*
X2069685Y1525000*
X2068429Y1534527*
X2064751Y1543405*
X2058901Y1551027*
X2051279Y1556877*
X2042401Y1560555*
X2032874Y1561811*
G37*
G36*
X1432874D02*
X1417125D01*
X1407598Y1560555*
X1398720Y1556877*
X1391098Y1551027*
X1385248Y1543405*
X1381570Y1534527*
X1380314Y1525000*
X1381570Y1515472*
X1385248Y1506594*
X1391098Y1498972*
X1398720Y1493122*
X1407598Y1489444*
X1417125Y1488188*
X1432874*
X1442401Y1489444*
X1451279Y1493122*
X1458901Y1498972*
X1464751Y1506594*
X1468429Y1515472*
X1469685Y1525000*
X1468429Y1534527*
X1464751Y1543405*
X1458901Y1551027*
X1451279Y1556877*
X1442401Y1560555*
X1432874Y1561811*
G37*
G36*
Y1466854D02*
X1430000D01*
Y1430000*
X1474070*
X1473303Y1435830*
X1469122Y1445929*
X1462468Y1454594*
X1453803Y1461248*
X1443708Y1465429*
X1432874Y1466854*
G37*
G36*
X1420000D02*
X1417125D01*
X1406291Y1465429*
X1396200Y1461248*
X1387531Y1454594*
X1380877Y1445929*
X1376696Y1435830*
X1375929Y1430000*
X1420000*
Y1466854*
G37*
G36*
X399291Y1499291D02*
X300708D01*
Y1400708*
X399291*
Y1499291*
G37*
G36*
X1474070Y1420000D02*
X1430000D01*
Y1383145*
X1432874*
X1443708Y1384570*
X1453803Y1388751*
X1462468Y1395405*
X1469122Y1404070*
X1473303Y1414165*
X1474070Y1420000*
G37*
G36*
X1420000D02*
X1375929D01*
X1376696Y1414165*
X1380877Y1404070*
X1387531Y1395405*
X1396200Y1388751*
X1406291Y1384570*
X1417125Y1383145*
X1420000*
Y1420000*
G37*
G36*
X2032874Y1361811D02*
X2017125D01*
X2007598Y1360555*
X1998720Y1356877*
X1991098Y1351027*
X1985248Y1343405*
X1981570Y1334527*
X1980314Y1325000*
X1981570Y1315472*
X1985248Y1306594*
X1991098Y1298972*
X1998720Y1293122*
X2007598Y1289444*
X2017125Y1288188*
X2032874*
X2042401Y1289444*
X2051279Y1293122*
X2058901Y1298972*
X2064751Y1306594*
X2068429Y1315472*
X2069685Y1325000*
X2068429Y1334527*
X2064751Y1343405*
X2058901Y1351027*
X2051279Y1356877*
X2042401Y1360555*
X2032874Y1361811*
G37*
G36*
X1432874D02*
X1417125D01*
X1407598Y1360555*
X1398720Y1356877*
X1391098Y1351027*
X1385248Y1343405*
X1381570Y1334527*
X1380314Y1325000*
X1381570Y1315472*
X1385248Y1306594*
X1391098Y1298972*
X1398720Y1293122*
X1407598Y1289444*
X1417125Y1288188*
X1432874*
X1442401Y1289444*
X1451279Y1293122*
X1458901Y1298972*
X1464751Y1306594*
X1468429Y1315472*
X1469685Y1325000*
X1468429Y1334527*
X1464751Y1343405*
X1458901Y1351027*
X1451279Y1356877*
X1442401Y1360555*
X1432874Y1361811*
G37*
G36*
X3580000Y1304102D02*
Y1255000D01*
X3629102*
X3627893Y1264173*
X3622425Y1277377*
X3613720Y1288720*
X3602381Y1297425*
X3589173Y1302893*
X3580000Y1304102*
G37*
G36*
X355000D02*
Y1255000D01*
X404102*
X402893Y1264173*
X397425Y1277377*
X388720Y1288720*
X377381Y1297425*
X364173Y1302893*
X355000Y1304102*
G37*
G36*
X345000D02*
X335826Y1302893D01*
X322618Y1297425*
X311279Y1288720*
X302578Y1277377*
X297106Y1264173*
X295897Y1255000*
X345000*
Y1304102*
G37*
G36*
X3570000D02*
X3560826Y1302893D01*
X3547622Y1297425*
X3536279Y1288720*
X3527574Y1277377*
X3522106Y1264173*
X3520897Y1255000*
X3570000*
Y1304102*
G37*
G36*
X3629102Y1245000D02*
X3580000D01*
Y1195897*
X3589173Y1197106*
X3602381Y1202578*
X3613720Y1211279*
X3622425Y1222622*
X3627893Y1235826*
X3629102Y1245000*
G37*
G36*
X404102D02*
X355000D01*
Y1195897*
X364173Y1197106*
X377381Y1202578*
X388720Y1211279*
X397425Y1222622*
X402893Y1235826*
X404102Y1245000*
G37*
G36*
X345000D02*
X295897D01*
X297106Y1235826*
X302578Y1222622*
X311279Y1211279*
X322618Y1202578*
X335826Y1197106*
X345000Y1195897*
Y1245000*
G37*
G36*
X3570000D02*
X3520897D01*
X3522106Y1235826*
X3527574Y1222622*
X3536279Y1211279*
X3547622Y1202578*
X3560826Y1197106*
X3570000Y1195897*
Y1245000*
G37*
G36*
X2032874Y1261811D02*
X2017125D01*
X2007598Y1260555*
X1998720Y1256877*
X1991098Y1251027*
X1985248Y1243405*
X1981570Y1234527*
X1980314Y1225000*
X1981570Y1215472*
X1985248Y1206594*
X1991098Y1198972*
X1998720Y1193122*
X2007598Y1189444*
X2017125Y1188188*
X2032874*
X2042401Y1189444*
X2051279Y1193122*
X2058901Y1198972*
X2064751Y1206594*
X2068429Y1215472*
X2069685Y1225000*
X2068429Y1234527*
X2064751Y1243405*
X2058901Y1251027*
X2051279Y1256877*
X2042401Y1260555*
X2032874Y1261811*
G37*
G36*
X1432874D02*
X1417125D01*
X1407598Y1260555*
X1398720Y1256877*
X1391098Y1251027*
X1385248Y1243405*
X1381570Y1234527*
X1380314Y1225000*
X1381570Y1215472*
X1385248Y1206594*
X1391098Y1198972*
X1398720Y1193122*
X1407598Y1189444*
X1417125Y1188188*
X1432874*
X1442401Y1189444*
X1451279Y1193122*
X1458901Y1198972*
X1464751Y1206594*
X1468429Y1215472*
X1469685Y1225000*
X1468429Y1234527*
X1464751Y1243405*
X1458901Y1251027*
X1451279Y1256877*
X1442401Y1260555*
X1432874Y1261811*
G37*
G36*
X2032874Y1161811D02*
X2017125D01*
X2007598Y1160555*
X1998720Y1156877*
X1991098Y1151027*
X1985248Y1143405*
X1981570Y1134527*
X1980314Y1125000*
X1981570Y1115472*
X1985248Y1106594*
X1991098Y1098972*
X1998720Y1093122*
X2007598Y1089444*
X2017125Y1088188*
X2032874*
X2042401Y1089444*
X2051279Y1093122*
X2058901Y1098972*
X2064751Y1106594*
X2068429Y1115472*
X2069685Y1125000*
X2068429Y1134527*
X2064751Y1143405*
X2058901Y1151027*
X2051279Y1156877*
X2042401Y1160555*
X2032874Y1161811*
G37*
G36*
X1432874D02*
X1417125D01*
X1407598Y1160555*
X1398720Y1156877*
X1391098Y1151027*
X1385248Y1143405*
X1381570Y1134527*
X1380314Y1125000*
X1381570Y1115472*
X1385248Y1106594*
X1391098Y1098972*
X1398720Y1093122*
X1407598Y1089444*
X1417125Y1088188*
X1432874*
X1442401Y1089444*
X1451279Y1093122*
X1458901Y1098972*
X1464751Y1106594*
X1468429Y1115472*
X1469685Y1125000*
X1468429Y1134527*
X1464751Y1143405*
X1458901Y1151027*
X1451279Y1156877*
X1442401Y1160555*
X1432874Y1161811*
G37*
G36*
X3575000Y1099716D02*
X3562133Y1098023D01*
X3550141Y1093055*
X3539846Y1085153*
X3531944Y1074858*
X3526976Y1062866*
X3525283Y1050000*
X3526976Y1037133*
X3531944Y1025141*
X3539846Y1014846*
X3550141Y1006944*
X3562133Y1001976*
X3575000Y1000283*
X3587866Y1001976*
X3599858Y1006944*
X3610153Y1014846*
X3618055Y1025141*
X3623023Y1037133*
X3624716Y1050000*
X3623023Y1062866*
X3618055Y1074858*
X3610153Y1085153*
X3599858Y1093055*
X3587866Y1098023*
X3575000Y1099716*
G37*
G36*
X350000D02*
X337133Y1098023D01*
X325141Y1093055*
X314846Y1085153*
X306944Y1074858*
X301976Y1062866*
X300283Y1050000*
X301976Y1037133*
X306944Y1025141*
X314846Y1014846*
X325141Y1006944*
X337133Y1001976*
X350000Y1000283*
X362866Y1001976*
X374858Y1006944*
X385153Y1014846*
X393055Y1025141*
X398023Y1037133*
X399716Y1050000*
X398023Y1062866*
X393055Y1074858*
X385153Y1085153*
X374858Y1093055*
X362866Y1098023*
X350000Y1099716*
G37*
G36*
X2032874Y1061811D02*
X2017125D01*
X2007598Y1060555*
X1998720Y1056877*
X1991098Y1051027*
X1985248Y1043405*
X1981570Y1034527*
X1980314Y1025000*
X1981570Y1015472*
X1985248Y1006594*
X1991098Y998972*
X1998720Y993122*
X2007598Y989444*
X2017125Y988188*
X2032874*
X2042401Y989444*
X2051279Y993122*
X2058901Y998972*
X2064751Y1006594*
X2068429Y1015472*
X2069685Y1025000*
X2068429Y1034527*
X2064751Y1043405*
X2058901Y1051027*
X2051279Y1056877*
X2042401Y1060555*
X2032874Y1061811*
G37*
G36*
X1432874D02*
X1417125D01*
X1407598Y1060555*
X1398720Y1056877*
X1391098Y1051027*
X1385248Y1043405*
X1381570Y1034527*
X1380314Y1025000*
X1381570Y1015472*
X1385248Y1006594*
X1391098Y998972*
X1398720Y993122*
X1407598Y989444*
X1417125Y988188*
X1432874*
X1442401Y989444*
X1451279Y993122*
X1458901Y998972*
X1464751Y1006594*
X1468429Y1015472*
X1469685Y1025000*
X1468429Y1034527*
X1464751Y1043405*
X1458901Y1051027*
X1451279Y1056877*
X1442401Y1060555*
X1432874Y1061811*
G37*
G36*
X2032874Y961811D02*
X2017125D01*
X2007598Y960555*
X1998720Y956877*
X1991098Y951027*
X1985248Y943405*
X1981570Y934527*
X1980314Y925000*
X1981570Y915472*
X1985248Y906594*
X1991098Y898972*
X1998720Y893122*
X2007598Y889444*
X2017125Y888188*
X2032874*
X2042401Y889444*
X2051279Y893122*
X2058901Y898972*
X2064751Y906594*
X2068429Y915472*
X2069685Y925000*
X2068429Y934527*
X2064751Y943405*
X2058901Y951027*
X2051279Y956877*
X2042401Y960555*
X2032874Y961811*
G37*
G36*
X1432874D02*
X1417125D01*
X1407598Y960555*
X1398720Y956877*
X1391098Y951027*
X1385248Y943405*
X1381570Y934527*
X1380314Y925000*
X1381570Y915472*
X1385248Y906594*
X1391098Y898972*
X1398720Y893122*
X1407598Y889444*
X1417125Y888188*
X1432874*
X1442401Y889444*
X1451279Y893122*
X1458901Y898972*
X1464751Y906594*
X1468429Y915472*
X1469685Y925000*
X1468429Y934527*
X1464751Y943405*
X1458901Y951027*
X1451279Y956877*
X1442401Y960555*
X1432874Y961811*
G37*
G36*
X2032874Y861811D02*
X2017125D01*
X2007598Y860555*
X1998720Y856877*
X1991098Y851027*
X1985248Y843405*
X1981570Y834527*
X1980314Y825000*
X1981570Y815472*
X1985248Y806594*
X1991098Y798972*
X1998720Y793122*
X2007598Y789444*
X2017125Y788188*
X2032874*
X2042401Y789444*
X2051279Y793122*
X2058901Y798972*
X2064751Y806594*
X2068429Y815472*
X2069685Y825000*
X2068429Y834527*
X2064751Y843405*
X2058901Y851027*
X2051279Y856877*
X2042401Y860555*
X2032874Y861811*
G37*
G36*
X1432874D02*
X1417125D01*
X1407598Y860555*
X1398720Y856877*
X1391098Y851027*
X1385248Y843405*
X1381570Y834527*
X1380314Y825000*
X1381570Y815472*
X1385248Y806594*
X1391098Y798972*
X1398720Y793122*
X1407598Y789444*
X1417125Y788188*
X1432874*
X1442401Y789444*
X1451279Y793122*
X1458901Y798972*
X1464751Y806594*
X1468429Y815472*
X1469685Y825000*
X1468429Y834527*
X1464751Y843405*
X1458901Y851027*
X1451279Y856877*
X1442401Y860555*
X1432874Y861811*
G37*
G36*
X2032874Y761811D02*
X2017125D01*
X2007598Y760555*
X1998720Y756877*
X1991098Y751027*
X1985248Y743405*
X1981570Y734527*
X1980314Y725000*
X1981570Y715472*
X1985248Y706594*
X1991098Y698972*
X1998720Y693122*
X2007598Y689444*
X2017125Y688188*
X2032874*
X2042401Y689444*
X2051279Y693122*
X2058901Y698972*
X2064751Y706594*
X2068429Y715472*
X2069685Y725000*
X2068429Y734527*
X2064751Y743405*
X2058901Y751027*
X2051279Y756877*
X2042401Y760555*
X2032874Y761811*
G37*
G36*
X1432874D02*
X1417125D01*
X1407598Y760555*
X1398720Y756877*
X1391098Y751027*
X1385248Y743405*
X1381570Y734527*
X1380314Y725000*
X1381570Y715472*
X1385248Y706594*
X1391098Y698972*
X1398720Y693122*
X1407598Y689444*
X1417125Y688188*
X1432874*
X1442401Y689444*
X1451279Y693122*
X1458901Y698972*
X1464751Y706594*
X1468429Y715472*
X1469685Y725000*
X1468429Y734527*
X1464751Y743405*
X1458901Y751027*
X1451279Y756877*
X1442401Y760555*
X1432874Y761811*
G37*
G36*
X1250000Y685303D02*
X1240862Y684098D01*
X1232350Y680570*
X1225039Y674960*
X1219429Y667649*
X1215901Y659137*
X1214696Y650000*
X1215901Y640862*
X1219429Y632350*
X1225039Y625039*
X1232350Y619429*
X1240862Y615901*
X1250000Y614696*
X1259137Y615901*
X1267649Y619429*
X1274960Y625039*
X1280570Y632350*
X1284098Y640862*
X1285303Y650000*
X1284098Y659137*
X1280570Y667649*
X1274960Y674960*
X1267649Y680570*
X1259137Y684098*
X1250000Y685303*
G37*
G36*
X659448D02*
X650311Y684098D01*
X641799Y680570*
X634488Y674960*
X628877Y667649*
X625350Y659137*
X624145Y650000*
X625350Y640862*
X628877Y632350*
X634488Y625039*
X641799Y619429*
X650311Y615901*
X659448Y614696*
X668586Y615901*
X677098Y619429*
X684409Y625039*
X690019Y632350*
X693547Y640862*
X694751Y650000*
X693547Y659137*
X690019Y667649*
X684409Y674960*
X677098Y680570*
X668586Y684098*
X659448Y685303*
G37*
G36*
X399291Y699291D02*
X300708D01*
Y600708*
X399291*
Y699291*
G37*
G36*
X2032874Y661811D02*
X2017125D01*
X2007598Y660555*
X1998720Y656877*
X1991098Y651027*
X1985248Y643405*
X1981570Y634527*
X1980314Y625000*
X1981570Y615472*
X1985248Y606594*
X1991098Y598972*
X1998720Y593122*
X2007598Y589444*
X2017125Y588188*
X2032874*
X2042401Y589444*
X2051279Y593122*
X2058901Y598972*
X2064751Y606594*
X2068429Y615472*
X2069685Y625000*
X2068429Y634527*
X2064751Y643405*
X2058901Y651027*
X2051279Y656877*
X2042401Y660555*
X2032874Y661811*
G37*
G36*
X1432874D02*
X1417125D01*
X1407598Y660555*
X1398720Y656877*
X1391098Y651027*
X1385248Y643405*
X1381570Y634527*
X1380314Y625000*
X1381570Y615472*
X1385248Y606594*
X1391098Y598972*
X1398720Y593122*
X1407598Y589444*
X1417125Y588188*
X1432874*
X1442401Y589444*
X1451279Y593122*
X1458901Y598972*
X1464751Y606594*
X1468429Y615472*
X1469685Y625000*
X1468429Y634527*
X1464751Y643405*
X1458901Y651027*
X1451279Y656877*
X1442401Y660555*
X1432874Y661811*
G37*
G36*
Y561811D02*
X1417125D01*
X1407598Y560555*
X1398720Y556877*
X1391098Y551027*
X1385248Y543405*
X1381570Y534527*
X1380314Y525000*
X1381570Y515472*
X1385248Y506594*
X1391098Y498972*
X1398720Y493122*
X1407598Y489444*
X1417125Y488188*
X1432874*
X1442401Y489444*
X1451279Y493122*
X1458901Y498972*
X1464751Y506594*
X1468429Y515472*
X1469685Y525000*
X1468429Y534527*
X1464751Y543405*
X1458901Y551027*
X1451279Y556877*
X1442401Y560555*
X1432874Y561811*
G37*
G36*
X355000Y504102D02*
Y455000D01*
X404102*
X402893Y464173*
X397425Y477381*
X388720Y488720*
X377381Y497425*
X364173Y502893*
X355000Y504102*
G37*
G36*
X345000D02*
X335826Y502893D01*
X322618Y497425*
X311279Y488720*
X302578Y477381*
X297106Y464173*
X295897Y455000*
X345000*
Y504102*
G37*
G36*
X1250000Y510303D02*
X1240862Y509098D01*
X1232350Y505570*
X1225039Y499960*
X1219429Y492649*
X1215901Y484137*
X1214696Y475000*
X1215901Y465862*
X1219429Y457350*
X1225039Y450039*
X1232350Y444429*
X1240862Y440901*
X1250000Y439696*
X1259137Y440901*
X1267649Y444429*
X1274960Y450039*
X1280570Y457350*
X1284098Y465862*
X1285303Y475000*
X1284098Y484137*
X1280570Y492649*
X1274960Y499960*
X1267649Y505570*
X1259137Y509098*
X1250000Y510303*
G37*
G36*
X659448D02*
X650311Y509098D01*
X641799Y505570*
X634488Y499960*
X628877Y492649*
X625350Y484137*
X624145Y475000*
X625350Y465862*
X628877Y457350*
X634488Y450039*
X641799Y444429*
X650311Y440901*
X659448Y439696*
X668586Y440901*
X677098Y444429*
X684409Y450039*
X690019Y457350*
X693547Y465862*
X694751Y475000*
X693547Y484137*
X690019Y492649*
X684409Y499960*
X677098Y505570*
X668586Y509098*
X659448Y510303*
G37*
G36*
X3575000Y493759D02*
X3563673Y492267D01*
X3553122Y487897*
X3544059Y480944*
X3537102Y471881*
X3532732Y461326*
X3531240Y450000*
X3532732Y438673*
X3537102Y428122*
X3544059Y419055*
X3553122Y412102*
X3563673Y407732*
X3575000Y406240*
X3586326Y407732*
X3596877Y412102*
X3605944Y419055*
X3612897Y428122*
X3617267Y438673*
X3618759Y450000*
X3617267Y461326*
X3612897Y471881*
X3605944Y480944*
X3596877Y487897*
X3586326Y492267*
X3575000Y493759*
G37*
G36*
X404102Y445000D02*
X355000D01*
Y395897*
X364173Y397106*
X377381Y402574*
X388720Y411279*
X397425Y422622*
X402893Y435826*
X404102Y445000*
G37*
G36*
X345000D02*
X295897D01*
X297106Y435826*
X302578Y422622*
X311279Y411279*
X322618Y402574*
X335826Y397106*
X345000Y395897*
Y445000*
G37*
G36*
X2032874Y461811D02*
X2017125D01*
X2007598Y460555*
X1998720Y456877*
X1991098Y451027*
X1985248Y443405*
X1981570Y434527*
X1980314Y425000*
X1981570Y415472*
X1985248Y406594*
X1991098Y398972*
X1998720Y393122*
X2007598Y389444*
X2017125Y388188*
X2032874*
X2042401Y389444*
X2051279Y393122*
X2058901Y398972*
X2064751Y406594*
X2068429Y415472*
X2069685Y425000*
X2068429Y434527*
X2064751Y443405*
X2058901Y451027*
X2051279Y456877*
X2042401Y460555*
X2032874Y461811*
G37*
G36*
X1432874D02*
X1417125D01*
X1407598Y460555*
X1398720Y456877*
X1391098Y451027*
X1385248Y443405*
X1381570Y434527*
X1380314Y425000*
X1381570Y415472*
X1385248Y406594*
X1391098Y398972*
X1398720Y393122*
X1407598Y389444*
X1417125Y388188*
X1432874*
X1442401Y389444*
X1451279Y393122*
X1458901Y398972*
X1464751Y406594*
X1468429Y415472*
X1469685Y425000*
X1468429Y434527*
X1464751Y443405*
X1458901Y451027*
X1451279Y456877*
X1442401Y460555*
X1432874Y461811*
G37*
G36*
X2032874Y361811D02*
X2017125D01*
X2007598Y360555*
X1998720Y356877*
X1991098Y351027*
X1985248Y343405*
X1981570Y334527*
X1980314Y325000*
X1981570Y315472*
X1985248Y306594*
X1991098Y298972*
X1998720Y293122*
X2007598Y289444*
X2017125Y288188*
X2032874*
X2042401Y289444*
X2051279Y293122*
X2058901Y298972*
X2064751Y306594*
X2068429Y315472*
X2069685Y325000*
X2068429Y334527*
X2064751Y343405*
X2058901Y351027*
X2051279Y356877*
X2042401Y360555*
X2032874Y361811*
G37*
G36*
X1432874D02*
X1417125D01*
X1407598Y360555*
X1398720Y356877*
X1391098Y351027*
X1385248Y343405*
X1381570Y334527*
X1380314Y325000*
X1381570Y315472*
X1385248Y306594*
X1391098Y298972*
X1398720Y293122*
X1407598Y289444*
X1417125Y288188*
X1432874*
X1442401Y289444*
X1451279Y293122*
X1458901Y298972*
X1464751Y306594*
X1468429Y315472*
X1469685Y325000*
X1468429Y334527*
X1464751Y343405*
X1458901Y351027*
X1451279Y356877*
X1442401Y360555*
X1432874Y361811*
G37*
G36*
X3618385Y296535D02*
X3531614D01*
Y209763*
X3618385*
Y296535*
G37*
G36*
X2803149Y285787D02*
X2760905D01*
Y201850*
X2844842*
Y244094*
X2844066Y247996*
X2841854Y251303*
X2810358Y282799*
X2807051Y285011*
X2803149Y285787*
G37*
G36*
X2750905D02*
X2708661D01*
X2704759Y285011*
X2701452Y282799*
X2669956Y251303*
X2667744Y247996*
X2666968Y244094*
Y201850*
X2750905*
Y285787*
G37*
G36*
X1031496D02*
X989251D01*
Y201850*
X1073188*
Y244094*
X1072413Y247996*
X1070200Y251303*
X1038704Y282799*
X1035397Y285011*
X1031496Y285787*
G37*
G36*
X979251D02*
X937007D01*
X933106Y285011*
X929799Y282799*
X898303Y251303*
X896090Y247996*
X895314Y244094*
Y201850*
X979251*
Y285787*
G37*
G36*
X350000Y299716D02*
X337133Y298023D01*
X325141Y293055*
X314846Y285153*
X306944Y274858*
X301976Y262866*
X300283Y250000*
X301976Y237133*
X306944Y225141*
X314846Y214846*
X325141Y206944*
X337133Y201976*
X350000Y200283*
X362866Y201976*
X374858Y206944*
X385153Y214846*
X393055Y225141*
X398023Y237133*
X399716Y250000*
X398023Y262866*
X393055Y274858*
X385153Y285153*
X374858Y293055*
X362866Y298023*
X350000Y299716*
G37*
G36*
X2844842Y191850D02*
X2760905D01*
Y107913*
X2803149*
X2807051Y108688*
X2810358Y110901*
X2841854Y142397*
X2844066Y145704*
X2844842Y149606*
Y191850*
G37*
G36*
X2750905D02*
X2666968D01*
Y149606*
X2667744Y145704*
X2669956Y142397*
X2701452Y110901*
X2704759Y108688*
X2708661Y107913*
X2750905*
Y191850*
G37*
G36*
X1073188D02*
X989251D01*
Y107913*
X1031496*
X1035397Y108688*
X1038704Y110901*
X1070200Y142397*
X1072413Y145704*
X1073188Y149606*
Y191850*
G37*
G36*
X979251D02*
X895314D01*
Y149606*
X896090Y145704*
X898303Y142397*
X929799Y110901*
X933106Y108688*
X937007Y107913*
X979251*
Y191850*
G37*
%LNplatine-3*%
%LPD*%
G36*
X2681700Y3076228D02*
X2678673Y3078370D01*
X2675456Y3080287*
X2672043Y3081976*
X2668437Y3083440*
X2664633Y3084681*
X2660641Y3085696*
X2656452Y3086484*
X2652070Y3087047*
X2647496Y3087385*
X2642728Y3087500*
Y3112500*
X2647496Y3112614*
X2656452Y3113515*
X2660641Y3114303*
X2664633Y3115318*
X2668437Y3116559*
X2672043Y3118023*
X2675456Y3119712*
X2678673Y3121629*
X2681700Y3123771*
Y3076228*
G37*
G36*
X2417271Y3118421D02*
X2419543Y3117177D01*
X2422062Y3116082*
X2424830Y3115129*
X2427846Y3114326*
X2431114Y3113669*
X2434625Y3113157*
X2442393Y3112574*
X2446649Y3112500*
Y3087500*
X2442393Y3087425*
X2434625Y3086842*
X2431114Y3086330*
X2427846Y3085673*
X2424830Y3084870*
X2422062Y3083917*
X2419543Y3082822*
X2418015Y3081984*
X2417177Y3080456*
X2416082Y3077937*
X2415129Y3075169*
X2414326Y3072153*
X2413669Y3068889*
X2413157Y3065374*
X2412574Y3057606*
X2412500Y3053350*
X2387500*
X2387425Y3057606*
X2386842Y3065374*
X2386330Y3068889*
X2385673Y3072153*
X2384870Y3075169*
X2383917Y3077937*
X2382822Y3080456*
X2381578Y3082728*
X2380188Y3084751*
X2415251*
Y3119811*
X2417271Y3118421*
G37*
G36*
X2360354Y2967677D02*
X2357157Y2964157D01*
X2354637Y2960669*
X2352795Y2957208*
X2351625Y2953779*
X2351137Y2950377*
X2351322Y2947011*
X2352188Y2943673*
X2353728Y2940362*
X2355944Y2937086*
X2358838Y2933838*
X2337500Y2919822*
X2333889Y2923181*
X2330137Y2926185*
X2326232Y2928838*
X2322185Y2931137*
X2317992Y2933082*
X2313649Y2934673*
X2309161Y2935909*
X2304527Y2936791*
X2299748Y2937322*
X2294822Y2937500*
Y2962500*
X2299748Y2962677*
X2304527Y2963208*
X2309161Y2964090*
X2313649Y2965326*
X2317992Y2966917*
X2322185Y2968862*
X2326232Y2971161*
X2330137Y2973814*
X2333889Y2976818*
X2337500Y2980177*
X2360354Y2967677*
G37*
G36*
X1348633Y2630956D02*
X1345370Y2627539D01*
X1339732Y2620665*
X1337354Y2617208*
X1335271Y2613740*
X1333484Y2610255*
X1331992Y2606759*
X1330791Y2603251*
X1329889Y2599728*
X1329279Y2596192*
X1296192Y2629279*
X1299728Y2629889*
X1303251Y2630791*
X1306759Y2631992*
X1310255Y2633484*
X1313740Y2635271*
X1317208Y2637354*
X1320665Y2639732*
X1324110Y2642405*
X1327539Y2645370*
X1330956Y2648633*
X1348633Y2630956*
G37*
G36*
X3530948Y1625000D02*
X3530696Y1627374D01*
X3529944Y1629500*
X3528688Y1631374*
X3526929Y1633000*
X3524669Y1634374*
X3521905Y1635500*
X3518641Y1636374*
X3514870Y1637000*
X3510602Y1637374*
X3505826Y1637500*
Y1662500*
X3510602Y1662625*
X3514870Y1663000*
X3518641Y1663625*
X3521905Y1664500*
X3524669Y1665625*
X3526929Y1667000*
X3528688Y1668625*
X3529944Y1670500*
X3530696Y1672625*
X3530948Y1675000*
Y1625000*
G37*
G36*
X2430874Y1462842D02*
X2428594Y1459500D01*
X2426996Y1456137*
X2426086Y1452751*
X2425858Y1449342*
X2426314Y1445909*
X2427452Y1442452*
X2429279Y1438972*
X2431787Y1435472*
X2434980Y1431948*
X2417303Y1414271*
X2413779Y1417464*
X2410279Y1419972*
X2406799Y1421799*
X2403342Y1422937*
X2399909Y1423393*
X2396503Y1423165*
X2393114Y1422255*
X2389751Y1420657*
X2386409Y1418377*
X2383090Y1415413*
X2390787Y1458464*
X2433838Y1466161*
X2430874Y1462842*
G37*
G36*
X2052968Y1446803D02*
X2053937Y1444692D01*
X2055610Y1442830*
X2057988Y1441216*
X2061074Y1439854*
X2064870Y1438736*
X2069366Y1437870*
X2074570Y1437248*
X2080480Y1436877*
X2087098Y1436751*
X2086370Y1411751*
X2079708Y1411629*
X2068460Y1410633*
X2063874Y1409767*
X2059980Y1408649*
X2056779Y1407283*
X2054267Y1405673*
X2052444Y1403811*
X2051318Y1401700*
X2050881Y1399346*
X2052704Y1449157*
X2052968Y1446803*
G37*
G36*
X2905862Y943389D02*
X2923539Y908035D01*
X2920003Y911216*
X2916468Y913692*
X2912933Y915460*
X2909397Y916519*
X2905862Y916874*
X2902326Y916519*
X2898791Y915460*
X2895255Y913692*
X2891720Y911216*
X2888185Y908035*
X2870507Y925712*
X2873688Y929248*
X2876161Y932783*
X2877929Y936318*
X2878992Y939854*
X2879346Y943389*
X2878992Y946925*
X2877929Y950460*
X2876161Y953996*
X2873688Y957531*
X2870507Y961066*
X2905862Y943389*
G37*
G36*
X3530948Y825000D02*
X3530696Y827374D01*
X3529944Y829500*
X3528688Y831374*
X3526929Y833000*
X3524669Y834374*
X3521905Y835500*
X3518641Y836374*
X3514870Y837000*
X3510602Y837374*
X3505826Y837500*
Y862500*
X3510602Y862625*
X3514870Y863000*
X3518641Y863625*
X3521905Y864500*
X3524669Y865625*
X3526929Y867000*
X3528688Y868625*
X3529944Y870500*
X3530696Y872625*
X3530948Y875000*
Y825000*
G37*
G36*
X2052968Y546803D02*
X2053937Y544692D01*
X2055610Y542830*
X2057988Y541220*
X2061074Y539854*
X2064870Y538736*
X2069366Y537870*
X2074570Y537248*
X2080480Y536877*
X2087098Y536751*
X2086370Y511751*
X2079708Y511625*
X2068460Y510633*
X2063874Y509767*
X2059980Y508649*
X2056779Y507283*
X2054267Y505673*
X2052444Y503811*
X2051318Y501700*
X2050881Y499346*
X2052704Y549157*
X2052968Y546803*
G37*
G54D13*
X30007Y3845011D02*
X69992D01*
X30007Y3884996*
Y3894992*
X40003Y3904992*
X59996*
X69992Y3894992*
G54D22*
X3270078Y3681889D03*
X2929921D03*
X3270078Y3831496D03*
X2929921D03*
G54D41*
X2025000Y525000D02*
X2025748Y524251D01*
X2025000Y1425000D02*
X2025748Y1424251D01*
X2905862Y943389D02*
X2999251Y850000D01*
X2399625Y1449625D02*
X2905862Y943389D01*
X2025748Y524251D02*
X2486724D01*
X2905862Y943389*
X2399625Y1449625D02*
X2425000Y1475000D01*
X2374251Y1424251D02*
X2399625Y1449625D01*
X2999251Y850000D02*
X3575000D01*
X2425000Y1648720D02*
Y1850000D01*
Y1475000D02*
Y1648720D01*
X2426279Y1650000*
X3575000*
X2325000Y2950000D02*
X2350000Y2925000D01*
Y1925000D02*
Y2925000D01*
Y1925000D02*
X2425000Y1850000D01*
X2025748Y1424251D02*
X2374251D01*
X2400000Y3025000D02*
Y3100000D01*
X2325000Y2950000D02*
X2400000Y3025000D01*
X1875000Y2950000D02*
X2325000D01*
X1625000Y2700000D02*
X1875000Y2950000D01*
X1400000Y2700000D02*
X1625000D01*
X1300000Y2600000D02*
X1400000Y2700000D01*
X2400000Y3100000D02*
X2700000D01*
G54D43*
X2025000Y325000D03*
Y425000D03*
Y525000D03*
Y625000D03*
Y725000D03*
Y825000D03*
Y925000D03*
Y1025000D03*
Y1125000D03*
Y1225000D03*
Y1325000D03*
Y1425000D03*
Y1525000D03*
Y1625000D03*
X1425000Y325000D03*
Y425000D03*
Y525000D03*
Y625000D03*
Y725000D03*
Y825000D03*
Y925000D03*
Y1025000D03*
Y1125000D03*
Y1225000D03*
Y1325000D03*
Y1425000D03*
Y1525000D03*
Y1625000D03*
G54D44*
X2025000Y1725000D03*
X1425000D03*
G54D45*
X2755905Y196850D03*
X984251D03*
G54D46*
X3543307Y3543307D03*
X393700D03*
G54D47*
X2150000Y2500000D03*
X1750000Y2503149D03*
Y2700000D03*
X1498425Y2450000D03*
X1301574D03*
X2896850Y3000000D03*
G54D48*
X2150000Y2696850D03*
G54D49*
X900000Y2600000D03*
G54D50*
X950000Y2800000D03*
X1000000Y2600000D03*
X1050000Y2800000D03*
X1100000Y2600000D03*
X1150000Y2800000D03*
X1200000Y2600000D03*
X1250000Y2800000D03*
X1300000Y2600000D03*
X1350000Y2800000D03*
X1400000Y2600000D03*
X1450000Y2800000D03*
X1500000Y2600000D03*
X1550000Y2800000D03*
X1600000Y2600000D03*
G54D51*
X1430118Y3300000D03*
X1550000Y3400000D03*
X900000Y3150000D03*
X1630118D03*
X700000Y3300000D03*
G54D52*
X875000Y3300000D03*
X2105118Y3400000D03*
X344881Y3150000D03*
X1075000D03*
X144881Y3300000D03*
G54D53*
X2700000Y3100000D03*
Y3690551D03*
X3200000Y2859448D03*
Y3450000D03*
X3050000Y2859448D03*
Y3450000D03*
X1950000Y3190551D03*
Y2600000D03*
X2740551Y2850000D03*
X2150000D03*
X2450000Y2109448D03*
Y2700000D03*
X659448Y650000D03*
X1250000D03*
X659448Y475000D03*
X1250000D03*
G54D54*
X2700000Y3000000D03*
G54D55*
X1950000Y2398425D03*
Y2300000D03*
G54D56*
X803149Y3600000D03*
X3575000Y450000D03*
G54D57*
X1000000Y3600000D03*
G54D58*
X350000Y2250000D03*
Y1450000D03*
Y650000D03*
X3575000Y1650000D03*
Y850000D03*
G54D59*
X350000Y2050000D03*
Y1850000D03*
Y1250000D03*
Y1050000D03*
Y450000D03*
Y250000D03*
X3575000Y1850000D03*
Y2050000D03*
Y1050000D03*
Y1250000D03*
G54D60*
X3575000Y253149D03*
G54D61*
X2400000Y3100000D03*
M02*