%FSLAX66Y66*%
%MOIN*%
%SFA1B1*%

%IPPOS*%
%AMD22*
4,1,8,0.000000,-0.033500,0.000000,-0.033500,0.021700,-0.011800,0.021700,0.011800,0.000000,0.033500,0.000000,0.033500,-0.021700,0.011800,-0.021700,-0.011800,0.000000,-0.033500,0.0*
1,1,0.043307,0.000000,-0.011800*
1,1,0.043307,0.000000,-0.011800*
1,1,0.043307,0.000000,0.011800*
1,1,0.043307,0.000000,0.011800*
%
%AMD45*
4,1,8,-0.078700,-0.047200,-0.047200,-0.078700,0.047300,-0.078700,0.078800,-0.047200,0.078800,0.047300,0.047300,0.078800,-0.047200,0.078800,-0.078700,0.047300,-0.078700,-0.047200,0.0*
%
%AMD46*
4,1,8,-0.047200,-0.078700,-0.078700,-0.047200,-0.078700,0.047300,-0.047200,0.078800,0.047300,0.078800,0.078800,0.047300,0.078800,-0.047200,0.047300,-0.078700,-0.047200,-0.078700,0.0*
%
%ADD13C,0.010000*%
%ADD17R,0.031496X0.047244*%
%ADD18R,0.029921X0.047244*%
%ADD19R,0.027559X0.047244*%
%ADD20C,0.063114*%
G04~CAMADD=22~8~0.0~0.0~433.1~669.3~216.5~0.0~15~0.0~0.0~0.0~0.0~0~0.0~0.0~0.0~0.0~0~0.0~0.0~0.0~180.0~434.0~669.0*
%ADD22D22*%
%ADD40R,0.056102X0.011811*%
%ADD41C,0.025000*%
%ADD42C,0.050000*%
%ADD43O,0.078740X0.062992*%
%ADD44R,0.078740X0.062992*%
%ADD45D45*%
%ADD46D46*%
%ADD47C,0.049212*%
%ADD48R,0.049212X0.049212*%
%ADD49R,0.059055X0.059055*%
%ADD50C,0.059055*%
%ADD51R,0.062008X0.062008*%
%ADD52C,0.062008*%
%ADD53C,0.060000*%
%ADD54R,0.049212X0.049212*%
%ADD55C,0.047244*%
%ADD56C,0.076771*%
%ADD57R,0.076771X0.076771*%
%ADD58R,0.088582X0.088582*%
%ADD59C,0.088582*%
%ADD60R,0.076771X0.076771*%
%ADD61C,0.050000*%
%LNplatine-1*%
%LPD*%
G36*
X3937007Y0D02*
X0D01*
Y3937007*
X3937007*
Y0*
G37*
%LNplatine-2*%
%LPC*%
G36*
X3275078Y3874574D02*
Y3836496D01*
X3302003*
Y3843307*
X3300917Y3851570*
X3297728Y3859271*
X3292653Y3865881*
X3286043Y3870956*
X3278342Y3874145*
X3275078Y3874574*
G37*
G36*
X2934921D02*
Y3836496D01*
X2961846*
Y3843307*
X2960759Y3851570*
X2957570Y3859271*
X2952496Y3865881*
X2945885Y3870956*
X2938185Y3874145*
X2934921Y3874574*
G37*
G36*
X2924921D02*
X2921657Y3874145D01*
X2913956Y3870956*
X2907346Y3865881*
X2902271Y3859271*
X2899082Y3851570*
X2897996Y3843307*
Y3836496*
X2924921*
Y3874574*
G37*
G36*
X3265078D02*
X3261814Y3874145D01*
X3254114Y3870956*
X3247503Y3865881*
X3242429Y3859271*
X3239240Y3851570*
X3238153Y3843307*
Y3836496*
X3265078*
Y3874574*
G37*
G36*
X74996Y3919988D02*
X25003D01*
Y3830007*
X74996*
Y3919988*
G37*
G36*
X3302003Y3826496D02*
X3275078D01*
Y3788417*
X3278342Y3788846*
X3286043Y3792035*
X3292653Y3797110*
X3297728Y3803720*
X3300917Y3811421*
X3302003Y3819685*
Y3826496*
G37*
G36*
X2924921D02*
X2897996D01*
Y3819685*
X2899082Y3811421*
X2902271Y3803720*
X2907346Y3797110*
X2913956Y3792035*
X2921657Y3788846*
X2924921Y3788417*
Y3826496*
G37*
G36*
X2961846D02*
X2934921D01*
Y3788417*
X2938185Y3788846*
X2945885Y3792035*
X2952496Y3797110*
X2957570Y3803720*
X2960759Y3811421*
X2961846Y3819685*
Y3826496*
G37*
G36*
X3265078D02*
X3238153D01*
Y3819685*
X3239240Y3811421*
X3242429Y3803720*
X3247503Y3797110*
X3254114Y3792035*
X3261814Y3788846*
X3265078Y3788417*
Y3826496*
G37*
G36*
X3142783Y3745854D02*
X3057216D01*
X3050385Y3744496*
X3044598Y3740629*
X3030000Y3726031*
X3026133Y3720244*
X3024775Y3713413*
X3024137Y3712775*
X3019362Y3713086*
X3017480Y3715153*
Y3715511*
X2996732*
Y3681889*
Y3648267*
X3016570*
X3017480*
X3021696Y3646377*
X3022224Y3637956*
X3022244Y3633362*
X3022314Y3633196*
Y3597547*
X2862381Y3437618*
X2858515Y3431826*
X2857157Y3425000*
Y3182389*
X2792610Y3117842*
X2757551*
X2757397Y3117909*
X2752767Y3118019*
X2748472Y3118338*
X2744393Y3118862*
X2740527Y3119590*
X2736874Y3120519*
X2733421Y3121645*
X2730181Y3122960*
X2727133Y3124472*
X2724279Y3126169*
X2721425Y3128188*
X2720476Y3128405*
X2717649Y3130570*
X2709137Y3134098*
X2700000Y3135303*
X2690862Y3134098*
X2682350Y3130570*
X2675039Y3124960*
X2669429Y3117649*
X2665901Y3109137*
X2664696Y3100000*
X2665901Y3090862*
X2669429Y3082350*
X2671594Y3079523*
X2671811Y3078574*
X2673830Y3075720*
X2675527Y3072866*
X2677039Y3069818*
X2678354Y3066574*
X2679480Y3063129*
X2680409Y3059472*
X2681122Y3055681*
X2681980Y3047161*
X2682003Y3046224*
X2681972Y3045031*
X2681645Y3041141*
X2681118Y3037842*
X2680425Y3035157*
X2679618Y3033106*
X2678787Y3031685*
X2678011Y3030814*
X2677307Y3030326*
X2676543Y3030043*
X2674921Y3029866*
X2674448Y3029606*
X2670393*
Y3025192*
X2670102Y3024488*
X2670220Y3024196*
X2670133Y3023897*
X2670393Y3023421*
Y2970393*
X2729606*
Y3023421*
X2729866Y3023897*
X2729779Y3024196*
X2729897Y3024488*
X2729606Y3025192*
Y3029606*
X2725551*
X2725074Y3029866*
X2723456Y3030043*
X2722692Y3030326*
X2721988Y3030814*
X2721212Y3031685*
X2720381Y3033106*
X2719574Y3035157*
X2718881Y3037842*
X2718354Y3041141*
X2718027Y3045031*
X2717996Y3046224*
X2718019Y3047232*
X2718338Y3051527*
X2718862Y3055606*
X2719590Y3059472*
X2720519Y3063125*
X2721645Y3066578*
X2722960Y3069818*
X2724472Y3072866*
X2725464Y3074535*
X2727133Y3075527*
X2730181Y3077039*
X2733425Y3078354*
X2736870Y3079480*
X2740527Y3080409*
X2744318Y3081125*
X2752838Y3081980*
X2757397Y3082090*
X2757551Y3082157*
X2800000*
X2806826Y3083515*
X2812618Y3087381*
X2887618Y3162381*
X2891484Y3168173*
X2892842Y3175000*
Y3417610*
X3052775Y3577539*
X3056641Y3583330*
X3058000Y3590157*
Y3633169*
X3058070Y3633330*
X3058161Y3642224*
X3058527Y3649511*
X3061535Y3653267*
X3063125*
X3069322*
X3069370Y3653149*
X3069566Y3652409*
X3069740Y3651354*
X3069858Y3650007*
X3069905Y3648248*
X3070118Y3647763*
Y3584539*
X3042791Y3557208*
X3040578Y3553901*
X3039803Y3550000*
Y3510307*
X3039594Y3509874*
X3039421Y3506692*
X3038940Y3503598*
X3038114Y3500291*
X3036929Y3496771*
X3035374Y3493047*
X3033448Y3489125*
X3031173Y3485066*
X3025354Y3476200*
X3021881Y3471527*
X3021629Y3470523*
X3019429Y3467649*
X3015901Y3459137*
X3014696Y3450000*
X3015901Y3440862*
X3019429Y3432350*
X3025039Y3425039*
X3032350Y3419429*
X3040862Y3415901*
X3050000Y3414696*
X3059137Y3415901*
X3067649Y3419429*
X3074960Y3425039*
X3080570Y3432350*
X3084098Y3440862*
X3085303Y3450000*
X3084098Y3459137*
X3080570Y3467649*
X3078370Y3470523*
X3078118Y3471527*
X3074645Y3476200*
X3068826Y3485066*
X3066551Y3489129*
X3064625Y3493047*
X3063070Y3496771*
X3061885Y3500291*
X3061059Y3503598*
X3060574Y3506692*
X3060405Y3509874*
X3060196Y3510307*
Y3545775*
X3087523Y3573106*
X3089736Y3576413*
X3090511Y3580314*
Y3647767*
X3090724Y3648248*
X3090771Y3650007*
X3090889Y3651354*
X3091062Y3652409*
X3091259Y3653149*
X3091307Y3653267*
X3099094*
X3100905*
X3108692*
X3108740Y3653149*
X3108937Y3652409*
X3109110Y3651354*
X3109228Y3650007*
X3109275Y3648248*
X3109488Y3647763*
Y3580314*
X3110263Y3576413*
X3112476Y3573106*
X3188555Y3497023*
X3188370Y3496586*
X3187267Y3494393*
X3175169Y3475976*
X3171649Y3471220*
X3171401Y3470224*
X3169429Y3467649*
X3165901Y3459137*
X3164696Y3450000*
X3165901Y3440862*
X3169429Y3432350*
X3175039Y3425039*
X3182350Y3419429*
X3190862Y3415901*
X3200000Y3414696*
X3209137Y3415901*
X3217649Y3419429*
X3224960Y3425039*
X3230570Y3432350*
X3234098Y3440862*
X3235303Y3450000*
X3234098Y3459137*
X3230570Y3467649*
X3228610Y3470208*
X3228374Y3471188*
X3221594Y3480492*
X3216413Y3488177*
X3212791Y3494279*
X3211625Y3496586*
X3210862Y3498417*
X3210503Y3499602*
X3210370Y3500673*
X3209897Y3501503*
X3209421Y3503901*
X3207208Y3507208*
X3129881Y3584539*
Y3647767*
X3130094Y3648248*
X3130141Y3650007*
X3130259Y3651354*
X3130433Y3652409*
X3130629Y3653149*
X3130677Y3653267*
X3138464*
X3139881*
X3143464*
X3177519*
X3179803*
X3182519Y3649393*
Y3648267*
X3203267*
Y3681889*
Y3715511*
X3182519*
Y3715153*
X3180637Y3713086*
X3175862Y3712775*
X3175224Y3713413*
X3173866Y3720244*
X3170000Y3726031*
X3155401Y3740629*
X3149614Y3744496*
X3142783Y3745854*
G37*
G36*
X3265078Y3724968D02*
X3261814Y3724539D01*
X3254114Y3721350*
X3247503Y3716275*
X3242429Y3709665*
X3239240Y3701964*
X3239015Y3700259*
X3234015Y3700586*
Y3715511*
X3213267*
Y3681889*
Y3648267*
X3234015*
Y3663192*
X3239015Y3663519*
X3239240Y3661814*
X3242429Y3654114*
X3247503Y3647503*
X3254114Y3642429*
X3261814Y3639240*
X3265078Y3638811*
Y3681889*
Y3724968*
G37*
G36*
X3275078D02*
Y3686889D01*
X3302003*
Y3693700*
X3300917Y3701964*
X3297728Y3709665*
X3292653Y3716275*
X3286043Y3721350*
X3278342Y3724539*
X3275078Y3724968*
G37*
G36*
X2924921D02*
X2921657Y3724539D01*
X2913956Y3721350*
X2907346Y3716275*
X2902271Y3709665*
X2899082Y3701964*
X2897996Y3693700*
Y3686889*
X2924921*
Y3724968*
G37*
G36*
X2934921D02*
Y3681889D01*
Y3638811*
X2938185Y3639240*
X2945885Y3642429*
X2952496Y3647503*
X2957570Y3654114*
X2960759Y3661814*
X2960984Y3663519*
X2965984Y3663192*
Y3648267*
X2986732*
Y3681889*
Y3715511*
X2965984*
Y3700586*
X2960984Y3700259*
X2960759Y3701964*
X2957570Y3709665*
X2952496Y3716275*
X2945885Y3721350*
X2938185Y3724539*
X2934921Y3724968*
G37*
G36*
X3302003Y3676889D02*
X3275078D01*
Y3638811*
X3278342Y3639240*
X3286043Y3642429*
X3292653Y3647503*
X3297728Y3654114*
X3300917Y3661814*
X3302003Y3670078*
Y3676889*
G37*
G36*
X2924921D02*
X2897996D01*
Y3670078*
X2899082Y3661814*
X2902271Y3654114*
X2907346Y3647503*
X2913956Y3642429*
X2921657Y3639240*
X2924921Y3638811*
Y3676889*
G37*
G36*
X3590551Y3632244D02*
X3548307D01*
Y3548307*
X3632244*
Y3590551*
X3631468Y3594452*
X3629255Y3597759*
X3597759Y3629255*
X3594452Y3631468*
X3590551Y3632244*
G37*
G36*
X3538307D02*
X3496062D01*
X3492161Y3631468*
X3488854Y3629255*
X3457358Y3597759*
X3455145Y3594452*
X3454370Y3590551*
Y3548307*
X3538307*
Y3632244*
G37*
G36*
X440944D02*
X398700D01*
Y3548307*
X482637*
Y3590551*
X481862Y3594452*
X479649Y3597759*
X448153Y3629255*
X444846Y3631468*
X440944Y3632244*
G37*
G36*
X388700D02*
X346456D01*
X342555Y3631468*
X339248Y3629255*
X307751Y3597759*
X305539Y3594452*
X304763Y3590551*
Y3548307*
X388700*
Y3632244*
G37*
G36*
X3632244Y3538307D02*
X3548307D01*
Y3454370*
X3590551*
X3594452Y3455145*
X3597759Y3457358*
X3629255Y3488854*
X3631468Y3492161*
X3632244Y3496062*
Y3538307*
G37*
G36*
X3538307D02*
X3454370D01*
Y3496062*
X3455145Y3492161*
X3457358Y3488854*
X3488854Y3457358*
X3492161Y3455145*
X3496062Y3454370*
X3538307*
Y3538307*
G37*
G36*
X482637D02*
X398700D01*
Y3454370*
X440944*
X444846Y3455145*
X448153Y3457358*
X479649Y3488854*
X481862Y3492161*
X482637Y3496062*
Y3538307*
G37*
G36*
X388700D02*
X304763D01*
Y3496062*
X305539Y3492161*
X307751Y3488854*
X339248Y3457358*
X342555Y3455145*
X346456Y3454370*
X388700*
Y3538307*
G37*
G36*
X2700000Y3725854D02*
X2690862Y3724649D01*
X2682350Y3721122*
X2675039Y3715511*
X2669429Y3708200*
X2665901Y3699688*
X2664775Y3691129*
X2577944Y3604299*
X2453169Y3479527*
X2438110Y3464468*
X2379527*
X2375700Y3462881*
X2374114Y3459055*
Y3340944*
X2375700Y3337118*
X2379527Y3335531*
X2438582*
X2442409Y3337118*
X2443996Y3340944*
Y3365059*
X2497637*
X2501464Y3366645*
X2503051Y3370472*
Y3389322*
X2504228Y3392169*
X2505259Y3400000*
Y3446027*
X2565122Y3505893*
X2569740Y3503980*
Y3153425*
X2569488Y3152070*
X2568905Y3150082*
X2568070Y3147952*
X2566964Y3145688*
X2565578Y3143295*
X2563909Y3140783*
X2561988Y3138208*
X2557129Y3132562*
X2554283Y3129614*
X2554220Y3129452*
X2530137Y3105370*
X2525137Y3107440*
Y3114685*
X2487086*
X2449035*
X2444370Y3110960*
X2444035Y3110984*
X2441531Y3111559*
X2438618Y3112476*
X2435574Y3113673*
X2432405Y3115165*
X2429173Y3116917*
X2422133Y3121452*
X2418468Y3124161*
X2417468Y3124409*
X2415129Y3126204*
X2407830Y3129228*
X2400000Y3130259*
X2392169Y3129228*
X2384870Y3126204*
X2382531Y3124409*
X2381531Y3124161*
X2377870Y3121452*
X2370826Y3116917*
X2367594Y3115165*
X2364425Y3113673*
X2361381Y3112476*
X2358468Y3111559*
X2355685Y3110917*
X2353035Y3110543*
X2350937Y3110440*
X2345964Y3111385*
Y3150275*
X2279862*
Y3130307*
X2276696Y3130102*
X2274960Y3130098*
X2274444Y3129881*
X2266870*
X2266484Y3131826*
X2262952Y3137114*
X2262799Y3137531*
X2261492Y3138929*
X2260417Y3140259*
X2259433Y3141665*
X2258547Y3143153*
X2257748Y3144720*
X2257043Y3146381*
X2256429Y3148133*
X2255905Y3149984*
X2255480Y3151940*
X2255125Y3154137*
X2254602Y3154992*
X2254228Y3157830*
X2251204Y3165129*
X2246397Y3171397*
X2135377Y3282417*
Y3370665*
X2196948*
Y3370472*
X2198535Y3366645*
X2202362Y3365059*
X2256003*
Y3340944*
X2257590Y3337118*
X2261417Y3335531*
X2320472*
X2324299Y3337118*
X2325885Y3340944*
Y3459055*
X2324299Y3462881*
X2320472Y3464468*
X2261417*
X2257590Y3462881*
X2256003Y3459055*
Y3434940*
X2202362*
X2198535Y3433354*
X2197633Y3431181*
X2123625*
X2123275Y3431448*
X2114515Y3435078*
X2105118Y3436314*
X2095720Y3435078*
X2086960Y3431448*
X2079440Y3425677*
X2073669Y3418157*
X2070039Y3409397*
X2068803Y3400000*
X2070039Y3390602*
X2073669Y3381842*
X2074858Y3380291*
Y3269881*
X2075889Y3262051*
X2078913Y3254751*
X2083720Y3248484*
X2203602Y3128602*
X2209870Y3123795*
X2217169Y3120771*
X2220003Y3120397*
X2220862Y3119874*
X2223059Y3119519*
X2225015Y3119094*
X2226866Y3118570*
X2228618Y3117956*
X2230279Y3117251*
X2231846Y3116452*
X2233334Y3115566*
X2234740Y3114582*
X2236070Y3113507*
X2237468Y3112200*
X2237885Y3112047*
X2243173Y3108515*
X2250000Y3107157*
X2256826Y3108515*
X2258283Y3109488*
X2274385*
X2274874Y3109275*
X2279862Y3109177*
Y3076500*
X2279799Y3076295*
X2279003Y3075047*
X2277893Y3074141*
X2274862Y3072870*
X2274669Y3072948*
X2273570Y3073507*
X2272535Y3074129*
X2271393Y3074944*
X2270346Y3075185*
X2267456Y3077114*
X2260629Y3078472*
X2196759*
X2072066Y3203169*
X2066275Y3207035*
X2059448Y3208393*
X2007551*
X2007397Y3208460*
X2002767Y3208570*
X1998472Y3208889*
X1994393Y3209413*
X1990527Y3210141*
X1986874Y3211070*
X1983421Y3212196*
X1980181Y3213511*
X1977133Y3215023*
X1974279Y3216724*
X1971425Y3218740*
X1970476Y3218956*
X1967649Y3221122*
X1959137Y3224649*
X1950000Y3225854*
X1940862Y3224649*
X1932350Y3221122*
X1925039Y3215511*
X1919429Y3208200*
X1915901Y3199688*
X1914696Y3190551*
X1915901Y3181413*
X1919429Y3172901*
X1925039Y3165590*
X1932350Y3159980*
X1940862Y3156452*
X1950000Y3155248*
X1959137Y3156452*
X1967649Y3159980*
X1970476Y3162145*
X1971425Y3162362*
X1974279Y3164381*
X1977133Y3166078*
X1980181Y3167590*
X1983425Y3168905*
X1986870Y3170031*
X1990527Y3170960*
X1994318Y3171673*
X2002838Y3172531*
X2007397Y3172641*
X2007551Y3172708*
X2052059*
X2176751Y3048011*
X2182543Y3044145*
X2189370Y3042787*
X2260629*
X2267456Y3044145*
X2270346Y3046074*
X2271393Y3046314*
X2272535Y3047129*
X2273570Y3047751*
X2274669Y3048307*
X2275334Y3048586*
X2279862Y3049724*
X2283933Y3049535*
X2284472Y3049641*
X2284984Y3049433*
X2285685Y3049724*
X2345964*
Y3088303*
X2350665Y3089543*
X2350889Y3089562*
X2353035Y3089460*
X2355685Y3089082*
X2358468Y3088440*
X2361381Y3087523*
X2364425Y3086326*
X2367594Y3084838*
X2370830Y3083082*
X2377866Y3078547*
X2381531Y3075838*
X2382531Y3075590*
X2384870Y3073795*
X2392169Y3070771*
X2400000Y3069740*
X2407830Y3070771*
X2415129Y3073795*
X2417468Y3075590*
X2418468Y3075838*
X2422129Y3078547*
X2429173Y3083082*
X2432405Y3084834*
X2435574Y3086326*
X2438618Y3087523*
X2441531Y3088440*
X2444311Y3089082*
X2446964Y3089460*
X2449062Y3089559*
X2449460Y3089523*
X2454035Y3088614*
Y3049724*
X2476094*
X2476141Y3049606*
X2476338Y3048866*
X2476511Y3047811*
X2476629Y3046460*
X2476677Y3044704*
X2476889Y3044220*
Y2851228*
X2476779Y2851062*
X2476889Y2850500*
Y2849500*
X2476779Y2848937*
X2476889Y2848771*
Y2816311*
X2442791Y2782208*
X2440578Y2778901*
X2439803Y2775000*
Y2760307*
X2439594Y2759874*
X2439421Y2756692*
X2438940Y2753598*
X2438114Y2750291*
X2436929Y2746771*
X2435377Y2743047*
X2433448Y2739129*
X2431173Y2735066*
X2425354Y2726200*
X2421881Y2721527*
X2421629Y2720523*
X2419429Y2717649*
X2415901Y2709137*
X2414696Y2700000*
X2415901Y2690862*
X2419429Y2682350*
X2425039Y2675039*
X2432350Y2669429*
X2440862Y2665901*
X2450000Y2664696*
X2459137Y2665901*
X2467649Y2669429*
X2474960Y2675039*
X2480570Y2682350*
X2484098Y2690862*
X2485303Y2700000*
X2484098Y2709137*
X2480570Y2717649*
X2478370Y2720523*
X2478118Y2721527*
X2474645Y2726200*
X2468826Y2735066*
X2466551Y2739129*
X2464625Y2743047*
X2463070Y2746771*
X2461885Y2750291*
X2461059Y2753598*
X2460574Y2756692*
X2460405Y2759874*
X2460196Y2760307*
Y2770775*
X2494295Y2804877*
X2496507Y2808185*
X2497283Y2812086*
Y2833771*
X2497393Y2833937*
X2497314Y2834342*
X2497492Y2834716*
X2497574Y2836283*
X2497748Y2837267*
X2497972Y2837944*
X2498204Y2838374*
X2498433Y2838653*
X2498712Y2838881*
X2499141Y2839114*
X2499818Y2839338*
X2500803Y2839511*
X2502370Y2839594*
X2502807Y2839803*
X2680244*
X2680677Y2839594*
X2683858Y2839425*
X2686952Y2838940*
X2690259Y2838114*
X2693779Y2836929*
X2697500Y2835374*
X2701421Y2833448*
X2705484Y2831173*
X2714350Y2825354*
X2719023Y2821881*
X2720027Y2821629*
X2722901Y2819429*
X2731413Y2815901*
X2740551Y2814696*
X2749688Y2815901*
X2758200Y2819429*
X2765511Y2825039*
X2771122Y2832350*
X2774649Y2840862*
X2775854Y2850000*
X2774649Y2859137*
X2771122Y2867649*
X2765511Y2874960*
X2758200Y2880570*
X2749688Y2884098*
X2740551Y2885303*
X2731413Y2884098*
X2722901Y2880570*
X2720027Y2878370*
X2719023Y2878118*
X2714350Y2874645*
X2705484Y2868826*
X2701421Y2866551*
X2697503Y2864625*
X2693779Y2863070*
X2690259Y2861885*
X2686952Y2861059*
X2683858Y2860578*
X2680677Y2860405*
X2680244Y2860196*
X2502807*
X2502370Y2860405*
X2500803Y2860488*
X2499818Y2860661*
X2499141Y2860885*
X2498712Y2861118*
X2498433Y2861346*
X2498204Y2861625*
X2497972Y2862055*
X2497748Y2862732*
X2497574Y2863712*
X2497492Y2865283*
X2497314Y2865657*
X2497393Y2866062*
X2497283Y2866228*
Y3044220*
X2497496Y3044704*
X2497543Y3046460*
X2497661Y3047811*
X2497834Y3048866*
X2498031Y3049606*
X2498078Y3049724*
X2520137*
Y3060055*
X2521003Y3061027*
X2525137Y3063503*
X2530314Y3062472*
X2537141Y3063830*
X2542933Y3067696*
X2579452Y3104220*
X2579614Y3104283*
X2582562Y3107133*
X2588208Y3111988*
X2590783Y3113909*
X2593295Y3115578*
X2595688Y3116964*
X2597952Y3118070*
X2600082Y3118905*
X2602070Y3119488*
X2604212Y3119889*
X2605000Y3120397*
X2607830Y3120771*
X2615129Y3123795*
X2621397Y3128602*
X2626204Y3134870*
X2629228Y3142169*
X2630259Y3150000*
Y3571027*
X2719484Y3660251*
X2721594Y3663003*
X2724960Y3665590*
X2730570Y3672901*
X2734098Y3681413*
X2735303Y3690551*
X2734098Y3699688*
X2730570Y3708200*
X2724960Y3715511*
X2717649Y3721122*
X2709137Y3724649*
X2700000Y3725854*
G37*
G36*
X803149Y3643759D02*
X791822Y3642267D01*
X781267Y3637897*
X772204Y3630944*
X765251Y3621881*
X760881Y3611326*
X759389Y3600000*
X760881Y3588673*
X765251Y3578118*
X767122Y3575681*
X767279Y3574874*
X770169Y3570500*
X772669Y3566145*
X774870Y3561665*
X776779Y3557062*
X778397Y3552326*
X779720Y3547460*
X780751Y3542448*
X781492Y3537299*
X781937Y3532003*
X782090Y3526417*
X782157Y3526263*
Y3337913*
X782094Y3337783*
X781862Y3333366*
X781240Y3329834*
X780263Y3326905*
X778980Y3324523*
X777405Y3322594*
X775476Y3321019*
X773094Y3319736*
X770165Y3318759*
X766633Y3318137*
X762216Y3317905*
X762086Y3317842*
X756177*
X756027Y3317909*
X751421Y3318031*
X747519Y3318374*
X744216Y3318921*
X741535Y3319641*
X739484Y3320472*
X738059Y3321342*
X737165Y3322165*
X736641Y3322948*
X736330Y3323830*
X736145Y3325570*
X736003Y3325830*
Y3336003*
X663996*
Y3263996*
X736003*
Y3274169*
X736145Y3274429*
X736330Y3276169*
X736641Y3277051*
X737165Y3277834*
X738059Y3278657*
X739484Y3279527*
X741535Y3280358*
X744216Y3281078*
X747519Y3281625*
X751421Y3281968*
X756027Y3282090*
X756177Y3282157*
X762086*
X762216Y3282094*
X766633Y3281862*
X770165Y3281240*
X773094Y3280263*
X775476Y3278980*
X777405Y3277405*
X778980Y3275476*
X780263Y3273094*
X781240Y3270165*
X781862Y3266633*
X782094Y3262216*
X782157Y3262086*
Y2950000*
X783515Y2943173*
X787381Y2937381*
X897389Y2827374*
X897452Y2827216*
X900622Y2823897*
X903409Y2820677*
X905897Y2817472*
X908090Y2814283*
X909996Y2811110*
X911614Y2807956*
X912952Y2804822*
X914015Y2801704*
X914814Y2798594*
X915385Y2795275*
X915905Y2794448*
X916362Y2790988*
X919838Y2782586*
X925374Y2775374*
X932586Y2769838*
X940988Y2766362*
X950000Y2765173*
X959011Y2766362*
X967413Y2769838*
X974625Y2775374*
X975582Y2776622*
X980582Y2774925*
Y2655751*
X980515Y2655594*
X980421Y2650956*
X979669Y2642381*
X979043Y2638590*
X978232Y2634984*
X977255Y2631625*
X976110Y2628511*
X974811Y2625633*
X973358Y2622988*
X971622Y2620374*
X971452Y2619511*
X969838Y2617413*
X966362Y2609011*
X965173Y2600000*
X966362Y2590988*
X969838Y2582586*
X975374Y2575374*
X982586Y2569838*
X990988Y2566362*
X1000000Y2565173*
X1009011Y2566362*
X1017413Y2569838*
X1024625Y2575374*
X1030161Y2582586*
X1033637Y2590988*
X1034826Y2600000*
X1033637Y2609011*
X1030161Y2617413*
X1027492Y2620889*
X1027240Y2621874*
X1025090Y2624740*
X1023279Y2627598*
X1021677Y2630622*
X1020279Y2633818*
X1019090Y2637200*
X1018110Y2640763*
X1017338Y2644519*
X1016787Y2648472*
X1016452Y2652618*
X1016334Y2657098*
X1016295Y2657188*
X1016326Y2657279*
X1016267Y2657401*
Y2779027*
X1021267Y2780728*
X1025374Y2775374*
X1032586Y2769838*
X1040988Y2766362*
X1050000Y2765173*
X1059011Y2766362*
X1067413Y2769838*
X1074625Y2775374*
X1080161Y2782586*
X1083637Y2790988*
X1084094Y2794448*
X1084614Y2795275*
X1085185Y2798594*
X1085984Y2801704*
X1087047Y2804822*
X1088385Y2807956*
X1090003Y2811110*
X1091909Y2814283*
X1094059Y2817409*
X1099425Y2823948*
X1102547Y2827216*
X1102610Y2827374*
X1135590Y2860358*
X1712086*
X1712216Y2860295*
X1716633Y2860062*
X1720165Y2859440*
X1723094Y2858464*
X1725476Y2857181*
X1727405Y2855606*
X1728980Y2853677*
X1730263Y2851295*
X1731240Y2848366*
X1731862Y2844838*
X1732094Y2840417*
X1732157Y2840287*
Y2746047*
X1732086Y2745889*
X1732019Y2741826*
X1731484Y2734492*
X1731043Y2731362*
X1730472Y2728456*
X1729791Y2725846*
X1729011Y2723531*
X1728145Y2721511*
X1727204Y2719779*
X1726035Y2718062*
X1725842Y2717149*
X1724137Y2714929*
X1721157Y2707728*
X1720137Y2700000*
X1721157Y2692271*
X1724137Y2685070*
X1728885Y2678885*
X1735070Y2674137*
X1742271Y2671157*
X1750000Y2670137*
X1757728Y2671157*
X1764929Y2674137*
X1766464Y2675314*
X1767259Y2675452*
X1768787Y2676413*
X1770358Y2677177*
X1772271Y2677901*
X1774523Y2678559*
X1777110Y2679137*
X1779913Y2679606*
X1790736Y2680456*
X1794862Y2680515*
X1795023Y2680582*
X2100220*
X2100370Y2680515*
X2104972Y2680393*
X2108866Y2680051*
X2112165Y2679503*
X2114846Y2678787*
X2116897Y2677952*
X2118326Y2677082*
X2119220Y2676255*
X2119748Y2675468*
X2120066Y2674582*
X2120251Y2672842*
X2120393Y2672586*
Y2667244*
X2179606*
Y2720271*
X2179866Y2720744*
X2179779Y2721047*
X2179897Y2721334*
X2179606Y2722043*
Y2726456*
X2175551*
X2175074Y2726716*
X2173456Y2726893*
X2172692Y2727177*
X2171988Y2727665*
X2171212Y2728535*
X2170381Y2729956*
X2169574Y2732007*
X2168881Y2734692*
X2168354Y2737992*
X2168027Y2741881*
X2167909Y2746472*
X2167842Y2746625*
Y2792448*
X2167909Y2792602*
X2168019Y2797232*
X2168338Y2801527*
X2168862Y2805606*
X2169590Y2809472*
X2170519Y2813125*
X2171645Y2816578*
X2172960Y2819818*
X2174472Y2822866*
X2176169Y2825720*
X2178188Y2828574*
X2178405Y2829523*
X2180570Y2832350*
X2184098Y2840862*
X2185303Y2850000*
X2184098Y2859137*
X2180570Y2867649*
X2174960Y2874960*
X2167649Y2880570*
X2159137Y2884098*
X2150000Y2885303*
X2140862Y2884098*
X2132350Y2880570*
X2125039Y2874960*
X2119429Y2867649*
X2115901Y2859137*
X2114696Y2850000*
X2115901Y2840862*
X2119429Y2832350*
X2121594Y2829523*
X2121811Y2828574*
X2123830Y2825720*
X2125527Y2822866*
X2127039Y2819818*
X2128354Y2816574*
X2129480Y2813129*
X2130409Y2809472*
X2131125Y2805681*
X2131980Y2797161*
X2132090Y2792602*
X2132157Y2792448*
Y2746625*
X2132090Y2746472*
X2131972Y2741881*
X2131645Y2737992*
X2131118Y2734692*
X2130425Y2732007*
X2129622Y2729956*
X2128787Y2728535*
X2128011Y2727665*
X2127307Y2727177*
X2126543Y2726893*
X2124921Y2726716*
X2124448Y2726456*
X2120393*
Y2722452*
X2120145Y2722015*
X2119988Y2720779*
X2119822Y2720385*
X2119440Y2719913*
X2118606Y2719267*
X2117153Y2718527*
X2115043Y2717807*
X2112389Y2717212*
X2104925Y2716437*
X2100393Y2716334*
X2100240Y2716267*
X1797165*
X1797055Y2716322*
X1796960Y2716291*
X1796870Y2716334*
X1789035Y2716649*
X1785696Y2717015*
X1782551Y2717531*
X1779669Y2718185*
X1777047Y2718964*
X1774681Y2719866*
X1772570Y2720874*
X1772023Y2721200*
X1771854Y2721511*
X1770988Y2723531*
X1770208Y2725846*
X1769527Y2728456*
X1768956Y2731362*
X1768511Y2734492*
X1767980Y2741826*
X1767909Y2745889*
X1767842Y2746047*
Y2878200*
Y3030118*
X1766484Y3036944*
X1762618Y3042736*
X1682700Y3122653*
X1682645Y3122799*
X1673590Y3132551*
X1670291Y3136673*
X1667700Y3140393*
X1666122Y3143161*
Y3153767*
X1666413Y3154472*
X1666244Y3154881*
X1666346Y3155314*
X1666122Y3155685*
Y3186003*
X1655948*
X1655688Y3186145*
X1653948Y3186330*
X1653066Y3186641*
X1652283Y3187165*
X1651460Y3188059*
X1650590Y3189484*
X1649759Y3191535*
X1649039Y3194216*
X1648492Y3197519*
X1648149Y3201421*
X1648027Y3206027*
X1647960Y3206177*
Y3319881*
X1646602Y3326708*
X1642736Y3332500*
X1602582Y3372653*
X1602527Y3372799*
X1593472Y3382551*
X1590173Y3386673*
X1587582Y3390393*
X1586003Y3393161*
Y3403767*
X1586295Y3404472*
X1586125Y3404881*
X1586228Y3405314*
X1586003Y3405685*
Y3436003*
X1513996*
Y3425070*
X1513838Y3424763*
X1513594Y3421511*
X1512929Y3418385*
X1511779Y3414964*
X1510114Y3411259*
X1507917Y3407295*
X1505177Y3403082*
X1501933Y3398681*
X1493649Y3389035*
X1488708Y3383921*
X1488645Y3383759*
X1457464Y3352582*
X1457318Y3352527*
X1447543Y3343444*
X1443413Y3340133*
X1439685Y3337531*
X1437027Y3336003*
X1426062*
X1425645Y3336177*
X1425232Y3336003*
X1424795Y3336110*
X1424625Y3336003*
X1394114*
Y3263996*
X1466122*
Y3294507*
X1466228Y3294677*
X1466122Y3295114*
X1466295Y3295527*
X1466122Y3295944*
Y3306909*
X1467649Y3309566*
X1470208Y3313236*
X1477732Y3322114*
X1482570Y3327122*
X1482633Y3327283*
X1505055Y3349704*
X1505216Y3349767*
X1513224Y3357578*
X1518716Y3362500*
X1519834Y3363381*
X1520574Y3363901*
X1520748Y3363996*
X1544314*
X1544685Y3363771*
X1545118Y3363874*
X1545527Y3363704*
X1546232Y3363996*
X1556838*
X1559606Y3362413*
X1563263Y3359870*
X1572125Y3352374*
X1577125Y3347543*
X1577283Y3347480*
X1612275Y3312492*
Y3206177*
X1612208Y3206027*
X1612086Y3201421*
X1611744Y3197519*
X1611196Y3194216*
X1610476Y3191535*
X1609645Y3189484*
X1608775Y3188059*
X1607952Y3187165*
X1607169Y3186641*
X1606287Y3186330*
X1604547Y3186145*
X1604287Y3186003*
X1594114*
Y3113996*
X1624433*
X1624803Y3113771*
X1625236Y3113874*
X1625645Y3113704*
X1626350Y3113996*
X1636956*
X1639724Y3112413*
X1643381Y3109870*
X1652244Y3102374*
X1657244Y3097543*
X1657401Y3097480*
X1732157Y3022728*
Y2916114*
X1732094Y2915984*
X1731862Y2911566*
X1731240Y2908035*
X1730263Y2905106*
X1728980Y2902724*
X1727405Y2900799*
X1725476Y2899220*
X1723094Y2897937*
X1720165Y2896960*
X1716633Y2896338*
X1712216Y2896106*
X1712086Y2896043*
X1128200*
X1121374Y2894685*
X1115582Y2890818*
X1077374Y2852610*
X1077216Y2852547*
X1073897Y2849377*
X1070677Y2846590*
X1067472Y2844102*
X1064283Y2841909*
X1061110Y2840003*
X1057956Y2838385*
X1054822Y2837047*
X1051704Y2835984*
X1048594Y2835185*
X1045275Y2834614*
X1044452Y2834094*
X1040988Y2833637*
X1032586Y2830161*
X1025374Y2824625*
X1021267Y2819271*
X1016267Y2820968*
Y3112086*
X1016330Y3112216*
X1016562Y3116633*
X1017185Y3120165*
X1018161Y3123094*
X1019444Y3125476*
X1021019Y3127405*
X1022948Y3128980*
X1025330Y3130263*
X1028051Y3131173*
X1028795Y3131070*
X1032787Y3130291*
X1036582Y3129295*
X1040185Y3128086*
X1043602Y3126665*
X1046834Y3125035*
X1049893Y3123192*
X1052952Y3121019*
X1053909Y3120803*
X1056842Y3118551*
X1065602Y3114921*
X1075000Y3113685*
X1084397Y3114921*
X1093157Y3118551*
X1100677Y3124322*
X1106448Y3131842*
X1110078Y3140602*
X1111314Y3150000*
X1110078Y3159397*
X1106448Y3168157*
X1100677Y3175677*
X1093157Y3181448*
X1084397Y3185078*
X1075000Y3186314*
X1065602Y3185078*
X1056842Y3181448*
X1053909Y3179196*
X1052952Y3178980*
X1049893Y3176807*
X1046834Y3174964*
X1043602Y3173334*
X1040188Y3171913*
X1036582Y3170704*
X1032787Y3169708*
X1028874Y3168944*
X1027988Y3168850*
X1025330Y3169736*
X1022948Y3171019*
X1021019Y3172594*
X1019444Y3174523*
X1018161Y3176905*
X1017185Y3179834*
X1016562Y3183366*
X1016330Y3187783*
X1016267Y3187913*
Y3536440*
X1016334Y3536590*
X1016456Y3541173*
X1016799Y3545051*
X1017346Y3548334*
X1018062Y3551000*
X1018893Y3553031*
X1019759Y3554448*
X1020582Y3555334*
X1021362Y3555854*
X1022251Y3556169*
X1023992Y3556350*
X1024476Y3556614*
X1043385*
Y3643385*
X956614*
Y3556614*
X972377*
X972858Y3556350*
X974598Y3556169*
X975484Y3555854*
X976267Y3555334*
X977090Y3554448*
X977956Y3553031*
X978787Y3551000*
X979503Y3548334*
X980051Y3545051*
X980393Y3541173*
X980515Y3536590*
X980582Y3536440*
Y3187913*
X980519Y3187783*
X980287Y3183366*
X979665Y3179834*
X978688Y3176905*
X977405Y3174523*
X975830Y3172594*
X973901Y3171019*
X971519Y3169736*
X968590Y3168759*
X965059Y3168137*
X960641Y3167905*
X960511Y3167842*
X956177*
X956027Y3167909*
X951421Y3168031*
X947519Y3168374*
X944216Y3168921*
X941535Y3169641*
X939484Y3170472*
X938059Y3171342*
X937165Y3172165*
X936641Y3172948*
X936330Y3173830*
X936145Y3175570*
X936003Y3175830*
Y3186003*
X863996*
Y3113996*
X936003*
Y3124169*
X936145Y3124429*
X936330Y3126169*
X936641Y3127051*
X937165Y3127834*
X938059Y3128657*
X939484Y3129527*
X941535Y3130358*
X944216Y3131078*
X947519Y3131625*
X951421Y3131968*
X956027Y3132090*
X956177Y3132157*
X960511*
X960641Y3132094*
X965059Y3131862*
X968590Y3131240*
X971519Y3130263*
X973901Y3128980*
X975830Y3127405*
X977405Y3125476*
X978688Y3123094*
X979665Y3120165*
X980287Y3116633*
X980519Y3112216*
X980582Y3112086*
Y2825074*
X975582Y2823377*
X974625Y2824625*
X967413Y2830161*
X959011Y2833637*
X955551Y2834094*
X954724Y2834614*
X951405Y2835185*
X948299Y2835984*
X945177Y2837047*
X942043Y2838385*
X938893Y2840003*
X935716Y2841909*
X932590Y2844059*
X926051Y2849425*
X922783Y2852547*
X922625Y2852610*
X817842Y2957389*
Y3262086*
X817905Y3262216*
X818137Y3266633*
X818759Y3270165*
X819736Y3273094*
X821019Y3275476*
X822594Y3277405*
X824523Y3278980*
X826905Y3280263*
X829129Y3281003*
X832787Y3280291*
X836582Y3279295*
X840185Y3278086*
X843602Y3276665*
X846834Y3275035*
X849893Y3273196*
X852952Y3271019*
X853909Y3270803*
X856842Y3268551*
X865602Y3264921*
X875000Y3263685*
X884397Y3264921*
X893157Y3268551*
X900677Y3274322*
X906448Y3281842*
X910078Y3290602*
X911314Y3300000*
X910078Y3309397*
X906448Y3318157*
X900677Y3325677*
X893157Y3331448*
X884397Y3335078*
X875000Y3336314*
X865602Y3335078*
X856842Y3331448*
X853909Y3329196*
X852952Y3328980*
X849893Y3326807*
X846834Y3324964*
X843602Y3323334*
X840188Y3321913*
X836582Y3320704*
X832787Y3319708*
X829129Y3318996*
X826905Y3319736*
X824523Y3321019*
X822594Y3322594*
X821019Y3324523*
X819736Y3326905*
X818759Y3329834*
X818137Y3333366*
X817905Y3337783*
X817842Y3337913*
Y3523822*
X817893Y3523913*
X817846Y3524051*
X817909Y3524181*
X818102Y3529342*
X818657Y3534244*
X819582Y3539090*
X820885Y3543885*
X822559Y3548637*
X824614Y3553354*
X827055Y3558035*
X829885Y3562685*
X833114Y3567303*
X836826Y3572003*
X837106Y3572984*
X841047Y3578118*
X845417Y3588673*
X846909Y3600000*
X845417Y3611326*
X841047Y3621881*
X834090Y3630944*
X825027Y3637897*
X814476Y3642267*
X803149Y3643759*
G37*
G36*
X149881Y3340700D02*
Y3305000D01*
X185582*
X184830Y3310704*
X180696Y3320677*
X174125Y3329244*
X165559Y3335818*
X155586Y3339948*
X149881Y3340700*
G37*
G36*
X139881D02*
X134177Y3339948D01*
X124204Y3335818*
X115637Y3329244*
X109066Y3320677*
X104933Y3310704*
X104181Y3305000*
X139881*
Y3340700*
G37*
G36*
X185582Y3295000D02*
X149881D01*
Y3259299*
X155586Y3260051*
X165559Y3264181*
X174125Y3270755*
X180696Y3279322*
X184830Y3289295*
X185582Y3295000*
G37*
G36*
X139881D02*
X104181D01*
X104933Y3289295*
X109066Y3279322*
X115637Y3270755*
X124204Y3264181*
X134177Y3260051*
X139881Y3259299*
Y3295000*
G37*
G36*
X349881Y3190700D02*
Y3155000D01*
X385582*
X384830Y3160704*
X380700Y3170677*
X374125Y3179244*
X365559Y3185814*
X355586Y3189948*
X349881Y3190700*
G37*
G36*
X339881D02*
X334177Y3189948D01*
X324204Y3185814*
X315637Y3179244*
X309062Y3170677*
X304933Y3160704*
X304181Y3155000*
X339881*
Y3190700*
G37*
G36*
X2525137Y3155275D02*
X2492086D01*
Y3144370*
X2525137*
Y3155275*
G37*
G36*
X2482086D02*
X2449035D01*
Y3144370*
X2482086*
Y3155275*
G37*
G36*
X2525137Y3134370D02*
X2487086D01*
X2449035*
Y3124685*
X2487086*
X2525137*
Y3134370*
G37*
G36*
X385582Y3145000D02*
X349881D01*
Y3109299*
X355586Y3110051*
X365559Y3114185*
X374125Y3120755*
X380700Y3129322*
X384830Y3139295*
X385582Y3145000*
G37*
G36*
X339881D02*
X304181D01*
X304933Y3139295*
X309062Y3129322*
X315637Y3120755*
X324204Y3114185*
X334177Y3110051*
X339881Y3109299*
Y3145000*
G37*
G36*
X2901850Y3034248D02*
Y3005000D01*
X2931098*
X2930566Y3009035*
X2927078Y3017452*
X2921531Y3024681*
X2914303Y3030228*
X2905885Y3033716*
X2901850Y3034248*
G37*
G36*
X2891850D02*
X2887814Y3033716D01*
X2879397Y3030228*
X2872169Y3024681*
X2866622Y3017452*
X2863133Y3009035*
X2862602Y3005000*
X2891850*
Y3034248*
G37*
G36*
X2931098Y2995000D02*
X2901850D01*
Y2965751*
X2905885Y2966283*
X2914303Y2969771*
X2921531Y2975318*
X2927078Y2982547*
X2930566Y2990964*
X2931098Y2995000*
G37*
G36*
X2891850D02*
X2862602D01*
X2863133Y2990964*
X2866622Y2982547*
X2872169Y2975318*
X2879397Y2969771*
X2887814Y2966283*
X2891850Y2965751*
Y2995000*
G37*
G36*
X3205000Y2899133D02*
Y2864448D01*
X3239685*
X3238972Y2869889*
X3234940Y2879622*
X3228527Y2887976*
X3220173Y2894389*
X3210440Y2898421*
X3205000Y2899133*
G37*
G36*
X3055000D02*
Y2864448D01*
X3089688*
X3088968Y2869889*
X3084940Y2879622*
X3078527Y2887976*
X3070173Y2894389*
X3060440Y2898421*
X3055000Y2899133*
G37*
G36*
X3195000D02*
X3189559Y2898421D01*
X3179826Y2894389*
X3171472Y2887976*
X3165059Y2879622*
X3161031Y2869889*
X3160311Y2864448*
X3195000*
Y2899133*
G37*
G36*
X3045000D02*
X3039559Y2898421D01*
X3029826Y2894389*
X3021472Y2887976*
X3015059Y2879622*
X3011027Y2869889*
X3010314Y2864448*
X3045000*
Y2899133*
G37*
G36*
X3239685Y2854448D02*
X3205000D01*
Y2819759*
X3210440Y2820480*
X3220173Y2824507*
X3228527Y2830921*
X3234940Y2839275*
X3238972Y2849007*
X3239685Y2854448*
G37*
G36*
X3089688D02*
X3055000D01*
Y2819759*
X3060440Y2820480*
X3070173Y2824507*
X3078527Y2830921*
X3084940Y2839275*
X3088968Y2849007*
X3089688Y2854448*
G37*
G36*
X3195000D02*
X3160311D01*
X3161031Y2849007*
X3165059Y2839275*
X3171472Y2830921*
X3179826Y2824507*
X3189559Y2820480*
X3195000Y2819759*
Y2854448*
G37*
G36*
X3045000D02*
X3010314D01*
X3011027Y2849007*
X3015059Y2839275*
X3021472Y2830921*
X3029826Y2824507*
X3039559Y2820480*
X3045000Y2819759*
Y2854448*
G37*
G36*
X1555000Y2839208D02*
Y2805000D01*
X1589208*
X1588511Y2810318*
X1584527Y2819933*
X1578192Y2828192*
X1569933Y2834527*
X1560318Y2838511*
X1555000Y2839208*
G37*
G36*
X1455000D02*
Y2805000D01*
X1489208*
X1488511Y2810318*
X1484527Y2819933*
X1478192Y2828192*
X1469933Y2834527*
X1460318Y2838511*
X1455000Y2839208*
G37*
G36*
X1355000D02*
Y2805000D01*
X1389208*
X1388511Y2810318*
X1384527Y2819933*
X1378192Y2828192*
X1369933Y2834527*
X1360318Y2838511*
X1355000Y2839208*
G37*
G36*
X1255000D02*
Y2805000D01*
X1289208*
X1288511Y2810318*
X1284527Y2819933*
X1278192Y2828192*
X1269933Y2834527*
X1260318Y2838511*
X1255000Y2839208*
G37*
G36*
X1545000D02*
X1539681Y2838511D01*
X1530066Y2834527*
X1521807Y2828192*
X1515472Y2819933*
X1511488Y2810318*
X1510791Y2805000*
X1545000*
Y2839208*
G37*
G36*
X1445000D02*
X1439681Y2838511D01*
X1430066Y2834527*
X1421807Y2828192*
X1415472Y2819933*
X1411488Y2810318*
X1410791Y2805000*
X1445000*
Y2839208*
G37*
G36*
X1345000D02*
X1339681Y2838511D01*
X1330066Y2834527*
X1321807Y2828192*
X1315472Y2819933*
X1311488Y2810318*
X1310791Y2805000*
X1345000*
Y2839208*
G37*
G36*
X1245000D02*
X1239681Y2838511D01*
X1230066Y2834527*
X1221807Y2828192*
X1215472Y2819933*
X1211488Y2810318*
X1210791Y2805000*
X1245000*
Y2839208*
G37*
G36*
X1589208Y2795000D02*
X1555000D01*
Y2760791*
X1560318Y2761488*
X1569933Y2765472*
X1578192Y2771807*
X1584527Y2780066*
X1588511Y2789681*
X1589208Y2795000*
G37*
G36*
X1489208D02*
X1455000D01*
Y2760791*
X1460318Y2761488*
X1469933Y2765472*
X1478192Y2771807*
X1484527Y2780066*
X1488511Y2789681*
X1489208Y2795000*
G37*
G36*
X1389208D02*
X1355000D01*
Y2760791*
X1360318Y2761488*
X1369933Y2765472*
X1378192Y2771807*
X1384527Y2780066*
X1388511Y2789681*
X1389208Y2795000*
G37*
G36*
X1289208D02*
X1255000D01*
Y2760791*
X1260318Y2761488*
X1269933Y2765472*
X1278192Y2771807*
X1284527Y2780066*
X1288511Y2789681*
X1289208Y2795000*
G37*
G36*
X1545000D02*
X1510791D01*
X1511488Y2789681*
X1515472Y2780066*
X1521807Y2771807*
X1530066Y2765472*
X1539681Y2761488*
X1545000Y2760791*
Y2795000*
G37*
G36*
X1445000D02*
X1410791D01*
X1411488Y2789681*
X1415472Y2780066*
X1421807Y2771807*
X1430066Y2765472*
X1439681Y2761488*
X1445000Y2760791*
Y2795000*
G37*
G36*
X1345000D02*
X1310791D01*
X1311488Y2789681*
X1315472Y2780066*
X1321807Y2771807*
X1330066Y2765472*
X1339681Y2761488*
X1345000Y2760791*
Y2795000*
G37*
G36*
X1245000D02*
X1210791D01*
X1211488Y2789681*
X1215472Y2780066*
X1221807Y2771807*
X1230066Y2765472*
X1239681Y2761488*
X1245000Y2760791*
Y2795000*
G37*
G36*
X1150000Y2834826D02*
X1140988Y2833637D01*
X1132586Y2830161*
X1125374Y2824625*
X1119838Y2817413*
X1116362Y2809011*
X1115173Y2800000*
X1116362Y2790988*
X1119838Y2782586*
X1121968Y2779814*
X1122181Y2778866*
X1124125Y2776114*
X1125759Y2773354*
X1127212Y2770393*
X1128484Y2767232*
X1129566Y2763858*
X1130464Y2760267*
X1131157Y2756531*
X1131984Y2748114*
X1132090Y2743594*
X1132157Y2743440*
Y2732893*
X1133515Y2726062*
X1137381Y2720275*
X1230066Y2627594*
X1229751Y2626161*
X1225783Y2624972*
X1224342Y2624842*
X1217413Y2630161*
X1209011Y2633637*
X1200000Y2634826*
X1190988Y2633637*
X1182586Y2630161*
X1175374Y2624625*
X1169838Y2617413*
X1166362Y2609011*
X1165173Y2600000*
X1166362Y2590988*
X1169838Y2582586*
X1171968Y2579814*
X1172181Y2578866*
X1174125Y2576114*
X1175759Y2573354*
X1177212Y2570393*
X1178484Y2567232*
X1179566Y2563858*
X1180464Y2560267*
X1181157Y2556531*
X1181984Y2548118*
X1182090Y2543598*
X1182157Y2543440*
Y2179291*
X1183515Y2172460*
X1187381Y2166673*
X1732157Y1621897*
Y807389*
X1567610Y642842*
X1487027*
X1486870Y642909*
X1480342Y643031*
X1474665Y643389*
X1469755Y643968*
X1465649Y644751*
X1463165Y645476*
X1458901Y651027*
X1455732Y653460*
X1455622Y653736*
X1455232Y653893*
X1455015Y654255*
X1454547Y654374*
X1451279Y656877*
X1442401Y660555*
X1432874Y661811*
X1417125*
X1407598Y660555*
X1398720Y656877*
X1391098Y651027*
X1385248Y643405*
X1381570Y634527*
X1380314Y625000*
X1381570Y615472*
X1385248Y606594*
X1391098Y598972*
X1398720Y593122*
X1407598Y589444*
X1417125Y588188*
X1432874*
X1442401Y589444*
X1451279Y593122*
X1454547Y595625*
X1455015Y595744*
X1455232Y596106*
X1455622Y596267*
X1455732Y596539*
X1458901Y598972*
X1463165Y604523*
X1465649Y605248*
X1469681Y606015*
X1480413Y606968*
X1486870Y607090*
X1487027Y607157*
X1575000*
X1581826Y608515*
X1587618Y612381*
X1762618Y787381*
X1766484Y793173*
X1767842Y800000*
Y1629287*
X1766484Y1636118*
X1762618Y1641905*
X1217842Y2186681*
Y2543440*
X1217909Y2543598*
X1218015Y2548188*
X1218322Y2552433*
X1218830Y2556460*
X1219535Y2560267*
X1220433Y2563858*
X1221515Y2567232*
X1222787Y2570393*
X1224240Y2573354*
X1225874Y2576114*
X1227157Y2577929*
X1231748Y2577177*
X1232062Y2577043*
X1232157Y2576976*
Y2200000*
X1233515Y2193173*
X1237381Y2187381*
X1782157Y1642610*
Y732389*
X1592610Y542842*
X1487027*
X1486870Y542909*
X1480342Y543031*
X1474665Y543389*
X1469755Y543968*
X1465649Y544751*
X1463165Y545476*
X1458901Y551027*
X1455732Y553460*
X1455622Y553732*
X1455232Y553893*
X1455015Y554255*
X1454547Y554374*
X1451279Y556877*
X1442401Y560555*
X1432874Y561811*
X1417125*
X1407598Y560555*
X1398720Y556877*
X1391098Y551027*
X1385248Y543405*
X1381570Y534527*
X1380314Y525000*
X1381570Y515472*
X1385248Y506594*
X1391098Y498972*
X1398720Y493122*
X1407598Y489444*
X1417125Y488188*
X1432874*
X1442401Y489444*
X1451279Y493122*
X1454547Y495625*
X1455015Y495744*
X1455232Y496106*
X1455622Y496267*
X1455732Y496539*
X1458901Y498972*
X1463165Y504523*
X1465649Y505248*
X1469681Y506015*
X1480413Y506968*
X1486870Y507090*
X1487027Y507157*
X1600000*
X1606826Y508515*
X1612618Y512381*
X1812618Y712381*
X1816484Y718173*
X1817842Y725000*
Y1650000*
X1816484Y1656826*
X1812618Y1662618*
X1267842Y2207389*
Y2441496*
X1272732Y2442271*
X1275712Y2435070*
X1280460Y2428885*
X1286645Y2424137*
X1293846Y2421153*
X1301574Y2420137*
X1309303Y2421153*
X1316503Y2424137*
X1322688Y2428885*
X1327437Y2435070*
X1330417Y2442271*
X1331437Y2450000*
X1330417Y2457728*
X1327437Y2464929*
X1325456Y2467507*
X1325240Y2468456*
X1323968Y2470248*
X1322940Y2472051*
X1322003Y2474122*
X1321161Y2476460*
X1320433Y2479078*
X1319822Y2481972*
X1319346Y2485078*
X1318771Y2492338*
X1318696Y2496342*
X1318677Y2496393*
X1318696Y2496448*
X1318629Y2496590*
Y2543728*
X1318692Y2543862*
X1319098Y2552992*
X1319574Y2556992*
X1320248Y2560822*
X1321098Y2564421*
X1322133Y2567791*
X1323338Y2570933*
X1324716Y2573850*
X1326259Y2576555*
X1328102Y2579244*
X1328291Y2580153*
X1330161Y2582586*
X1333637Y2590988*
X1334826Y2600000*
X1333637Y2609011*
X1330161Y2617413*
X1324625Y2624625*
X1317413Y2630161*
X1309011Y2633637*
X1300000Y2634826*
X1290988Y2633637*
X1282586Y2630161*
X1275374Y2624625*
X1272842Y2621326*
X1267842Y2623023*
Y2632893*
X1266484Y2639720*
X1262618Y2645507*
X1167842Y2740283*
Y2743440*
X1167909Y2743594*
X1168015Y2748188*
X1168322Y2752433*
X1168830Y2756460*
X1169535Y2760267*
X1170433Y2763858*
X1171515Y2767232*
X1172787Y2770393*
X1174240Y2773354*
X1175874Y2776114*
X1177818Y2778866*
X1178031Y2779814*
X1180161Y2782586*
X1183637Y2790988*
X1184826Y2800000*
X1183637Y2809011*
X1180161Y2817413*
X1174625Y2824625*
X1167413Y2830161*
X1159011Y2833637*
X1150000Y2834826*
G37*
G36*
X1605000Y2639208D02*
Y2605000D01*
X1639208*
X1638511Y2610318*
X1634527Y2619933*
X1628192Y2628192*
X1619933Y2634527*
X1610318Y2638511*
X1605000Y2639208*
G37*
G36*
X1505000D02*
Y2605000D01*
X1539208*
X1538511Y2610318*
X1534527Y2619933*
X1528192Y2628192*
X1519933Y2634527*
X1510318Y2638511*
X1505000Y2639208*
G37*
G36*
X1405000D02*
Y2605000D01*
X1439208*
X1438511Y2610318*
X1434527Y2619933*
X1428192Y2628192*
X1419933Y2634527*
X1410318Y2638511*
X1405000Y2639208*
G37*
G36*
X939527Y2639527D02*
X905000D01*
Y2605000*
X939527*
Y2639527*
G37*
G36*
X1595000Y2639208D02*
X1589681Y2638511D01*
X1580066Y2634527*
X1571807Y2628192*
X1565472Y2619933*
X1561488Y2610318*
X1560791Y2605000*
X1595000*
Y2639208*
G37*
G36*
X1495000D02*
X1489681Y2638511D01*
X1480066Y2634527*
X1471807Y2628192*
X1465472Y2619933*
X1461488Y2610318*
X1460791Y2605000*
X1495000*
Y2639208*
G37*
G36*
X1395000D02*
X1389681Y2638511D01*
X1380066Y2634527*
X1371807Y2628192*
X1365472Y2619933*
X1361488Y2610318*
X1360791Y2605000*
X1395000*
Y2639208*
G37*
G36*
X895000Y2639527D02*
X860472D01*
Y2605000*
X895000*
Y2639527*
G37*
G36*
X1439208Y2595000D02*
X1405000D01*
Y2560791*
X1410318Y2561488*
X1419933Y2565472*
X1428192Y2571807*
X1434527Y2580066*
X1438511Y2589681*
X1439208Y2595000*
G37*
G36*
X1639208D02*
X1605000D01*
Y2560791*
X1610318Y2561488*
X1619933Y2565472*
X1628192Y2571807*
X1634527Y2580066*
X1638511Y2589681*
X1639208Y2595000*
G37*
G36*
X1539208D02*
X1505000D01*
Y2560791*
X1510318Y2561488*
X1519933Y2565472*
X1528192Y2571807*
X1534527Y2580066*
X1538511Y2589681*
X1539208Y2595000*
G37*
G36*
X1595000D02*
X1560791D01*
X1561488Y2589681*
X1565472Y2580066*
X1571807Y2571807*
X1580066Y2565472*
X1589681Y2561488*
X1595000Y2560791*
Y2595000*
G37*
G36*
X1495000D02*
X1460791D01*
X1461488Y2589681*
X1465472Y2580066*
X1471807Y2571807*
X1480066Y2565472*
X1489681Y2561488*
X1495000Y2560791*
Y2595000*
G37*
G36*
X1395000D02*
X1360791D01*
X1361488Y2589681*
X1365472Y2580066*
X1371807Y2571807*
X1380066Y2565472*
X1389681Y2561488*
X1395000Y2560791*
Y2595000*
G37*
G36*
X939527D02*
X905000D01*
Y2560472*
X939527*
Y2595000*
G37*
G36*
X895000D02*
X860472D01*
Y2560472*
X895000*
Y2595000*
G37*
G36*
X1755000Y2537397D02*
Y2508149D01*
X1784248*
X1783716Y2512185*
X1780228Y2520602*
X1774681Y2527830*
X1767452Y2533377*
X1759035Y2536866*
X1755000Y2537397*
G37*
G36*
X1745000D02*
X1740964Y2536866D01*
X1732547Y2533377*
X1725318Y2527830*
X1719771Y2520602*
X1716283Y2512185*
X1715751Y2508149*
X1745000*
Y2537397*
G37*
G36*
X2155000Y2534248D02*
Y2505000D01*
X2184248*
X2183716Y2509035*
X2180228Y2517452*
X2174681Y2524681*
X2167452Y2530228*
X2159035Y2533716*
X2155000Y2534248*
G37*
G36*
X2145000D02*
X2140964Y2533716D01*
X2132547Y2530228*
X2125318Y2524681*
X2119771Y2517452*
X2116283Y2509035*
X2115751Y2505000*
X2145000*
Y2534248*
G37*
G36*
X1784248Y2498149D02*
X1755000D01*
Y2468901*
X1759035Y2469433*
X1767452Y2472921*
X1774681Y2478468*
X1780228Y2485696*
X1783716Y2494114*
X1784248Y2498149*
G37*
G36*
X1745000D02*
X1715751D01*
X1716283Y2494114*
X1719771Y2485696*
X1725318Y2478468*
X1732547Y2472921*
X1740964Y2469433*
X1745000Y2468901*
Y2498149*
G37*
G36*
X2184248Y2495000D02*
X2155000D01*
Y2465751*
X2159035Y2466283*
X2167452Y2469771*
X2174681Y2475318*
X2180228Y2482547*
X2183716Y2490964*
X2184248Y2495000*
G37*
G36*
X2145000D02*
X2115751D01*
X2116283Y2490964*
X2119771Y2482547*
X2125318Y2475318*
X2132547Y2469771*
X2140964Y2466283*
X2145000Y2465751*
Y2495000*
G37*
G36*
X1503425Y2484248D02*
Y2455000D01*
X1532673*
X1532141Y2459035*
X1528653Y2467452*
X1523106Y2474681*
X1515877Y2480228*
X1507460Y2483716*
X1503425Y2484248*
G37*
G36*
X1493425D02*
X1489389Y2483716D01*
X1480972Y2480228*
X1473744Y2474681*
X1468196Y2467452*
X1464708Y2459035*
X1464177Y2455000*
X1493425*
Y2484248*
G37*
G36*
X1532673Y2445000D02*
X1503425D01*
Y2415751*
X1507460Y2416283*
X1515877Y2419771*
X1523106Y2425318*
X1528653Y2432547*
X1532141Y2440964*
X1532673Y2445000*
G37*
G36*
X1493425D02*
X1464177D01*
X1464708Y2440964*
X1468196Y2432547*
X1473744Y2425318*
X1480972Y2419771*
X1489389Y2416283*
X1493425Y2415751*
Y2445000*
G37*
G36*
X1950000Y2635303D02*
X1940862Y2634098D01*
X1932350Y2630570*
X1925039Y2624960*
X1919429Y2617649*
X1915901Y2609137*
X1914696Y2600000*
X1915901Y2590862*
X1919429Y2582350*
X1921594Y2579523*
X1921811Y2578574*
X1923826Y2575720*
X1925527Y2572866*
X1927039Y2569818*
X1928354Y2566574*
X1929480Y2563125*
X1930409Y2559472*
X1931122Y2555681*
X1931980Y2547161*
X1932090Y2542598*
X1932157Y2542448*
Y2442330*
X1932090Y2442173*
X1932027Y2438157*
X1931854Y2434566*
X1931145Y2428023*
X1930649Y2425318*
X1930051Y2422862*
X1929366Y2420712*
X1928610Y2418881*
X1927814Y2417366*
X1926799Y2415866*
X1926614Y2414964*
X1925000Y2412858*
X1922114Y2405897*
X1921129Y2398425*
X1922114Y2390952*
X1925000Y2383992*
X1929586Y2378011*
X1935566Y2373425*
X1942527Y2370539*
X1950000Y2369555*
X1957472Y2370539*
X1964433Y2373425*
X1970413Y2378011*
X1975000Y2383992*
X1977885Y2390952*
X1978870Y2398425*
X1977885Y2405897*
X1975000Y2412858*
X1973385Y2414964*
X1973200Y2415866*
X1972188Y2417366*
X1971389Y2418881*
X1970633Y2420712*
X1969952Y2422862*
X1969350Y2425318*
X1968866Y2427968*
X1967972Y2438259*
X1967913Y2442173*
X1967842Y2442330*
Y2542448*
X1967909Y2542598*
X1968019Y2547232*
X1968338Y2551527*
X1968862Y2555606*
X1969590Y2559472*
X1970519Y2563125*
X1971645Y2566574*
X1972960Y2569818*
X1974472Y2572866*
X1976173Y2575720*
X1978188Y2578574*
X1978405Y2579523*
X1980570Y2582350*
X1984098Y2590862*
X1985303Y2600000*
X1984098Y2609137*
X1980570Y2617649*
X1974960Y2624960*
X1967649Y2630570*
X1959137Y2634098*
X1950000Y2635303*
G37*
G36*
X1955000Y2333251D02*
Y2305000D01*
X1983251*
X1982755Y2308775*
X1979370Y2316956*
X1973980Y2323980*
X1966956Y2329370*
X1958775Y2332755*
X1955000Y2333251*
G37*
G36*
X1945000D02*
X1941224Y2332755D01*
X1933043Y2329370*
X1926019Y2323980*
X1920629Y2316956*
X1917244Y2308775*
X1916744Y2305000*
X1945000*
Y2333251*
G37*
G36*
X1983251Y2295000D02*
X1955000D01*
Y2266748*
X1958775Y2267244*
X1966956Y2270629*
X1973980Y2276019*
X1979370Y2283043*
X1982755Y2291224*
X1983251Y2295000*
G37*
G36*
X1945000D02*
X1916744D01*
X1917244Y2291224*
X1920629Y2283043*
X1926019Y2276019*
X1933043Y2270629*
X1941224Y2267244*
X1945000Y2266748*
Y2295000*
G37*
G36*
X2455000Y2149137D02*
Y2114448D01*
X2489685*
X2488968Y2119889*
X2484940Y2129622*
X2478527Y2137976*
X2470173Y2144389*
X2460440Y2148421*
X2455000Y2149137*
G37*
G36*
X2445000D02*
X2439559Y2148421D01*
X2429826Y2144389*
X2421472Y2137976*
X2415059Y2129622*
X2411031Y2119889*
X2410314Y2114448*
X2445000*
Y2149137*
G37*
G36*
X2489685Y2104448D02*
X2455000D01*
Y2069759*
X2460440Y2070476*
X2470173Y2074507*
X2478527Y2080921*
X2484940Y2089275*
X2488968Y2099007*
X2489685Y2104448*
G37*
G36*
X2445000D02*
X2410314D01*
X2411031Y2099007*
X2415059Y2089275*
X2421472Y2080921*
X2429826Y2074507*
X2439559Y2070476*
X2445000Y2069759*
Y2104448*
G37*
G36*
X3580000Y2104102D02*
Y2055000D01*
X3629102*
X3627893Y2064173*
X3622425Y2077377*
X3613720Y2088720*
X3602381Y2097425*
X3589173Y2102893*
X3580000Y2104102*
G37*
G36*
X355000D02*
Y2055000D01*
X404102*
X402893Y2064173*
X397425Y2077377*
X388720Y2088720*
X377381Y2097425*
X364173Y2102893*
X355000Y2104102*
G37*
G36*
X345000D02*
X335826Y2102893D01*
X322618Y2097425*
X311279Y2088720*
X302578Y2077377*
X297106Y2064173*
X295897Y2055000*
X345000*
Y2104102*
G37*
G36*
X3570000D02*
X3560826Y2102893D01*
X3547622Y2097425*
X3536279Y2088720*
X3527574Y2077377*
X3522106Y2064173*
X3520897Y2055000*
X3570000*
Y2104102*
G37*
G36*
X3629102Y2045000D02*
X3580000D01*
Y1995897*
X3589173Y1997106*
X3602381Y2002578*
X3613720Y2011279*
X3622425Y2022618*
X3627893Y2035826*
X3629102Y2045000*
G37*
G36*
X404102D02*
X355000D01*
Y1995897*
X364173Y1997106*
X377381Y2002578*
X388720Y2011279*
X397425Y2022618*
X402893Y2035826*
X404102Y2045000*
G37*
G36*
X345000D02*
X295897D01*
X297106Y2035826*
X302578Y2022618*
X311279Y2011279*
X322618Y2002578*
X335826Y1997106*
X345000Y1995897*
Y2045000*
G37*
G36*
X3570000D02*
X3520897D01*
X3522106Y2035826*
X3527574Y2022618*
X3536279Y2011279*
X3547622Y2002578*
X3560826Y1997106*
X3570000Y1995897*
Y2045000*
G37*
G36*
X2069370Y1761496D02*
X1980629D01*
Y1688503*
X2069370*
Y1761496*
G37*
G36*
X1469370D02*
X1380629D01*
Y1688503*
X1469370*
Y1761496*
G37*
G36*
X2032874Y1666854D02*
X2030000D01*
Y1630000*
X2074070*
X2073303Y1635834*
X2069122Y1645925*
X2062468Y1654594*
X2053799Y1661248*
X2043704Y1665429*
X2032874Y1666854*
G37*
G36*
X2020000D02*
X2017125D01*
X2006295Y1665429*
X1996196Y1661248*
X1987531Y1654594*
X1980877Y1645925*
X1976696Y1635834*
X1975929Y1630000*
X2020000*
Y1666854*
G37*
G36*
X3624291Y1699291D02*
X3525708D01*
Y1600708*
X3624291*
Y1699291*
G37*
G36*
X1432874Y1661811D02*
X1417125D01*
X1407598Y1660555*
X1398720Y1656877*
X1391098Y1651027*
X1385248Y1643405*
X1381570Y1634527*
X1380314Y1625000*
X1381570Y1615472*
X1385248Y1606594*
X1391098Y1598972*
X1398720Y1593122*
X1407598Y1589444*
X1417125Y1588188*
X1432874*
X1442401Y1589444*
X1451279Y1593122*
X1458901Y1598972*
X1464751Y1606594*
X1468429Y1615472*
X1469685Y1625000*
X1468429Y1634527*
X1464751Y1643405*
X1458901Y1651027*
X1451279Y1656877*
X1442401Y1660555*
X1432874Y1661811*
G37*
G36*
X2074070Y1620000D02*
X2030000D01*
Y1583145*
X2032874*
X2043704Y1584570*
X2053799Y1588751*
X2062468Y1595405*
X2069122Y1604074*
X2073303Y1614169*
X2074070Y1620000*
G37*
G36*
X2020000D02*
X1975929D01*
X1976696Y1614169*
X1980877Y1604074*
X1987531Y1595405*
X1996196Y1588751*
X2006295Y1584570*
X2017125Y1583145*
X2020000*
Y1620000*
G37*
G36*
X2032874Y1561811D02*
X2017125D01*
X2007598Y1560555*
X1998720Y1556877*
X1991098Y1551027*
X1985248Y1543405*
X1981570Y1534527*
X1980314Y1525000*
X1981570Y1515472*
X1985248Y1506594*
X1991098Y1498972*
X1998720Y1493122*
X2007598Y1489444*
X2017125Y1488188*
X2032874*
X2042401Y1489444*
X2051279Y1493122*
X2058901Y1498972*
X2064751Y1506594*
X2068429Y1515472*
X2069685Y1525000*
X2068429Y1534527*
X2064751Y1543405*
X2058901Y1551027*
X2051279Y1556877*
X2042401Y1560555*
X2032874Y1561811*
G37*
G36*
X1432874D02*
X1417125D01*
X1407598Y1560555*
X1398720Y1556877*
X1391098Y1551027*
X1385248Y1543405*
X1381570Y1534527*
X1380314Y1525000*
X1381570Y1515472*
X1385248Y1506594*
X1391098Y1498972*
X1398720Y1493122*
X1407598Y1489444*
X1417125Y1488188*
X1432874*
X1442401Y1489444*
X1451279Y1493122*
X1458901Y1498972*
X1464751Y1506594*
X1468429Y1515472*
X1469685Y1525000*
X1468429Y1534527*
X1464751Y1543405*
X1458901Y1551027*
X1451279Y1556877*
X1442401Y1560555*
X1432874Y1561811*
G37*
G36*
Y1466854D02*
X1430000D01*
Y1430000*
X1474070*
X1473303Y1435830*
X1469122Y1445929*
X1462468Y1454594*
X1453803Y1461248*
X1443708Y1465429*
X1432874Y1466854*
G37*
G36*
X1420000D02*
X1417125D01*
X1406291Y1465429*
X1396200Y1461248*
X1387531Y1454594*
X1380877Y1445929*
X1376696Y1435830*
X1375929Y1430000*
X1420000*
Y1466854*
G37*
G36*
X2032874Y1461811D02*
X2017125D01*
X2007598Y1460555*
X1998720Y1456877*
X1991098Y1451027*
X1985248Y1443405*
X1981570Y1434527*
X1980314Y1425000*
X1981570Y1415472*
X1985248Y1406594*
X1991098Y1398972*
X1998720Y1393122*
X2007598Y1389444*
X2017125Y1388188*
X2032874*
X2042401Y1389444*
X2051279Y1393122*
X2058901Y1398972*
X2064751Y1406594*
X2068429Y1415472*
X2069685Y1425000*
X2068429Y1434527*
X2064751Y1443405*
X2058901Y1451027*
X2051279Y1456877*
X2042401Y1460555*
X2032874Y1461811*
G37*
G36*
X1474070Y1420000D02*
X1430000D01*
Y1383145*
X1432874*
X1443708Y1384570*
X1453803Y1388751*
X1462468Y1395405*
X1469122Y1404070*
X1473303Y1414165*
X1474070Y1420000*
G37*
G36*
X1420000D02*
X1375929D01*
X1376696Y1414165*
X1380877Y1404070*
X1387531Y1395405*
X1396200Y1388751*
X1406291Y1384570*
X1417125Y1383145*
X1420000*
Y1420000*
G37*
G36*
X2032874Y1361811D02*
X2017125D01*
X2007598Y1360555*
X1998720Y1356877*
X1991098Y1351027*
X1985248Y1343405*
X1981570Y1334527*
X1980314Y1325000*
X1981570Y1315472*
X1985248Y1306594*
X1991098Y1298972*
X1998720Y1293122*
X2007598Y1289444*
X2017125Y1288188*
X2032874*
X2042401Y1289444*
X2051279Y1293122*
X2058901Y1298972*
X2064751Y1306594*
X2068429Y1315472*
X2069685Y1325000*
X2068429Y1334527*
X2064751Y1343405*
X2058901Y1351027*
X2051279Y1356877*
X2042401Y1360555*
X2032874Y1361811*
G37*
G36*
X399291Y2299291D02*
X300708D01*
Y2200708*
X357602*
X357972Y2200484*
X358405Y2200586*
X358814Y2200417*
X359519Y2200708*
X370125*
X372893Y2199125*
X376551Y2196582*
X385413Y2189086*
X390413Y2184255*
X390570Y2184192*
X1262381Y1312381*
X1268173Y1308515*
X1275000Y1307157*
X1362972*
X1363129Y1307090*
X1369657Y1306968*
X1375334Y1306610*
X1380244Y1306031*
X1384350Y1305248*
X1386834Y1304523*
X1391098Y1298972*
X1394267Y1296539*
X1394377Y1296267*
X1394767Y1296106*
X1394984Y1295744*
X1395452Y1295625*
X1398720Y1293122*
X1407598Y1289444*
X1417125Y1288188*
X1432874*
X1442401Y1289444*
X1451279Y1293122*
X1458901Y1298972*
X1464751Y1306594*
X1468429Y1315472*
X1469685Y1325000*
X1468429Y1334527*
X1464751Y1343405*
X1458901Y1351027*
X1451279Y1356877*
X1442401Y1360555*
X1432874Y1361811*
X1417125*
X1407598Y1360555*
X1398720Y1356877*
X1395452Y1354374*
X1394984Y1354255*
X1394767Y1353893*
X1394377Y1353732*
X1394267Y1353460*
X1391098Y1351027*
X1386834Y1345472*
X1384350Y1344751*
X1380318Y1343984*
X1369586Y1343031*
X1363129Y1342909*
X1362972Y1342842*
X1282389*
X415870Y2209366*
X415814Y2209511*
X406755Y2219263*
X403460Y2223385*
X400870Y2227106*
X399291Y2229874*
Y2240480*
X399582Y2241185*
X399413Y2241594*
X399515Y2242027*
X399291Y2242397*
Y2299291*
G37*
G36*
X3580000Y1304102D02*
Y1255000D01*
X3629102*
X3627893Y1264173*
X3622425Y1277377*
X3613720Y1288720*
X3602381Y1297425*
X3589173Y1302893*
X3580000Y1304102*
G37*
G36*
X355000D02*
Y1255000D01*
X404102*
X402893Y1264173*
X397425Y1277377*
X388720Y1288720*
X377381Y1297425*
X364173Y1302893*
X355000Y1304102*
G37*
G36*
X345000D02*
X335826Y1302893D01*
X322618Y1297425*
X311279Y1288720*
X302578Y1277377*
X297106Y1264173*
X295897Y1255000*
X345000*
Y1304102*
G37*
G36*
X3570000D02*
X3560826Y1302893D01*
X3547622Y1297425*
X3536279Y1288720*
X3527574Y1277377*
X3522106Y1264173*
X3520897Y1255000*
X3570000*
Y1304102*
G37*
G36*
X3629102Y1245000D02*
X3580000D01*
Y1195897*
X3589173Y1197106*
X3602381Y1202578*
X3613720Y1211279*
X3622425Y1222622*
X3627893Y1235826*
X3629102Y1245000*
G37*
G36*
X404102D02*
X355000D01*
Y1195897*
X364173Y1197106*
X377381Y1202578*
X388720Y1211279*
X397425Y1222622*
X402893Y1235826*
X404102Y1245000*
G37*
G36*
X345000D02*
X295897D01*
X297106Y1235826*
X302578Y1222622*
X311279Y1211279*
X322618Y1202578*
X335826Y1197106*
X345000Y1195897*
Y1245000*
G37*
G36*
X3570000D02*
X3520897D01*
X3522106Y1235826*
X3527574Y1222622*
X3536279Y1211279*
X3547622Y1202578*
X3560826Y1197106*
X3570000Y1195897*
Y1245000*
G37*
G36*
X2032874Y1261811D02*
X2017125D01*
X2007598Y1260555*
X1998720Y1256877*
X1991098Y1251027*
X1985248Y1243405*
X1981570Y1234527*
X1980314Y1225000*
X1981570Y1215472*
X1985248Y1206594*
X1991098Y1198972*
X1998720Y1193122*
X2007598Y1189444*
X2017125Y1188188*
X2032874*
X2042401Y1189444*
X2051279Y1193122*
X2058901Y1198972*
X2064751Y1206594*
X2068429Y1215472*
X2069685Y1225000*
X2068429Y1234527*
X2064751Y1243405*
X2058901Y1251027*
X2051279Y1256877*
X2042401Y1260555*
X2032874Y1261811*
G37*
G36*
X350000Y1899716D02*
X337133Y1898023D01*
X325141Y1893055*
X314846Y1885153*
X306944Y1874858*
X301976Y1862866*
X300283Y1850000*
X301976Y1837133*
X306944Y1825141*
X314846Y1814846*
X325141Y1806944*
X337133Y1801976*
X350000Y1800283*
X362866Y1801976*
X374858Y1806944*
X379224Y1810291*
X380208Y1810531*
X385972Y1814740*
X391625Y1818417*
X397267Y1821649*
X402913Y1824437*
X408547Y1826783*
X414185Y1828700*
X419818Y1830181*
X425460Y1831240*
X431110Y1831874*
X436984Y1832090*
X437125Y1832157*
X442610*
X1062381Y1212381*
X1068173Y1208515*
X1075000Y1207157*
X1362972*
X1363129Y1207090*
X1369657Y1206968*
X1375334Y1206610*
X1380244Y1206031*
X1384350Y1205248*
X1386834Y1204523*
X1391098Y1198972*
X1394267Y1196539*
X1394377Y1196267*
X1394767Y1196106*
X1394984Y1195744*
X1395452Y1195625*
X1398720Y1193122*
X1407598Y1189444*
X1417125Y1188188*
X1432874*
X1442401Y1189444*
X1451279Y1193122*
X1458901Y1198972*
X1464751Y1206594*
X1468429Y1215472*
X1469685Y1225000*
X1468429Y1234527*
X1464751Y1243405*
X1458901Y1251027*
X1451279Y1256877*
X1442401Y1260555*
X1432874Y1261811*
X1417125*
X1407598Y1260555*
X1398720Y1256877*
X1395452Y1254374*
X1394984Y1254255*
X1394767Y1253893*
X1394377Y1253736*
X1394267Y1253460*
X1391098Y1251027*
X1386834Y1245472*
X1384350Y1244751*
X1380318Y1243984*
X1369586Y1243031*
X1363129Y1242909*
X1362972Y1242842*
X1082389*
X462618Y1862618*
X456826Y1866484*
X450000Y1867842*
X437125*
X436984Y1867909*
X431110Y1868125*
X425460Y1868759*
X419818Y1869818*
X414185Y1871303*
X408547Y1873216*
X402909Y1875562*
X397267Y1878350*
X391625Y1881582*
X385972Y1885259*
X380208Y1889468*
X379224Y1889708*
X374858Y1893055*
X362866Y1898023*
X350000Y1899716*
G37*
G36*
X2032874Y1161811D02*
X2017125D01*
X2007598Y1160555*
X1998720Y1156877*
X1991098Y1151027*
X1985248Y1143405*
X1981570Y1134527*
X1980314Y1125000*
X1981570Y1115472*
X1985248Y1106594*
X1991098Y1098972*
X1998720Y1093122*
X2007598Y1089444*
X2017125Y1088188*
X2032874*
X2042401Y1089444*
X2051279Y1093122*
X2058901Y1098972*
X2064751Y1106594*
X2068429Y1115472*
X2069685Y1125000*
X2068429Y1134527*
X2064751Y1143405*
X2058901Y1151027*
X2051279Y1156877*
X2042401Y1160555*
X2032874Y1161811*
G37*
G36*
X399291Y1499291D02*
X300708D01*
Y1400708*
X399291*
Y1424169*
X399433Y1424429*
X399618Y1426169*
X399929Y1427051*
X400452Y1427834*
X401346Y1428657*
X402771Y1429527*
X404822Y1430358*
X407503Y1431078*
X410807Y1431625*
X414708Y1431968*
X419311Y1432090*
X419464Y1432157*
X717610*
X1037381Y1112381*
X1043173Y1108515*
X1050000Y1107157*
X1362972*
X1363129Y1107090*
X1369657Y1106968*
X1375334Y1106610*
X1380244Y1106031*
X1384350Y1105248*
X1386834Y1104527*
X1391098Y1098972*
X1394267Y1096539*
X1394377Y1096263*
X1394767Y1096106*
X1394984Y1095744*
X1395452Y1095625*
X1398720Y1093122*
X1407598Y1089444*
X1417125Y1088188*
X1432874*
X1442401Y1089444*
X1451279Y1093122*
X1458901Y1098972*
X1464751Y1106594*
X1468429Y1115472*
X1469685Y1125000*
X1468429Y1134527*
X1464751Y1143405*
X1458901Y1151027*
X1451279Y1156877*
X1442401Y1160555*
X1432874Y1161811*
X1417125*
X1407598Y1160555*
X1398720Y1156877*
X1395452Y1154374*
X1394984Y1154255*
X1394767Y1153893*
X1394377Y1153732*
X1394267Y1153460*
X1391098Y1151027*
X1386834Y1145476*
X1384350Y1144751*
X1380318Y1143984*
X1369586Y1143031*
X1363129Y1142909*
X1362972Y1142842*
X1057389*
X737618Y1462618*
X731826Y1466484*
X725000Y1467842*
X419464*
X419311Y1467909*
X414708Y1468031*
X410807Y1468374*
X407503Y1468921*
X404822Y1469641*
X402771Y1470472*
X401346Y1471342*
X400452Y1472165*
X399929Y1472948*
X399618Y1473830*
X399433Y1475570*
X399291Y1475830*
Y1499291*
G37*
G36*
X3575000Y1099716D02*
X3562133Y1098023D01*
X3550141Y1093055*
X3545775Y1089708*
X3544791Y1089468*
X3539027Y1085259*
X3533374Y1081582*
X3527732Y1078350*
X3522086Y1075562*
X3516452Y1073216*
X3510818Y1071303*
X3505181Y1069814*
X3499539Y1068759*
X3493889Y1068125*
X3488015Y1067909*
X3487874Y1067842*
X2950000*
X2943173Y1066484*
X2937381Y1062618*
X2717610Y842842*
X2087027*
X2086870Y842909*
X2080342Y843031*
X2074665Y843389*
X2069755Y843968*
X2065649Y844751*
X2063165Y845472*
X2058901Y851027*
X2055732Y853460*
X2055622Y853736*
X2055232Y853893*
X2055015Y854255*
X2054547Y854374*
X2051279Y856877*
X2042401Y860555*
X2032874Y861811*
X2017125*
X2007598Y860555*
X1998720Y856877*
X1991098Y851027*
X1985248Y843405*
X1981570Y834527*
X1980314Y825000*
X1981570Y815472*
X1985248Y806594*
X1991098Y798972*
X1998720Y793122*
X2007598Y789444*
X2017125Y788188*
X2032874*
X2042401Y789444*
X2051279Y793122*
X2054547Y795625*
X2055015Y795744*
X2055232Y796106*
X2055622Y796263*
X2055732Y796539*
X2058901Y798972*
X2063165Y804523*
X2065649Y805248*
X2069681Y806015*
X2080413Y806968*
X2086870Y807090*
X2087027Y807157*
X2725000*
X2731826Y808515*
X2737618Y812381*
X2957389Y1032157*
X3487874*
X3488015Y1032090*
X3493889Y1031874*
X3499539Y1031240*
X3505181Y1030185*
X3510818Y1028700*
X3516452Y1026783*
X3522090Y1024437*
X3527732Y1021649*
X3533374Y1018417*
X3539027Y1014740*
X3544791Y1010531*
X3545775Y1010291*
X3550141Y1006944*
X3562133Y1001976*
X3575000Y1000283*
X3587866Y1001976*
X3599858Y1006944*
X3610153Y1014846*
X3618055Y1025141*
X3623023Y1037133*
X3624716Y1050000*
X3623023Y1062866*
X3618055Y1074858*
X3610153Y1085153*
X3599858Y1093055*
X3587866Y1098023*
X3575000Y1099716*
G37*
G36*
X2032874Y1061811D02*
X2017125D01*
X2007598Y1060555*
X1998720Y1056877*
X1991098Y1051027*
X1985248Y1043405*
X1981570Y1034527*
X1980314Y1025000*
X1981570Y1015472*
X1985248Y1006594*
X1991098Y998972*
X1998720Y993122*
X2007598Y989444*
X2017125Y988188*
X2032874*
X2042401Y989444*
X2051279Y993122*
X2058901Y998972*
X2064751Y1006594*
X2068429Y1015472*
X2069685Y1025000*
X2068429Y1034527*
X2064751Y1043405*
X2058901Y1051027*
X2051279Y1056877*
X2042401Y1060555*
X2032874Y1061811*
G37*
G36*
X350000Y1099716D02*
X337133Y1098023D01*
X325141Y1093055*
X314846Y1085153*
X306944Y1074858*
X301976Y1062866*
X300283Y1050000*
X301976Y1037133*
X306944Y1025141*
X314846Y1014846*
X325141Y1006944*
X337133Y1001976*
X350000Y1000283*
X362866Y1001976*
X374858Y1006944*
X379224Y1010291*
X380208Y1010531*
X385972Y1014740*
X391625Y1018417*
X397267Y1021649*
X402913Y1024437*
X408547Y1026783*
X414185Y1028700*
X419818Y1030185*
X425460Y1031240*
X431110Y1031874*
X436984Y1032090*
X437125Y1032157*
X842610*
X862381Y1012381*
X868173Y1008515*
X875000Y1007157*
X1362972*
X1363129Y1007090*
X1369657Y1006968*
X1375334Y1006610*
X1380244Y1006031*
X1384350Y1005248*
X1386834Y1004523*
X1391098Y998972*
X1394267Y996539*
X1394377Y996263*
X1394767Y996106*
X1394984Y995744*
X1395452Y995625*
X1398720Y993122*
X1407598Y989444*
X1417125Y988188*
X1432874*
X1442401Y989444*
X1451279Y993122*
X1458901Y998972*
X1464751Y1006594*
X1468429Y1015472*
X1469685Y1025000*
X1468429Y1034527*
X1464751Y1043405*
X1458901Y1051027*
X1451279Y1056877*
X1442401Y1060555*
X1432874Y1061811*
X1417125*
X1407598Y1060555*
X1398720Y1056877*
X1395452Y1054374*
X1394984Y1054255*
X1394767Y1053893*
X1394377Y1053736*
X1394267Y1053460*
X1391098Y1051027*
X1386834Y1045472*
X1384350Y1044751*
X1380318Y1043984*
X1369586Y1043031*
X1363129Y1042909*
X1362972Y1042842*
X882389*
X862618Y1062618*
X856826Y1066484*
X850000Y1067842*
X437125*
X436984Y1067909*
X431110Y1068125*
X425460Y1068759*
X419818Y1069814*
X414185Y1071303*
X408547Y1073216*
X402909Y1075562*
X397267Y1078350*
X391625Y1081582*
X385972Y1085259*
X380208Y1089468*
X379224Y1089708*
X374858Y1093055*
X362866Y1098023*
X350000Y1099716*
G37*
G36*
X3575000Y1899716D02*
X3562133Y1898023D01*
X3550141Y1893055*
X3539846Y1885153*
X3531944Y1874858*
X3526976Y1862866*
X3526259Y1857413*
X3525732Y1856547*
X3524629Y1849496*
X3523236Y1842901*
X3521527Y1836622*
X3519511Y1830661*
X3517185Y1825015*
X3514555Y1819677*
X3511618Y1814641*
X3508374Y1809905*
X3504826Y1805460*
X3500830Y1801157*
X3500775Y1801007*
X2641862Y942094*
X2087405*
X2087255Y942161*
X2087224Y942149*
X2087196Y942161*
X2080700Y942283*
X2075062Y942641*
X2070200Y943220*
X2066149Y944000*
X2063755Y944708*
X2058901Y951027*
X2056720Y952704*
X2056669Y952842*
X2056346Y952992*
X2056271Y953051*
X2056086Y953385*
X2055677Y953503*
X2051279Y956877*
X2042401Y960555*
X2032874Y961811*
X2017125*
X2007598Y960555*
X1998720Y956877*
X1991098Y951027*
X1985248Y943405*
X1981570Y934527*
X1980314Y925000*
X1981570Y915472*
X1985248Y906594*
X1991098Y898972*
X1998720Y893122*
X2007598Y889444*
X2017125Y888188*
X2032874*
X2042401Y889444*
X2051279Y893122*
X2053437Y894775*
X2053948Y894885*
X2054177Y895236*
X2054566Y895381*
X2054751Y895783*
X2058901Y898972*
X2062582Y903767*
X2065125Y904496*
X2069204Y905267*
X2079996Y906220*
X2086468Y906342*
X2086625Y906409*
X2649251*
X2656078Y907767*
X2661870Y911633*
X3526007Y1775775*
X3526157Y1775830*
X3530464Y1779826*
X3534905Y1783377*
X3539641Y1786618*
X3544677Y1789555*
X3550015Y1792185*
X3555661Y1794507*
X3561622Y1796527*
X3567897Y1798236*
X3574496Y1799629*
X3581547Y1800732*
X3582413Y1801259*
X3587866Y1801976*
X3599858Y1806944*
X3610153Y1814846*
X3618055Y1825141*
X3623023Y1837133*
X3624716Y1850000*
X3623023Y1862866*
X3618055Y1874858*
X3610153Y1885153*
X3599858Y1893055*
X3587866Y1898023*
X3575000Y1899716*
G37*
G36*
X1432874Y961811D02*
X1417125D01*
X1407598Y960555*
X1398720Y956877*
X1391098Y951027*
X1385248Y943405*
X1381570Y934527*
X1381039Y930488*
X1380791Y930086*
X1380889Y929681*
X1380724Y929299*
X1380842Y929003*
X1380314Y925000*
X1381224Y918090*
X1379933Y915740*
X1377633Y912354*
X1370740Y904114*
X1366279Y899484*
X1366216Y899322*
X1237381Y770492*
X1233515Y764700*
X1232157Y757874*
Y707551*
X1232090Y707401*
X1231980Y702767*
X1231661Y698472*
X1231137Y694393*
X1230409Y690527*
X1229480Y686874*
X1228354Y683421*
X1227039Y680181*
X1225527Y677133*
X1223830Y674279*
X1221811Y671425*
X1221594Y670476*
X1219429Y667649*
X1215901Y659137*
X1214696Y650000*
X1215901Y640862*
X1219429Y632350*
X1225039Y625039*
X1232350Y619429*
X1240862Y615901*
X1250000Y614696*
X1259137Y615901*
X1267649Y619429*
X1274960Y625039*
X1280570Y632350*
X1284098Y640862*
X1285303Y650000*
X1284098Y659137*
X1280570Y667649*
X1278405Y670476*
X1278188Y671425*
X1276169Y674279*
X1274472Y677133*
X1272960Y680181*
X1271645Y683425*
X1270519Y686874*
X1269590Y690527*
X1268877Y694318*
X1268019Y702838*
X1267909Y707401*
X1267842Y707551*
Y750484*
X1391448Y874090*
X1391610Y874153*
X1396248Y878622*
X1400456Y882326*
X1404283Y885330*
X1407685Y887629*
X1410350Y889078*
X1417125Y888188*
X1420870*
X1420889Y888181*
X1420909Y888188*
X1432874*
X1442401Y889444*
X1451279Y893122*
X1458901Y898972*
X1464751Y906594*
X1468429Y915472*
X1469685Y925000*
X1468429Y934527*
X1464751Y943405*
X1458901Y951027*
X1451279Y956877*
X1442401Y960555*
X1432874Y961811*
G37*
G36*
X3624291Y899291D02*
X3525708D01*
Y800708*
X3624291*
Y899291*
G37*
G36*
X1100000Y2634826D02*
X1090988Y2633637D01*
X1082586Y2630161*
X1075374Y2624625*
X1069838Y2617413*
X1066362Y2609011*
X1065173Y2600000*
X1066362Y2590988*
X1069838Y2582586*
X1071968Y2579814*
X1072181Y2578866*
X1074125Y2576114*
X1075759Y2573354*
X1077212Y2570393*
X1078484Y2567232*
X1079566Y2563858*
X1080464Y2560267*
X1081157Y2556531*
X1081984Y2548118*
X1082090Y2543598*
X1082157Y2543440*
Y2208578*
X1083515Y2201751*
X1087381Y2195960*
X1682157Y1601188*
Y882389*
X1542610Y742842*
X1487027*
X1486870Y742909*
X1480342Y743031*
X1474665Y743389*
X1469755Y743968*
X1465649Y744751*
X1463165Y745472*
X1458901Y751027*
X1455732Y753460*
X1455622Y753732*
X1455232Y753893*
X1455015Y754255*
X1454547Y754374*
X1451279Y756877*
X1442401Y760555*
X1432874Y761811*
X1417125*
X1407598Y760555*
X1398720Y756877*
X1391098Y751027*
X1385248Y743405*
X1381570Y734527*
X1380314Y725000*
X1381570Y715472*
X1385248Y706594*
X1391098Y698972*
X1398720Y693122*
X1407598Y689444*
X1417125Y688188*
X1432874*
X1442401Y689444*
X1451279Y693122*
X1454547Y695625*
X1455015Y695744*
X1455232Y696106*
X1455622Y696267*
X1455732Y696539*
X1458901Y698972*
X1463165Y704527*
X1465649Y705248*
X1469681Y706015*
X1480413Y706968*
X1486870Y707090*
X1487027Y707157*
X1550000*
X1556826Y708515*
X1562618Y712381*
X1712618Y862381*
X1716484Y868173*
X1717842Y875000*
Y1608578*
X1716484Y1615405*
X1712618Y1621196*
X1117842Y2215968*
Y2543440*
X1117909Y2543598*
X1118015Y2548188*
X1118322Y2552433*
X1118830Y2556460*
X1119535Y2560267*
X1120433Y2563858*
X1121515Y2567232*
X1122787Y2570393*
X1124240Y2573354*
X1125874Y2576114*
X1127818Y2578866*
X1128031Y2579814*
X1130161Y2582586*
X1133637Y2590988*
X1134826Y2600000*
X1133637Y2609011*
X1130161Y2617413*
X1124625Y2624625*
X1117413Y2630161*
X1109011Y2633637*
X1100000Y2634826*
G37*
G36*
X399291Y699291D02*
X300708D01*
Y600708*
X399291*
Y624169*
X399433Y624429*
X399618Y626169*
X399929Y627051*
X400452Y627834*
X401346Y628657*
X402771Y629527*
X404822Y630358*
X407503Y631078*
X410807Y631625*
X414708Y631968*
X419311Y632090*
X419464Y632157*
X601897*
X602051Y632090*
X606681Y631980*
X610976Y631661*
X615055Y631137*
X618921Y630409*
X622574Y629480*
X626023Y628354*
X629267Y627039*
X632314Y625527*
X635169Y623830*
X638023Y621811*
X638972Y621594*
X641799Y619429*
X650311Y615901*
X659448Y614696*
X668586Y615901*
X677098Y619429*
X684409Y625039*
X690019Y632350*
X693547Y640862*
X694751Y650000*
X693547Y659137*
X690019Y667649*
X684409Y674960*
X677098Y680570*
X668586Y684098*
X659448Y685303*
X650311Y684098*
X641799Y680570*
X638972Y678405*
X638023Y678188*
X635169Y676169*
X632314Y674472*
X629267Y672960*
X626023Y671645*
X622574Y670519*
X618921Y669590*
X615129Y668877*
X606610Y668019*
X602051Y667909*
X601897Y667842*
X419464*
X419311Y667909*
X414708Y668031*
X410807Y668374*
X407503Y668921*
X404822Y669641*
X402771Y670472*
X401346Y671342*
X400452Y672165*
X399929Y672948*
X399618Y673830*
X399433Y675570*
X399291Y675830*
Y699291*
G37*
G36*
X2032874Y561811D02*
X2017125D01*
X2007598Y560555*
X1998720Y556877*
X1991098Y551027*
X1985248Y543405*
X1981570Y534527*
X1980314Y525000*
X1981570Y515472*
X1985248Y506594*
X1991098Y498972*
X1998720Y493122*
X2007598Y489444*
X2017125Y488188*
X2032874*
X2042401Y489444*
X2051279Y493122*
X2058901Y498972*
X2064751Y506594*
X2068429Y515472*
X2069685Y525000*
X2068429Y534527*
X2064751Y543405*
X2058901Y551027*
X2051279Y556877*
X2042401Y560555*
X2032874Y561811*
G37*
G36*
X355000Y504102D02*
Y455000D01*
X404102*
X402893Y464173*
X397425Y477381*
X388720Y488720*
X377381Y497425*
X364173Y502893*
X355000Y504102*
G37*
G36*
X345000D02*
X335826Y502893D01*
X322618Y497425*
X311279Y488720*
X302578Y477381*
X297106Y464173*
X295897Y455000*
X345000*
Y504102*
G37*
G36*
X1432874Y861811D02*
X1417125D01*
X1407598Y860555*
X1398720Y856877*
X1391098Y851027*
X1385248Y843405*
X1381570Y834527*
X1380314Y825000*
X1380799Y821307*
X1380681Y820948*
X1380858Y820594*
X1380787Y820200*
X1380984Y819913*
X1381570Y815472*
X1382984Y812055*
X1381751Y809649*
X1379712Y806555*
X1373240Y798740*
X1368948Y794279*
X1368885Y794118*
X1312381Y737618*
X1308515Y731826*
X1307157Y725000*
Y649625*
X1237381Y579850*
X1233515Y574062*
X1232157Y567236*
Y532551*
X1232090Y532401*
X1231980Y527767*
X1231661Y523472*
X1231137Y519393*
X1230409Y515527*
X1229480Y511874*
X1228354Y508421*
X1227039Y505181*
X1225527Y502133*
X1223830Y499279*
X1221811Y496425*
X1221594Y495476*
X1219429Y492649*
X1215901Y484137*
X1214696Y475000*
X1215901Y465862*
X1219429Y457350*
X1225039Y450039*
X1232350Y444429*
X1240862Y440901*
X1250000Y439696*
X1259137Y440901*
X1267649Y444429*
X1274960Y450039*
X1280570Y457350*
X1284098Y465862*
X1285303Y475000*
X1284098Y484137*
X1280570Y492649*
X1278405Y495476*
X1278188Y496425*
X1276169Y499279*
X1274472Y502133*
X1272960Y505181*
X1271645Y508425*
X1270519Y511870*
X1269590Y515527*
X1268877Y519318*
X1268019Y527838*
X1267909Y532401*
X1267842Y532551*
Y559846*
X1337618Y629618*
X1341484Y635409*
X1342842Y642236*
Y717610*
X1397602Y772370*
X1397759Y772433*
X1402374Y776870*
X1406602Y780598*
X1410500Y783673*
X1414043Y786094*
X1417188Y787866*
X1417952Y788188*
X1432874*
X1442401Y789444*
X1451279Y793122*
X1458901Y798972*
X1464751Y806594*
X1468429Y815472*
X1469685Y825000*
X1468429Y834527*
X1464751Y843405*
X1458901Y851027*
X1451279Y856877*
X1442401Y860555*
X1432874Y861811*
G37*
G36*
X2032874Y761811D02*
X2017125D01*
X2007598Y760555*
X1998720Y756877*
X1991098Y751027*
X1985248Y743405*
X1981570Y734527*
X1980314Y725000*
X1981570Y715472*
X1985248Y706594*
X1991098Y698972*
X1998720Y693122*
X2007598Y689444*
X2017125Y688188*
X2032874*
X2042401Y689444*
X2051279Y693122*
X2054547Y695625*
X2055015Y695744*
X2055232Y696106*
X2055622Y696267*
X2055732Y696539*
X2058901Y698972*
X2063165Y704527*
X2065649Y705248*
X2069681Y706015*
X2080413Y706968*
X2086870Y707090*
X2087027Y707157*
X2692610*
X2962381Y437381*
X2968173Y433515*
X2975000Y432157*
X3500000*
X3500145Y432090*
X3505519Y431917*
X3510614Y431413*
X3515614Y430578*
X3520523Y429413*
X3525346Y427909*
X3530082Y426070*
X3534744Y423893*
X3539330Y421374*
X3543842Y418507*
X3548409Y415200*
X3549385Y414964*
X3553122Y412102*
X3563673Y407732*
X3575000Y406240*
X3586326Y407732*
X3596877Y412102*
X3605944Y419055*
X3612897Y428122*
X3617267Y438673*
X3618759Y450000*
X3617267Y461326*
X3612897Y471881*
X3605944Y480944*
X3596877Y487897*
X3586326Y492267*
X3575000Y493759*
X3563673Y492267*
X3553122Y487897*
X3549385Y485031*
X3548409Y484799*
X3543842Y481492*
X3539330Y478625*
X3534744Y476106*
X3530082Y473929*
X3525346Y472090*
X3520523Y470586*
X3515618Y469421*
X3510614Y468586*
X3505519Y468082*
X3500145Y467909*
X3500000Y467842*
X2982389*
X2712618Y737618*
X2706826Y741484*
X2700000Y742842*
X2087027*
X2086870Y742909*
X2080342Y743031*
X2074665Y743389*
X2069755Y743968*
X2065649Y744751*
X2063165Y745472*
X2058901Y751027*
X2055732Y753460*
X2055622Y753732*
X2055232Y753893*
X2055015Y754255*
X2054547Y754374*
X2051279Y756877*
X2042401Y760555*
X2032874Y761811*
G37*
G36*
X404102Y445000D02*
X355000D01*
Y395897*
X364173Y397106*
X377381Y402574*
X388720Y411279*
X397425Y422622*
X402893Y435826*
X404102Y445000*
G37*
G36*
X345000D02*
X295897D01*
X297106Y435826*
X302578Y422622*
X311279Y411279*
X322618Y402574*
X335826Y397106*
X345000Y395897*
Y445000*
G37*
G36*
X2032874Y461811D02*
X2017125D01*
X2007598Y460555*
X1998720Y456877*
X1991098Y451027*
X1985248Y443405*
X1981570Y434527*
X1980314Y425000*
X1981570Y415472*
X1985248Y406594*
X1991098Y398972*
X1998720Y393122*
X2007598Y389444*
X2017125Y388188*
X2032874*
X2042401Y389444*
X2051279Y393122*
X2058901Y398972*
X2064751Y406594*
X2068429Y415472*
X2069685Y425000*
X2068429Y434527*
X2064751Y443405*
X2058901Y451027*
X2051279Y456877*
X2042401Y460555*
X2032874Y461811*
G37*
G36*
X1432874D02*
X1417125D01*
X1407598Y460555*
X1398720Y456877*
X1391098Y451027*
X1385248Y443405*
X1381570Y434527*
X1380314Y425000*
X1381570Y415472*
X1385248Y406594*
X1391098Y398972*
X1398720Y393122*
X1407598Y389444*
X1417125Y388188*
X1432874*
X1442401Y389444*
X1451279Y393122*
X1458901Y398972*
X1464751Y406594*
X1468429Y415472*
X1469685Y425000*
X1468429Y434527*
X1464751Y443405*
X1458901Y451027*
X1451279Y456877*
X1442401Y460555*
X1432874Y461811*
G37*
G36*
X2032874Y361811D02*
X2017125D01*
X2007598Y360555*
X1998720Y356877*
X1991098Y351027*
X1985248Y343405*
X1981570Y334527*
X1980314Y325000*
X1981570Y315472*
X1985248Y306594*
X1991098Y298972*
X1998720Y293122*
X2007598Y289444*
X2017125Y288188*
X2032874*
X2042401Y289444*
X2051279Y293122*
X2058901Y298972*
X2064751Y306594*
X2068429Y315472*
X2069685Y325000*
X2068429Y334527*
X2064751Y343405*
X2058901Y351027*
X2051279Y356877*
X2042401Y360555*
X2032874Y361811*
G37*
G36*
X1432874D02*
X1417125D01*
X1407598Y360555*
X1398720Y356877*
X1391098Y351027*
X1385248Y343405*
X1381570Y334527*
X1380314Y325000*
X1381570Y315472*
X1385248Y306594*
X1391098Y298972*
X1398720Y293122*
X1407598Y289444*
X1417125Y288188*
X1432874*
X1442401Y289444*
X1451279Y293122*
X1458901Y298972*
X1464751Y306594*
X1468429Y315472*
X1469685Y325000*
X1468429Y334527*
X1464751Y343405*
X1458901Y351027*
X1451279Y356877*
X1442401Y360555*
X1432874Y361811*
G37*
G36*
X659448Y510303D02*
X650311Y509098D01*
X641799Y505570*
X634488Y499960*
X628877Y492649*
X625350Y484137*
X624885Y480606*
X624366Y479783*
X623775Y476338*
X622956Y473118*
X621870Y469897*
X620511Y466669*
X618866Y463437*
X616940Y460196*
X614763Y457007*
X609346Y450377*
X606196Y447078*
X606137Y446921*
X427555Y268338*
X424133Y268755*
X418881Y269814*
X413559Y271303*
X408165Y273224*
X402692Y275590*
X397216Y278370*
X385791Y285425*
X379992Y289633*
X379015Y289866*
X374858Y293055*
X362866Y298023*
X350000Y299716*
X337133Y298023*
X325141Y293055*
X314846Y285153*
X306944Y274858*
X301976Y262866*
X300283Y250000*
X301976Y237133*
X306944Y225141*
X314846Y214846*
X325141Y206944*
X337133Y201976*
X350000Y200283*
X362866Y201976*
X374858Y206944*
X379015Y210133*
X379992Y210366*
X385846Y214614*
X391535Y218330*
X397149Y221594*
X402692Y224409*
X408165Y226775*
X413559Y228696*
X418881Y230185*
X424133Y231244*
X429318Y231874*
X434669Y232094*
X435082Y232283*
X441275Y233515*
X447066Y237381*
X631370Y421688*
X631527Y421748*
X634877Y424944*
X638141Y427759*
X641393Y430271*
X644645Y432492*
X647885Y434417*
X651118Y436059*
X654346Y437421*
X657566Y438511*
X660787Y439326*
X664232Y439917*
X665055Y440437*
X668586Y440901*
X677098Y444429*
X684409Y450039*
X690019Y457350*
X693547Y465862*
X694751Y475000*
X693547Y484137*
X690019Y492649*
X684409Y499960*
X677098Y505570*
X668586Y509098*
X659448Y510303*
G37*
G36*
X2032874Y661811D02*
X2017125D01*
X2007598Y660555*
X1998720Y656877*
X1991098Y651027*
X1985248Y643405*
X1981570Y634527*
X1980314Y625000*
X1981570Y615472*
X1985248Y606594*
X1991098Y598972*
X1998720Y593122*
X2007598Y589444*
X2017125Y588188*
X2032874*
X2042401Y589444*
X2051279Y593122*
X2054547Y595625*
X2055015Y595744*
X2055232Y596106*
X2055622Y596267*
X2055732Y596539*
X2058901Y598972*
X2063165Y604523*
X2065649Y605248*
X2069681Y606015*
X2080413Y606968*
X2086870Y607090*
X2087027Y607157*
X2667610*
X2910366Y364401*
X2916153Y360531*
X2922984Y359173*
X3443740*
X3515035Y287877*
X3515090Y287732*
X3524173Y277956*
X3527484Y273826*
X3530086Y270098*
X3531614Y267440*
Y256476*
X3531440Y256059*
X3531614Y255645*
X3531507Y255208*
X3531614Y255039*
Y209763*
X3618385*
Y296535*
X3573110*
X3572940Y296641*
X3572503Y296535*
X3572090Y296708*
X3571673Y296535*
X3560708*
X3558051Y298062*
X3554381Y300622*
X3545503Y308145*
X3540496Y312984*
X3540334Y313047*
X3463748Y389633*
X3457960Y393503*
X3451133Y394862*
X2930374*
X2687618Y637618*
X2681826Y641484*
X2675000Y642842*
X2087027*
X2086870Y642909*
X2080342Y643031*
X2074665Y643389*
X2069755Y643968*
X2065649Y644751*
X2063165Y645476*
X2058901Y651027*
X2055732Y653460*
X2055622Y653736*
X2055232Y653893*
X2055015Y654255*
X2054547Y654374*
X2051279Y656877*
X2042401Y660555*
X2032874Y661811*
G37*
G36*
X2803149Y285787D02*
X2760905D01*
Y201850*
X2844842*
Y244094*
X2844066Y247996*
X2841854Y251303*
X2810358Y282799*
X2807051Y285011*
X2803149Y285787*
G37*
G36*
X2750905D02*
X2708661D01*
X2704759Y285011*
X2701452Y282799*
X2669956Y251303*
X2667744Y247996*
X2666968Y244094*
Y201850*
X2750905*
Y285787*
G37*
G36*
X1031496D02*
X989251D01*
Y201850*
X1073188*
Y244094*
X1072413Y247996*
X1070200Y251303*
X1038704Y282799*
X1035397Y285011*
X1031496Y285787*
G37*
G36*
X979251D02*
X937007D01*
X933106Y285011*
X929799Y282799*
X898303Y251303*
X896090Y247996*
X895314Y244094*
Y201850*
X979251*
Y285787*
G37*
G36*
X2844842Y191850D02*
X2760905D01*
Y107913*
X2803149*
X2807051Y108688*
X2810358Y110901*
X2841854Y142397*
X2844066Y145704*
X2844842Y149606*
Y191850*
G37*
G36*
X2750905D02*
X2666968D01*
Y149606*
X2667744Y145704*
X2669956Y142397*
X2701452Y110901*
X2704759Y108688*
X2708661Y107913*
X2750905*
Y191850*
G37*
G36*
X1073188D02*
X989251D01*
Y107913*
X1031496*
X1035397Y108688*
X1038704Y110901*
X1070200Y142397*
X1072413Y145704*
X1073188Y149606*
Y191850*
G37*
G36*
X979251D02*
X895314D01*
Y149606*
X896090Y145704*
X898303Y142397*
X929799Y110901*
X933106Y108688*
X937007Y107913*
X979251*
Y191850*
G37*
%LNplatine-3*%
%LPD*%
G36*
X3128736Y3658405D02*
X3127885Y3658102D01*
X3127133Y3657598*
X3126484Y3656889*
X3125937Y3655976*
X3125484Y3654866*
X3125133Y3653547*
X3124885Y3652031*
X3124736Y3650311*
X3124685Y3648389*
X3114685*
X3114633Y3650311*
X3114484Y3652031*
X3114236Y3653547*
X3113885Y3654866*
X3113437Y3655976*
X3112885Y3656889*
X3112236Y3657598*
X3111484Y3658102*
X3110633Y3658405*
X3109685Y3658507*
X3129685*
X3128736Y3658405*
G37*
G36*
X3089366D02*
X3088515Y3658102D01*
X3087763Y3657598*
X3087114Y3656889*
X3086566Y3655976*
X3086114Y3654866*
X3085763Y3653547*
X3085515Y3652031*
X3085366Y3650311*
X3085314Y3648389*
X3075314*
X3075263Y3650311*
X3075114Y3652031*
X3074866Y3653547*
X3074515Y3654866*
X3074066Y3655976*
X3073515Y3656889*
X3072866Y3657598*
X3072114Y3658102*
X3071263Y3658405*
X3070314Y3658507*
X3090314*
X3089366Y3658405*
G37*
G36*
X3054555Y3658137D02*
X3054153Y3657389D01*
X3053803Y3656137*
X3053500Y3654385*
X3053244Y3652137*
X3052751Y3642385*
X3052657Y3633385*
X3027657*
X3027633Y3638137*
X3026511Y3656137*
X3026157Y3657389*
X3025759Y3658137*
X3025314Y3658385*
X3054996*
X3054555Y3658137*
G37*
G36*
X3055188Y3506125D02*
X3055751Y3502523D01*
X3056688Y3498767*
X3058003Y3494866*
X3059692Y3490811*
X3061755Y3486610*
X3064196Y3482255*
X3070204Y3473102*
X3073771Y3468299*
X3026228*
X3029795Y3473102*
X3035803Y3482255*
X3038240Y3486610*
X3040307Y3490811*
X3041996Y3494866*
X3043311Y3498767*
X3044248Y3502523*
X3044811Y3506125*
X3045000Y3509578*
X3055000*
X3055188Y3506125*
G37*
G36*
X3205188Y3498480D02*
X3205759Y3496586D01*
X3206708Y3494318*
X3208039Y3491681*
X3211838Y3485279*
X3217161Y3477385*
X3224000Y3468000*
X3176000*
X3179610Y3472881*
X3191960Y3491681*
X3193291Y3494318*
X3194240Y3496586*
X3194811Y3498480*
X3195000Y3500000*
X3205000*
X3205188Y3498480*
G37*
G36*
X2721326Y3121629D02*
X2724543Y3119712D01*
X2727956Y3118023*
X2731562Y3116559*
X2735362Y3115318*
X2739358Y3114303*
X2743547Y3113515*
X2747929Y3112948*
X2752503Y3112614*
X2757271Y3112500*
Y3087500*
X2752503Y3087385*
X2743547Y3086484*
X2739358Y3085696*
X2735362Y3084681*
X2731562Y3083440*
X2727956Y3081976*
X2724543Y3080287*
X2721515Y3078484*
X2719712Y3075456*
X2718023Y3072043*
X2716559Y3068437*
X2715318Y3064637*
X2714303Y3060641*
X2713515Y3056452*
X2712952Y3052070*
X2712614Y3047496*
X2712582Y3046216*
X2712622Y3044736*
X2712980Y3040484*
X2713578Y3036736*
X2714417Y3033488*
X2715496Y3030736*
X2716814Y3028488*
X2718374Y3026736*
X2720169Y3025488*
X2722208Y3024736*
X2724488Y3024488*
X2675515*
X2677791Y3024736*
X2679826Y3025488*
X2681625Y3026736*
X2683185Y3028488*
X2684503Y3030736*
X2685582Y3033488*
X2686421Y3036736*
X2687019Y3040484*
X2687381Y3044736*
X2687417Y3046216*
X2687385Y3047496*
X2686484Y3056452*
X2685696Y3060641*
X2684681Y3064637*
X2683440Y3068437*
X2681976Y3072043*
X2680287Y3075456*
X2678370Y3078673*
X2676228Y3081700*
X2718299*
Y3123771*
X2721326Y3121629*
G37*
G36*
X2438582Y3429527D02*
X2497637D01*
Y3370472*
X2438582*
Y3340944*
X2379527*
Y3459055*
X2438582*
Y3429527*
G37*
G36*
X2320472Y3340944D02*
X2261417D01*
Y3370472*
X2202362*
Y3429527*
X2261417*
Y3459055*
X2320472*
Y3340944*
G37*
G36*
X1971326Y3212181D02*
X1974543Y3210263D01*
X1977956Y3208574*
X1981562Y3207110*
X1985362Y3205870*
X1989358Y3204854*
X1993547Y3204066*
X1997929Y3203500*
X2002503Y3203165*
X2007271Y3203051*
Y3178051*
X2002503Y3177937*
X1993547Y3177035*
X1989358Y3176248*
X1985362Y3175232*
X1981562Y3173992*
X1977956Y3172527*
X1974543Y3170838*
X1971326Y3168921*
X1968299Y3166779*
Y3214322*
X1971326Y3212181*
G37*
G36*
X2250157Y3150933D02*
X2250653Y3148673D01*
X2251263Y3146503*
X2251992Y3144425*
X2252838Y3142433*
X2253807Y3140535*
X2254885Y3138724*
X2256086Y3137007*
X2257405Y3135377*
X2258838Y3133838*
X2241161Y3116161*
X2239622Y3117594*
X2237992Y3118913*
X2236275Y3120114*
X2234464Y3121196*
X2232566Y3122157*
X2230574Y3123003*
X2228496Y3123736*
X2226326Y3124346*
X2224066Y3124838*
X2221716Y3125216*
X2249783Y3153283*
X2250157Y3150933*
G37*
G36*
X2284984Y3113897D02*
X2284881Y3114047D01*
X2284582Y3114181*
X2284082Y3114299*
X2283381Y3114401*
X2281381Y3114559*
X2274980Y3114685*
Y3124685*
X2276881Y3124692*
X2284582Y3125188*
X2284881Y3125322*
X2284984Y3125468*
Y3113897*
G37*
G36*
X2603224Y3125208D02*
X2600811Y3124759D01*
X2598326Y3124031*
X2595767Y3123027*
X2593141Y3121740*
X2590440Y3120177*
X2587665Y3118334*
X2584818Y3116212*
X2578913Y3111133*
X2575850Y3108173*
X2558173Y3125850*
X2561133Y3128913*
X2566212Y3134822*
X2568334Y3137665*
X2570177Y3140440*
X2571740Y3143141*
X2573027Y3145767*
X2574031Y3148326*
X2574759Y3150811*
X2575208Y3153224*
X2603224Y3125208*
G37*
G36*
X2384751Y3080188D02*
X2380944Y3083003D01*
X2373586Y3087744*
X2370035Y3089669*
X2366570Y3091299*
X2363188Y3092629*
X2359889Y3093665*
X2356677Y3094409*
X2353547Y3094850*
X2350531Y3095000*
X2348944Y3094992*
X2341244Y3094496*
X2340944Y3094362*
X2340846Y3094212*
Y3105783*
X2340944Y3105637*
X2341244Y3105503*
X2341744Y3105385*
X2342444Y3105283*
X2344444Y3105125*
X2350602Y3105003*
X2353547Y3105149*
X2356677Y3105590*
X2359889Y3106334*
X2363188Y3107370*
X2366570Y3108700*
X2370035Y3110330*
X2373586Y3112255*
X2380944Y3116996*
X2384751Y3119811*
Y3080188*
G37*
G36*
X2419055Y3116996D02*
X2426413Y3112255D01*
X2429964Y3110330*
X2433429Y3108700*
X2436811Y3107370*
X2440110Y3106334*
X2443322Y3105590*
X2446452Y3105149*
X2449468Y3105000*
X2451055Y3105007*
X2458755Y3105503*
X2459055Y3105637*
X2459157Y3105783*
Y3094212*
X2459055Y3094362*
X2458755Y3094496*
X2458255Y3094614*
X2457555Y3094716*
X2455555Y3094874*
X2449397Y3094996*
X2446452Y3094850*
X2443322Y3094409*
X2440110Y3093665*
X2436811Y3092629*
X2433429Y3091299*
X2429964Y3089669*
X2426413Y3087744*
X2419055Y3083003*
X2415251Y3080188*
Y3119811*
X2419055Y3116996*
G37*
G36*
X2317960Y3094334D02*
X2322913D01*
X2321964Y3094232*
X2321114Y3093929*
X2320362Y3093425*
X2319712Y3092716*
X2319161Y3091803*
X2318712Y3090692*
X2318578Y3090192*
X2318712Y3089700*
X2319161Y3088598*
X2319712Y3087700*
X2320362Y3087000*
X2321114Y3086500*
X2321964Y3086200*
X2322913Y3086098*
X2317960*
X2317913Y3084216*
X2307913*
X2307866Y3086098*
X2302913*
X2303862Y3086200*
X2304712Y3086500*
X2305464Y3087000*
X2306114Y3087700*
X2306661Y3088598*
X2307114Y3089700*
X2307244Y3090192*
X2307114Y3090692*
X2306661Y3091803*
X2306114Y3092716*
X2305464Y3093425*
X2304712Y3093929*
X2303862Y3094232*
X2302913Y3094334*
X2307866*
X2307913Y3096102*
X2317913*
X2317960Y3094334*
G37*
G36*
X2522688Y3085362D02*
X2525019Y3085314D01*
Y3075314*
X2523118Y3075307*
X2522688Y3075279*
Y3070409*
X2521381Y3071342*
X2519996Y3072177*
X2518543Y3072909*
X2517019Y3073551*
X2515421Y3074086*
X2513751Y3074531*
X2512011Y3074874*
X2510196Y3075118*
X2508314Y3075263*
X2506358Y3075314*
Y3085314*
X2508314Y3085362*
X2510196Y3085511*
X2512011Y3085755*
X2513751Y3086098*
X2515421Y3086539*
X2517019Y3087078*
X2518543Y3087716*
X2519996Y3088452*
X2521381Y3089287*
X2522688Y3090220*
Y3085362*
G37*
G36*
X2269562Y3069602D02*
X2270948Y3068767D01*
X2272401Y3068031*
X2273925Y3067393*
X2275523Y3066854*
X2277192Y3066413*
X2278933Y3066070*
X2280444Y3065866*
X2284582Y3066133*
X2284881Y3066267*
X2284984Y3066413*
Y3054842*
X2284881Y3054992*
X2284582Y3055125*
X2284082Y3055244*
X2283381Y3055346*
X2281515Y3055492*
X2280748Y3055433*
X2278933Y3055188*
X2277192Y3054846*
X2275523Y3054401*
X2273925Y3053866*
X2272401Y3053224*
X2270948Y3052492*
X2269562Y3051657*
X2268255Y3050724*
Y3070535*
X2269562Y3069602*
G37*
G36*
X2496137Y3054862D02*
X2495287Y3054559D01*
X2494535Y3054055*
X2493885Y3053346*
X2493334Y3052433*
X2492885Y3051322*
X2492535Y3050003*
X2492287Y3048488*
X2492137Y3046767*
X2492086Y3044846*
X2482086*
X2482035Y3046767*
X2481885Y3048488*
X2481637Y3050003*
X2481287Y3051322*
X2480834Y3052433*
X2480287Y3053346*
X2479637Y3054055*
X2478885Y3054559*
X2478035Y3054862*
X2477086Y3054964*
X2497086*
X2496137Y3054862*
G37*
G36*
X2492185Y2863098D02*
X2492488Y2861401D01*
X2492988Y2859901*
X2493685Y2858598*
X2494586Y2857500*
X2495685Y2856598*
X2496988Y2855901*
X2498488Y2855401*
X2500185Y2855098*
X2502086Y2855000*
Y2845000*
X2500185Y2844901*
X2498488Y2844598*
X2496988Y2844098*
X2495685Y2843401*
X2494586Y2842500*
X2493685Y2841401*
X2492988Y2840098*
X2492488Y2838598*
X2492185Y2836901*
X2492086Y2835000*
X2482086Y2850000*
X2492086Y2865000*
X2492185Y2863098*
G37*
G36*
X2722251Y2826228D02*
X2717448Y2829795D01*
X2708295Y2835803*
X2703940Y2838240*
X2699740Y2840307*
X2695685Y2841996*
X2691783Y2843311*
X2688027Y2844248*
X2684425Y2844811*
X2680972Y2845000*
Y2855000*
X2684425Y2855188*
X2688027Y2855751*
X2691783Y2856688*
X2695685Y2858003*
X2699740Y2859692*
X2703940Y2861759*
X2708295Y2864196*
X2717448Y2870204*
X2722251Y2873771*
Y2826228*
G37*
G36*
X2455188Y2756125D02*
X2455751Y2752523D01*
X2456688Y2748767*
X2458003Y2744866*
X2459692Y2740811*
X2461755Y2736610*
X2464196Y2732255*
X2470204Y2723102*
X2473771Y2718299*
X2426228*
X2429795Y2723102*
X2435803Y2732255*
X2438244Y2736610*
X2440307Y2740811*
X2441996Y2744866*
X2443311Y2748767*
X2444248Y2752523*
X2444811Y2756125*
X2445000Y2759578*
X2455000*
X2455188Y2756125*
G37*
G36*
X1021051Y3561484D02*
X1018925Y3560732D01*
X1017051Y3559484*
X1015425Y3557732*
X1014051Y3555484*
X1012925Y3552732*
X1012051Y3549484*
X1011425Y3545736*
X1011051Y3541484*
X1010925Y3536736*
X985925*
X985799Y3541484*
X985425Y3545736*
X984799Y3549484*
X983925Y3552732*
X982799Y3555484*
X981425Y3557732*
X979799Y3559484*
X977925Y3560732*
X975799Y3561484*
X973425Y3561732*
X1023425*
X1021051Y3561484*
G37*
G36*
X832582Y3575358D02*
X828767Y3570531D01*
X825354Y3565645*
X822338Y3560696*
X819728Y3555688*
X817519Y3550622*
X815712Y3545492*
X814307Y3540307*
X813303Y3535059*
X812700Y3529751*
X812500Y3524385*
X787500Y3526562*
X787342Y3532307*
X786870Y3537913*
X786086Y3543381*
X784988Y3548716*
X783574Y3553913*
X781846Y3558976*
X779803Y3563897*
X777448Y3568688*
X774779Y3573342*
X771795Y3577858*
X832582Y3575358*
G37*
G36*
X1519114Y3369114D02*
X1518543Y3368960D01*
X1517704Y3368496*
X1516598Y3367724*
X1515228Y3366641*
X1509527Y3361535*
X1501437Y3353641*
X1492598Y3380157*
X1497653Y3385389*
X1506169Y3395307*
X1509629Y3399996*
X1512559Y3404507*
X1514956Y3408834*
X1516822Y3412984*
X1518157Y3416952*
X1518964Y3420744*
X1519236Y3424354*
X1519114Y3369114*
G37*
G36*
X1579468Y3402527D02*
X1578763Y3400228D01*
Y3397578*
X1579468Y3394570*
X1580881Y3391212*
X1583003Y3387500*
X1585834Y3383433*
X1589370Y3379015*
X1598562Y3369114*
X1580881Y3351437*
X1575755Y3356389*
X1566562Y3364165*
X1562500Y3366996*
X1558787Y3369114*
X1555429Y3370531*
X1552421Y3371236*
X1549771*
X1547472Y3370531*
X1545527Y3369114*
X1580881Y3404472*
X1579468Y3402527*
G37*
G36*
X1478681Y3330881D02*
X1473716Y3325748D01*
X1465917Y3316539*
X1463074Y3312468*
X1460940Y3308755*
X1459515Y3305397*
X1458795Y3302397*
X1458783Y3299751*
X1459480Y3297460*
X1460881Y3295527*
X1425645Y3330763*
X1427578Y3329362*
X1429870Y3328665*
X1432515Y3328677*
X1435515Y3329397*
X1438874Y3330822*
X1442590Y3332956*
X1446657Y3335799*
X1451082Y3339346*
X1461003Y3348562*
X1478681Y3330881*
G37*
G36*
X812751Y3332748D02*
X813500Y3328500D01*
X814751Y3324748*
X816500Y3321500*
X818748Y3318748*
X821500Y3316500*
X824751Y3314748*
X828500Y3313500*
X828633Y3313476*
X829677Y3313586*
X833996Y3314429*
X838133Y3315515*
X842090Y3316842*
X845862Y3318413*
X849452Y3320224*
X852862Y3322275*
X856086Y3324566*
Y3275433*
X852862Y3277724*
X849452Y3279775*
X845862Y3281586*
X842090Y3283157*
X838133Y3284484*
X833996Y3285570*
X829677Y3286413*
X828728Y3286539*
X828500Y3286500*
X824751Y3285251*
X821500Y3283500*
X818748Y3281251*
X816500Y3278500*
X814751Y3275251*
X813500Y3271500*
X812751Y3267251*
X812500Y3262500*
X787500*
X787248Y3267251*
X786500Y3271500*
X785251Y3275251*
X783500Y3278500*
X781251Y3281251*
X778500Y3283500*
X775251Y3285251*
X771500Y3286500*
X767248Y3287248*
X762500Y3287500*
Y3312500*
X767248Y3312751*
X771500Y3313500*
X775251Y3314748*
X778500Y3316500*
X781251Y3318748*
X783500Y3321500*
X785251Y3324748*
X786500Y3328500*
X787248Y3332748*
X787500Y3337500*
X812500*
X812751Y3332748*
G37*
G36*
X731015Y3322625D02*
X731767Y3320500D01*
X733023Y3318625*
X734783Y3317000*
X737043Y3315625*
X739807Y3314500*
X743074Y3313625*
X746838Y3313000*
X751110Y3312625*
X755881Y3312500*
Y3287500*
X751110Y3287374*
X746838Y3287000*
X743074Y3286374*
X739807Y3285500*
X737043Y3284374*
X734783Y3283000*
X733023Y3281374*
X731767Y3279500*
X731015Y3277374*
X730763Y3275000*
Y3325000*
X731015Y3322625*
G37*
G36*
X1642744Y3201110D02*
X1643118Y3196842D01*
X1643744Y3193070*
X1644618Y3189807*
X1645744Y3187043*
X1647118Y3184783*
X1648744Y3183023*
X1650618Y3181767*
X1652744Y3181015*
X1655118Y3180763*
X1605118*
X1607492Y3181015*
X1609618Y3181767*
X1611492Y3183023*
X1613118Y3184783*
X1614492Y3187043*
X1615618Y3189807*
X1616492Y3193070*
X1617118Y3196842*
X1617492Y3201110*
X1617618Y3205885*
X1642618*
X1642744Y3201110*
G37*
G36*
X1011173Y3182751D02*
X1011925Y3178500D01*
X1013173Y3174748*
X1014925Y3171500*
X1017177Y3168751*
X1019925Y3166500*
X1023173Y3164751*
X1026925Y3163500*
X1027645Y3163374*
X1029677Y3163586*
X1033996Y3164429*
X1038133Y3165515*
X1042090Y3166846*
X1045862Y3168413*
X1049452Y3170224*
X1052862Y3172275*
X1056086Y3174566*
Y3125433*
X1052862Y3127724*
X1049452Y3129775*
X1045862Y3131586*
X1042090Y3133157*
X1038133Y3134484*
X1033996Y3135570*
X1029677Y3136413*
X1027834Y3136661*
X1026925Y3136500*
X1023173Y3135251*
X1019925Y3133500*
X1017177Y3131251*
X1014925Y3128500*
X1013173Y3125248*
X1011925Y3121500*
X1011173Y3117248*
X1010925Y3112500*
X985925*
X985673Y3117248*
X984925Y3121500*
X983673Y3125248*
X981925Y3128500*
X979677Y3131251*
X976925Y3133500*
X973673Y3135251*
X969925Y3136500*
X965677Y3137248*
X960925Y3137500*
Y3162500*
X965677Y3162748*
X969925Y3163500*
X973673Y3164751*
X976925Y3166500*
X979677Y3168751*
X981925Y3171500*
X983673Y3174748*
X984925Y3178500*
X985673Y3182751*
X985925Y3187500*
X1010925*
X1011173Y3182751*
G37*
G36*
X931015Y3172625D02*
X931767Y3170500D01*
X933023Y3168625*
X934783Y3167000*
X937043Y3165625*
X939807Y3164500*
X943074Y3163625*
X946838Y3163000*
X951110Y3162625*
X955881Y3162500*
Y3137500*
X951110Y3137374*
X946838Y3137000*
X943074Y3136374*
X939807Y3135500*
X937043Y3134374*
X934783Y3133000*
X933023Y3131374*
X931767Y3129500*
X931015Y3127374*
X930763Y3125000*
Y3175000*
X931015Y3172625*
G37*
G36*
X1659586Y3152527D02*
X1658881Y3150228D01*
Y3147578*
X1659586Y3144570*
X1661000Y3141212*
X1663122Y3137500*
X1665952Y3133433*
X1669488Y3129015*
X1678681Y3119114*
X1661000Y3101437*
X1655874Y3106389*
X1646681Y3114165*
X1642618Y3116996*
X1638905Y3119114*
X1635547Y3120531*
X1632539Y3121236*
X1629889*
X1627590Y3120531*
X1625645Y3119114*
X1661000Y3154472*
X1659586Y3152527*
G37*
G36*
X1762500Y2878200D02*
X1737500Y2840700D01*
X1737248Y2845452*
X1736500Y2849700*
X1735251Y2853452*
X1733500Y2856700*
X1731251Y2859452*
X1728500Y2861700*
X1725251Y2863452*
X1721500Y2864700*
X1717248Y2865452*
X1712500Y2865700*
Y2890700*
X1717248Y2890952*
X1721500Y2891700*
X1725251Y2892952*
X1728500Y2894700*
X1731251Y2896952*
X1733500Y2899700*
X1735251Y2902952*
X1736500Y2906700*
X1737248Y2910952*
X1737500Y2915700*
X1762500Y2878200*
G37*
G36*
X1098633Y2830956D02*
X1095370Y2827539D01*
X1089732Y2820665*
X1087354Y2817212*
X1085271Y2813740*
X1083484Y2810255*
X1081992Y2806759*
X1080791Y2803251*
X1079889Y2799728*
X1079279Y2796192*
X1046192Y2829279*
X1049728Y2829889*
X1053251Y2830791*
X1056759Y2831992*
X1060255Y2833484*
X1063740Y2835271*
X1067208Y2837354*
X1070665Y2839732*
X1074110Y2842405*
X1077539Y2845370*
X1080956Y2848633*
X1098633Y2830956*
G37*
G36*
X922460Y2845370D02*
X929334Y2839732D01*
X932791Y2837354*
X936259Y2835271*
X939744Y2833484*
X943240Y2831992*
X946748Y2830791*
X950271Y2829889*
X953807Y2829279*
X920720Y2796192*
X920110Y2799728*
X919208Y2803251*
X918007Y2806759*
X916515Y2810255*
X914728Y2813740*
X912645Y2817212*
X910267Y2820665*
X907594Y2824110*
X904629Y2827539*
X901366Y2830956*
X919043Y2848633*
X922460Y2845370*
G37*
G36*
X2171629Y2828673D02*
X2169712Y2825456D01*
X2168023Y2822043*
X2166559Y2818437*
X2165318Y2814637*
X2164303Y2810641*
X2163515Y2806452*
X2162948Y2802070*
X2162614Y2797496*
X2162500Y2792728*
X2137500*
X2137385Y2797496*
X2136484Y2806452*
X2135696Y2810641*
X2134681Y2814637*
X2133440Y2818437*
X2131976Y2822043*
X2130287Y2825456*
X2128370Y2828673*
X2126228Y2831700*
X2173771*
X2171629Y2828673*
G37*
G36*
X2162618Y2741586D02*
X2162980Y2737338D01*
X2163578Y2733586*
X2164417Y2730334*
X2165496Y2727586*
X2166814Y2725334*
X2168374Y2723586*
X2170169Y2722334*
X2172208Y2721586*
X2174484Y2721334*
X2125511*
X2127791Y2721586*
X2129826Y2722334*
X2131625Y2723586*
X2133185Y2725334*
X2134503Y2727586*
X2135582Y2730334*
X2136421Y2733586*
X2137019Y2737338*
X2137381Y2741586*
X2137500Y2746338*
X2162500*
X2162618Y2741586*
G37*
G36*
X1762570D02*
X1763129Y2733917D01*
X1763618Y2730456*
X1764248Y2727251*
X1765019Y2724299*
X1765929Y2721598*
X1766980Y2719149*
X1767972Y2717314*
X1770011Y2716098*
X1772547Y2714885*
X1775311Y2713834*
X1778299Y2712944*
X1781515Y2712220*
X1784960Y2711653*
X1788629Y2711248*
X1796653Y2710925*
X1794791Y2685925*
X1790484Y2685866*
X1779255Y2684980*
X1776074Y2684452*
X1773173Y2683803*
X1770551Y2683035*
X1768212Y2682153*
X1766153Y2681149*
X1764377Y2680031*
X1765496Y2715011*
X1730503*
X1731830Y2716952*
X1733019Y2719149*
X1734070Y2721598*
X1734980Y2724299*
X1735751Y2727251*
X1736381Y2730456*
X1736870Y2733917*
X1737429Y2741586*
X1737500Y2745799*
X1762500*
X1762570Y2741586*
G37*
G36*
X2125633Y2673425D02*
X2125377Y2675799D01*
X2124618Y2677925*
X2123358Y2679799*
X2121598Y2681425*
X2119338Y2682799*
X2116574Y2683925*
X2113311Y2684799*
X2109547Y2685425*
X2105279Y2685799*
X2100515Y2685925*
Y2710925*
X2105263Y2711027*
X2113263Y2711862*
X2116511Y2712590*
X2119263Y2713527*
X2121515Y2714673*
X2123263Y2716027*
X2124515Y2717586*
X2125263Y2719358*
X2125511Y2721334*
X2125633Y2673425*
G37*
G36*
X1011043Y2652330D02*
X1011405Y2647877D01*
X1012003Y2643602*
X1012842Y2639503*
X1013921Y2635578*
X1015240Y2631834*
X1016799Y2628267*
X1018594Y2624877*
X1020633Y2621665*
X1022909Y2618629*
X976129Y2617381*
X977992Y2620185*
X979657Y2623208*
X981125Y2626460*
X982397Y2629933*
X983476Y2633633*
X984358Y2637555*
X985043Y2641700*
X985826Y2650665*
X985925Y2655484*
X1010925Y2656960*
X1011043Y2652330*
G37*
G36*
X1171326Y2779059D02*
X1169476Y2775929D01*
X1167838Y2772598*
X1166421Y2769070*
X1165224Y2765342*
X1164244Y2761417*
X1163480Y2757291*
X1162937Y2752968*
X1162610Y2748444*
X1162500Y2743720*
X1137500*
X1137389Y2748444*
X1136519Y2757291*
X1135755Y2761417*
X1134775Y2765342*
X1133578Y2769070*
X1132161Y2772598*
X1130523Y2775929*
X1128673Y2779059*
X1126602Y2781988*
X1173397*
X1171326Y2779059*
G37*
G36*
X1221326Y2579059D02*
X1219472Y2575929D01*
X1217838Y2572598*
X1216425Y2569070*
X1215224Y2565342*
X1214244Y2561417*
X1213480Y2557291*
X1212937Y2552968*
X1212610Y2548444*
X1212500Y2543720*
X1187500*
X1187389Y2548444*
X1186519Y2557291*
X1185755Y2561417*
X1184775Y2565342*
X1183578Y2569070*
X1182161Y2572598*
X1180523Y2575929*
X1178673Y2579059*
X1176602Y2581988*
X1223397*
X1221326Y2579059*
G37*
G36*
X1321669Y2579433D02*
X1319909Y2576350D01*
X1318358Y2573059*
X1317011Y2569555*
X1315874Y2565842*
X1314944Y2561917*
X1314220Y2557779*
X1313700Y2553433*
X1313287Y2544102*
X1288287Y2543366*
X1288173Y2548043*
X1287255Y2556830*
X1286456Y2560944*
X1285425Y2564870*
X1284169Y2568606*
X1282681Y2572157*
X1280964Y2575519*
X1279019Y2578692*
X1276846Y2581677*
X1323633Y2582303*
X1321669Y2579433*
G37*
G36*
X1313362Y2492078D02*
X1313964Y2484456D01*
X1314496Y2481003*
X1315173Y2477791*
X1316003Y2474818*
X1316984Y2472086*
X1318114Y2469590*
X1319397Y2467334*
X1320830Y2465318*
X1281838Y2464696*
X1283062Y2466559*
X1284161Y2468692*
X1285125Y2471090*
X1285964Y2473751*
X1286673Y2476681*
X1287255Y2479877*
X1288031Y2487062*
X1288224Y2491059*
X1288287Y2495314*
X1313287Y2496248*
X1313362Y2492078*
G37*
G36*
X1452141Y647551D02*
X1453192Y645440D01*
X1454940Y643578*
X1457389Y641968*
X1460539Y640602*
X1464385Y639484*
X1468933Y638618*
X1474177Y637996*
X1480122Y637625*
X1486771Y637500*
Y612500*
X1480122Y612374*
X1468933Y611381*
X1464385Y610515*
X1460539Y609397*
X1457389Y608031*
X1454940Y606421*
X1453192Y604559*
X1452141Y602448*
X1451795Y600094*
Y649905*
X1452141Y647551*
G37*
G36*
Y547551D02*
X1453192Y545440D01*
X1454940Y543578*
X1457389Y541968*
X1460539Y540602*
X1464385Y539484*
X1468933Y538618*
X1474177Y537996*
X1480122Y537625*
X1486771Y537500*
Y512500*
X1480122Y512374*
X1468933Y511381*
X1464385Y510515*
X1460539Y509397*
X1457389Y508031*
X1454940Y506421*
X1453192Y504559*
X1452141Y502448*
X1451795Y500094*
Y549905*
X1452141Y547551*
G37*
G36*
X1971629Y2578673D02*
X1969712Y2575456D01*
X1968023Y2572043*
X1966559Y2568437*
X1965318Y2564633*
X1964303Y2560641*
X1963515Y2556452*
X1962952Y2552070*
X1962614Y2547496*
X1962500Y2542728*
X1937500*
X1937385Y2547496*
X1936484Y2556452*
X1935696Y2560641*
X1934681Y2564633*
X1933440Y2568437*
X1931976Y2572043*
X1930287Y2575456*
X1928370Y2578673*
X1926228Y2581700*
X1973771*
X1971629Y2578673*
G37*
G36*
X1962562Y2437988D02*
X1963496Y2427244D01*
X1964055Y2424188*
X1964740Y2421393*
X1965547Y2418858*
X1966480Y2416590*
X1967535Y2414582*
X1968716Y2412834*
X1931283*
X1932464Y2414582*
X1933519Y2416590*
X1934452Y2418858*
X1935259Y2421393*
X1935944Y2424188*
X1936503Y2427244*
X1937251Y2434141*
X1937437Y2437988*
X1937500Y2442090*
X1962500*
X1962562Y2437988*
G37*
G36*
X392755Y2239240D02*
X392051Y2236940D01*
Y2234291*
X392755Y2231283*
X394169Y2227925*
X396291Y2224212*
X399122Y2220149*
X402657Y2215728*
X411850Y2205826*
X394169Y2188149*
X389043Y2193102*
X379850Y2200877*
X375787Y2203708*
X372074Y2205826*
X368716Y2207244*
X365708Y2207948*
X363059*
X360759Y2207244*
X358814Y2205826*
X394169Y2241185*
X392755Y2239240*
G37*
G36*
X1398204Y1300094D02*
X1397858Y1302448D01*
X1396807Y1304559*
X1395059Y1306421*
X1392610Y1308031*
X1389460Y1309397*
X1385614Y1310515*
X1381066Y1311381*
X1375822Y1312003*
X1369874Y1312377*
X1363228Y1312500*
Y1337500*
X1369874Y1337625*
X1381066Y1338618*
X1385614Y1339484*
X1389460Y1340602*
X1392610Y1341964*
X1395059Y1343578*
X1396807Y1345440*
X1397858Y1347551*
X1398204Y1349905*
Y1300094*
G37*
G36*
X382897Y1880803D02*
X388803Y1876960D01*
X394724Y1873570*
X400669Y1870633*
X406633Y1868149*
X412622Y1866114*
X418629Y1864535*
X424661Y1863405*
X430712Y1862724*
X436783Y1862500*
Y1837500*
X430712Y1837275*
X424661Y1836594*
X418629Y1835464*
X412622Y1833885*
X406633Y1831850*
X400669Y1829366*
X394724Y1826429*
X388803Y1823039*
X382897Y1819196*
X377019Y1814901*
Y1885098*
X382897Y1880803*
G37*
G36*
X1398204Y1200094D02*
X1397858Y1202448D01*
X1396807Y1204559*
X1395059Y1206421*
X1392610Y1208031*
X1389460Y1209397*
X1385614Y1210515*
X1381066Y1211381*
X1375822Y1212003*
X1369874Y1212374*
X1363228Y1212500*
Y1237500*
X1369874Y1237622*
X1381066Y1238618*
X1385614Y1239484*
X1389460Y1240602*
X1392610Y1241964*
X1395059Y1243578*
X1396807Y1245440*
X1397858Y1247551*
X1398204Y1249905*
Y1200094*
G37*
G36*
X394303Y1472625D02*
X395055Y1470500D01*
X396311Y1468625*
X398070Y1467000*
X400330Y1465625*
X403094Y1464500*
X406362Y1463625*
X410125Y1463000*
X414397Y1462625*
X419169Y1462500*
Y1437500*
X414397Y1437374*
X410125Y1437000*
X406362Y1436374*
X403094Y1435500*
X400330Y1434374*
X398070Y1433000*
X396311Y1431374*
X395055Y1429500*
X394303Y1427374*
X394051Y1425000*
Y1475000*
X394303Y1472625*
G37*
G36*
X1398204Y1100094D02*
X1397858Y1102448D01*
X1396807Y1104559*
X1395059Y1106421*
X1392610Y1108035*
X1389460Y1109397*
X1385614Y1110515*
X1381066Y1111381*
X1375822Y1112003*
X1369874Y1112377*
X1363228Y1112500*
Y1137500*
X1369874Y1137625*
X1381066Y1138618*
X1385614Y1139484*
X1389460Y1140602*
X1392610Y1141968*
X1395059Y1143578*
X1396807Y1145440*
X1397858Y1147551*
X1398204Y1149905*
Y1100094*
G37*
G36*
X3547984Y1014901D02*
X3542102Y1019196D01*
X3536196Y1023039*
X3530275Y1026429*
X3524330Y1029366*
X3518366Y1031850*
X3512377Y1033885*
X3506370Y1035464*
X3500338Y1036594*
X3494291Y1037275*
X3488216Y1037500*
Y1062500*
X3494291Y1062724*
X3500338Y1063405*
X3506370Y1064535*
X3512377Y1066114*
X3518366Y1068149*
X3524330Y1070633*
X3530275Y1073570*
X3536196Y1076960*
X3542102Y1080803*
X3547984Y1085094*
Y1014901*
G37*
G36*
X2052141Y847551D02*
X2053192Y845440D01*
X2054940Y843578*
X2057389Y841968*
X2060539Y840602*
X2064385Y839484*
X2068933Y838618*
X2074177Y837996*
X2080125Y837625*
X2086767Y837500*
Y812500*
X2080125Y812374*
X2068933Y811381*
X2064385Y810515*
X2060539Y809397*
X2057389Y808031*
X2054940Y806421*
X2053192Y804559*
X2052141Y802448*
X2051795Y800094*
Y849905*
X2052141Y847551*
G37*
G36*
X382897Y1080803D02*
X388803Y1076960D01*
X394724Y1073570*
X400669Y1070633*
X406633Y1068149*
X412622Y1066114*
X418629Y1064535*
X424661Y1063405*
X430712Y1062724*
X436783Y1062500*
Y1037500*
X430712Y1037275*
X424661Y1036594*
X418629Y1035464*
X412622Y1033885*
X406633Y1031850*
X400669Y1029366*
X394724Y1026429*
X388803Y1023039*
X382897Y1019196*
X377019Y1014901*
Y1085094*
X382897Y1080803*
G37*
G36*
X1398204Y1000094D02*
X1397858Y1002448D01*
X1396807Y1004559*
X1395059Y1006421*
X1392610Y1008031*
X1389460Y1009397*
X1385614Y1010515*
X1381066Y1011381*
X1375822Y1012003*
X1369874Y1012374*
X1363228Y1012500*
Y1037500*
X1369874Y1037622*
X1381066Y1038618*
X1385614Y1039484*
X1389460Y1040602*
X1392610Y1041968*
X1395059Y1043578*
X1396807Y1045440*
X1397858Y1047551*
X1398204Y1049905*
Y1000094*
G37*
G36*
X3580712Y1806078D02*
X3573519Y1804956D01*
X3566625Y1803500*
X3560043Y1801708*
X3553763Y1799578*
X3547787Y1797118*
X3542114Y1794322*
X3536748Y1791192*
X3531685Y1787728*
X3526929Y1783929*
X3522472Y1779795*
X3504795Y1797472*
X3508929Y1801929*
X3512728Y1806685*
X3516192Y1811748*
X3519322Y1817114*
X3522118Y1822787*
X3524578Y1828763*
X3526704Y1835043*
X3528500Y1841629*
X3529956Y1848519*
X3531078Y1855712*
X3580712Y1806078*
G37*
G36*
X2052968Y946803D02*
X2053937Y944692D01*
X2055610Y942830*
X2057988Y941216*
X2061074Y939854*
X2064870Y938736*
X2069366Y937870*
X2074570Y937248*
X2080480Y936874*
X2087098Y936751*
X2086370Y911751*
X2079708Y911625*
X2068460Y910633*
X2063874Y909767*
X2059980Y908649*
X2056779Y907283*
X2054267Y905673*
X2052444Y903811*
X2051318Y901700*
X2050881Y899346*
X2052704Y949157*
X2052968Y946803*
G37*
G36*
X1420952Y893590D02*
X1419059Y895035D01*
X1416854Y895811*
X1414330Y895925*
X1411492Y895370*
X1408342Y894145*
X1404874Y892259*
X1401090Y889708*
X1396996Y886488*
X1392582Y882602*
X1387854Y878051*
X1370177Y895728*
X1374771Y900496*
X1381956Y909090*
X1384551Y912913*
X1386480Y916421*
X1387744Y919614*
X1388342Y922492*
X1388271Y925055*
X1387535Y927299*
X1386137Y929232*
X1420952Y893590*
G37*
G36*
X1262614Y702503D02*
X1263515Y693547D01*
X1264303Y689358*
X1265318Y685366*
X1266559Y681562*
X1268023Y677956*
X1269712Y674543*
X1271629Y671326*
X1273771Y668299*
X1226228*
X1228370Y671326*
X1230287Y674543*
X1231976Y677956*
X1233440Y681562*
X1234681Y685366*
X1235696Y689358*
X1236484Y693547*
X1237047Y697929*
X1237385Y702503*
X1237500Y707271*
X1262500*
X1262614Y702503*
G37*
G36*
X1121326Y2579059D02*
X1119476Y2575929D01*
X1117838Y2572598*
X1116421Y2569070*
X1115224Y2565342*
X1114244Y2561417*
X1113480Y2557291*
X1112937Y2552968*
X1112610Y2548444*
X1112500Y2543720*
X1087500*
X1087389Y2548444*
X1086519Y2557291*
X1085755Y2561417*
X1084775Y2565342*
X1083578Y2569070*
X1082161Y2572598*
X1080527Y2575929*
X1078673Y2579059*
X1076602Y2581988*
X1123397*
X1121326Y2579059*
G37*
G36*
X1452141Y747551D02*
X1453192Y745440D01*
X1454940Y743578*
X1457389Y741964*
X1460539Y740602*
X1464385Y739484*
X1468933Y738618*
X1474177Y737996*
X1480122Y737622*
X1486771Y737500*
Y712500*
X1480122Y712377*
X1468933Y711381*
X1464385Y710515*
X1460539Y709397*
X1457389Y708035*
X1454940Y706421*
X1453192Y704559*
X1452141Y702448*
X1451795Y700094*
Y749905*
X1452141Y747551*
G37*
G36*
X641149Y626228D02*
X638122Y628370D01*
X634905Y630287*
X631492Y631976*
X627885Y633440*
X624086Y634681*
X620090Y635696*
X615901Y636484*
X611519Y637047*
X606944Y637385*
X602177Y637500*
Y662500*
X606944Y662614*
X615901Y663515*
X620090Y664303*
X624086Y665318*
X627885Y666559*
X631492Y668023*
X634905Y669712*
X638122Y671629*
X641149Y673771*
Y626228*
G37*
G36*
X394303Y672625D02*
X395055Y670500D01*
X396311Y668625*
X398070Y667000*
X400330Y665625*
X403094Y664500*
X406362Y663625*
X410125Y663000*
X414397Y662625*
X419169Y662500*
Y637500*
X414397Y637374*
X410125Y637000*
X406362Y636374*
X403094Y635500*
X400330Y634374*
X398070Y633000*
X396311Y631374*
X395055Y629500*
X394303Y627374*
X394051Y625000*
Y675000*
X394303Y672625*
G37*
G36*
X1428826Y793590D02*
X1426562Y794665D01*
X1424027Y795114*
X1421220Y794940*
X1418145Y794145*
X1414799Y792732*
X1411181Y790692*
X1407295Y788035*
X1403133Y784755*
X1398708Y780854*
X1394007Y776330*
X1372850Y790527*
X1377279Y795133*
X1384070Y803330*
X1386433Y806921*
X1388102Y810169*
X1389078Y813082*
X1389366Y815653*
X1388960Y817881*
X1387866Y819775*
X1386078Y821326*
X1428826Y793590*
G37*
G36*
X1262614Y527503D02*
X1263515Y518547D01*
X1264303Y514358*
X1265318Y510366*
X1266559Y506562*
X1268023Y502956*
X1269712Y499543*
X1271629Y496326*
X1273771Y493299*
X1226228*
X1228370Y496326*
X1230287Y499543*
X1231976Y502956*
X1233440Y506562*
X1234681Y510366*
X1235696Y514358*
X1236484Y518547*
X1237047Y522929*
X1237385Y527503*
X1237500Y532271*
X1262500*
X1262614Y527503*
G37*
G36*
X2052141Y747551D02*
X2053192Y745440D01*
X2054940Y743578*
X2057389Y741964*
X2060539Y740602*
X2064385Y739484*
X2068933Y738618*
X2074177Y737996*
X2080125Y737622*
X2086767Y737500*
Y712500*
X2080125Y712377*
X2068933Y711381*
X2064385Y710515*
X2060539Y709397*
X2057389Y708035*
X2054940Y706421*
X2053192Y704559*
X2052141Y702448*
X2051795Y700094*
Y749905*
X2052141Y747551*
G37*
G36*
X3551586Y419582D02*
X3546881Y422988D01*
X3542086Y426031*
X3537196Y428720*
X3532208Y431051*
X3527129Y433019*
X3521956Y434633*
X3516688Y435885*
X3511326Y436783*
X3505870Y437322*
X3500318Y437500*
Y462500*
X3505870Y462681*
X3511326Y463216*
X3516688Y464114*
X3521956Y465366*
X3527129Y466980*
X3532208Y468948*
X3537196Y471279*
X3542086Y473968*
X3546881Y477011*
X3551586Y480417*
Y419582*
G37*
G36*
X663318Y445251D02*
X659665Y444625D01*
X656031Y443704*
X652425Y442488*
X648838Y440972*
X645275Y439161*
X641732Y437055*
X638212Y434653*
X634716Y431952*
X631244Y428956*
X627791Y425665*
X610114Y443342*
X613405Y446791*
X619102Y453763*
X621503Y457283*
X623610Y460826*
X625421Y464389*
X626937Y467976*
X628153Y471582*
X629074Y475216*
X629700Y478870*
X663318Y445251*
G37*
G36*
X382775Y280929D02*
X394562Y273649D01*
X400393Y270688*
X406177Y268188*
X411921Y266141*
X417618Y264547*
X423271Y263409*
X428881Y262728*
X434448Y262500*
Y237500*
X428881Y237271*
X423271Y236590*
X417618Y235452*
X411921Y233858*
X406177Y231811*
X400393Y229311*
X394562Y226350*
X388692Y222940*
X382775Y219070*
X376814Y214748*
Y285251*
X382775Y280929*
G37*
G36*
X2052141Y647551D02*
X2053192Y645440D01*
X2054940Y643578*
X2057389Y641968*
X2060539Y640602*
X2064385Y639484*
X2068933Y638618*
X2074177Y637996*
X2080125Y637625*
X2086767Y637500*
Y612500*
X2080125Y612374*
X2068933Y611381*
X2064385Y610515*
X2060539Y609397*
X2057389Y608031*
X2054940Y606421*
X2053192Y604559*
X2052141Y602448*
X2051795Y600094*
Y649905*
X2052141Y647551*
G37*
G36*
X3541870Y304129D02*
X3551078Y296330D01*
X3555149Y293488*
X3558862Y291354*
X3562220Y289929*
X3565220Y289208*
X3567866Y289196*
X3570157Y289893*
X3572090Y291295*
X3536854Y256059*
X3538255Y257992*
X3538952Y260283*
X3538940Y262929*
X3538220Y265929*
X3536795Y269287*
X3534661Y273000*
X3531818Y277070*
X3528271Y281496*
X3519055Y291413*
X3536736Y309094*
X3541870Y304129*
G37*
G54D13*
X2250000Y3125000D02*
X2255314Y3119685D01*
X2312913*
X2487086Y3080314D02*
X2530314D01*
X2312913D02*
Y3100000D01*
X2260629Y3060629D02*
X2312913D01*
Y3100000D02*
X2400000D01*
X2487086*
Y2850000D02*
X2740551D01*
X2487086D02*
Y3060629D01*
Y2812086D02*
Y2850000D01*
X2450000Y2700000D02*
Y2775000D01*
X2487086Y2812086*
X3200000Y3450000D02*
Y3500000D01*
X3119685Y3580314D02*
Y3681889D01*
Y3580314D02*
X3200000Y3500000D01*
X3050000Y3450000D02*
Y3550000D01*
X3080314Y3580314D02*
Y3681889D01*
X3050000Y3550000D02*
X3080314Y3580314D01*
X40003Y3845011D02*
X59996D01*
X50000*
Y3904992*
X40003Y3894992*
G54D17*
X3208267Y3681889D03*
X2991732D03*
G54D18*
X3159842Y3681889D03*
X3040157D03*
G54D19*
X3119685Y3681889D03*
X3080314D03*
G54D20*
X2285409Y3401846D03*
X2414590Y3398153D03*
G54D22*
X3270078Y3681889D03*
X2929921D03*
X3270078Y3831496D03*
X2929921D03*
G54D40*
X2487086Y3060629D03*
Y3080314D03*
Y3100000D03*
Y3119685D03*
Y3139370D03*
X2312913D03*
Y3119685D03*
Y3100000D03*
Y3080314D03*
Y3060629D03*
G54D41*
X2950000Y1050000D02*
X3575000D01*
X2725000Y825000D02*
X2950000Y1050000D01*
X2025000Y825000D02*
X2725000D01*
X2025000Y625000D02*
X2675000D01*
X2922984Y377019D02*
X3451133D01*
X2675000Y625000D02*
X2922984Y377019D01*
X3451133D02*
X3575000Y253149D01*
X2025000Y925000D02*
X2025748Y924251D01*
X1275000Y1325000D02*
X1425000D01*
X350000Y2250000D02*
X1275000Y1325000D01*
X1075000Y1225000D02*
X1425000D01*
X350000Y1850000D02*
X450000D01*
X1075000Y1225000*
X1050000Y1125000D02*
X1425000D01*
X725000Y1450000D02*
X1050000Y1125000D01*
X350000Y1450000D02*
X725000D01*
X875000Y1025000D02*
X1425000D01*
X850000Y1050000D02*
X875000Y1025000D01*
X350000Y1050000D02*
X850000D01*
X1250000Y757874D02*
X1417125Y925000D01*
X1250000Y650000D02*
Y757874D01*
X1417125Y925000D02*
X1425000D01*
X1325000Y725000D02*
X1425000Y825000D01*
X1250000Y567236D02*
X1325000Y642236D01*
X1250000Y475000D02*
Y567236D01*
X1325000Y642236D02*
Y725000D01*
X1800000D02*
Y1650000D01*
X1600000Y525000D02*
X1800000Y725000D01*
X1200000Y2179291D02*
X1750000Y1629287D01*
Y800000D02*
Y1629287D01*
X1575000Y625000D02*
X1750000Y800000D01*
X1425000Y525000D02*
X1600000D01*
X1425000Y625000D02*
X1575000D01*
X1425000Y725000D02*
X1550000D01*
X1700000Y875000*
Y1608578*
X1100000Y2208578D02*
X1700000Y1608578D01*
X1250000Y2200000D02*
Y2632893D01*
X1150000Y2732893D02*
Y2800000D01*
Y2732893D02*
X1250000Y2632893D01*
X1200000Y2179291D02*
Y2600000D01*
X1100000Y2208578D02*
Y2600000D01*
X1250000Y2200000D02*
X1800000Y1650000D01*
X434448Y250000D02*
X659448Y475000D01*
X2225000Y3150000D02*
X2250000Y3125000D01*
X2530314Y3080314D02*
X2600000Y3150000D01*
X1750000Y2700000D02*
X1751574Y2698425D01*
X2148425*
X2150000Y2696850*
X1750000Y2878200D02*
Y3030118D01*
Y2700000D02*
Y2878200D01*
X1050000Y2800000D02*
X1128200Y2878200D01*
X1750000*
X1300787Y2450787D02*
Y2599212D01*
Y2450787D02*
X1301574Y2450000D01*
X1300000Y2600000D02*
X1300787Y2599212D01*
X2025000Y725000D02*
X2700000D01*
X2975000Y450000*
X3575000*
X2649251Y924251D02*
X3575000Y1850000D01*
X2025748Y924251D02*
X2649251D01*
X350000Y650000D02*
X650000D01*
X350000Y250000D02*
X434448D01*
X800000Y3300000D02*
Y3600000D01*
Y2950000D02*
Y3300000D01*
X875000*
X700000D02*
X800000D01*
Y2950000D02*
X950000Y2800000D01*
X998425Y3150000D02*
Y3598425D01*
Y2601574D02*
Y3150000D01*
X1075000*
X900000D02*
X998425D01*
X1543996Y3393996D02*
X1550000Y3400000D01*
X1430118Y3300000D02*
X1524114Y3393996D01*
X1543996*
X1550000Y3400000D02*
X1630118Y3319881D01*
Y3150000D02*
Y3319881D01*
Y3150000D02*
X1750000Y3030118D01*
X998425Y2601574D02*
X1000000Y2600000D01*
X996850Y3600000D02*
X998425Y3598425D01*
X2189370Y3060629D02*
X2260629D01*
X1950000Y2398425D02*
Y2600000D01*
X2150000Y2696850D02*
Y2850000D01*
X1950000Y3190551D02*
X2059448D01*
X2189370Y3060629*
X2700000Y3000000D02*
Y3100000D01*
X2800000*
X2875000Y3175000*
Y3425000*
X3040157Y3590157*
Y3681889*
X3157381Y3684350D02*
Y3713413D01*
X3142783Y3728011D02*
X3157381Y3713413D01*
X3057216Y3728011D02*
X3142783D01*
X3157381Y3684350D02*
X3159842Y3681889D01*
X3042618Y3684350D02*
Y3713413D01*
X3057216Y3728011*
X3040157Y3681889D02*
X3042618Y3684350D01*
G54D42*
X2474566Y3458129D02*
X2599338Y3582905D01*
X2414590Y3398153D02*
X2474566Y3458129D01*
X2475000Y3400000D02*
Y3457696D01*
X2474566Y3458129D02*
X2475000Y3457696D01*
X2105118Y3269881D02*
X2225000Y3150000D01*
X2105118Y3269881D02*
Y3400000D01*
X2599338Y3582905D02*
X2698086Y3681649D01*
X2600000Y3150000D02*
Y3582244D01*
X2599338Y3582905D02*
X2600000Y3582244D01*
X2698086Y3681649D02*
Y3688637D01*
X2700000Y3690551*
X2105118Y3400000D02*
X2106039Y3400921D01*
X2284484D02*
X2285409Y3401846D01*
X2106039Y3400921D02*
X2284484D01*
G54D43*
X2025000Y325000D03*
Y425000D03*
Y525000D03*
Y625000D03*
Y725000D03*
Y825000D03*
Y925000D03*
Y1025000D03*
Y1125000D03*
Y1225000D03*
Y1325000D03*
Y1425000D03*
Y1525000D03*
Y1625000D03*
X1425000Y325000D03*
Y425000D03*
Y525000D03*
Y625000D03*
Y725000D03*
Y825000D03*
Y925000D03*
Y1025000D03*
Y1125000D03*
Y1225000D03*
Y1325000D03*
Y1425000D03*
Y1525000D03*
Y1625000D03*
G54D44*
X2025000Y1725000D03*
X1425000D03*
G54D45*
X2755905Y196850D03*
X984251D03*
G54D46*
X3543307Y3543307D03*
X393700D03*
G54D47*
X2150000Y2500000D03*
X1750000Y2503149D03*
Y2700000D03*
X1498425Y2450000D03*
X1301574D03*
X2896850Y3000000D03*
G54D48*
X2150000Y2696850D03*
G54D49*
X900000Y2600000D03*
G54D50*
X950000Y2800000D03*
X1000000Y2600000D03*
X1050000Y2800000D03*
X1100000Y2600000D03*
X1150000Y2800000D03*
X1200000Y2600000D03*
X1250000Y2800000D03*
X1300000Y2600000D03*
X1350000Y2800000D03*
X1400000Y2600000D03*
X1450000Y2800000D03*
X1500000Y2600000D03*
X1550000Y2800000D03*
X1600000Y2600000D03*
G54D51*
X1430118Y3300000D03*
X1550000Y3400000D03*
X900000Y3150000D03*
X1630118D03*
X700000Y3300000D03*
G54D52*
X875000Y3300000D03*
X2105118Y3400000D03*
X344881Y3150000D03*
X1075000D03*
X144881Y3300000D03*
G54D53*
X2700000Y3100000D03*
Y3690551D03*
X3200000Y2859448D03*
Y3450000D03*
X3050000Y2859448D03*
Y3450000D03*
X1950000Y3190551D03*
Y2600000D03*
X2740551Y2850000D03*
X2150000D03*
X2450000Y2109448D03*
Y2700000D03*
X659448Y650000D03*
X1250000D03*
X659448Y475000D03*
X1250000D03*
G54D54*
X2700000Y3000000D03*
G54D55*
X1950000Y2398425D03*
Y2300000D03*
G54D56*
X803149Y3600000D03*
X3575000Y450000D03*
G54D57*
X1000000Y3600000D03*
G54D58*
X350000Y2250000D03*
Y1450000D03*
Y650000D03*
X3575000Y1650000D03*
Y850000D03*
G54D59*
X350000Y2050000D03*
Y1850000D03*
Y1250000D03*
Y1050000D03*
Y450000D03*
Y250000D03*
X3575000Y1850000D03*
Y2050000D03*
Y1050000D03*
Y1250000D03*
G54D60*
X3575000Y253149D03*
G54D61*
X2400000Y3100000D03*
M02*